<svg width="893" height="868" viewBox="0 0 893 868" fill="none" xmlns="http://www.w3.org/2000/svg">
<rect x="0.382446" y="0.837769" width="892.382" height="867.162" fill="white"/>
<rect x="0.382446" y="0.837769" width="892.382" height="867.162" fill="white"/>
<circle cx="290.912" cy="555.545" r="6.66631" fill="#C41515"/>
<circle cx="290.912" cy="572.572" r="6.66631" fill="#ECB800"/>
<circle cx="290.912" cy="589.598" r="6.66631" fill="#009900"/>
<rect x="278.832" y="542.26" width="24.162" height="60.6246" rx="12.081" stroke="#5E5E5E" stroke-width="3.14581"/>
<circle cx="593.588" cy="555.545" r="6.66631" fill="#C41515"/>
<circle cx="593.588" cy="572.572" r="6.66631" fill="#ECB800"/>
<circle cx="593.588" cy="589.598" r="6.66631" fill="#009900"/>
<rect x="581.507" y="542.26" width="24.162" height="60.6246" rx="12.081" stroke="#5E5E5E" stroke-width="3.14581"/>
<path d="M335.236 363.853H556.003C556.003 363.853 556.003 545.65 556.003 590.18C556.003 634.71 505.022 644.877 505.022 698.489C505.022 752.102 505.022 793.42 505.022 793.42H386.119C386.119 762.269 386.119 730.596 386.119 698.489C386.119 650.634 335.236 641.038 335.236 598.817C335.236 519.989 335.236 445.479 335.236 363.853Z" fill="#0060FF"/>
<path d="M790.409 442.882L101.327 442.882" stroke="#0060FF" stroke-width="161.738"/>
<path d="M445.868 532.358L445.868 793.421" stroke="#0060FF" stroke-width="118.104"/>
<path d="M446.803 521.538V793.419M504.233 521.538V654.827M387.007 521.538V654.827" stroke="white" stroke-width="2.78858" stroke-dasharray="10.5 10.5"/>
<path d="M341.933 547L352.787 540.734L352.787 553.267L341.933 547ZM362.417 571.322V556.063H364.588V571.322H362.417ZM354.439 548.085H351.702V545.915H354.439L354.439 548.085ZM362.417 556.063C362.417 551.657 358.846 548.085 354.439 548.085L354.439 545.915C360.044 545.915 364.588 550.458 364.588 556.063H362.417Z" fill="white"/>
<path d="M545.469 547L534.615 540.734L534.615 553.267L545.469 547ZM524.985 572.572V556.063H522.814V572.572H524.985ZM532.963 548.085H535.7V545.915H532.963V548.085ZM524.985 556.063C524.985 551.657 528.557 548.085 532.963 548.085V545.915C527.358 545.915 522.814 550.458 522.814 556.063H524.985Z" fill="white"/>
<path d="M498.534 547L487.68 540.734L487.68 553.267L498.534 547ZM478.05 572.572V556.063H475.879V572.572H478.05ZM486.028 548.085H488.765V545.915H486.028V548.085ZM478.05 556.063C478.05 551.657 481.622 548.085 486.028 548.085V545.915C480.423 545.915 475.879 550.458 475.879 556.063H478.05Z" fill="white"/>
<path d="M476.964 528.358L483.231 539.212L470.698 539.212L476.964 528.358ZM475.879 568.9L475.879 538.126L478.05 538.126L478.05 568.9L475.879 568.9Z" fill="white"/>
<path d="M416.298 528.358L422.565 539.212L410.032 539.212L416.298 528.358ZM415.213 568.9L415.213 538.126L417.384 538.126L417.384 568.9L415.213 568.9Z" fill="white"/>
<rect x="352.718" y="115.08" width="171.182" height="248.773" fill="#0060FF"/>
</svg>
