<svg width="893" height="868" viewBox="0 0 893 868" fill="none" xmlns="http://www.w3.org/2000/svg">
<rect x="0.283264" y="0.837769" width="892.382" height="867.162" fill="white"/>
<circle cx="289.912" cy="555.545" r="6.66631" fill="#C41515"/>
<circle cx="289.912" cy="572.572" r="6.66631" fill="#ECB800"/>
<circle cx="289.912" cy="589.598" r="6.66631" fill="#009900"/>
<rect x="277.832" y="542.26" width="24.162" height="60.6246" rx="12.081" stroke="#5E5E5E" stroke-width="3.14581"/>
<circle cx="592.588" cy="555.545" r="6.66631" fill="#C41515"/>
<circle cx="592.588" cy="572.572" r="6.66631" fill="#ECB800"/>
<circle cx="592.588" cy="589.598" r="6.66631" fill="#009900"/>
<rect x="580.507" y="542.26" width="24.162" height="60.6246" rx="12.081" stroke="#5E5E5E" stroke-width="3.14581"/>
<path d="M335.137 363.853H555.904C555.904 363.853 555.904 545.65 555.904 590.18C555.904 634.71 504.923 644.877 504.923 698.489C504.923 752.102 504.923 793.42 504.923 793.42H386.02C386.02 762.269 386.02 730.596 386.02 698.489C386.02 650.634 335.136 641.038 335.136 598.817C335.136 519.989 335.137 445.479 335.137 363.853Z" fill="#0060FF"/>
<path d="M790.31 442.882L101.228 442.882" stroke="#0060FF" stroke-width="161.738"/>
<path d="M445.769 532.358L445.769 793.421" stroke="#0060FF" stroke-width="118.104"/>
<path d="M446.704 521.538V793.419M504.134 521.538V654.827M386.908 521.538V654.827" stroke="white" stroke-width="2.78858" stroke-dasharray="10.5 10.5"/>
<path d="M341.834 547L352.688 540.734L352.688 553.267L341.834 547ZM362.318 571.322V556.063H364.489V571.322H362.318ZM354.34 548.085H351.603V545.915H354.34L354.34 548.085ZM362.318 556.063C362.318 551.657 358.746 548.085 354.34 548.085L354.34 545.915C359.945 545.915 364.489 550.458 364.489 556.063H362.318Z" fill="white"/>
<path d="M394.63 547L405.484 540.734L405.484 553.267L394.63 547ZM415.114 571.322V556.063H417.285V571.322H415.114ZM407.136 548.085H404.398V545.915H407.136L407.136 548.085ZM415.114 556.063C415.114 551.657 411.542 548.085 407.136 548.085L407.136 545.915C412.741 545.915 417.285 550.458 417.285 556.063H415.114Z" fill="white"/>
<path d="M545.37 547L534.516 540.734L534.516 553.267L545.37 547ZM524.886 572.572V556.063H522.715V572.572H524.886ZM532.864 548.085H535.601V545.915H532.864V548.085ZM524.886 556.063C524.886 551.657 528.458 548.085 532.864 548.085V545.915C527.259 545.915 522.715 550.458 522.715 556.063H524.886Z" fill="white"/>
<path d="M498.434 547L487.581 540.734L487.581 553.267L498.434 547ZM477.951 572.572V556.063H475.78V572.572H477.951ZM485.929 548.085H488.666V545.915H485.929V548.085ZM477.951 556.063C477.951 551.657 481.522 548.085 485.929 548.085V545.915C480.324 545.915 475.78 550.458 475.78 556.063H477.951Z" fill="white"/>
<path d="M476.865 528.358L483.132 539.212L470.599 539.212L476.865 528.358ZM475.78 568.9L475.78 538.126L477.951 538.126L477.951 568.9L475.78 568.9Z" fill="white"/>
<path d="M416.199 528.358L422.466 539.212L409.933 539.212L416.199 528.358ZM415.114 568.9L415.114 538.126L417.285 538.126L417.285 568.9L415.114 568.9Z" fill="white"/>
<rect x="352.619" y="115.08" width="171.182" height="248.773" fill="#0060FF"/>
</svg>
