<svg width="790" height="768" viewBox="0 0 790 768" fill="none" xmlns="http://www.w3.org/2000/svg">
<rect x="0.0117188" y="0.374512" width="789.655" height="767.339" fill="white"/>
<circle cx="238.278" cy="496.706" r="6.66631" fill="#C41515"/>
<circle cx="238.278" cy="513.734" r="6.66631" fill="#ECB800"/>
<circle cx="238.278" cy="530.76" r="6.66631" fill="#009900"/>
<rect x="226.198" y="483.422" width="24.162" height="60.6246" rx="12.081" stroke="#5E5E5E" stroke-width="3.14581"/>
<circle cx="540.953" cy="496.706" r="6.66631" fill="#C41515"/>
<circle cx="540.953" cy="513.734" r="6.66631" fill="#ECB800"/>
<circle cx="540.953" cy="530.76" r="6.66631" fill="#009900"/>
<rect x="528.874" y="483.422" width="24.162" height="60.6246" rx="12.081" stroke="#5E5E5E" stroke-width="3.14581"/>
<path d="M283.502 305.015H504.27C504.27 305.015 504.27 486.812 504.27 531.342C504.27 575.872 453.289 586.038 453.289 639.651C453.289 693.263 453.289 734.581 453.289 734.581H334.385C334.385 703.431 334.385 671.758 334.385 639.651C334.385 591.796 283.502 582.2 283.502 539.978C283.502 461.151 283.502 386.641 283.502 305.015Z" fill="#0060FF"/>
<path d="M421.441 371.298L68.5664 371.298" stroke="#0060FF" stroke-width="161.738"/>
<path d="M724.057 371.298L371.182 371.298" stroke="#0060FF" stroke-width="161.738"/>
<path d="M394.135 473.52L394.135 734.582" stroke="#0060FF" stroke-width="118.104"/>
<path d="M395.069 462.7V734.581M452.499 462.7V595.989M335.273 462.7V595.989" stroke="white" stroke-width="2.78858" stroke-dasharray="10.5 10.5"/>
<path d="M290.199 488.162L301.053 481.896L301.053 494.428L290.199 488.162ZM310.683 512.484V497.225H312.854V512.484H310.683ZM302.705 489.247H299.968V487.077H302.705L302.705 489.247ZM310.683 497.225C310.683 492.819 307.111 489.247 302.705 489.247L302.705 487.077C308.31 487.077 312.854 491.62 312.854 497.225H310.683Z" fill="white"/>
<path d="M342.996 488.162L353.85 481.896L353.85 494.428L342.996 488.162ZM363.48 512.484V497.225H365.651V512.484H363.48ZM355.502 489.247H352.764V487.077H355.502L355.502 489.247ZM363.48 497.225C363.48 492.819 359.908 489.247 355.502 489.247L355.502 487.077C361.107 487.077 365.651 491.62 365.651 497.225H363.48Z" fill="white"/>
<path d="M493.734 488.162L482.881 481.896L482.881 494.428L493.734 488.162ZM473.25 513.734V497.225H471.08V513.734H473.25ZM481.228 489.247H483.966V487.077H481.228V489.247ZM473.25 497.225C473.25 492.819 476.822 489.247 481.228 489.247V487.077C475.623 487.077 471.08 491.62 471.08 497.225H473.25Z" fill="white"/>
<path d="M446.801 488.162L435.947 481.896L435.947 494.428L446.801 488.162ZM426.317 513.734V497.225H424.146V513.734H426.317ZM434.295 489.247H437.032V487.077H434.295V489.247ZM426.317 497.225C426.317 492.819 429.889 489.247 434.295 489.247V487.077C428.69 487.077 424.146 491.62 424.146 497.225H426.317Z" fill="white"/>
<path d="M425.23 469.52L431.497 480.374L418.964 480.374L425.23 469.52ZM424.145 510.062L424.145 479.288L426.316 479.288L426.316 510.062L424.145 510.062Z" fill="white"/>
<path d="M364.564 469.52L370.831 480.374L358.298 480.374L364.564 469.52ZM363.479 510.062L363.479 479.288L365.65 479.288L365.65 510.062L363.479 510.062Z" fill="white"/>
<rect x="435.141" y="349.446" width="134.24" height="381.33" transform="rotate(148.227 435.141 349.446)" fill="#0060FF"/>
<rect width="134.24" height="381.33" transform="matrix(0.850138 0.52656 0.52656 -0.850138 321.893 349.446)" fill="#0060FF"/>
</svg>
