<svg width="791" height="768" viewBox="0 0 791 768" fill="none" xmlns="http://www.w3.org/2000/svg">
<rect x="0.548828" y="0.374512" width="789.655" height="767.339" fill="white"/>
<path d="M624.223 161.531L455.156 423.935L115.565 521.429" stroke="#0060FF" stroke-width="119.324"/>
<path d="M387.766 481.869V468.947H383.75V466.59H394.336V468.947H390.298V481.869H387.766ZM394.188 481.869L399.798 466.502H402.242L407.852 481.869H405.211L403.945 478.267H398.008L396.742 481.869H394.188ZM398.794 476.019H403.137L400.976 469.886L398.794 476.019ZM410.263 481.869V466.59H415.785C417.531 466.59 418.928 467.092 419.867 468.03C420.675 468.838 421.133 469.995 421.133 471.414V471.479C421.133 473.836 419.823 475.277 417.968 475.954L421.569 481.869H418.623L415.392 476.477H412.795V481.869H410.263ZM412.795 474.207H415.523C417.51 474.207 418.579 473.182 418.579 471.544V471.523C418.579 469.776 417.466 468.882 415.545 468.882H412.795V474.207ZM430.554 482.087C426.429 482.087 423.57 479.053 423.57 474.338V474.164C423.57 469.689 426.495 466.371 430.576 466.371C432.672 466.371 434.025 466.961 435.422 468.096L433.894 470.082C433.043 469.318 432.082 468.729 430.532 468.729C428.022 468.729 426.189 470.999 426.189 474.142V474.273C426.189 477.722 428.044 479.773 430.663 479.773C431.733 479.773 432.693 479.468 433.37 478.966V475.604H430.161V473.378H435.793V480.232C434.483 481.257 432.737 482.087 430.554 482.087ZM438.992 481.869V466.59H448.617V468.882H441.524V473.029H447.81V475.321H441.524V479.555H448.705V481.869H438.992ZM454.664 481.869V468.947H450.648V466.59H461.234V468.947H457.196V481.869H454.664Z" fill="white"/>
<path d="M251.369 87.7104L422.484 468.1C422.484 698.369 422.484 714.258 422.484 714.258" stroke="#0060FF" stroke-width="164.585"/>
<path d="M215.186 103.985L381.504 468.1C381.504 698.369 381.504 714.258 381.504 714.258" stroke="#0060FF" stroke-width="84.5618"/>
<circle cx="306.79" cy="584.644" r="8.71931" fill="#C41515"/>
<circle cx="306.79" cy="606.914" r="8.71931" fill="#ECB800"/>
<circle cx="306.79" cy="629.184" r="8.71931" fill="#009900"/>
<rect x="290.989" y="567.267" width="31.6031" height="79.295" rx="15.8015" stroke="#5E5E5E" stroke-width="4.11461"/>
<circle cx="543.37" cy="583.255" r="8.71931" fill="#C41515"/>
<circle cx="543.37" cy="605.525" r="8.71931" fill="#ECB800"/>
<circle cx="543.37" cy="627.795" r="8.71931" fill="#009900"/>
<rect x="527.569" y="565.878" width="31.6031" height="79.295" rx="15.8015" stroke="#5E5E5E" stroke-width="4.11461"/>
<path d="M423.176 513.675V714.259M465.545 513.675V714.259M379.061 513.675V714.259" stroke="white" stroke-width="2.05731" stroke-dasharray="7.75 7.75"/>
<path d="M497.449 527.274L489.442 522.651L489.442 531.897L497.449 527.274ZM482.337 551.327V535.503H480.735V551.327H482.337ZM489.765 528.075H490.243L490.243 526.473H489.765V528.075ZM482.337 535.503C482.337 531.401 485.663 528.075 489.765 528.075V526.473C484.778 526.473 480.735 530.516 480.735 535.503H482.337Z" fill="white"/>
<path d="M454.516 527.274L446.508 522.651L446.508 531.898L454.516 527.274ZM439.403 551.327V535.504H437.802V551.327H439.403ZM446.832 528.075H447.309L447.309 526.474H446.832V528.075ZM439.403 535.504C439.403 531.401 442.729 528.075 446.832 528.075V526.474C441.845 526.474 437.802 530.517 437.802 535.504H439.403Z" fill="white"/>
<path d="M346.012 538.063L354.019 533.44L354.019 542.687L346.012 538.063ZM361.124 551.328V546.293H362.725V551.328H361.124ZM353.695 538.864H353.218V537.263H353.695V538.864ZM361.124 546.293C361.124 542.19 357.798 538.864 353.695 538.864V537.263C358.683 537.263 362.725 541.306 362.725 546.293H361.124Z" fill="white"/>
<path d="M401.193 521.619L405.816 529.626L396.57 529.626L401.193 521.619ZM400.393 551.327L400.393 528.825L401.994 528.825L401.994 551.327L400.393 551.327Z" fill="white"/>
<path d="M361.928 521.618L366.551 529.626L357.305 529.626L361.928 521.618ZM361.127 551.327L361.127 528.825L362.728 528.825L362.728 551.327L361.127 551.327Z" fill="white"/>
</svg>
