<svg width="828" height="451" viewBox="0 0 828 451" fill="none" xmlns="http://www.w3.org/2000/svg">
<path d="M554.868 37.1989V32.5828H550.252V30.8485H554.868V26.2324H556.654V30.8485H561.244V32.5828H556.654V37.1989H554.868ZM569.278 40.9734C566.855 40.9734 565.121 39.9533 563.821 38.5251L565.07 37.1734C566.167 38.4231 567.442 39.2137 569.278 39.2137C571.293 39.2137 572.9 37.7855 572.9 35.6177V35.5667C572.9 33.2459 570.936 32.0982 568.182 32.0982H567.493L567.213 30.9251L572.16 24.6257H564.611V22.8405H574.609V24.2942L569.584 30.5425C572.339 30.874 574.838 32.3277 574.838 35.4902V35.5922C574.838 38.8056 572.364 40.9734 569.278 40.9734ZM584.287 40.9734C580.308 40.9734 577.834 37.2244 577.834 31.8942V31.6902C577.834 26.3344 580.359 22.5599 584.312 22.5599C588.291 22.5599 590.765 26.3089 590.765 31.6391V31.8432C590.765 37.1989 588.24 40.9734 584.287 40.9734ZM584.312 39.2392C587.041 39.2392 588.801 36.1533 588.801 31.8687V31.6902C588.801 27.4056 586.99 24.2942 584.287 24.2942C581.558 24.2942 579.798 27.3546 579.798 31.6647V31.8432C579.798 36.1278 581.583 39.2392 584.312 39.2392ZM597.428 30.568C595.54 30.568 593.857 28.9103 593.857 26.666V26.564C593.857 24.3452 595.54 22.6874 597.428 22.6874C599.366 22.6874 601.024 24.3452 601.024 26.564V26.666C601.024 28.9103 599.366 30.568 597.428 30.568ZM597.428 29.2673C598.728 29.2673 599.621 28.1707 599.621 26.666V26.564C599.621 25.1103 598.728 23.9626 597.428 23.9626C596.127 23.9626 595.26 25.1103 595.26 26.564V26.666C595.26 28.1707 596.127 29.2673 597.428 29.2673ZM616.887 40.9734C614.77 40.9734 613.367 39.6472 612.551 38.219V40.6929H610.715V22.2794H612.551V29.9814C613.444 28.4512 614.77 27.1505 616.887 27.1505C619.565 27.1505 622.166 29.4969 622.166 33.909V34.164C622.166 38.5761 619.565 40.9734 616.887 40.9734ZM616.504 39.2902C618.621 39.2902 620.279 37.4284 620.279 34.164V33.96C620.279 30.772 618.544 28.8083 616.504 28.8083C614.387 28.8083 612.475 30.823 612.475 33.9345V34.164C612.475 37.3009 614.387 39.2902 616.504 39.2902ZM630.692 40.9734C627.428 40.9734 624.801 38.3721 624.801 34.164V34.011C624.801 29.9304 627.173 27.1505 630.31 27.1505C633.65 27.1505 635.614 30.0069 635.614 34.011V34.7761H626.663C626.867 37.709 628.652 39.3412 630.769 39.3412C632.222 39.3412 633.293 38.7291 634.212 37.811L635.257 38.9841C634.059 40.2083 632.707 40.9734 630.692 40.9734ZM626.663 33.3479H633.752C633.625 30.7975 632.452 28.7573 630.284 28.7573C628.295 28.7573 626.867 30.5935 626.663 33.3479ZM642.238 40.9734C639.994 40.9734 637.928 39.4687 637.928 36.8419V36.7398C637.928 33.9855 639.917 32.4553 642.85 32.4553C644.278 32.4553 645.273 32.6848 646.268 33.0163V32.2002C646.268 30.0579 645.043 28.9103 642.901 28.9103C641.549 28.9103 640.402 29.3183 639.484 29.8029L638.897 28.2727C640.147 27.6861 641.447 27.2526 643.08 27.2526C644.686 27.2526 645.936 27.6861 646.803 28.5532C647.645 29.3438 648.078 30.5425 648.078 32.1492V40.6929H646.268V38.7546C645.477 39.9788 644.176 40.9734 642.238 40.9734ZM642.621 39.4432C644.635 39.4432 646.293 38.015 646.293 36.1023V34.3935C645.451 34.113 644.38 33.8835 643.08 33.8835C640.937 33.8835 639.79 34.9546 639.79 36.6633V36.7653C639.79 38.4231 640.988 39.4432 642.621 39.4432ZM651.877 40.6929V27.4056H653.713V30.3385C654.504 28.4767 656.111 27.125 658.278 27.2271V29.2163H658.151C655.703 29.2163 653.713 30.9506 653.713 34.368V40.6929H651.877ZM667.156 40.6929V27.4056H668.993V30.3385C669.783 28.4767 671.39 27.125 673.558 27.2271V29.2163H673.43C670.982 29.2163 668.993 30.9506 668.993 34.368V40.6929H667.156ZM676.379 24.6767V22.5089H678.444V24.6767H676.379ZM676.481 40.6929V27.4056H678.317V40.6929H676.481ZM687.408 44.5694C685.648 44.5694 683.965 44.0848 682.358 43.1412L683.097 41.6365C684.347 42.4781 685.852 42.9627 687.382 42.9627C689.907 42.9627 691.437 41.6365 691.437 38.9841V37.0459C690.519 38.5506 689.167 39.7747 687.05 39.7747C684.322 39.7747 681.822 37.5304 681.822 33.5009V33.3989C681.822 29.4204 684.398 27.1505 687.05 27.1505C689.142 27.1505 690.57 28.3747 691.437 29.7774V27.4056H693.299V38.9331C693.299 40.7694 692.763 42.0701 691.82 43.0647C690.774 44.0593 689.32 44.5694 687.408 44.5694ZM687.459 38.117C689.55 38.117 691.514 36.3573 691.514 33.5009V33.4244C691.514 30.568 689.55 28.8083 687.459 28.8083C685.393 28.8083 683.71 30.517 683.71 33.4244V33.4754C683.71 36.3573 685.418 38.117 687.459 38.117ZM697.285 40.6929V22.2794H699.122V29.5734C699.861 28.2472 701.034 27.1505 703.049 27.1505C705.778 27.1505 707.385 28.9868 707.385 31.9707V40.6929H705.548V32.5063C705.548 30.1344 704.426 28.8083 702.488 28.8083C700.55 28.8083 699.122 30.364 699.122 32.6083V40.6929H697.285ZM715.066 40.8969C713.179 40.8969 711.75 39.9788 711.75 37.607V29.0378H710.144V27.4056H711.75V23.5291H713.587V27.4056H717.055V29.0378H713.587V37.3009C713.587 38.7291 714.352 39.1882 715.499 39.1882C716.035 39.1882 716.545 39.0862 717.055 38.8566V40.4378C716.469 40.7184 715.856 40.8969 715.066 40.8969Z" fill="black"/>
<path d="M104.955 40.9734C102.838 40.9734 101.436 39.6472 100.62 38.219V40.6929H98.7833V22.2794H100.62V29.9814C101.512 28.4512 102.838 27.1505 104.955 27.1505C107.633 27.1505 110.234 29.4969 110.234 33.909V34.164C110.234 38.5761 107.633 40.9734 104.955 40.9734ZM104.573 39.2902C106.689 39.2902 108.347 37.4284 108.347 34.164V33.96C108.347 30.772 106.613 28.8083 104.573 28.8083C102.456 28.8083 100.543 30.823 100.543 33.9345V34.164C100.543 37.3009 102.456 39.2902 104.573 39.2902ZM118.761 40.9734C115.496 40.9734 112.869 38.3721 112.869 34.164V34.011C112.869 29.9304 115.241 27.1505 118.378 27.1505C121.719 27.1505 123.683 30.0069 123.683 34.011V34.7761H114.731C114.935 37.709 116.72 39.3412 118.837 39.3412C120.291 39.3412 121.362 38.7291 122.28 37.811L123.326 38.9841C122.127 40.2083 120.775 40.9734 118.761 40.9734ZM114.731 33.3479H121.821C121.693 30.7975 120.52 28.7573 118.352 28.7573C116.363 28.7573 114.935 30.5935 114.731 33.3479ZM130.306 40.9734C128.062 40.9734 125.996 39.4687 125.996 36.8419V36.7398C125.996 33.9855 127.986 32.4553 130.919 32.4553C132.347 32.4553 133.341 32.6848 134.336 33.0163V32.2002C134.336 30.0579 133.112 28.9103 130.97 28.9103C129.618 28.9103 128.47 29.3183 127.552 29.8029L126.965 28.2727C128.215 27.6861 129.516 27.2526 131.148 27.2526C132.755 27.2526 134.004 27.6861 134.872 28.5532C135.713 29.3438 136.147 30.5425 136.147 32.1492V40.6929H134.336V38.7546C133.545 39.9788 132.245 40.9734 130.306 40.9734ZM130.689 39.4432C132.704 39.4432 134.361 38.015 134.361 36.1023V34.3935C133.52 34.113 132.449 33.8835 131.148 33.8835C129.006 33.8835 127.858 34.9546 127.858 36.6633V36.7653C127.858 38.4231 129.057 39.4432 130.689 39.4432ZM139.946 40.6929V27.4056H141.782V30.3385C142.572 28.4767 144.179 27.125 146.347 27.2271V29.2163H146.219C143.771 29.2163 141.782 30.9506 141.782 34.368V40.6929H139.946ZM155.378 40.6929V22.2794H157.214V40.6929H155.378ZM166.56 40.9734C163.295 40.9734 160.668 38.3721 160.668 34.164V34.011C160.668 29.9304 163.04 27.1505 166.177 27.1505C169.518 27.1505 171.482 30.0069 171.482 34.011V34.7761H162.53C162.734 37.709 164.519 39.3412 166.636 39.3412C168.09 39.3412 169.161 38.7291 170.079 37.811L171.125 38.9841C169.926 40.2083 168.574 40.9734 166.56 40.9734ZM162.53 33.3479H169.62C169.493 30.7975 168.319 28.7573 166.152 28.7573C164.162 28.7573 162.734 30.5935 162.53 33.3479ZM175.326 40.6929V29.0378H173.693V27.4311H175.326V26.2069C175.326 24.8297 175.657 23.8096 176.346 23.121C176.983 22.4834 177.825 22.1774 178.922 22.1774C179.636 22.1774 180.171 22.2539 180.681 22.4324V24.0646C180.146 23.8861 179.687 23.8351 179.177 23.8351C177.825 23.8351 177.162 24.6767 177.162 26.3344V27.4311H180.63V29.0378H177.162V40.6929H175.326ZM186.964 40.8969C185.077 40.8969 183.649 39.9788 183.649 37.607V29.0378H182.042V27.4056H183.649V23.5291H185.485V27.4056H188.954V29.0378H185.485V37.3009C185.485 38.7291 186.25 39.1882 187.398 39.1882C187.934 39.1882 188.444 39.0862 188.954 38.8566V40.4378C188.367 40.7184 187.755 40.8969 186.964 40.8969ZM197.833 33.9855V32.0982H204.388V33.9855H197.833ZM212.051 40.9734C209.629 40.9734 207.894 39.9533 206.594 38.5251L207.843 37.1734C208.94 38.4231 210.215 39.2137 212.051 39.2137C214.066 39.2137 215.673 37.7855 215.673 35.6177V35.5667C215.673 33.2459 213.709 32.0982 210.955 32.0982H210.266L209.986 30.9251L214.933 24.6257H207.384V22.8405H217.382V24.2942L212.357 30.5425C215.112 30.874 217.611 32.3277 217.611 35.4902V35.5922C217.611 38.8056 215.137 40.9734 212.051 40.9734ZM227.06 40.9734C223.081 40.9734 220.607 37.2244 220.607 31.8942V31.6902C220.607 26.3344 223.132 22.5599 227.085 22.5599C231.064 22.5599 233.538 26.3089 233.538 31.6391V31.8432C233.538 37.1989 231.013 40.9734 227.06 40.9734ZM227.085 39.2392C229.814 39.2392 231.574 36.1533 231.574 31.8687V31.6902C231.574 27.4056 229.763 24.2942 227.06 24.2942C224.331 24.2942 222.571 27.3546 222.571 31.6647V31.8432C222.571 36.1278 224.356 39.2392 227.085 39.2392ZM240.201 30.568C238.313 30.568 236.63 28.9103 236.63 26.666V26.564C236.63 24.3452 238.313 22.6874 240.201 22.6874C242.139 22.6874 243.797 24.3452 243.797 26.564V26.666C243.797 28.9103 242.139 30.568 240.201 30.568ZM240.201 29.2673C241.501 29.2673 242.394 28.1707 242.394 26.666V26.564C242.394 25.1103 241.501 23.9626 240.201 23.9626C238.9 23.9626 238.033 25.1103 238.033 26.564V26.666C238.033 28.1707 238.9 29.2673 240.201 29.2673Z" fill="black"/>
<path d="M595.868 233.486V228.87H591.252V227.136H595.868V222.52H597.654V227.136H602.244V228.87H597.654V233.486H595.868ZM610.304 235.501C613.211 235.501 614.945 232.211 614.945 228.003C614.002 229.533 612.548 230.502 610.635 230.502C607.549 230.502 605.229 228.385 605.229 224.942V224.891C605.229 221.423 607.6 218.847 610.865 218.847C612.523 218.847 613.798 219.408 614.792 220.403C616.093 221.627 616.858 223.616 616.858 227.34V227.544C616.858 233.588 614.231 237.261 610.278 237.261C608.442 237.261 607.014 236.597 605.688 235.501L606.708 233.971C607.855 234.965 608.952 235.501 610.304 235.501ZM610.865 228.844C613.109 228.844 614.665 227.11 614.665 224.84V224.764C614.665 222.367 613.16 220.556 610.814 220.556C608.57 220.556 607.167 222.469 607.167 224.815V224.866C607.167 227.289 608.723 228.844 610.865 228.844ZM626.283 237.261C622.304 237.261 619.831 233.512 619.831 228.181V227.977C619.831 222.622 622.355 218.847 626.308 218.847C630.287 218.847 632.761 222.596 632.761 227.926V228.13C632.761 233.486 630.236 237.261 626.283 237.261ZM626.308 235.526C629.037 235.526 630.797 232.44 630.797 228.156V227.977C630.797 223.693 628.986 220.581 626.283 220.581C623.554 220.581 621.794 223.642 621.794 227.952V228.13C621.794 232.415 623.58 235.526 626.308 235.526ZM639.424 226.855C637.537 226.855 635.853 225.197 635.853 222.953V222.851C635.853 220.632 637.537 218.975 639.424 218.975C641.362 218.975 643.02 220.632 643.02 222.851V222.953C643.02 225.197 641.362 226.855 639.424 226.855ZM639.424 225.554C640.724 225.554 641.617 224.458 641.617 222.953V222.851C641.617 221.397 640.724 220.25 639.424 220.25C638.123 220.25 637.256 221.397 637.256 222.851V222.953C637.256 224.458 638.123 225.554 639.424 225.554ZM656.613 237.184C654.726 237.184 653.298 236.266 653.298 233.894V225.325H651.691V223.693H653.298V219.816H655.134V223.693H658.602V225.325H655.134V233.588C655.134 235.016 655.899 235.475 657.047 235.475C657.582 235.475 658.092 235.373 658.602 235.144V236.725C658.016 237.005 657.404 237.184 656.613 237.184ZM665.965 237.261C663.236 237.261 661.629 235.399 661.629 232.415V223.693H663.465V231.879C663.465 234.251 664.588 235.577 666.526 235.577C668.439 235.577 669.867 234.098 669.867 231.777V223.693H671.729V236.98H669.867V234.838C669.153 236.138 667.98 237.261 665.965 237.261ZM675.736 236.98V223.693H677.572V226.626C678.363 224.764 679.97 223.412 682.137 223.514V225.503H682.01C679.562 225.503 677.572 227.238 677.572 230.655V236.98H675.736ZM684.907 236.98V223.693H686.744V225.86C687.483 224.534 688.656 223.438 690.671 223.438C693.4 223.438 695.007 225.274 695.007 228.258V236.98H693.17V228.793C693.17 226.422 692.048 225.095 690.11 225.095C688.172 225.095 686.744 226.651 686.744 228.895V236.98H684.907ZM704.943 236.98V223.693H706.78V226.626C707.57 224.764 709.177 223.412 711.345 223.514V225.503H711.217C708.769 225.503 706.78 227.238 706.78 230.655V236.98H704.943ZM714.166 220.964V218.796H716.232V220.964H714.166ZM714.268 236.98V223.693H716.104V236.98H714.268ZM725.195 240.857C723.435 240.857 721.752 240.372 720.145 239.428L720.885 237.924C722.134 238.765 723.639 239.25 725.169 239.25C727.694 239.25 729.224 237.924 729.224 235.271V233.333C728.306 234.838 726.954 236.062 724.838 236.062C722.109 236.062 719.609 233.818 719.609 229.788V229.686C719.609 225.707 722.185 223.438 724.838 223.438C726.929 223.438 728.357 224.662 729.224 226.065V223.693H731.086V235.22C731.086 237.056 730.55 238.357 729.607 239.352C728.561 240.346 727.107 240.857 725.195 240.857ZM725.246 234.404C727.337 234.404 729.301 232.644 729.301 229.788V229.711C729.301 226.855 727.337 225.095 725.246 225.095C723.18 225.095 721.497 226.804 721.497 229.711V229.763C721.497 232.644 723.205 234.404 725.246 234.404ZM735.072 236.98V218.566H736.909V225.86C737.648 224.534 738.821 223.438 740.836 223.438C743.565 223.438 745.172 225.274 745.172 228.258V236.98H743.336V228.793C743.336 226.422 742.213 225.095 740.275 225.095C738.337 225.095 736.909 226.651 736.909 228.895V236.98H735.072ZM752.853 237.184C750.966 237.184 749.538 236.266 749.538 233.894V225.325H747.931V223.693H749.538V219.816H751.374V223.693H754.842V225.325H751.374V233.588C751.374 235.016 752.139 235.475 753.287 235.475C753.822 235.475 754.332 235.373 754.842 235.144V236.725C754.256 237.005 753.644 237.184 752.853 237.184Z" fill="black"/>
<path d="M76.3649 237.184C74.4777 237.184 73.0495 236.266 73.0495 233.894V225.325H71.4428V223.693H73.0495V219.816H74.8857V223.693H78.3542V225.325H74.8857V233.588C74.8857 235.016 75.6508 235.475 76.7985 235.475C77.3341 235.475 77.8441 235.373 78.3542 235.144V236.725C77.7676 237.005 77.1555 237.184 76.3649 237.184ZM85.7166 237.261C82.9877 237.261 81.381 235.399 81.381 232.415V223.693H83.2172V231.879C83.2172 234.251 84.3394 235.577 86.2776 235.577C88.1904 235.577 89.6186 234.098 89.6186 231.777V223.693H91.4803V236.98H89.6186V234.838C88.9045 236.138 87.7313 237.261 85.7166 237.261ZM95.4878 236.98V223.693H97.324V226.626C98.1146 224.764 99.7214 223.412 101.889 223.514V225.503H101.762C99.3133 225.503 97.324 227.238 97.324 230.655V236.98H95.4878ZM104.659 236.98V223.693H106.495V225.86C107.235 224.534 108.408 223.438 110.423 223.438C113.152 223.438 114.758 225.274 114.758 228.258V236.98H112.922V228.793C112.922 226.422 111.8 225.095 109.862 225.095C107.924 225.095 106.495 226.651 106.495 228.895V236.98H104.659ZM124.848 236.98V218.566H126.685V236.98H124.848ZM136.03 237.261C132.766 237.261 130.139 234.659 130.139 230.451V230.298C130.139 226.218 132.511 223.438 135.648 223.438C138.989 223.438 140.952 226.294 140.952 230.298V231.063H132.001C132.205 233.996 133.99 235.628 136.107 235.628C137.56 235.628 138.632 235.016 139.55 234.098L140.595 235.271C139.397 236.495 138.045 237.261 136.03 237.261ZM132.001 229.635H139.091C138.963 227.085 137.79 225.044 135.622 225.044C133.633 225.044 132.205 226.881 132.001 229.635ZM144.796 236.98V225.325H143.164V223.718H144.796V222.494C144.796 221.117 145.128 220.097 145.816 219.408C146.454 218.771 147.296 218.464 148.392 218.464C149.106 218.464 149.642 218.541 150.152 218.72V220.352C149.616 220.173 149.157 220.122 148.647 220.122C147.296 220.122 146.632 220.964 146.632 222.622V223.718H150.101V225.325H146.632V236.98H144.796ZM156.435 237.184C154.548 237.184 153.12 236.266 153.12 233.894V225.325H151.513V223.693H153.12V219.816H154.956V223.693H158.424V225.325H154.956V233.588C154.956 235.016 155.721 235.475 156.869 235.475C157.404 235.475 157.914 235.373 158.424 235.144V236.725C157.838 237.005 157.226 237.184 156.435 237.184ZM167.304 230.273V228.385H173.858V230.273H167.304ZM181.946 235.501C184.853 235.501 186.587 232.211 186.587 228.003C185.644 229.533 184.19 230.502 182.277 230.502C179.191 230.502 176.871 228.385 176.871 224.942V224.891C176.871 221.423 179.242 218.847 182.507 218.847C184.165 218.847 185.44 219.408 186.434 220.403C187.735 221.627 188.5 223.616 188.5 227.34V227.544C188.5 233.588 185.873 237.261 181.92 237.261C180.084 237.261 178.656 236.597 177.33 235.501L178.35 233.971C179.498 234.965 180.594 235.501 181.946 235.501ZM182.507 228.844C184.751 228.844 186.307 227.11 186.307 224.84V224.764C186.307 222.367 184.802 220.556 182.456 220.556C180.212 220.556 178.809 222.469 178.809 224.815V224.866C178.809 227.289 180.365 228.844 182.507 228.844ZM197.925 237.261C193.946 237.261 191.473 233.512 191.473 228.181V227.977C191.473 222.622 193.997 218.847 197.95 218.847C201.929 218.847 204.403 222.596 204.403 227.926V228.13C204.403 233.486 201.878 237.261 197.925 237.261ZM197.95 235.526C200.679 235.526 202.439 232.44 202.439 228.156V227.977C202.439 223.693 200.628 220.581 197.925 220.581C195.196 220.581 193.436 223.642 193.436 227.952V228.13C193.436 232.415 195.222 235.526 197.95 235.526ZM211.066 226.855C209.179 226.855 207.495 225.197 207.495 222.953V222.851C207.495 220.632 209.179 218.975 211.066 218.975C213.004 218.975 214.662 220.632 214.662 222.851V222.953C214.662 225.197 213.004 226.855 211.066 226.855ZM211.066 225.554C212.367 225.554 213.259 224.458 213.259 222.953V222.851C213.259 221.397 212.367 220.25 211.066 220.25C209.765 220.25 208.898 221.397 208.898 222.851V222.953C208.898 224.458 209.765 225.554 211.066 225.554Z" fill="black"/>
<path d="M547.868 413.31V408.694H543.252V406.96H547.868V402.344H549.654V406.96H554.244V408.694H549.654V413.31H547.868ZM559.804 416.804V400.865L556.897 401.91L556.566 400.252L560.264 398.85H561.692V416.804H559.804ZM570.577 417.085C568.461 417.085 566.675 416.167 565.349 414.866L566.497 413.438C567.695 414.56 569.073 415.325 570.603 415.325C572.847 415.325 574.479 413.667 574.479 411.295V411.27C574.479 408.898 572.822 407.521 570.603 407.521C569.302 407.521 568.384 407.852 567.491 408.337L566.242 407.495L566.726 398.952H575.652V400.737H568.384L568.027 406.424C568.869 406.042 569.71 405.787 570.909 405.787C573.944 405.787 576.392 407.674 576.392 411.168V411.244C576.392 414.738 573.944 417.085 570.577 417.085ZM585.761 417.085C581.782 417.085 579.308 413.336 579.308 408.006V407.801C579.308 402.446 581.833 398.671 585.786 398.671C589.765 398.671 592.238 402.42 592.238 407.75V407.955C592.238 413.31 589.714 417.085 585.761 417.085ZM585.786 415.351C588.515 415.351 590.275 412.265 590.275 407.98V407.801C590.275 403.517 588.464 400.405 585.761 400.405C583.032 400.405 581.272 403.466 581.272 407.776V407.955C581.272 412.239 583.057 415.351 585.786 415.351ZM598.901 406.679C597.014 406.679 595.331 405.022 595.331 402.777V402.675C595.331 400.456 597.014 398.799 598.901 398.799C600.84 398.799 602.497 400.456 602.497 402.675V402.777C602.497 405.022 600.84 406.679 598.901 406.679ZM598.901 405.379C600.202 405.379 601.095 404.282 601.095 402.777V402.675C601.095 401.222 600.202 400.074 598.901 400.074C597.601 400.074 596.734 401.222 596.734 402.675V402.777C596.734 404.282 597.601 405.379 598.901 405.379ZM616.091 417.008C614.204 417.008 612.775 416.09 612.775 413.718V405.149H611.169V403.517H612.775V399.64H614.612V403.517H618.08V405.149H614.612V413.412C614.612 414.84 615.377 415.299 616.524 415.299C617.06 415.299 617.57 415.197 618.08 414.968V416.549C617.494 416.83 616.881 417.008 616.091 417.008ZM625.442 417.085C622.714 417.085 621.107 415.223 621.107 412.239V403.517H622.943V411.704C622.943 414.075 624.065 415.402 626.004 415.402C627.916 415.402 629.345 413.922 629.345 411.601V403.517H631.206V416.804H629.345V414.662C628.63 415.963 627.457 417.085 625.442 417.085ZM635.214 416.804V403.517H637.05V406.45C637.841 404.588 639.447 403.236 641.615 403.338V405.328H641.488C639.039 405.328 637.05 407.062 637.05 410.479V416.804H635.214ZM644.385 416.804V403.517H646.221V405.685C646.961 404.359 648.134 403.262 650.149 403.262C652.878 403.262 654.484 405.098 654.484 408.082V416.804H652.648V408.618C652.648 406.246 651.526 404.92 649.588 404.92C647.649 404.92 646.221 406.475 646.221 408.72V416.804H644.385ZM668.017 417.034C666.385 417.034 664.651 416.396 663.223 415.172L664.192 413.82C665.467 414.891 666.768 415.427 668.068 415.427C669.522 415.427 670.568 414.585 670.568 413.361V413.31C670.568 412.163 669.471 411.576 667.635 410.785C665.518 409.893 663.86 409.051 663.86 406.985V406.934C663.86 404.741 665.594 403.313 667.992 403.313C669.522 403.313 671.052 403.899 672.174 404.741L671.282 406.144C670.261 405.404 669.139 404.894 667.941 404.894C666.538 404.894 665.645 405.659 665.645 406.756V406.807C665.645 407.929 666.768 408.465 668.604 409.255C670.797 410.275 672.327 411.117 672.327 413.183V413.208C672.327 415.606 670.415 417.034 668.017 417.034ZM675.56 416.804V398.391H677.396V405.685C678.136 404.359 679.309 403.262 681.324 403.262C684.053 403.262 685.659 405.098 685.659 408.082V416.804H683.823V408.618C683.823 406.246 682.701 404.92 680.763 404.92C678.824 404.92 677.396 406.475 677.396 408.72V416.804H675.56ZM692.906 417.085C690.662 417.085 688.596 415.58 688.596 412.953V412.851C688.596 410.097 690.585 408.567 693.518 408.567C694.946 408.567 695.941 408.796 696.935 409.128V408.312C696.935 406.169 695.711 405.022 693.569 405.022C692.217 405.022 691.07 405.43 690.151 405.914L689.565 404.384C690.815 403.797 692.115 403.364 693.747 403.364C695.354 403.364 696.604 403.797 697.471 404.665C698.313 405.455 698.746 406.654 698.746 408.261V416.804H696.935V414.866C696.145 416.09 694.844 417.085 692.906 417.085ZM693.288 415.555C695.303 415.555 696.961 414.126 696.961 412.214V410.505C696.119 410.224 695.048 409.995 693.747 409.995C691.605 409.995 690.457 411.066 690.457 412.775V412.877C690.457 414.534 691.656 415.555 693.288 415.555ZM702.545 416.804V403.517H704.381V406.45C705.172 404.588 706.778 403.236 708.946 403.338V405.328H708.819C706.37 405.328 704.381 407.062 704.381 410.479V416.804H702.545ZM711.716 420.63V403.517H713.552V406.093C714.445 404.563 715.771 403.262 717.888 403.262C720.566 403.262 723.167 405.608 723.167 410.02V410.275C723.167 414.687 720.566 417.085 717.888 417.085C715.771 417.085 714.369 415.759 713.552 414.33V420.63H711.716ZM717.506 415.402C719.622 415.402 721.28 413.54 721.28 410.275V410.071C721.28 406.883 719.546 404.92 717.506 404.92C715.389 404.92 713.476 406.934 713.476 410.046V410.275C713.476 413.412 715.389 415.402 717.506 415.402ZM726.669 416.804V398.391H728.505V416.804H726.669ZM737.545 414.458L741.116 403.517H743.028L738.336 417.034C737.392 419.763 736.244 420.732 734.434 420.732C733.643 420.732 732.852 420.528 732.062 420.12L732.623 418.589C733.133 418.895 733.669 419.074 734.357 419.074C735.352 419.074 735.964 418.513 736.652 416.804L731.552 403.517H733.541L737.545 414.458ZM752.063 416.804V403.517H753.899V406.45C754.689 404.588 756.296 403.236 758.464 403.338V405.328H758.336C755.888 405.328 753.899 407.062 753.899 410.479V416.804H752.063ZM761.285 400.788V398.62H763.351V400.788H761.285ZM761.387 416.804V403.517H763.223V416.804H761.387ZM772.314 420.681C770.554 420.681 768.871 420.196 767.264 419.253L768.004 417.748C769.253 418.589 770.758 419.074 772.288 419.074C774.813 419.074 776.343 417.748 776.343 415.095V413.157C775.425 414.662 774.073 415.886 771.957 415.886C769.228 415.886 766.728 413.642 766.728 409.612V409.51C766.728 405.532 769.304 403.262 771.957 403.262C774.048 403.262 775.476 404.486 776.343 405.889V403.517H778.205V415.044C778.205 416.881 777.669 418.181 776.726 419.176C775.68 420.171 774.226 420.681 772.314 420.681ZM772.365 414.228C774.456 414.228 776.42 412.469 776.42 409.612V409.536C776.42 406.679 774.456 404.92 772.365 404.92C770.299 404.92 768.616 406.628 768.616 409.536V409.587C768.616 412.469 770.324 414.228 772.365 414.228ZM782.192 416.804V398.391H784.028V405.685C784.767 404.359 785.941 403.262 787.955 403.262C790.684 403.262 792.291 405.098 792.291 408.082V416.804H790.455V408.618C790.455 406.246 789.333 404.92 787.394 404.92C785.456 404.92 784.028 406.475 784.028 408.72V416.804H782.192ZM799.972 417.008C798.085 417.008 796.657 416.09 796.657 413.718V405.149H795.05V403.517H796.657V399.64H798.493V403.517H801.961V405.149H798.493V413.412C798.493 414.84 799.258 415.299 800.406 415.299C800.941 415.299 801.451 415.197 801.961 414.968V416.549C801.375 416.83 800.763 417.008 799.972 417.008Z" fill="black"/>
<path d="M22.7976 417.008C20.9104 417.008 19.4822 416.09 19.4822 413.718V405.149H17.8754V403.517H19.4822V399.64H21.3184V403.517H24.7869V405.149H21.3184V413.412C21.3184 414.84 22.0835 415.299 23.2312 415.299C23.7667 415.299 24.2768 415.197 24.7869 414.968V416.549C24.2003 416.83 23.5882 417.008 22.7976 417.008ZM32.1492 417.085C29.4204 417.085 27.8136 415.223 27.8136 412.239V403.517H29.6499V411.704C29.6499 414.075 30.772 415.402 32.7103 415.402C34.6231 415.402 36.0513 413.922 36.0513 411.601V403.517H37.913V416.804H36.0513V414.662C35.3372 415.963 34.164 417.085 32.1492 417.085ZM41.9205 416.804V403.517H43.7567V406.45C44.5473 404.588 46.154 403.236 48.3218 403.338V405.328H48.1943C45.746 405.328 43.7567 407.062 43.7567 410.479V416.804H41.9205ZM51.0918 416.804V403.517H52.928V405.685C53.6676 404.359 54.8408 403.262 56.8555 403.262C59.5844 403.262 61.1911 405.098 61.1911 408.082V416.804H59.3549V408.618C59.3549 406.246 58.2327 404.92 56.2945 404.92C54.3562 404.92 52.928 406.475 52.928 408.72V416.804H51.0918ZM74.7239 417.034C73.0917 417.034 71.3575 416.396 69.9293 415.172L70.8984 413.82C72.1736 414.891 73.4743 415.427 74.7749 415.427C76.2286 415.427 77.2743 414.585 77.2743 413.361V413.31C77.2743 412.163 76.1776 411.576 74.3414 410.785C72.2246 409.893 70.5669 409.051 70.5669 406.985V406.934C70.5669 404.741 72.3011 403.313 74.6984 403.313C76.2286 403.313 77.7588 403.899 78.881 404.741L77.9884 406.144C76.9682 405.404 75.8461 404.894 74.6474 404.894C73.2447 404.894 72.3521 405.659 72.3521 406.756V406.807C72.3521 407.929 73.4743 408.465 75.3105 409.255C77.5038 410.275 79.034 411.117 79.034 413.183V413.208C79.034 415.606 77.1213 417.034 74.7239 417.034ZM82.2668 416.804V398.391H84.103V405.685C84.8426 404.359 86.0158 403.262 88.0306 403.262C90.7594 403.262 92.3662 405.098 92.3662 408.082V416.804H90.5299V408.618C90.5299 406.246 89.4078 404.92 87.4695 404.92C85.5312 404.92 84.103 406.475 84.103 408.72V416.804H82.2668ZM99.6125 417.085C97.3682 417.085 95.3025 415.58 95.3025 412.953V412.851C95.3025 410.097 97.2917 408.567 100.225 408.567C101.653 408.567 102.647 408.796 103.642 409.128V408.312C103.642 406.169 102.418 405.022 100.276 405.022C98.924 405.022 97.7763 405.43 96.8582 405.914L96.2716 404.384C97.5213 403.797 98.8219 403.364 100.454 403.364C102.061 403.364 103.311 403.797 104.178 404.665C105.019 405.455 105.453 406.654 105.453 408.261V416.804H103.642V414.866C102.851 416.09 101.551 417.085 99.6125 417.085ZM99.9951 415.555C102.01 415.555 103.668 414.126 103.668 412.214V410.505C102.826 410.224 101.755 409.995 100.454 409.995C98.3119 409.995 97.1642 411.066 97.1642 412.775V412.877C97.1642 414.534 98.3629 415.555 99.9951 415.555ZM109.252 416.804V403.517H111.088V406.45C111.879 404.588 113.485 403.236 115.653 403.338V405.328H115.526C113.077 405.328 111.088 407.062 111.088 410.479V416.804H109.252ZM118.423 420.63V403.517H120.259V406.093C121.152 404.563 122.478 403.262 124.595 403.262C127.273 403.262 129.874 405.608 129.874 410.02V410.275C129.874 414.687 127.273 417.085 124.595 417.085C122.478 417.085 121.075 415.759 120.259 414.33V420.63H118.423ZM124.212 415.402C126.329 415.402 127.987 413.54 127.987 410.275V410.071C127.987 406.883 126.253 404.92 124.212 404.92C122.095 404.92 120.183 406.934 120.183 410.046V410.275C120.183 413.412 122.095 415.402 124.212 415.402ZM133.376 416.804V398.391H135.212V416.804H133.376ZM144.252 414.458L147.822 403.517H149.735L145.042 417.034C144.099 419.763 142.951 420.732 141.14 420.732C140.35 420.732 139.559 420.528 138.769 420.12L139.33 418.589C139.84 418.895 140.375 419.074 141.064 419.074C142.059 419.074 142.671 418.513 143.359 416.804L138.259 403.517H140.248L144.252 414.458ZM158.922 416.804V398.391H160.759V416.804H158.922ZM170.104 417.085C166.84 417.085 164.213 414.483 164.213 410.275V410.122C164.213 406.042 166.585 403.262 169.722 403.262C173.063 403.262 175.026 406.118 175.026 410.122V410.887H166.075C166.279 413.82 168.064 415.453 170.181 415.453C171.634 415.453 172.706 414.84 173.624 413.922L174.669 415.095C173.471 416.32 172.119 417.085 170.104 417.085ZM166.075 409.459H173.165C173.037 406.909 171.864 404.869 169.696 404.869C167.707 404.869 166.279 406.705 166.075 409.459ZM178.87 416.804V405.149H177.238V403.542H178.87V402.318C178.87 400.941 179.202 399.921 179.89 399.232C180.528 398.595 181.37 398.289 182.466 398.289C183.18 398.289 183.716 398.365 184.226 398.544V400.176C183.69 399.997 183.231 399.946 182.721 399.946C181.37 399.946 180.707 400.788 180.707 402.446V403.542H184.175V405.149H180.707V416.804H178.87ZM190.509 417.008C188.622 417.008 187.194 416.09 187.194 413.718V405.149H185.587V403.517H187.194V399.64H189.03V403.517H192.498V405.149H189.03V413.412C189.03 414.84 189.795 415.299 190.943 415.299C191.478 415.299 191.988 415.197 192.498 414.968V416.549C191.912 416.83 191.3 417.008 190.509 417.008ZM201.378 410.097V408.21H207.932V410.097H201.378ZM212.624 416.804V400.865L209.717 401.91L209.385 400.252L213.083 398.85H214.511V416.804H212.624ZM223.397 417.085C221.28 417.085 219.495 416.167 218.169 414.866L219.316 413.438C220.515 414.56 221.892 415.325 223.422 415.325C225.667 415.325 227.299 413.667 227.299 411.295V411.27C227.299 408.898 225.641 407.521 223.422 407.521C222.122 407.521 221.203 407.852 220.311 408.337L219.061 407.495L219.546 398.952H228.472V400.737H221.203L220.846 406.424C221.688 406.042 222.53 405.787 223.728 405.787C226.763 405.787 229.212 407.674 229.212 411.168V411.244C229.212 414.738 226.763 417.085 223.397 417.085ZM238.58 417.085C234.602 417.085 232.128 413.336 232.128 408.006V407.801C232.128 402.446 234.653 398.671 238.606 398.671C242.584 398.671 245.058 402.42 245.058 407.75V407.955C245.058 413.31 242.533 417.085 238.58 417.085ZM238.606 415.351C241.335 415.351 243.094 412.265 243.094 407.98V407.801C243.094 403.517 241.284 400.405 238.58 400.405C235.851 400.405 234.092 403.466 234.092 407.776V407.955C234.092 412.239 235.877 415.351 238.606 415.351ZM251.721 406.679C249.834 406.679 248.151 405.022 248.151 402.777V402.675C248.151 400.456 249.834 398.799 251.721 398.799C253.659 398.799 255.317 400.456 255.317 402.675V402.777C255.317 405.022 253.659 406.679 251.721 406.679ZM251.721 405.379C253.022 405.379 253.914 404.282 253.914 402.777V402.675C253.914 401.222 253.022 400.074 251.721 400.074C250.42 400.074 249.553 401.222 249.553 402.675V402.777C249.553 404.282 250.42 405.379 251.721 405.379Z" fill="black"/>
<line x1="401.136" y1="0.708008" x2="401.136" y2="450.777" stroke="#FF0000" stroke-width="5.66743" stroke-dasharray="5.67 5.67"/>
<path d="M228.791 228.857C227.685 229.964 227.684 231.758 228.791 232.865L246.823 250.9C247.93 252.007 249.724 252.007 250.831 250.9C251.937 249.794 251.937 248 250.831 246.893L234.802 230.862L250.834 214.833C251.94 213.727 251.941 211.932 250.834 210.826C249.727 209.719 247.933 209.719 246.827 210.825L228.791 228.857ZM573.329 232.894C574.435 231.788 574.436 229.993 573.329 228.887L555.297 210.852C554.19 209.745 552.396 209.745 551.289 210.851C550.183 211.958 550.183 213.752 551.289 214.859L567.318 230.89L551.286 246.919C550.18 248.025 550.179 249.819 551.286 250.926C552.393 252.033 554.187 252.033 555.293 250.926L573.329 232.894ZM230.795 233.695L571.325 233.724L571.325 228.057L230.795 228.028L230.795 233.695Z" fill="black"/>
<path d="M291.058 420.692C291.474 422.201 293.035 423.087 294.543 422.67L319.128 415.885C320.636 415.469 321.522 413.908 321.106 412.4C320.689 410.891 319.129 410.006 317.62 410.422L295.767 416.453L289.736 394.6C289.32 393.092 287.759 392.206 286.251 392.623C284.742 393.039 283.857 394.599 284.273 396.108L291.058 420.692ZM521.705 22.3788C521.289 20.8701 519.729 19.9845 518.22 20.4007L493.635 27.1829C492.126 27.5991 491.241 29.1595 491.657 30.6682C492.073 32.1769 493.634 33.0625 495.142 32.6463L516.996 26.6176L523.024 48.471C523.44 49.9797 525.001 50.8653 526.51 50.4491C528.018 50.0329 528.904 48.4725 528.488 46.9639L521.705 22.3788ZM400.238 232.337L397.773 230.939L397.773 230.939L400.238 232.337ZM296.254 421.337L402.702 233.736L397.773 230.939L291.325 418.54L296.254 421.337ZM402.702 233.736L521.438 24.5311L516.509 21.7336L397.773 230.939L402.702 233.736Z" fill="black"/>
<path d="M498.183 431.13C499.67 431.619 501.271 430.811 501.76 429.324L509.728 405.097C510.217 403.61 509.409 402.009 507.922 401.52C506.435 401.031 504.834 401.84 504.345 403.326L497.262 424.861L475.727 417.778C474.24 417.289 472.639 418.098 472.15 419.585C471.661 421.072 472.47 422.673 473.956 423.162L498.183 431.13ZM283.496 19.6467C281.991 19.2205 280.424 20.0958 279.998 21.6017L273.053 46.1412C272.627 47.6471 273.502 49.2134 275.008 49.6396C276.514 50.0657 278.08 49.1905 278.506 47.6846L284.68 25.8716L306.493 32.045C307.999 32.4713 309.565 31.596 309.991 30.0901C310.417 28.5843 309.542 27.018 308.036 26.5918L283.496 19.6467ZM399.84 231.947L402.37 230.67L402.343 230.616L402.314 230.565L399.84 231.947ZM501.598 427.161L402.37 230.67L397.311 233.224L496.539 429.716L501.598 427.161ZM402.314 230.565L285.198 20.991L280.251 23.7557L397.366 233.329L402.314 230.565Z" fill="black"/>
</svg>
