<svg width="653" height="607" viewBox="0 0 653 607" fill="none" xmlns="http://www.w3.org/2000/svg">
<path d="M330.002 325.743L242.414 241.805" stroke="#CBDFFF" stroke-width="36.6926"/>
<path d="M335.191 421.947V348.236C335.191 334.154 340.904 320.675 351.023 310.883L404.918 258.724" stroke="#0060FF" stroke-width="36.6926"/>
<path d="M447.089 210.791C451.705 209.685 455.766 214.031 454.351 218.561L431.628 291.296C430.028 296.418 423.077 297.143 420.455 292.46L402.993 261.273C402.51 260.411 401.826 259.679 400.999 259.139L371.066 239.607C366.571 236.674 367.764 229.788 372.983 228.538L447.089 210.791Z" fill="#0060FF"/>
<path d="M298.979 581.903V545.593L292.356 547.975L291.601 544.199L300.025 541.003H303.279V581.903H298.979ZM324.638 582.484C317.028 582.484 311.334 577.895 311.334 571.097V570.865C311.334 565.985 314.297 562.673 318.712 560.872C315.227 559.188 312.554 556.167 312.554 551.519V551.286C312.554 545.012 318.073 540.655 324.638 540.655C331.145 540.655 336.664 545.012 336.664 551.286V551.519C336.664 556.167 333.992 559.188 330.506 560.872C334.747 562.673 337.884 565.985 337.884 570.865V571.097C337.884 577.895 332.191 582.484 324.638 582.484ZM324.638 559.246C328.995 559.246 332.423 556.05 332.423 551.693V551.577C332.423 547.394 328.995 544.431 324.638 544.431C320.223 544.431 316.795 547.394 316.795 551.577V551.693C316.795 556.05 320.223 559.246 324.638 559.246ZM324.638 578.708C330.099 578.708 333.527 575.28 333.527 570.923V570.807C333.527 566.159 329.576 562.906 324.638 562.906C319.584 562.906 315.691 566.159 315.691 570.807V570.923C315.691 575.28 319.061 578.708 324.638 578.708ZM358.52 582.542C349.457 582.542 343.821 574.002 343.821 561.86V561.395C343.821 549.195 349.573 540.597 358.578 540.597C367.641 540.597 373.276 549.137 373.276 561.279V561.744C373.276 573.944 367.525 582.542 358.52 582.542ZM358.578 578.592C364.794 578.592 368.803 571.562 368.803 561.802V561.395C368.803 551.635 364.678 544.547 358.52 544.547C352.304 544.547 348.295 551.519 348.295 561.337V561.744C348.295 571.504 352.362 578.592 358.578 578.592ZM388.179 558.839C383.88 558.839 380.045 555.063 380.045 549.95V549.718C380.045 544.663 383.88 540.887 388.179 540.887C392.594 540.887 396.37 544.663 396.37 549.718V549.95C396.37 555.063 392.594 558.839 388.179 558.839ZM388.179 555.876C391.142 555.876 393.175 553.378 393.175 549.95V549.718C393.175 546.406 391.142 543.792 388.179 543.792C385.216 543.792 383.241 546.406 383.241 549.718V549.95C383.241 553.378 385.216 555.876 388.179 555.876Z" fill="#DE0606"/>
<path d="M333.223 54.5282C324.16 54.5282 318.525 45.988 318.525 33.8458V33.3811C318.525 21.1808 324.276 12.5825 333.281 12.5825C342.344 12.5825 347.98 21.1227 347.98 33.2649V33.7296C347.98 45.9299 342.228 54.5282 333.223 54.5282ZM333.281 50.5777C339.498 50.5777 343.506 43.548 343.506 33.7877V33.3811C343.506 23.6208 339.381 16.5331 333.223 16.5331C327.007 16.5331 322.998 23.5046 322.998 33.323V33.7296C322.998 43.4899 327.065 50.5777 333.281 50.5777ZM362.882 30.8248C358.583 30.8248 354.748 27.0485 354.748 21.936V21.7036C354.748 16.6492 358.583 12.873 362.882 12.873C367.297 12.873 371.074 16.6492 371.074 21.7036V21.936C371.074 27.0485 367.297 30.8248 362.882 30.8248ZM362.882 27.8619C365.845 27.8619 367.878 25.3637 367.878 21.936V21.7036C367.878 18.3921 365.845 15.7778 362.882 15.7778C359.919 15.7778 357.944 18.3921 357.944 21.7036V21.936C357.944 25.3637 359.919 27.8619 362.882 27.8619Z" fill="#DE0606"/>
<path d="M4.61137 333.966V329.667H19.5422V333.966H4.61137ZM37.6897 345.876C44.3127 345.876 48.2633 338.381 48.2633 328.795C46.1137 332.281 42.8022 334.489 38.445 334.489C31.4153 334.489 26.1285 329.667 26.1285 321.824V321.707C26.1285 313.806 31.5315 307.938 38.9679 307.938C42.7441 307.938 45.649 309.217 47.9147 311.482C50.8777 314.271 52.6206 318.803 52.6206 327.285V327.749C52.6206 341.518 46.6366 349.884 37.6316 349.884C33.4487 349.884 30.1953 348.374 27.1742 345.876L29.4981 342.39C32.1125 344.655 34.6106 345.876 37.6897 345.876ZM38.9679 330.712C44.0804 330.712 47.6243 326.762 47.6243 321.591V321.417C47.6243 315.956 44.1966 311.831 38.8517 311.831C33.7392 311.831 30.5439 316.188 30.5439 321.533V321.649C30.5439 327.168 34.0877 330.712 38.9679 330.712ZM73.8141 349.884C64.751 349.884 59.1156 341.344 59.1156 329.202V328.737C59.1156 316.537 64.8672 307.938 73.8722 307.938C82.9352 307.938 88.5706 316.479 88.5706 328.621V329.086C88.5706 341.286 82.8191 349.884 73.8141 349.884ZM73.8722 345.934C80.0885 345.934 84.0972 338.904 84.0972 329.144V328.737C84.0972 318.977 79.9723 311.889 73.8141 311.889C67.5977 311.889 63.5891 318.861 63.5891 328.679V329.086C63.5891 338.846 67.6558 345.934 73.8722 345.934ZM103.473 326.181C99.1738 326.181 95.3394 322.404 95.3394 317.292V317.06C95.3394 312.005 99.1738 308.229 103.473 308.229C107.888 308.229 111.665 312.005 111.665 317.06V317.292C111.665 322.404 107.888 326.181 103.473 326.181ZM103.473 323.218C106.436 323.218 108.469 320.72 108.469 317.292V317.06C108.469 313.748 106.436 311.134 103.473 311.134C100.51 311.134 98.5347 313.748 98.5347 317.06V317.292C98.5347 320.72 100.51 323.218 103.473 323.218Z" fill="black"/>
<path d="M48.3125 132.162V127.863H63.2433V132.162H48.3125ZM88.3044 147.442V138.03H69.6554L68.842 134.835L88.5948 106.484H92.4292V134.312H97.8322V138.03H92.4292V147.442H88.3044ZM73.7802 134.312H88.3044V113.339L73.7802 134.312ZM114.94 148.081C110.118 148.081 106.051 145.989 103.03 143.027L105.644 139.773C108.375 142.329 111.512 144.072 114.998 144.072C120.111 144.072 123.829 140.296 123.829 134.893V134.835C123.829 129.432 120.052 126.295 114.998 126.295C112.035 126.295 109.944 127.05 107.91 128.154L105.063 126.237L106.167 106.774H126.501V110.841H109.944L109.13 123.797C111.047 122.925 112.965 122.344 115.695 122.344C122.609 122.344 128.186 126.643 128.186 134.603V134.777C128.186 142.736 122.609 148.081 114.94 148.081ZM142.522 124.378C138.223 124.378 134.388 120.601 134.388 115.489V115.256C134.388 110.202 138.223 106.426 142.522 106.426C146.937 106.426 150.713 110.202 150.713 115.256V115.489C150.713 120.601 146.937 124.378 142.522 124.378ZM142.522 121.415C145.485 121.415 147.518 118.916 147.518 115.489V115.256C147.518 111.945 145.485 109.331 142.522 109.331C139.559 109.331 137.584 111.945 137.584 115.256V115.489C137.584 118.916 139.559 121.415 142.522 121.415Z" fill="black"/>
<path d="M573.037 122.395V112.983H554.388L553.575 109.788L573.328 81.4369H577.162V109.265H582.565V112.983H577.162V122.395H573.037ZM558.513 109.265H573.037V88.2923L558.513 109.265ZM599.673 123.034C594.851 123.034 590.784 120.943 587.763 117.98L590.377 114.726C593.108 117.283 596.245 119.025 599.731 119.025C604.843 119.025 608.562 115.249 608.562 109.846V109.788C608.562 104.385 604.785 101.248 599.731 101.248C596.768 101.248 594.677 102.003 592.643 103.107L589.796 101.19L590.9 81.7274H611.234V85.7942H594.677L593.863 98.7497C595.78 97.8783 597.698 97.2973 600.428 97.2973C607.342 97.2973 612.919 101.596 612.919 109.556V109.73C612.919 117.689 607.342 123.034 599.673 123.034ZM627.255 99.3307C622.956 99.3307 619.121 95.5544 619.121 90.4419V90.2095C619.121 85.1551 622.956 81.3788 627.255 81.3788C631.67 81.3788 635.446 85.1551 635.446 90.2095V90.4419C635.446 95.5544 631.67 99.3307 627.255 99.3307ZM627.255 96.3677C630.218 96.3677 632.251 93.8696 632.251 90.4419V90.2095C632.251 86.898 630.218 84.2837 627.255 84.2837C624.292 84.2837 622.316 86.898 622.316 90.2095V90.4419C622.316 93.8696 624.292 96.3677 627.255 96.3677Z" fill="black"/>
<path d="M561.242 343.088C567.865 343.088 571.816 335.594 571.816 326.008C569.666 329.494 566.355 331.701 561.997 331.701C554.968 331.701 549.681 326.879 549.681 319.036V318.92C549.681 311.019 555.084 305.151 562.52 305.151C566.297 305.151 569.201 306.429 571.467 308.695C574.43 311.484 576.173 316.015 576.173 324.497V324.962C576.173 338.731 570.189 347.097 561.184 347.097C557.001 347.097 553.748 345.587 550.727 343.088L553.051 339.603C555.665 341.868 558.163 343.088 561.242 343.088ZM562.52 327.925C567.633 327.925 571.177 323.975 571.177 318.804V318.63C571.177 313.169 567.749 309.044 562.404 309.044C557.292 309.044 554.096 313.401 554.096 318.746V318.862C554.096 324.381 557.64 327.925 562.52 327.925ZM597.367 347.097C588.303 347.097 582.668 338.557 582.668 326.415V325.95C582.668 313.75 588.42 305.151 597.425 305.151C606.488 305.151 612.123 313.692 612.123 325.834V326.298C612.123 338.499 606.372 347.097 597.367 347.097ZM597.425 343.147C603.641 343.147 607.65 336.117 607.65 326.357V325.95C607.65 316.19 603.525 309.102 597.367 309.102C591.15 309.102 587.142 316.073 587.142 325.892V326.298C587.142 336.059 591.208 343.147 597.425 343.147ZM627.025 323.394C622.726 323.394 618.892 319.617 618.892 314.505V314.272C618.892 309.218 622.726 305.442 627.025 305.442C631.441 305.442 635.217 309.218 635.217 314.272V314.505C635.217 319.617 631.441 323.394 627.025 323.394ZM627.025 320.431C629.988 320.431 632.022 317.933 632.022 314.505V314.272C632.022 310.961 629.988 308.347 627.025 308.347C624.062 308.347 622.087 310.961 622.087 314.272V314.505C622.087 317.933 624.062 320.431 627.025 320.431Z" fill="black"/>
<path d="M518.23 517.879V481.569L511.607 483.951L510.852 480.175L519.276 476.979H522.529V517.879H518.23ZM542.553 518.518C537.034 518.518 533.083 516.195 530.12 512.941L532.967 509.862C535.465 512.709 538.37 514.51 542.553 514.51C547.142 514.51 550.802 511.256 550.802 506.318V506.202C550.802 500.915 546.329 498.301 540.055 498.301H538.486L537.847 495.628L549.118 481.279H531.921V477.212H554.695V480.523L543.25 494.757C549.524 495.512 555.218 498.824 555.218 506.028V506.26C555.218 513.58 549.582 518.518 542.553 518.518ZM572.813 518.518C567.991 518.518 563.924 516.427 560.903 513.464L563.517 510.211C566.248 512.767 569.385 514.51 572.871 514.51C577.983 514.51 581.701 510.734 581.701 505.331V505.272C581.701 499.869 577.925 496.732 572.871 496.732C569.908 496.732 567.816 497.487 565.783 498.591L562.936 496.674L564.04 477.212H584.374V481.279H567.816L567.003 494.234C568.92 493.363 570.837 492.782 573.568 492.782C580.481 492.782 586.059 497.081 586.059 505.04V505.214C586.059 513.174 580.481 518.518 572.813 518.518ZM600.394 494.815C596.095 494.815 592.261 491.039 592.261 485.926V485.694C592.261 480.639 596.095 476.863 600.394 476.863C604.81 476.863 608.586 480.639 608.586 485.694V485.926C608.586 491.039 604.81 494.815 600.394 494.815ZM600.394 491.852C603.357 491.852 605.391 489.354 605.391 485.926V485.694C605.391 482.382 603.357 479.768 600.394 479.768C597.431 479.768 595.456 482.382 595.456 485.694V485.926C595.456 489.354 597.431 491.852 600.394 491.852Z" fill="black"/>
<path d="M31.5262 502.6V498.301H46.457V502.6H31.5262ZM56.8686 517.879V481.569L50.2456 483.951L49.4904 480.175L57.9144 476.979H61.1678V517.879H56.8686ZM81.1912 518.518C75.672 518.518 71.7215 516.195 68.7585 512.941L71.6053 509.862C74.1034 512.709 77.0083 514.51 81.1912 514.51C85.7808 514.51 89.4409 511.256 89.4409 506.318V506.202C89.4409 500.915 84.9675 498.301 78.6931 498.301H77.1244L76.4854 495.628L87.7561 481.279H70.5595V477.212H93.3334V480.523L81.8884 494.757C88.1628 495.512 93.8563 498.824 93.8563 506.028V506.26C93.8563 513.58 88.2209 518.518 81.1912 518.518ZM111.451 518.518C106.629 518.518 102.562 516.427 99.5412 513.464L102.156 510.211C104.886 512.767 108.023 514.51 111.509 514.51C116.622 514.51 120.34 510.734 120.34 505.331V505.272C120.34 499.869 116.563 496.732 111.509 496.732C108.546 496.732 106.455 497.487 104.421 498.591L101.575 496.674L102.678 477.212H123.012V481.279H106.455L105.641 494.234C107.559 493.363 109.476 492.782 112.206 492.782C119.12 492.782 124.697 497.081 124.697 505.04V505.214C124.697 513.174 119.12 518.518 111.451 518.518ZM139.033 494.815C134.734 494.815 130.899 491.039 130.899 485.926V485.694C130.899 480.639 134.734 476.863 139.033 476.863C143.448 476.863 147.224 480.639 147.224 485.694V485.926C147.224 491.039 143.448 494.815 139.033 494.815ZM139.033 491.852C141.996 491.852 144.029 489.354 144.029 485.926V485.694C144.029 482.382 141.996 479.768 139.033 479.768C136.07 479.768 134.095 482.382 134.095 485.694V485.926C134.095 489.354 136.07 491.852 139.033 491.852Z" fill="black"/>
<path d="M333.662 80.2461L333.662 329.586" stroke="#979797" stroke-width="3.05772" stroke-dasharray="3.06 3.06"/>
<path d="M333.662 334.913L333.662 521.762" stroke="#979797" stroke-width="3.05772" stroke-dasharray="3.06 3.06"/>
<line x1="135.766" y1="330.597" x2="528.503" y2="330.597" stroke="#979797" stroke-width="3.05772" stroke-dasharray="3.06 3.06"/>
<path d="M333.48 330.104L516.854 146.731" stroke="#979797" stroke-width="3.05772" stroke-dasharray="3.06 3.06"/>
<path d="M156.934 505.192L330.001 332.125" stroke="#979797" stroke-width="3.05772" stroke-dasharray="3.06 3.06"/>
<path d="M483.737 482.137L148.329 146.73" stroke="#979797" stroke-width="3.05772" stroke-dasharray="3.06 3.06"/>
</svg>
