<svg width="600" height="275" viewBox="0 0 600 275" fill="none" xmlns="http://www.w3.org/2000/svg">
<rect width="600" height="275" rx="16" fill="#11181E"/>
<g opacity="0.4">
<path d="M56.7959 34.3199L80.7222 41.2319C82.4007 41.7168 82.6942 43.9695 81.1961 44.8683L77.0575 47.3515C76.2207 47.8536 76.0786 49.0084 76.7686 49.6984L92.0204 64.9502C95.2085 68.1383 96.9996 72.4623 96.9996 76.971V117C96.9996 118.657 95.6564 120 93.9996 120H89.9996C88.3427 120 86.9996 118.657 86.9996 117L86.9996 76.971C86.9996 75.1145 86.2621 73.334 84.9493 72.0213L69.6976 56.7696C69.0076 56.0795 67.8528 56.2217 67.3507 57.0585L64.8678 61.1966C63.969 62.6947 61.7163 62.4011 61.2314 60.7227L54.3194 36.7964C53.8824 35.2839 55.2834 33.8829 56.7959 34.3199Z" fill="white"/>
</g>
<path d="M177.819 56.8398L165.788 35.0342C165.027 33.6553 163.046 33.6553 162.285 35.0342L150.255 56.8398C149.411 58.3691 150.796 60.1699 152.491 59.7461L157.136 58.585C158.083 58.3483 159 59.0644 159 60.0402V116.86C159 118.518 160.343 119.86 162 119.86H166C167.657 119.86 169 118.518 169 116.86V60.0217C169 59.0459 169.917 58.3298 170.864 58.5665L175.583 59.7461C177.277 60.1699 178.663 58.3691 177.819 56.8398Z" fill="white"/>
<path d="M265.819 56.8398L253.788 35.0342C253.027 33.6553 251.046 33.6553 250.285 35.0342L238.255 56.8398C237.411 58.3691 238.796 60.1699 240.491 59.7461L245.136 58.585C246.083 58.3483 247 59.0644 247 60.0402V116.86C247 118.518 248.343 119.86 250 119.86H254C255.657 119.86 257 118.518 257 116.86V60.0217C257 59.0459 257.917 58.3298 258.864 58.5665L263.583 59.7461C265.277 60.1699 266.663 58.3691 265.819 56.8398Z" fill="white"/>
<path d="M359.204 34.3199L335.278 41.2319C333.599 41.7168 333.306 43.9695 334.804 44.8683L338.942 47.3515C339.779 47.8536 339.921 49.0084 339.231 49.6984L323.98 64.9502C320.791 68.1383 319 72.4623 319 76.971V117C319 118.657 320.344 120 322 120H326C327.657 120 329 118.657 329 117L329 76.971C329 75.1145 329.738 73.334 331.051 72.0213L346.302 56.7696C346.992 56.0795 348.147 56.2217 348.649 57.0585L351.132 61.1966C352.031 62.6947 354.284 62.4011 354.769 60.7227L361.681 36.7964C362.118 35.2839 360.717 33.8829 359.204 34.3199Z" fill="#707478"/>
<path d="M33.96 168.84C33.96 167.187 34.0667 165.56 34.28 163.96C34.52 162.36 34.92 160.853 35.48 159.44C36.0667 158 36.8667 156.733 37.88 155.64C38.8933 154.52 40.1733 153.653 41.72 153.04C43.2933 152.4 45.1867 152.08 47.4 152.08C47.96 152.08 48.5867 152.107 49.28 152.16C50 152.187 50.5867 152.267 51.04 152.4V155.96C50.5333 155.8 49.9733 155.68 49.36 155.6C48.7733 155.52 48.1867 155.48 47.6 155.48C45.76 155.48 44.24 155.76 43.04 156.32C41.84 156.88 40.8933 157.653 40.2 158.64C39.5067 159.627 39 160.773 38.68 162.08C38.36 163.36 38.16 164.76 38.08 166.28H38.32C38.72 165.64 39.2133 165.067 39.8 164.56C40.3867 164.053 41.1067 163.653 41.96 163.36C42.8133 163.067 43.8 162.92 44.92 162.92C46.5733 162.92 48.0133 163.267 49.24 163.96C50.4933 164.653 51.4533 165.653 52.12 166.96C52.8133 168.267 53.16 169.853 53.16 171.72C53.16 173.72 52.7733 175.453 52 176.92C51.2533 178.36 50.1867 179.467 48.8 180.24C47.44 181.013 45.8 181.4 43.88 181.4C42.4933 181.4 41.2 181.147 40 180.64C38.8 180.133 37.7467 179.36 36.84 178.32C35.9333 177.28 35.2267 175.973 34.72 174.4C34.2133 172.8 33.96 170.947 33.96 168.84ZM43.84 177.88C45.36 177.88 46.6 177.387 47.56 176.4C48.52 175.387 49 173.827 49 171.72C49 170.04 48.5733 168.707 47.72 167.72C46.8933 166.733 45.64 166.24 43.96 166.24C42.8133 166.24 41.8133 166.48 40.96 166.96C40.1067 167.44 39.44 168.053 38.96 168.8C38.48 169.547 38.24 170.307 38.24 171.08C38.24 171.907 38.36 172.72 38.6 173.52C38.84 174.32 39.1867 175.053 39.64 175.72C40.12 176.387 40.7067 176.92 41.4 177.32C42.0933 177.693 42.9067 177.88 43.84 177.88ZM76.4706 166.68C76.4706 169 76.284 171.067 75.9106 172.88C75.564 174.693 75.004 176.24 74.2306 177.52C73.484 178.773 72.484 179.733 71.2306 180.4C70.004 181.067 68.524 181.4 66.7906 181.4C64.604 181.4 62.804 180.813 61.3906 179.64C59.9773 178.467 58.924 176.787 58.2306 174.6C57.5373 172.387 57.1906 169.747 57.1906 166.68C57.1906 163.587 57.4973 160.947 58.1106 158.76C58.7506 156.573 59.7773 154.907 61.1906 153.76C62.604 152.587 64.4706 152 66.7906 152C68.9773 152 70.7773 152.587 72.1906 153.76C73.6306 154.907 74.6973 156.573 75.3906 158.76C76.1106 160.947 76.4706 163.587 76.4706 166.68ZM61.4306 166.68C61.4306 169.16 61.604 171.227 61.9506 172.88C62.2973 174.533 62.8573 175.773 63.6306 176.6C64.4306 177.427 65.484 177.84 66.7906 177.84C68.0973 177.84 69.1373 177.44 69.9106 176.64C70.7106 175.813 71.284 174.573 71.6306 172.92C72.004 171.24 72.1906 169.16 72.1906 166.68C72.1906 164.2 72.004 162.147 71.6306 160.52C71.284 158.867 70.7106 157.627 69.9106 156.8C69.1373 155.973 68.0973 155.56 66.7906 155.56C65.484 155.56 64.4306 155.973 63.6306 156.8C62.8573 157.627 62.2973 158.867 61.9506 160.52C61.604 162.147 61.4306 164.2 61.4306 166.68ZM99.8613 166.68C99.8613 169 99.6746 171.067 99.3013 172.88C98.9546 174.693 98.3946 176.24 97.6213 177.52C96.8746 178.773 95.8746 179.733 94.6213 180.4C93.3946 181.067 91.9146 181.4 90.1813 181.4C87.9946 181.4 86.1946 180.813 84.7813 179.64C83.3679 178.467 82.3146 176.787 81.6213 174.6C80.9279 172.387 80.5813 169.747 80.5813 166.68C80.5813 163.587 80.8879 160.947 81.5013 158.76C82.1413 156.573 83.1679 154.907 84.5813 153.76C85.9946 152.587 87.8613 152 90.1813 152C92.3679 152 94.1679 152.587 95.5813 153.76C97.0213 154.907 98.0879 156.573 98.7812 158.76C99.5013 160.947 99.8613 163.587 99.8613 166.68ZM84.8213 166.68C84.8213 169.16 84.9946 171.227 85.3413 172.88C85.6879 174.533 86.2479 175.773 87.0213 176.6C87.8213 177.427 88.8746 177.84 90.1813 177.84C91.4879 177.84 92.5279 177.44 93.3013 176.64C94.1013 175.813 94.6746 174.573 95.0213 172.92C95.3946 171.24 95.5813 169.16 95.5813 166.68C95.5813 164.2 95.3946 162.147 95.0213 160.52C94.6746 158.867 94.1013 157.627 93.3013 156.8C92.5279 155.973 91.4879 155.56 90.1813 155.56C88.8746 155.56 87.8213 155.973 87.0213 156.8C86.2479 157.627 85.6879 158.867 85.3413 160.52C84.9946 162.147 84.8213 164.2 84.8213 166.68ZM113.103 159.44H117.663L122.143 171.68C122.383 172.293 122.596 172.893 122.783 173.48C122.969 174.067 123.129 174.653 123.263 175.24C123.423 175.8 123.543 176.36 123.622 176.92H123.783C123.916 176.227 124.129 175.413 124.423 174.48C124.716 173.52 125.023 172.573 125.343 171.64L129.583 159.44H134.143L124.903 183.92C124.396 185.307 123.769 186.493 123.023 187.48C122.276 188.493 121.383 189.267 120.343 189.8C119.329 190.333 118.129 190.6 116.743 190.6C116.076 190.6 115.503 190.56 115.023 190.48C114.543 190.427 114.129 190.36 113.783 190.28V186.92C114.076 186.973 114.423 187.027 114.823 187.08C115.249 187.133 115.689 187.16 116.143 187.16C116.969 187.16 117.676 187 118.263 186.68C118.876 186.36 119.383 185.907 119.783 185.32C120.209 184.733 120.569 184.067 120.863 183.32L121.743 181L113.103 159.44ZM145.376 181.4C142.79 181.4 140.696 180.467 139.096 178.6C137.523 176.733 136.736 173.96 136.736 170.28C136.736 166.573 137.536 163.773 139.136 161.88C140.736 159.987 142.843 159.04 145.456 159.04C146.55 159.04 147.496 159.187 148.296 159.48C149.123 159.747 149.83 160.12 150.416 160.6C151.03 161.08 151.55 161.613 151.976 162.2H152.216C152.163 161.827 152.096 161.293 152.016 160.6C151.936 159.88 151.896 159.24 151.896 158.68V150.6H156.136V181H152.816L152.096 178.12H151.896C151.496 178.733 150.99 179.293 150.376 179.8C149.79 180.28 149.083 180.667 148.256 180.96C147.43 181.253 146.47 181.4 145.376 181.4ZM146.376 177.92C148.456 177.92 149.923 177.347 150.776 176.2C151.63 175.027 152.056 173.28 152.056 170.96V170.32C152.056 167.787 151.643 165.853 150.816 164.52C150.016 163.187 148.523 162.52 146.336 162.52C144.603 162.52 143.296 163.227 142.416 164.64C141.536 166.027 141.096 167.933 141.096 170.36C141.096 172.787 141.536 174.653 142.416 175.96C143.296 177.267 144.616 177.92 146.376 177.92Z" fill="white"/>
<g filter="url(#filter0_d_6197_760)">
<g clip-path="url(#clip0_6197_760)">
<path d="M70.1462 205.362C71.6336 204.857 71.9794 204.745 72.6589 204.556C73.2247 204.398 73.8293 204.581 74.211 205.021C78.2618 209.691 80.5 215.479 80.5 221.568C80.5 235.838 70.9622 246.94 57.2779 249.475C57.0949 249.509 56.9072 249.509 56.7242 249.475C43.0359 246.941 33.5 235.84 33.5 221.568C33.5 215.476 35.7367 209.688 39.7872 205.021C40.1689 204.581 40.7733 204.398 41.3388 204.556C42.0191 204.745 42.3685 204.858 43.8527 205.362C46.178 206.15 47.5198 206.507 48.9652 206.507C50.4109 206.507 51.7556 206.149 54.0802 205.362C55.571 204.856 55.914 204.745 56.5933 204.556C56.8601 204.482 57.1422 204.482 57.409 204.556C58.0876 204.745 58.4272 204.855 59.9206 205.362C62.2436 206.149 63.589 206.507 65.0348 206.507C66.4792 206.507 67.8222 206.149 70.1462 205.362Z" fill="#2D589C" stroke="white" stroke-width="3"/>
<path d="M70.6275 206.782C72.1153 206.278 72.4257 206.178 73.0609 206.001C73.0637 206 73.0663 206 73.0663 206L73.069 206L73.0721 206.001C73.0743 206.002 73.0763 206.003 73.0763 206.003L73.0776 206.004C75.1596 208.404 76.7298 211.111 77.7284 214H36.2695C37.2677 211.11 38.8376 208.403 40.9198 206.004L40.9212 206.003C40.9212 206.003 40.9231 206.002 40.9253 206.001C40.9275 206 40.9311 206 40.9311 206C40.9311 206 40.9337 206 40.9365 206.001C41.5724 206.178 41.8864 206.279 43.3709 206.782C45.6998 207.572 47.249 208.007 48.9649 208.007C50.681 208.007 52.2329 207.571 54.5614 206.782C56.0525 206.277 56.3602 206.178 56.9953 206.001C56.9988 206 57.0027 206 57.0061 206.001C57.6405 206.178 57.9449 206.276 59.4387 206.782C61.7657 207.571 63.3183 208.007 65.0345 208.007C66.7494 208.007 68.2999 207.571 70.6275 206.782Z" fill="#C3281C"/>
<rect x="35" y="214" width="44" height="2" fill="white"/>
<path d="M49.1944 233.328H46.9624V237H43.9864V233.328H36.3544V231.072L44.0584 219.816H46.9624V230.856H49.1944V233.328ZM43.9864 227.016C43.9864 226.68 43.9864 226.336 43.9864 225.984C44.0024 225.616 44.0184 225.256 44.0344 224.904C44.0504 224.552 44.0664 224.232 44.0824 223.944C44.0984 223.656 44.1144 223.432 44.1304 223.272H44.0344C43.8904 223.576 43.7304 223.896 43.5544 224.232C43.3944 224.552 43.2104 224.856 43.0024 225.144L39.1144 230.856H43.9864V227.016ZM62.8528 227.184C62.8528 228.16 62.7808 229.136 62.6368 230.112C62.4928 231.072 62.2448 231.984 61.8928 232.848C61.5408 233.696 61.0528 234.456 60.4288 235.128C59.8048 235.784 59.0048 236.304 58.0288 236.688C57.0688 237.056 55.9008 237.24 54.5248 237.24C54.2048 237.24 53.8208 237.224 53.3728 237.192C52.9408 237.16 52.5808 237.112 52.2928 237.048V234.552C52.5968 234.632 52.9248 234.696 53.2768 234.744C53.6448 234.792 54.0048 234.816 54.3568 234.816C55.4448 234.816 56.3408 234.672 57.0448 234.384C57.7648 234.08 58.3248 233.664 58.7248 233.136C59.1408 232.592 59.4448 231.96 59.6368 231.24C59.8288 230.504 59.9408 229.72 59.9728 228.888H59.8288C59.5888 229.256 59.3008 229.592 58.9648 229.896C58.6448 230.2 58.2368 230.44 57.7408 230.616C57.2608 230.792 56.6528 230.88 55.9168 230.88C54.9408 230.88 54.0848 230.672 53.3488 230.256C52.6288 229.84 52.0688 229.24 51.6688 228.456C51.2688 227.656 51.0688 226.688 51.0688 225.552C51.0688 224.32 51.3008 223.264 51.7648 222.384C52.2288 221.504 52.8848 220.832 53.7328 220.368C54.5968 219.888 55.6048 219.648 56.7568 219.648C57.6208 219.648 58.4208 219.808 59.1568 220.128C59.8928 220.432 60.5328 220.896 61.0768 221.52C61.6368 222.128 62.0688 222.904 62.3728 223.848C62.6928 224.792 62.8528 225.904 62.8528 227.184ZM56.8048 222.144C55.9888 222.144 55.3248 222.416 54.8128 222.96C54.3008 223.504 54.0448 224.352 54.0448 225.504C54.0448 226.448 54.2608 227.192 54.6928 227.736C55.1408 228.264 55.8208 228.528 56.7328 228.528C57.3568 228.528 57.8928 228.392 58.3408 228.12C58.8048 227.848 59.1648 227.512 59.4208 227.112C59.6768 226.712 59.8048 226.288 59.8048 225.84C59.8048 225.408 59.7408 224.976 59.6128 224.544C59.4848 224.096 59.2928 223.688 59.0368 223.32C58.7968 222.952 58.4848 222.664 58.1008 222.456C57.7328 222.248 57.3008 222.144 56.8048 222.144ZM71.3512 226.224C72.4392 226.224 73.3992 226.424 74.2312 226.824C75.0632 227.224 75.7112 227.808 76.1752 228.576C76.6552 229.328 76.8952 230.256 76.8952 231.36C76.8952 232.576 76.6392 233.624 76.1272 234.504C75.6152 235.384 74.8632 236.064 73.8712 236.544C72.8792 237.008 71.6632 237.24 70.2232 237.24C69.3272 237.24 68.4872 237.16 67.7032 237C66.9192 236.84 66.2392 236.608 65.6632 236.304V233.616C66.2552 233.936 66.9672 234.2 67.7992 234.408C68.6312 234.616 69.4152 234.72 70.1512 234.72C70.9192 234.72 71.5752 234.616 72.1192 234.408C72.6632 234.184 73.0792 233.848 73.3672 233.4C73.6552 232.936 73.7992 232.352 73.7992 231.648C73.7992 230.688 73.4952 229.96 72.8872 229.464C72.2792 228.968 71.3352 228.72 70.0552 228.72C69.6072 228.72 69.1192 228.76 68.5912 228.84C68.0792 228.92 67.6552 229 67.3192 229.08L66.0232 228.36L66.6712 219.864H75.6952V222.504H69.3352L68.9752 226.464C69.2472 226.416 69.5672 226.368 69.9352 226.32C70.3192 226.256 70.7912 226.224 71.3512 226.224Z" fill="white"/>
</g>
</g>
<path d="M104.952 238L103.132 232.708H95.6L93.808 238H90L97.336 217.924H101.424L108.76 238H104.952ZM100.472 224.476C100.397 224.215 100.285 223.86 100.136 223.412C99.9867 222.964 99.8373 222.507 99.688 222.04C99.5573 221.555 99.4547 221.153 99.38 220.836C99.2867 221.209 99.1653 221.639 99.016 222.124C98.8853 222.609 98.7547 223.067 98.624 223.496C98.512 223.925 98.4187 224.252 98.344 224.476L96.58 229.628H102.208L100.472 224.476ZM115.081 238H111.553V216.72H115.081V238ZM125.972 235.452C126.42 235.452 126.85 235.415 127.26 235.34C127.671 235.247 128.054 235.144 128.408 235.032V237.664C128.035 237.832 127.55 237.972 126.952 238.084C126.355 238.215 125.73 238.28 125.076 238.28C124.218 238.28 123.434 238.14 122.724 237.86C122.034 237.561 121.474 237.057 121.044 236.348C120.634 235.639 120.428 234.649 120.428 233.38V225.484H118.384V223.944L120.624 222.712L121.744 219.492H123.956V222.824H128.268V225.484H123.956V233.352C123.956 234.061 124.143 234.593 124.516 234.948C124.89 235.284 125.375 235.452 125.972 235.452ZM135.635 235.06C135.467 235.713 135.253 236.423 134.991 237.188C134.73 237.935 134.45 238.681 134.151 239.428C133.853 240.193 133.545 240.921 133.227 241.612H130.679C130.866 240.884 131.043 240.109 131.211 239.288C131.379 238.485 131.538 237.692 131.687 236.908C131.837 236.124 131.958 235.405 132.051 234.752H135.439L135.635 235.06Z" fill="white"/>
<path d="M165.536 238L158.956 220.472H158.844C158.881 220.845 158.909 221.321 158.928 221.9C158.965 222.479 158.993 223.113 159.012 223.804C159.031 224.476 159.04 225.167 159.04 225.876V238H156.716V218.008H160.44L166.6 234.388H166.712L172.984 218.008H176.68V238H174.188V225.708C174.188 225.055 174.197 224.411 174.216 223.776C174.235 223.123 174.263 222.516 174.3 221.956C174.337 221.377 174.365 220.892 174.384 220.5H174.272L167.608 238H165.536ZM187.966 222.74C189.796 222.74 191.149 223.141 192.026 223.944C192.904 224.747 193.342 226.025 193.342 227.78V238H191.55L191.074 235.872H190.962C190.533 236.413 190.085 236.871 189.618 237.244C189.17 237.599 188.648 237.86 188.05 238.028C187.472 238.196 186.762 238.28 185.922 238.28C185.026 238.28 184.214 238.121 183.486 237.804C182.777 237.487 182.217 237.001 181.806 236.348C181.396 235.676 181.19 234.836 181.19 233.828C181.19 232.335 181.778 231.187 182.954 230.384C184.13 229.563 185.941 229.115 188.386 229.04L190.934 228.956V228.06C190.934 226.809 190.664 225.941 190.122 225.456C189.581 224.971 188.816 224.728 187.826 224.728C187.042 224.728 186.296 224.849 185.586 225.092C184.877 225.316 184.214 225.577 183.598 225.876L182.842 224.028C183.496 223.673 184.27 223.375 185.166 223.132C186.062 222.871 186.996 222.74 187.966 222.74ZM188.694 230.748C186.828 230.823 185.53 231.121 184.802 231.644C184.093 232.167 183.738 232.904 183.738 233.856C183.738 234.696 183.99 235.312 184.494 235.704C185.017 236.096 185.68 236.292 186.482 236.292C187.752 236.292 188.806 235.947 189.646 235.256C190.486 234.547 190.906 233.464 190.906 232.008V230.664L188.694 230.748ZM211.022 222.992V238H209.006L208.642 236.012H208.53C208.212 236.535 207.802 236.964 207.298 237.3C206.794 237.636 206.243 237.879 205.646 238.028C205.048 238.196 204.423 238.28 203.77 238.28C202.575 238.28 201.567 238.093 200.746 237.72C199.943 237.328 199.336 236.731 198.926 235.928C198.515 235.125 198.31 234.089 198.31 232.82V222.992H200.802V232.652C200.802 233.847 201.072 234.743 201.614 235.34C202.155 235.937 202.995 236.236 204.134 236.236C205.254 236.236 206.131 236.031 206.766 235.62C207.419 235.191 207.876 234.575 208.138 233.772C208.418 232.951 208.558 231.961 208.558 230.804V222.992H211.022ZM223.286 222.712C223.566 222.712 223.865 222.731 224.182 222.768C224.518 222.787 224.808 222.824 225.05 222.88L224.742 225.148C224.5 225.092 224.229 225.045 223.93 225.008C223.65 224.971 223.38 224.952 223.118 224.952C222.54 224.952 221.989 225.073 221.466 225.316C220.944 225.559 220.477 225.904 220.066 226.352C219.656 226.781 219.329 227.304 219.086 227.92C218.862 228.536 218.75 229.227 218.75 229.992V238H216.286V222.992H218.302L218.582 225.736H218.694C219.012 225.176 219.394 224.672 219.842 224.224C220.29 223.757 220.804 223.393 221.382 223.132C221.961 222.852 222.596 222.712 223.286 222.712ZM230.817 222.992V238H228.353V222.992H230.817ZM229.613 217.364C229.986 217.364 230.313 217.495 230.593 217.756C230.891 217.999 231.041 218.391 231.041 218.932C231.041 219.455 230.891 219.847 230.593 220.108C230.313 220.369 229.986 220.5 229.613 220.5C229.202 220.5 228.857 220.369 228.577 220.108C228.297 219.847 228.157 219.455 228.157 218.932C228.157 218.391 228.297 217.999 228.577 217.756C228.857 217.495 229.202 217.364 229.613 217.364ZM242.091 238.28C240.766 238.28 239.581 238.009 238.535 237.468C237.509 236.927 236.697 236.087 236.099 234.948C235.521 233.809 235.231 232.353 235.231 230.58C235.231 228.732 235.539 227.229 236.155 226.072C236.771 224.915 237.602 224.065 238.647 223.524C239.711 222.983 240.915 222.712 242.259 222.712C243.025 222.712 243.762 222.796 244.471 222.964C245.181 223.113 245.759 223.3 246.207 223.524L245.451 225.568C245.003 225.4 244.481 225.241 243.883 225.092C243.286 224.943 242.726 224.868 242.203 224.868C241.195 224.868 240.365 225.083 239.711 225.512C239.058 225.941 238.573 226.576 238.255 227.416C237.938 228.256 237.779 229.301 237.779 230.552C237.779 231.747 237.938 232.764 238.255 233.604C238.573 234.444 239.049 235.079 239.683 235.508C240.318 235.937 241.111 236.152 242.063 236.152C242.885 236.152 243.603 236.068 244.219 235.9C244.854 235.732 245.433 235.527 245.955 235.284V237.468C245.451 237.729 244.891 237.925 244.275 238.056C243.678 238.205 242.95 238.28 242.091 238.28ZM255.821 222.712C257.109 222.712 258.21 222.992 259.125 223.552C260.058 224.112 260.767 224.905 261.253 225.932C261.757 226.94 262.009 228.125 262.009 229.488V230.972H251.733C251.77 232.671 252.199 233.968 253.021 234.864C253.861 235.741 255.027 236.18 256.521 236.18C257.473 236.18 258.313 236.096 259.041 235.928C259.787 235.741 260.553 235.48 261.337 235.144V237.3C260.571 237.636 259.815 237.879 259.069 238.028C258.322 238.196 257.435 238.28 256.409 238.28C254.99 238.28 253.73 237.991 252.629 237.412C251.546 236.833 250.697 235.975 250.081 234.836C249.483 233.679 249.185 232.269 249.185 230.608C249.185 228.965 249.455 227.556 249.997 226.38C250.557 225.204 251.331 224.299 252.321 223.664C253.329 223.029 254.495 222.712 255.821 222.712ZM255.793 224.728C254.617 224.728 253.683 225.111 252.993 225.876C252.321 226.623 251.919 227.668 251.789 229.012H259.433C259.433 228.153 259.302 227.407 259.041 226.772C258.779 226.137 258.378 225.643 257.837 225.288C257.314 224.915 256.633 224.728 255.793 224.728ZM286.983 238L284.575 231.812H276.651L274.271 238H271.723L279.535 217.924H281.803L289.587 238H286.983ZM281.579 223.524C281.523 223.375 281.429 223.104 281.299 222.712C281.168 222.32 281.037 221.919 280.907 221.508C280.795 221.079 280.701 220.752 280.627 220.528C280.533 220.901 280.431 221.284 280.319 221.676C280.225 222.049 280.123 222.395 280.011 222.712C279.917 223.029 279.833 223.3 279.759 223.524L277.491 229.572H283.819L281.579 223.524ZM295.789 238L290.105 222.992H292.737L295.929 231.84C296.079 232.251 296.237 232.708 296.405 233.212C296.573 233.716 296.723 234.201 296.853 234.668C296.984 235.116 297.077 235.499 297.133 235.816H297.245C297.32 235.499 297.423 235.107 297.553 234.64C297.703 234.173 297.861 233.688 298.029 233.184C298.216 232.68 298.375 232.232 298.505 231.84L301.697 222.992H304.329L298.617 238H295.789ZM313 222.712C314.288 222.712 315.39 222.992 316.304 223.552C317.238 224.112 317.947 224.905 318.432 225.932C318.936 226.94 319.188 228.125 319.188 229.488V230.972H308.912C308.95 232.671 309.379 233.968 310.2 234.864C311.04 235.741 312.207 236.18 313.7 236.18C314.652 236.18 315.492 236.096 316.22 235.928C316.967 235.741 317.732 235.48 318.516 235.144V237.3C317.751 237.636 316.995 237.879 316.248 238.028C315.502 238.196 314.615 238.28 313.588 238.28C312.17 238.28 310.91 237.991 309.808 237.412C308.726 236.833 307.876 235.975 307.26 234.836C306.663 233.679 306.364 232.269 306.364 230.608C306.364 228.965 306.635 227.556 307.176 226.38C307.736 225.204 308.511 224.299 309.5 223.664C310.508 223.029 311.675 222.712 313 222.712ZM312.972 224.728C311.796 224.728 310.863 225.111 310.172 225.876C309.5 226.623 309.099 227.668 308.968 229.012H316.612C316.612 228.153 316.482 227.407 316.22 226.772C315.959 226.137 315.558 225.643 315.016 225.288C314.494 224.915 313.812 224.728 312.972 224.728Z" fill="white"/>
<defs>
<filter id="filter0_d_6197_760" x="32" y="199" width="50" height="58" filterUnits="userSpaceOnUse" color-interpolation-filters="sRGB">
<feFlood flood-opacity="0" result="BackgroundImageFix"/>
<feColorMatrix in="SourceAlpha" type="matrix" values="0 0 0 0 0 0 0 0 0 0 0 0 0 0 0 0 0 0 127 0" result="hardAlpha"/>
<feOffset dy="2"/>
<feColorMatrix type="matrix" values="0 0 0 0 0.113725 0 0 0 0 0.168627 0 0 0 0 0.184314 0 0 0 0.25 0"/>
<feBlend mode="normal" in2="BackgroundImageFix" result="effect1_dropShadow_6197_760"/>
<feBlend mode="normal" in="SourceGraphic" in2="effect1_dropShadow_6197_760" result="shape"/>
</filter>
<clipPath id="clip0_6197_760">
<rect width="50" height="48" fill="white" transform="translate(32 203)"/>
</clipPath>
</defs>
</svg>
