<svg width="600" height="275" viewBox="0 0 600 275" fill="none" xmlns="http://www.w3.org/2000/svg">
<rect width="600" height="275" rx="16" fill="#11181E"/>
<path d="M56.7959 34.3199L80.7222 41.2319C82.4007 41.7168 82.6942 43.9695 81.1961 44.8683L77.0575 47.3515C76.2207 47.8536 76.0786 49.0084 76.7686 49.6984L92.0204 64.9502C95.2085 68.1383 96.9996 72.4623 96.9996 76.971V117C96.9996 118.657 95.6564 120 93.9996 120H89.9996C88.3427 120 86.9996 118.657 86.9996 117L86.9996 76.971C86.9996 75.1145 86.2621 73.334 84.9493 72.0213L69.6976 56.7696C69.0076 56.0795 67.8528 56.2217 67.3507 57.0585L64.8678 61.1966C63.969 62.6947 61.7163 62.4011 61.2314 60.7227L54.3194 36.7964C53.8824 35.2839 55.2834 33.8829 56.7959 34.3199Z" fill="white"/>
<g opacity="0.4">
<path d="M177.819 56.8398L165.788 35.0342C165.027 33.6553 163.046 33.6553 162.285 35.0342L150.255 56.8398C149.411 58.3691 150.796 60.1699 152.491 59.7461L157.136 58.585C158.083 58.3483 159 59.0644 159 60.0402V116.86C159 118.518 160.343 119.86 162 119.86H166C167.657 119.86 169 118.518 169 116.86V60.0217C169 59.0459 169.917 58.3298 170.864 58.5665L175.583 59.7461C177.277 60.1699 178.663 58.3691 177.819 56.8398Z" fill="white"/>
</g>
<g opacity="0.4">
<path d="M265.819 56.8398L253.788 35.0342C253.027 33.6553 251.046 33.6553 250.285 35.0342L238.255 56.8398C237.411 58.3691 238.796 60.1699 240.491 59.7461L245.136 58.585C246.083 58.3483 247 59.0644 247 60.0402V116.86C247 118.518 248.343 119.86 250 119.86H254C255.657 119.86 257 118.518 257 116.86V60.0217C257 59.0459 257.917 58.3298 258.864 58.5665L263.583 59.7461C265.277 60.1699 266.663 58.3691 265.819 56.8398Z" fill="white"/>
</g>
<path d="M359.204 34.3199L335.278 41.2319C333.599 41.7168 333.306 43.9695 334.804 44.8683L338.942 47.3515C339.779 47.8536 339.921 49.0084 339.231 49.6984L323.98 64.9502C320.791 68.1383 319 72.4623 319 76.971V117C319 118.657 320.344 120 322 120H326C327.657 120 329 118.657 329 117L329 76.971C329 75.1145 329.738 73.334 331.051 72.0213L346.302 56.7696C346.992 56.0795 348.147 56.2217 348.649 57.0585L351.132 61.1966C352.031 62.6947 354.284 62.4011 354.769 60.7227L361.681 36.7964C362.118 35.2839 360.717 33.8829 359.204 34.3199Z" fill="#707478"/>
<path d="M33.96 168.84C33.96 167.187 34.0667 165.56 34.28 163.96C34.52 162.36 34.92 160.853 35.48 159.44C36.0667 158 36.8667 156.733 37.88 155.64C38.8933 154.52 40.1733 153.653 41.72 153.04C43.2933 152.4 45.1867 152.08 47.4 152.08C47.96 152.08 48.5867 152.107 49.28 152.16C50 152.187 50.5867 152.267 51.04 152.4V155.96C50.5333 155.8 49.9733 155.68 49.36 155.6C48.7733 155.52 48.1867 155.48 47.6 155.48C45.76 155.48 44.24 155.76 43.04 156.32C41.84 156.88 40.8933 157.653 40.2 158.64C39.5067 159.627 39 160.773 38.68 162.08C38.36 163.36 38.16 164.76 38.08 166.28H38.32C38.72 165.64 39.2133 165.067 39.8 164.56C40.3867 164.053 41.1067 163.653 41.96 163.36C42.8133 163.067 43.8 162.92 44.92 162.92C46.5733 162.92 48.0133 163.267 49.24 163.96C50.4933 164.653 51.4533 165.653 52.12 166.96C52.8133 168.267 53.16 169.853 53.16 171.72C53.16 173.72 52.7733 175.453 52 176.92C51.2533 178.36 50.1867 179.467 48.8 180.24C47.44 181.013 45.8 181.4 43.88 181.4C42.4933 181.4 41.2 181.147 40 180.64C38.8 180.133 37.7467 179.36 36.84 178.32C35.9333 177.28 35.2267 175.973 34.72 174.4C34.2133 172.8 33.96 170.947 33.96 168.84ZM43.84 177.88C45.36 177.88 46.6 177.387 47.56 176.4C48.52 175.387 49 173.827 49 171.72C49 170.04 48.5733 168.707 47.72 167.72C46.8933 166.733 45.64 166.24 43.96 166.24C42.8133 166.24 41.8133 166.48 40.96 166.96C40.1067 167.44 39.44 168.053 38.96 168.8C38.48 169.547 38.24 170.307 38.24 171.08C38.24 171.907 38.36 172.72 38.6 173.52C38.84 174.32 39.1867 175.053 39.64 175.72C40.12 176.387 40.7067 176.92 41.4 177.32C42.0933 177.693 42.9067 177.88 43.84 177.88ZM76.4706 166.68C76.4706 169 76.284 171.067 75.9106 172.88C75.564 174.693 75.004 176.24 74.2306 177.52C73.484 178.773 72.484 179.733 71.2306 180.4C70.004 181.067 68.524 181.4 66.7906 181.4C64.604 181.4 62.804 180.813 61.3906 179.64C59.9773 178.467 58.924 176.787 58.2306 174.6C57.5373 172.387 57.1906 169.747 57.1906 166.68C57.1906 163.587 57.4973 160.947 58.1106 158.76C58.7506 156.573 59.7773 154.907 61.1906 153.76C62.604 152.587 64.4706 152 66.7906 152C68.9773 152 70.7773 152.587 72.1906 153.76C73.6306 154.907 74.6973 156.573 75.3906 158.76C76.1106 160.947 76.4706 163.587 76.4706 166.68ZM61.4306 166.68C61.4306 169.16 61.604 171.227 61.9506 172.88C62.2973 174.533 62.8573 175.773 63.6306 176.6C64.4306 177.427 65.484 177.84 66.7906 177.84C68.0973 177.84 69.1373 177.44 69.9106 176.64C70.7106 175.813 71.284 174.573 71.6306 172.92C72.004 171.24 72.1906 169.16 72.1906 166.68C72.1906 164.2 72.004 162.147 71.6306 160.52C71.284 158.867 70.7106 157.627 69.9106 156.8C69.1373 155.973 68.0973 155.56 66.7906 155.56C65.484 155.56 64.4306 155.973 63.6306 156.8C62.8573 157.627 62.2973 158.867 61.9506 160.52C61.604 162.147 61.4306 164.2 61.4306 166.68ZM99.8613 166.68C99.8613 169 99.6746 171.067 99.3013 172.88C98.9546 174.693 98.3946 176.24 97.6213 177.52C96.8746 178.773 95.8746 179.733 94.6213 180.4C93.3946 181.067 91.9146 181.4 90.1813 181.4C87.9946 181.4 86.1946 180.813 84.7813 179.64C83.3679 178.467 82.3146 176.787 81.6213 174.6C80.9279 172.387 80.5813 169.747 80.5813 166.68C80.5813 163.587 80.8879 160.947 81.5013 158.76C82.1413 156.573 83.1679 154.907 84.5813 153.76C85.9946 152.587 87.8613 152 90.1813 152C92.3679 152 94.1679 152.587 95.5813 153.76C97.0213 154.907 98.0879 156.573 98.7812 158.76C99.5013 160.947 99.8613 163.587 99.8613 166.68ZM84.8213 166.68C84.8213 169.16 84.9946 171.227 85.3413 172.88C85.6879 174.533 86.2479 175.773 87.0213 176.6C87.8213 177.427 88.8746 177.84 90.1813 177.84C91.4879 177.84 92.5279 177.44 93.3013 176.64C94.1013 175.813 94.6746 174.573 95.0213 172.92C95.3946 171.24 95.5813 169.16 95.5813 166.68C95.5813 164.2 95.3946 162.147 95.0213 160.52C94.6746 158.867 94.1013 157.627 93.3013 156.8C92.5279 155.973 91.4879 155.56 90.1813 155.56C88.8746 155.56 87.8213 155.973 87.0213 156.8C86.2479 157.627 85.6879 158.867 85.3413 160.52C84.9946 162.147 84.8213 164.2 84.8213 166.68ZM113.103 159.44H117.663L122.143 171.68C122.383 172.293 122.596 172.893 122.783 173.48C122.969 174.067 123.129 174.653 123.263 175.24C123.423 175.8 123.543 176.36 123.622 176.92H123.783C123.916 176.227 124.129 175.413 124.423 174.48C124.716 173.52 125.023 172.573 125.343 171.64L129.583 159.44H134.143L124.903 183.92C124.396 185.307 123.769 186.493 123.023 187.48C122.276 188.493 121.383 189.267 120.343 189.8C119.329 190.333 118.129 190.6 116.743 190.6C116.076 190.6 115.503 190.56 115.023 190.48C114.543 190.427 114.129 190.36 113.783 190.28V186.92C114.076 186.973 114.423 187.027 114.823 187.08C115.249 187.133 115.689 187.16 116.143 187.16C116.969 187.16 117.676 187 118.263 186.68C118.876 186.36 119.383 185.907 119.783 185.32C120.209 184.733 120.569 184.067 120.863 183.32L121.743 181L113.103 159.44ZM145.376 181.4C142.79 181.4 140.696 180.467 139.096 178.6C137.523 176.733 136.736 173.96 136.736 170.28C136.736 166.573 137.536 163.773 139.136 161.88C140.736 159.987 142.843 159.04 145.456 159.04C146.55 159.04 147.496 159.187 148.296 159.48C149.123 159.747 149.83 160.12 150.416 160.6C151.03 161.08 151.55 161.613 151.976 162.2H152.216C152.163 161.827 152.096 161.293 152.016 160.6C151.936 159.88 151.896 159.24 151.896 158.68V150.6H156.136V181H152.816L152.096 178.12H151.896C151.496 178.733 150.99 179.293 150.376 179.8C149.79 180.28 149.083 180.667 148.256 180.96C147.43 181.253 146.47 181.4 145.376 181.4ZM146.376 177.92C148.456 177.92 149.923 177.347 150.776 176.2C151.63 175.027 152.056 173.28 152.056 170.96V170.32C152.056 167.787 151.643 165.853 150.816 164.52C150.016 163.187 148.523 162.52 146.336 162.52C144.603 162.52 143.296 163.227 142.416 164.64C141.536 166.027 141.096 167.933 141.096 170.36C141.096 172.787 141.536 174.653 142.416 175.96C143.296 177.267 144.616 177.92 146.376 177.92Z" fill="white"/>
<g filter="url(#filter0_d_6197_670)">
<g clip-path="url(#clip0_6197_670)">
<path d="M70.1462 205.362C71.6336 204.857 71.9794 204.745 72.6589 204.556C73.2247 204.398 73.8293 204.581 74.211 205.021C78.2618 209.691 80.5 215.479 80.5 221.568C80.5 235.838 70.9622 246.94 57.2779 249.475C57.0949 249.509 56.9072 249.509 56.7242 249.475C43.0359 246.941 33.5 235.84 33.5 221.568C33.5 215.476 35.7367 209.688 39.7872 205.021C40.1689 204.581 40.7733 204.398 41.3388 204.556C42.0191 204.745 42.3685 204.858 43.8527 205.362C46.178 206.15 47.5198 206.507 48.9652 206.507C50.4109 206.507 51.7556 206.149 54.0802 205.362C55.571 204.856 55.914 204.745 56.5933 204.556C56.8601 204.482 57.1422 204.482 57.409 204.556C58.0876 204.745 58.4272 204.855 59.9206 205.362C62.2436 206.149 63.589 206.507 65.0348 206.507C66.4792 206.507 67.8222 206.149 70.1462 205.362Z" fill="#2D589C" stroke="white" stroke-width="3"/>
<path d="M70.6275 206.782C72.1153 206.278 72.4257 206.178 73.0609 206.001C73.0637 206 73.0663 206 73.0663 206L73.069 206L73.0721 206.001C73.0743 206.002 73.0763 206.003 73.0763 206.003L73.0776 206.004C75.1596 208.404 76.7298 211.111 77.7284 214H36.2695C37.2677 211.11 38.8376 208.403 40.9198 206.004L40.9212 206.003C40.9212 206.003 40.9231 206.002 40.9253 206.001C40.9275 206 40.9311 206 40.9311 206C40.9311 206 40.9337 206 40.9365 206.001C41.5724 206.178 41.8864 206.279 43.3709 206.782C45.6998 207.572 47.249 208.007 48.9649 208.007C50.681 208.007 52.2329 207.571 54.5614 206.782C56.0525 206.277 56.3602 206.178 56.9953 206.001C56.9988 206 57.0027 206 57.0061 206.001C57.6405 206.178 57.9449 206.276 59.4387 206.782C61.7657 207.571 63.3183 208.007 65.0345 208.007C66.7494 208.007 68.2999 207.571 70.6275 206.782Z" fill="#C3281C"/>
<rect x="35" y="214" width="44" height="2" fill="white"/>
<path d="M49.1944 233.328H46.9624V237H43.9864V233.328H36.3544V231.072L44.0584 219.816H46.9624V230.856H49.1944V233.328ZM43.9864 227.016C43.9864 226.68 43.9864 226.336 43.9864 225.984C44.0024 225.616 44.0184 225.256 44.0344 224.904C44.0504 224.552 44.0664 224.232 44.0824 223.944C44.0984 223.656 44.1144 223.432 44.1304 223.272H44.0344C43.8904 223.576 43.7304 223.896 43.5544 224.232C43.3944 224.552 43.2104 224.856 43.0024 225.144L39.1144 230.856H43.9864V227.016ZM62.8528 227.184C62.8528 228.16 62.7808 229.136 62.6368 230.112C62.4928 231.072 62.2448 231.984 61.8928 232.848C61.5408 233.696 61.0528 234.456 60.4288 235.128C59.8048 235.784 59.0048 236.304 58.0288 236.688C57.0688 237.056 55.9008 237.24 54.5248 237.24C54.2048 237.24 53.8208 237.224 53.3728 237.192C52.9408 237.16 52.5808 237.112 52.2928 237.048V234.552C52.5968 234.632 52.9248 234.696 53.2768 234.744C53.6448 234.792 54.0048 234.816 54.3568 234.816C55.4448 234.816 56.3408 234.672 57.0448 234.384C57.7648 234.08 58.3248 233.664 58.7248 233.136C59.1408 232.592 59.4448 231.96 59.6368 231.24C59.8288 230.504 59.9408 229.72 59.9728 228.888H59.8288C59.5888 229.256 59.3008 229.592 58.9648 229.896C58.6448 230.2 58.2368 230.44 57.7408 230.616C57.2608 230.792 56.6528 230.88 55.9168 230.88C54.9408 230.88 54.0848 230.672 53.3488 230.256C52.6288 229.84 52.0688 229.24 51.6688 228.456C51.2688 227.656 51.0688 226.688 51.0688 225.552C51.0688 224.32 51.3008 223.264 51.7648 222.384C52.2288 221.504 52.8848 220.832 53.7328 220.368C54.5968 219.888 55.6048 219.648 56.7568 219.648C57.6208 219.648 58.4208 219.808 59.1568 220.128C59.8928 220.432 60.5328 220.896 61.0768 221.52C61.6368 222.128 62.0688 222.904 62.3728 223.848C62.6928 224.792 62.8528 225.904 62.8528 227.184ZM56.8048 222.144C55.9888 222.144 55.3248 222.416 54.8128 222.96C54.3008 223.504 54.0448 224.352 54.0448 225.504C54.0448 226.448 54.2608 227.192 54.6928 227.736C55.1408 228.264 55.8208 228.528 56.7328 228.528C57.3568 228.528 57.8928 228.392 58.3408 228.12C58.8048 227.848 59.1648 227.512 59.4208 227.112C59.6768 226.712 59.8048 226.288 59.8048 225.84C59.8048 225.408 59.7408 224.976 59.6128 224.544C59.4848 224.096 59.2928 223.688 59.0368 223.32C58.7968 222.952 58.4848 222.664 58.1008 222.456C57.7328 222.248 57.3008 222.144 56.8048 222.144ZM71.3512 226.224C72.4392 226.224 73.3992 226.424 74.2312 226.824C75.0632 227.224 75.7112 227.808 76.1752 228.576C76.6552 229.328 76.8952 230.256 76.8952 231.36C76.8952 232.576 76.6392 233.624 76.1272 234.504C75.6152 235.384 74.8632 236.064 73.8712 236.544C72.8792 237.008 71.6632 237.24 70.2232 237.24C69.3272 237.24 68.4872 237.16 67.7032 237C66.9192 236.84 66.2392 236.608 65.6632 236.304V233.616C66.2552 233.936 66.9672 234.2 67.7992 234.408C68.6312 234.616 69.4152 234.72 70.1512 234.72C70.9192 234.72 71.5752 234.616 72.1192 234.408C72.6632 234.184 73.0792 233.848 73.3672 233.4C73.6552 232.936 73.7992 232.352 73.7992 231.648C73.7992 230.688 73.4952 229.96 72.8872 229.464C72.2792 228.968 71.3352 228.72 70.0552 228.72C69.6072 228.72 69.1192 228.76 68.5912 228.84C68.0792 228.92 67.6552 229 67.3192 229.08L66.0232 228.36L66.6712 219.864H75.6952V222.504H69.3352L68.9752 226.464C69.2472 226.416 69.5672 226.368 69.9352 226.32C70.3192 226.256 70.7912 226.224 71.3512 226.224Z" fill="white"/>
</g>
</g>
<path d="M103.972 238H92.604V218.008H103.972V221.004H96.188V226.1H103.468V229.096H96.188V234.976H103.972V238ZM114.429 222.544C116.389 222.544 117.873 222.973 118.881 223.832C119.908 224.672 120.421 225.997 120.421 227.808V238H117.929L117.229 235.9H117.117C116.688 236.441 116.24 236.899 115.773 237.272C115.325 237.627 114.803 237.879 114.205 238.028C113.627 238.196 112.917 238.28 112.077 238.28C111.181 238.28 110.369 238.112 109.641 237.776C108.932 237.44 108.372 236.927 107.961 236.236C107.551 235.527 107.345 234.64 107.345 233.576C107.345 232.008 107.915 230.832 109.053 230.048C110.211 229.245 111.956 228.807 114.289 228.732L116.921 228.648V227.892C116.921 226.921 116.688 226.231 116.221 225.82C115.755 225.409 115.101 225.204 114.261 225.204C113.496 225.204 112.759 225.316 112.049 225.54C111.34 225.764 110.649 226.025 109.977 226.324L108.857 223.86C109.604 223.468 110.453 223.151 111.405 222.908C112.376 222.665 113.384 222.544 114.429 222.544ZM115.073 230.888C113.524 230.944 112.451 231.215 111.853 231.7C111.256 232.167 110.957 232.801 110.957 233.604C110.957 234.313 111.172 234.827 111.601 235.144C112.031 235.461 112.581 235.62 113.253 235.62C114.28 235.62 115.148 235.331 115.857 234.752C116.567 234.155 116.921 233.277 116.921 232.12V230.832L115.073 230.888ZM135.674 233.604C135.674 234.612 135.432 235.471 134.946 236.18C134.461 236.871 133.742 237.393 132.79 237.748C131.857 238.103 130.709 238.28 129.346 238.28C128.282 238.28 127.368 238.205 126.602 238.056C125.837 237.907 125.109 237.673 124.418 237.356V234.36C125.165 234.715 125.996 235.013 126.91 235.256C127.825 235.499 128.674 235.62 129.458 235.62C130.429 235.62 131.129 235.471 131.558 235.172C131.988 234.873 132.202 234.472 132.202 233.968C132.202 233.669 132.118 233.399 131.95 233.156C131.782 232.913 131.456 232.661 130.97 232.4C130.485 232.12 129.748 231.775 128.758 231.364C127.788 230.972 126.976 230.58 126.322 230.188C125.688 229.796 125.202 229.329 124.866 228.788C124.549 228.228 124.39 227.528 124.39 226.688C124.39 225.325 124.932 224.299 126.014 223.608C127.097 222.899 128.525 222.544 130.298 222.544C131.232 222.544 132.109 222.637 132.93 222.824C133.77 222.992 134.61 223.272 135.45 223.664L134.33 226.268C133.864 226.063 133.397 225.885 132.93 225.736C132.482 225.568 132.025 225.437 131.558 225.344C131.11 225.251 130.653 225.204 130.186 225.204C129.421 225.204 128.842 225.325 128.45 225.568C128.058 225.792 127.862 226.109 127.862 226.52C127.862 226.837 127.956 227.117 128.142 227.36C128.348 227.584 128.693 227.817 129.178 228.06C129.682 228.284 130.392 228.583 131.306 228.956C132.221 229.311 132.996 229.684 133.63 230.076C134.284 230.449 134.788 230.916 135.142 231.476C135.497 232.036 135.674 232.745 135.674 233.604ZM145.449 235.452C145.897 235.452 146.326 235.415 146.737 235.34C147.147 235.247 147.53 235.144 147.885 235.032V237.664C147.511 237.832 147.026 237.972 146.429 238.084C145.831 238.215 145.206 238.28 144.553 238.28C143.694 238.28 142.91 238.14 142.201 237.86C141.51 237.561 140.95 237.057 140.521 236.348C140.11 235.639 139.905 234.649 139.905 233.38V225.484H137.861V223.944L140.101 222.712L141.221 219.492H143.433V222.824H147.745V225.484H143.433V233.352C143.433 234.061 143.619 234.593 143.993 234.948C144.366 235.284 144.851 235.452 145.449 235.452ZM155.112 235.06C154.944 235.713 154.729 236.423 154.468 237.188C154.206 237.935 153.926 238.681 153.628 239.428C153.329 240.193 153.021 240.921 152.704 241.612H150.156C150.342 240.884 150.52 240.109 150.688 239.288C150.856 238.485 151.014 237.692 151.164 236.908C151.313 236.124 151.434 235.405 151.528 234.752H154.916L155.112 235.06Z" fill="white"/>
<path d="M181.232 218.008C182.893 218.008 184.256 218.223 185.32 218.652C186.403 219.063 187.205 219.688 187.728 220.528C188.251 221.368 188.512 222.423 188.512 223.692C188.512 224.756 188.316 225.643 187.924 226.352C187.532 227.061 187.028 227.631 186.412 228.06C185.815 228.471 185.18 228.797 184.508 229.04L189.996 238H187.056L182.212 229.74H178.236V238H175.716V218.008H181.232ZM181.092 220.192H178.236V227.612H181.232C182.315 227.612 183.201 227.472 183.892 227.192C184.583 226.893 185.087 226.464 185.404 225.904C185.74 225.344 185.908 224.644 185.908 223.804C185.908 222.927 185.731 222.227 185.376 221.704C185.04 221.181 184.517 220.799 183.808 220.556C183.099 220.313 182.193 220.192 181.092 220.192ZM195.762 222.992V238H193.298V222.992H195.762ZM194.558 217.364C194.931 217.364 195.258 217.495 195.538 217.756C195.837 217.999 195.986 218.391 195.986 218.932C195.986 219.455 195.837 219.847 195.538 220.108C195.258 220.369 194.931 220.5 194.558 220.5C194.147 220.5 193.802 220.369 193.522 220.108C193.242 219.847 193.102 219.455 193.102 218.932C193.102 218.391 193.242 217.999 193.522 217.756C193.802 217.495 194.147 217.364 194.558 217.364ZM204.321 238L198.637 222.992H201.269L204.461 231.84C204.61 232.251 204.769 232.708 204.937 233.212C205.105 233.716 205.254 234.201 205.385 234.668C205.515 235.116 205.609 235.499 205.665 235.816H205.777C205.851 235.499 205.954 235.107 206.085 234.64C206.234 234.173 206.393 233.688 206.561 233.184C206.747 232.68 206.906 232.232 207.037 231.84L210.229 222.992H212.861L207.149 238H204.321ZM221.531 222.712C222.819 222.712 223.921 222.992 224.835 223.552C225.769 224.112 226.478 224.905 226.963 225.932C227.467 226.94 227.719 228.125 227.719 229.488V230.972H217.443C217.481 232.671 217.91 233.968 218.731 234.864C219.571 235.741 220.738 236.18 222.231 236.18C223.183 236.18 224.023 236.096 224.751 235.928C225.498 235.741 226.263 235.48 227.047 235.144V237.3C226.282 237.636 225.526 237.879 224.779 238.028C224.033 238.196 223.146 238.28 222.119 238.28C220.701 238.28 219.441 237.991 218.339 237.412C217.257 236.833 216.407 235.975 215.791 234.836C215.194 233.679 214.895 232.269 214.895 230.608C214.895 228.965 215.166 227.556 215.707 226.38C216.267 225.204 217.042 224.299 218.031 223.664C219.039 223.029 220.206 222.712 221.531 222.712ZM221.503 224.728C220.327 224.728 219.394 225.111 218.703 225.876C218.031 226.623 217.63 227.668 217.499 229.012H225.143C225.143 228.153 225.013 227.407 224.751 226.772C224.49 226.137 224.089 225.643 223.547 225.288C223.025 224.915 222.343 224.728 221.503 224.728ZM239.04 222.712C239.32 222.712 239.619 222.731 239.936 222.768C240.272 222.787 240.561 222.824 240.804 222.88L240.496 225.148C240.253 225.092 239.983 225.045 239.684 225.008C239.404 224.971 239.133 224.952 238.872 224.952C238.293 224.952 237.743 225.073 237.22 225.316C236.697 225.559 236.231 225.904 235.82 226.352C235.409 226.781 235.083 227.304 234.84 227.92C234.616 228.536 234.504 229.227 234.504 229.992V238H232.04V222.992H234.056L234.336 225.736H234.448C234.765 225.176 235.148 224.672 235.596 224.224C236.044 223.757 236.557 223.393 237.136 223.132C237.715 222.852 238.349 222.712 239.04 222.712ZM246.571 222.964C246.571 223.319 246.552 223.683 246.515 224.056C246.496 224.429 246.468 224.765 246.431 225.064H246.599C246.916 224.541 247.317 224.112 247.803 223.776C248.288 223.44 248.829 223.188 249.427 223.02C250.024 222.833 250.64 222.74 251.275 222.74C252.488 222.74 253.496 222.936 254.299 223.328C255.12 223.701 255.736 224.289 256.147 225.092C256.557 225.895 256.763 226.94 256.763 228.228V238H254.327V228.396C254.327 227.183 254.056 226.277 253.515 225.68C252.973 225.083 252.124 224.784 250.967 224.784C249.847 224.784 248.969 224.999 248.335 225.428C247.7 225.839 247.243 226.455 246.963 227.276C246.701 228.079 246.571 229.068 246.571 230.244V238H244.107V216.72H246.571V222.964ZM267.711 222.712C268.999 222.712 270.1 222.992 271.015 223.552C271.948 224.112 272.658 224.905 273.143 225.932C273.647 226.94 273.899 228.125 273.899 229.488V230.972H263.623C263.66 232.671 264.09 233.968 264.911 234.864C265.751 235.741 266.918 236.18 268.411 236.18C269.363 236.18 270.203 236.096 270.931 235.928C271.678 235.741 272.443 235.48 273.227 235.144V237.3C272.462 237.636 271.706 237.879 270.959 238.028C270.212 238.196 269.326 238.28 268.299 238.28C266.88 238.28 265.62 237.991 264.519 237.412C263.436 236.833 262.587 235.975 261.971 234.836C261.374 233.679 261.075 232.269 261.075 230.608C261.075 228.965 261.346 227.556 261.887 226.38C262.447 225.204 263.222 224.299 264.211 223.664C265.219 223.029 266.386 222.712 267.711 222.712ZM267.683 224.728C266.507 224.728 265.574 225.111 264.883 225.876C264.211 226.623 263.81 227.668 263.679 229.012H271.323C271.323 228.153 271.192 227.407 270.931 226.772C270.67 226.137 270.268 225.643 269.727 225.288C269.204 224.915 268.523 224.728 267.683 224.728ZM283.904 222.74C285.733 222.74 287.087 223.141 287.964 223.944C288.841 224.747 289.28 226.025 289.28 227.78V238H287.488L287.012 235.872H286.9C286.471 236.413 286.023 236.871 285.556 237.244C285.108 237.599 284.585 237.86 283.988 238.028C283.409 238.196 282.7 238.28 281.86 238.28C280.964 238.28 280.152 238.121 279.424 237.804C278.715 237.487 278.155 237.001 277.744 236.348C277.333 235.676 277.128 234.836 277.128 233.828C277.128 232.335 277.716 231.187 278.892 230.384C280.068 229.563 281.879 229.115 284.324 229.04L286.872 228.956V228.06C286.872 226.809 286.601 225.941 286.06 225.456C285.519 224.971 284.753 224.728 283.764 224.728C282.98 224.728 282.233 224.849 281.524 225.092C280.815 225.316 280.152 225.577 279.536 225.876L278.78 224.028C279.433 223.673 280.208 223.375 281.104 223.132C282 222.871 282.933 222.74 283.904 222.74ZM284.632 230.748C282.765 230.823 281.468 231.121 280.74 231.644C280.031 232.167 279.676 232.904 279.676 233.856C279.676 234.696 279.928 235.312 280.432 235.704C280.955 236.096 281.617 236.292 282.42 236.292C283.689 236.292 284.744 235.947 285.584 235.256C286.424 234.547 286.844 233.464 286.844 232.008V230.664L284.632 230.748ZM299.735 238.28C297.868 238.28 296.375 237.636 295.255 236.348C294.135 235.041 293.575 233.1 293.575 230.524C293.575 227.948 294.135 226.007 295.255 224.7C296.394 223.375 297.896 222.712 299.763 222.712C300.547 222.712 301.228 222.815 301.807 223.02C302.386 223.207 302.89 223.468 303.319 223.804C303.748 224.14 304.112 224.513 304.411 224.924H304.579C304.56 224.681 304.523 224.327 304.467 223.86C304.43 223.375 304.411 222.992 304.411 222.712V216.72H306.875V238H304.887L304.523 235.984H304.411C304.112 236.413 303.748 236.805 303.319 237.16C302.89 237.496 302.376 237.767 301.779 237.972C301.2 238.177 300.519 238.28 299.735 238.28ZM300.127 236.236C301.714 236.236 302.824 235.807 303.459 234.948C304.112 234.071 304.439 232.755 304.439 231V230.552C304.439 228.685 304.131 227.257 303.515 226.268C302.899 225.26 301.76 224.756 300.099 224.756C298.774 224.756 297.775 225.288 297.103 226.352C296.45 227.397 296.123 228.807 296.123 230.58C296.123 232.372 296.45 233.763 297.103 234.752C297.775 235.741 298.783 236.236 300.127 236.236Z" fill="white"/>
<defs>
<filter id="filter0_d_6197_670" x="32" y="199" width="50" height="58" filterUnits="userSpaceOnUse" color-interpolation-filters="sRGB">
<feFlood flood-opacity="0" result="BackgroundImageFix"/>
<feColorMatrix in="SourceAlpha" type="matrix" values="0 0 0 0 0 0 0 0 0 0 0 0 0 0 0 0 0 0 127 0" result="hardAlpha"/>
<feOffset dy="2"/>
<feColorMatrix type="matrix" values="0 0 0 0 0.113725 0 0 0 0 0.168627 0 0 0 0 0.184314 0 0 0 0.25 0"/>
<feBlend mode="normal" in2="BackgroundImageFix" result="effect1_dropShadow_6197_670"/>
<feBlend mode="normal" in="SourceGraphic" in2="effect1_dropShadow_6197_670" result="shape"/>
</filter>
<clipPath id="clip0_6197_670">
<rect width="50" height="48" fill="white" transform="translate(32 203)"/>
</clipPath>
</defs>
</svg>
