<svg width="600" height="275" viewBox="0 0 600 275" fill="none" xmlns="http://www.w3.org/2000/svg">
<rect width="600" height="275" rx="16" fill="#11181E"/>
<g opacity="0.4">
<path d="M56.7959 34.3199L80.7222 41.2319C82.4007 41.7168 82.6942 43.9695 81.1961 44.8683L77.0575 47.3515C76.2207 47.8536 76.0786 49.0084 76.7686 49.6984L92.0204 64.9502C95.2085 68.1383 96.9996 72.4623 96.9996 76.971V117C96.9996 118.657 95.6564 120 93.9996 120H89.9996C88.3427 120 86.9996 118.657 86.9996 117L86.9996 76.971C86.9996 75.1145 86.2621 73.334 84.9493 72.0213L69.6976 56.7696C69.0076 56.0795 67.8528 56.2217 67.3507 57.0585L64.8678 61.1966C63.969 62.6947 61.7163 62.4011 61.2314 60.7227L54.3194 36.7964C53.8824 35.2839 55.2834 33.8829 56.7959 34.3199Z" fill="white"/>
</g>
<g opacity="0.4">
<path d="M177.819 56.8398L165.788 35.0342C165.027 33.6553 163.046 33.6553 162.285 35.0342L150.255 56.8398C149.411 58.3691 150.796 60.1699 152.491 59.7461L157.136 58.585C158.083 58.3483 159 59.0644 159 60.0402V116.86C159 118.518 160.343 119.86 162 119.86H166C167.657 119.86 169 118.518 169 116.86V60.0217C169 59.0459 169.917 58.3298 170.864 58.5665L175.583 59.7461C177.277 60.1699 178.663 58.3691 177.819 56.8398Z" fill="white"/>
</g>
<g opacity="0.4">
<path d="M265.819 56.8398L253.788 35.0342C253.027 33.6553 251.046 33.6553 250.285 35.0342L238.255 56.8398C237.411 58.3691 238.796 60.1699 240.491 59.7461L245.136 58.585C246.083 58.3483 247 59.0644 247 60.0402V116.86C247 118.518 248.343 119.86 250 119.86H254C255.657 119.86 257 118.518 257 116.86V60.0217C257 59.0459 257.917 58.3298 258.864 58.5665L263.583 59.7461C265.277 60.1699 266.663 58.3691 265.819 56.8398Z" fill="white"/>
</g>
<path d="M359.204 34.3199L335.278 41.2319C333.599 41.7168 333.306 43.9695 334.804 44.8683L338.942 47.3515C339.779 47.8536 339.921 49.0084 339.231 49.6984L323.98 64.9502C320.791 68.1383 319 72.4623 319 76.971V117C319 118.657 320.344 120 322 120H326C327.657 120 329 118.657 329 117L329 76.971C329 75.1145 329.738 73.334 331.051 72.0213L346.302 56.7696C346.992 56.0795 348.147 56.2217 348.649 57.0585L351.132 61.1966C352.031 62.6947 354.284 62.4011 354.769 60.7227L361.681 36.7964C362.118 35.2839 360.717 33.8829 359.204 34.3199Z" fill="white"/>
<path d="M33.96 168.84C33.96 167.187 34.0667 165.56 34.28 163.96C34.52 162.36 34.92 160.853 35.48 159.44C36.0667 158 36.8667 156.733 37.88 155.64C38.8933 154.52 40.1733 153.653 41.72 153.04C43.2933 152.4 45.1867 152.08 47.4 152.08C47.96 152.08 48.5867 152.107 49.28 152.16C50 152.187 50.5867 152.267 51.04 152.4V155.96C50.5333 155.8 49.9733 155.68 49.36 155.6C48.7733 155.52 48.1867 155.48 47.6 155.48C45.76 155.48 44.24 155.76 43.04 156.32C41.84 156.88 40.8933 157.653 40.2 158.64C39.5067 159.627 39 160.773 38.68 162.08C38.36 163.36 38.16 164.76 38.08 166.28H38.32C38.72 165.64 39.2133 165.067 39.8 164.56C40.3867 164.053 41.1067 163.653 41.96 163.36C42.8133 163.067 43.8 162.92 44.92 162.92C46.5733 162.92 48.0133 163.267 49.24 163.96C50.4933 164.653 51.4533 165.653 52.12 166.96C52.8133 168.267 53.16 169.853 53.16 171.72C53.16 173.72 52.7733 175.453 52 176.92C51.2533 178.36 50.1867 179.467 48.8 180.24C47.44 181.013 45.8 181.4 43.88 181.4C42.4933 181.4 41.2 181.147 40 180.64C38.8 180.133 37.7467 179.36 36.84 178.32C35.9333 177.28 35.2267 175.973 34.72 174.4C34.2133 172.8 33.96 170.947 33.96 168.84ZM43.84 177.88C45.36 177.88 46.6 177.387 47.56 176.4C48.52 175.387 49 173.827 49 171.72C49 170.04 48.5733 168.707 47.72 167.72C46.8933 166.733 45.64 166.24 43.96 166.24C42.8133 166.24 41.8133 166.48 40.96 166.96C40.1067 167.44 39.44 168.053 38.96 168.8C38.48 169.547 38.24 170.307 38.24 171.08C38.24 171.907 38.36 172.72 38.6 173.52C38.84 174.32 39.1867 175.053 39.64 175.72C40.12 176.387 40.7067 176.92 41.4 177.32C42.0933 177.693 42.9067 177.88 43.84 177.88ZM76.4706 166.68C76.4706 169 76.284 171.067 75.9106 172.88C75.564 174.693 75.004 176.24 74.2306 177.52C73.484 178.773 72.484 179.733 71.2306 180.4C70.004 181.067 68.524 181.4 66.7906 181.4C64.604 181.4 62.804 180.813 61.3906 179.64C59.9773 178.467 58.924 176.787 58.2306 174.6C57.5373 172.387 57.1906 169.747 57.1906 166.68C57.1906 163.587 57.4973 160.947 58.1106 158.76C58.7506 156.573 59.7773 154.907 61.1906 153.76C62.604 152.587 64.4706 152 66.7906 152C68.9773 152 70.7773 152.587 72.1906 153.76C73.6306 154.907 74.6973 156.573 75.3906 158.76C76.1106 160.947 76.4706 163.587 76.4706 166.68ZM61.4306 166.68C61.4306 169.16 61.604 171.227 61.9506 172.88C62.2973 174.533 62.8573 175.773 63.6306 176.6C64.4306 177.427 65.484 177.84 66.7906 177.84C68.0973 177.84 69.1373 177.44 69.9106 176.64C70.7106 175.813 71.284 174.573 71.6306 172.92C72.004 171.24 72.1906 169.16 72.1906 166.68C72.1906 164.2 72.004 162.147 71.6306 160.52C71.284 158.867 70.7106 157.627 69.9106 156.8C69.1373 155.973 68.0973 155.56 66.7906 155.56C65.484 155.56 64.4306 155.973 63.6306 156.8C62.8573 157.627 62.2973 158.867 61.9506 160.52C61.604 162.147 61.4306 164.2 61.4306 166.68ZM99.8613 166.68C99.8613 169 99.6746 171.067 99.3013 172.88C98.9546 174.693 98.3946 176.24 97.6213 177.52C96.8746 178.773 95.8746 179.733 94.6213 180.4C93.3946 181.067 91.9146 181.4 90.1813 181.4C87.9946 181.4 86.1946 180.813 84.7813 179.64C83.3679 178.467 82.3146 176.787 81.6213 174.6C80.9279 172.387 80.5813 169.747 80.5813 166.68C80.5813 163.587 80.8879 160.947 81.5013 158.76C82.1413 156.573 83.1679 154.907 84.5813 153.76C85.9946 152.587 87.8613 152 90.1813 152C92.3679 152 94.1679 152.587 95.5813 153.76C97.0213 154.907 98.0879 156.573 98.7812 158.76C99.5013 160.947 99.8613 163.587 99.8613 166.68ZM84.8213 166.68C84.8213 169.16 84.9946 171.227 85.3413 172.88C85.6879 174.533 86.2479 175.773 87.0213 176.6C87.8213 177.427 88.8746 177.84 90.1813 177.84C91.4879 177.84 92.5279 177.44 93.3013 176.64C94.1013 175.813 94.6746 174.573 95.0213 172.92C95.3946 171.24 95.5813 169.16 95.5813 166.68C95.5813 164.2 95.3946 162.147 95.0213 160.52C94.6746 158.867 94.1013 157.627 93.3013 156.8C92.5279 155.973 91.4879 155.56 90.1813 155.56C88.8746 155.56 87.8213 155.973 87.0213 156.8C86.2479 157.627 85.6879 158.867 85.3413 160.52C84.9946 162.147 84.8213 164.2 84.8213 166.68ZM113.103 159.44H117.663L122.143 171.68C122.383 172.293 122.596 172.893 122.783 173.48C122.969 174.067 123.129 174.653 123.263 175.24C123.423 175.8 123.543 176.36 123.622 176.92H123.783C123.916 176.227 124.129 175.413 124.423 174.48C124.716 173.52 125.023 172.573 125.343 171.64L129.583 159.44H134.143L124.903 183.92C124.396 185.307 123.769 186.493 123.023 187.48C122.276 188.493 121.383 189.267 120.343 189.8C119.329 190.333 118.129 190.6 116.743 190.6C116.076 190.6 115.503 190.56 115.023 190.48C114.543 190.427 114.129 190.36 113.783 190.28V186.92C114.076 186.973 114.423 187.027 114.823 187.08C115.249 187.133 115.689 187.16 116.143 187.16C116.969 187.16 117.676 187 118.263 186.68C118.876 186.36 119.383 185.907 119.783 185.32C120.209 184.733 120.569 184.067 120.863 183.32L121.743 181L113.103 159.44ZM145.376 181.4C142.79 181.4 140.696 180.467 139.096 178.6C137.523 176.733 136.736 173.96 136.736 170.28C136.736 166.573 137.536 163.773 139.136 161.88C140.736 159.987 142.843 159.04 145.456 159.04C146.55 159.04 147.496 159.187 148.296 159.48C149.123 159.747 149.83 160.12 150.416 160.6C151.03 161.08 151.55 161.613 151.976 162.2H152.216C152.163 161.827 152.096 161.293 152.016 160.6C151.936 159.88 151.896 159.24 151.896 158.68V150.6H156.136V181H152.816L152.096 178.12H151.896C151.496 178.733 150.99 179.293 150.376 179.8C149.79 180.28 149.083 180.667 148.256 180.96C147.43 181.253 146.47 181.4 145.376 181.4ZM146.376 177.92C148.456 177.92 149.923 177.347 150.776 176.2C151.63 175.027 152.056 173.28 152.056 170.96V170.32C152.056 167.787 151.643 165.853 150.816 164.52C150.016 163.187 148.523 162.52 146.336 162.52C144.603 162.52 143.296 163.227 142.416 164.64C141.536 166.027 141.096 167.933 141.096 170.36C141.096 172.787 141.536 174.653 142.416 175.96C143.296 177.267 144.616 177.92 146.376 177.92Z" fill="white"/>
<g filter="url(#filter0_d_6197_792)">
<g clip-path="url(#clip0_6197_792)">
<path d="M70.1462 205.362C71.6336 204.857 71.9794 204.745 72.6589 204.556C73.2247 204.398 73.8293 204.581 74.211 205.021C78.2618 209.691 80.5 215.479 80.5 221.568C80.5 235.838 70.9622 246.94 57.2779 249.475C57.0949 249.509 56.9072 249.509 56.7242 249.475C43.0359 246.941 33.5 235.84 33.5 221.568C33.5 215.476 35.7367 209.688 39.7872 205.021C40.1689 204.581 40.7733 204.398 41.3388 204.556C42.0191 204.745 42.3685 204.858 43.8527 205.362C46.178 206.15 47.5198 206.507 48.9652 206.507C50.4109 206.507 51.7556 206.149 54.0802 205.362C55.571 204.856 55.914 204.745 56.5933 204.556C56.8601 204.482 57.1422 204.482 57.409 204.556C58.0876 204.745 58.4272 204.855 59.9206 205.362C62.2436 206.149 63.589 206.507 65.0348 206.507C66.4792 206.507 67.8222 206.149 70.1462 205.362Z" fill="#2D589C" stroke="white" stroke-width="3"/>
<path d="M70.6275 206.782C72.1153 206.278 72.4257 206.178 73.0609 206.001C73.0637 206 73.0663 206 73.0663 206L73.069 206L73.0721 206.001C73.0743 206.002 73.0763 206.003 73.0763 206.003L73.0776 206.004C75.1596 208.404 76.7298 211.111 77.7284 214H36.2695C37.2677 211.11 38.8376 208.403 40.9198 206.004L40.9212 206.003C40.9212 206.003 40.9231 206.002 40.9253 206.001C40.9275 206 40.9311 206 40.9311 206C40.9311 206 40.9337 206 40.9365 206.001C41.5724 206.178 41.8864 206.279 43.3709 206.782C45.6998 207.572 47.249 208.007 48.9649 208.007C50.681 208.007 52.2329 207.571 54.5614 206.782C56.0525 206.277 56.3602 206.178 56.9953 206.001C56.9988 206 57.0027 206 57.0061 206.001C57.6405 206.178 57.9449 206.276 59.4387 206.782C61.7657 207.571 63.3183 208.007 65.0345 208.007C66.7494 208.007 68.2999 207.571 70.6275 206.782Z" fill="#C3281C"/>
<rect x="35" y="214" width="44" height="2" fill="white"/>
<path d="M48.6664 237H36.9304V234.768L41.2984 230.352C42.1624 229.472 42.8664 228.72 43.4104 228.096C43.9704 227.456 44.3784 226.864 44.6344 226.32C44.9064 225.776 45.0424 225.184 45.0424 224.544C45.0424 223.76 44.8184 223.176 44.3704 222.792C43.9224 222.392 43.3304 222.192 42.5944 222.192C41.8744 222.192 41.2024 222.344 40.5784 222.648C39.9544 222.936 39.3064 223.352 38.6344 223.896L36.9784 221.904C37.4584 221.488 37.9704 221.112 38.5144 220.776C39.0584 220.424 39.6744 220.144 40.3624 219.936C41.0504 219.728 41.8504 219.624 42.7624 219.624C43.8664 219.624 44.8104 219.824 45.5944 220.224C46.3944 220.608 47.0104 221.144 47.4424 221.832C47.8744 222.52 48.0904 223.32 48.0904 224.232C48.0904 224.936 47.9864 225.592 47.7784 226.2C47.5704 226.792 47.2664 227.376 46.8664 227.952C46.4664 228.528 45.9784 229.112 45.4024 229.704C44.8264 230.296 44.1784 230.936 43.4584 231.624L40.7464 234.24V234.384H48.6664V237ZM53.0128 237L59.6848 222.48H50.9248V219.864H62.9248V221.904L56.2528 237H53.0128ZM71.2312 219.648C72.2232 219.648 73.1192 219.8 73.9192 220.104C74.7192 220.408 75.3592 220.864 75.8392 221.472C76.3192 222.08 76.5592 222.84 76.5592 223.752C76.5592 224.44 76.4152 225.048 76.1272 225.576C75.8552 226.088 75.4792 226.536 74.9992 226.92C74.5352 227.304 74.0072 227.648 73.4152 227.952C74.0712 228.272 74.6792 228.648 75.2392 229.08C75.7992 229.496 76.2472 229.992 76.5832 230.568C76.9352 231.128 77.1112 231.792 77.1112 232.56C77.1112 233.504 76.8632 234.328 76.3672 235.032C75.8872 235.736 75.2072 236.28 74.3272 236.664C73.4472 237.048 72.4232 237.24 71.2552 237.24C69.9912 237.24 68.9192 237.056 68.0392 236.688C67.1592 236.32 66.4872 235.792 66.0232 235.104C65.5592 234.416 65.3272 233.6 65.3272 232.656C65.3272 231.872 65.4792 231.192 65.7832 230.616C66.1032 230.04 66.5192 229.544 67.0312 229.128C67.5432 228.696 68.1032 228.336 68.7112 228.048C68.1832 227.728 67.7032 227.368 67.2712 226.968C66.8392 226.552 66.4952 226.088 66.2392 225.576C65.9992 225.048 65.8792 224.432 65.8792 223.728C65.8792 222.832 66.1192 222.08 66.5992 221.472C67.0952 220.864 67.7432 220.408 68.5432 220.104C69.3592 219.8 70.2552 219.648 71.2312 219.648ZM68.2072 232.512C68.2072 233.216 68.4552 233.8 68.9512 234.264C69.4472 234.712 70.1992 234.936 71.2072 234.936C71.8792 234.936 72.4312 234.84 72.8632 234.648C73.3112 234.44 73.6472 234.152 73.8712 233.784C74.1112 233.416 74.2312 232.992 74.2312 232.512C74.2312 232.032 74.0952 231.608 73.8232 231.24C73.5512 230.872 73.1992 230.544 72.7672 230.256C72.3352 229.968 71.8552 229.704 71.3272 229.464L70.9912 229.296C70.4152 229.552 69.9192 229.84 69.5032 230.16C69.0872 230.464 68.7672 230.808 68.5432 231.192C68.3192 231.576 68.2072 232.016 68.2072 232.512ZM71.2072 221.928C70.5032 221.928 69.9192 222.104 69.4552 222.456C69.0072 222.808 68.7832 223.304 68.7832 223.944C68.7832 224.408 68.8952 224.808 69.1192 225.144C69.3432 225.48 69.6392 225.768 70.0072 226.008C70.3912 226.248 70.8072 226.48 71.2552 226.704C71.7032 226.496 72.1032 226.272 72.4552 226.032C72.8232 225.792 73.1112 225.504 73.3192 225.168C73.5432 224.832 73.6552 224.424 73.6552 223.944C73.6552 223.304 73.4232 222.808 72.9592 222.456C72.5112 222.104 71.9272 221.928 71.2072 221.928Z" fill="white"/>
</g>
</g>
<path d="M116.544 218.008L111.364 238H107.416L104.252 226.52C104.177 226.24 104.093 225.895 104 225.484C103.907 225.073 103.804 224.653 103.692 224.224C103.599 223.776 103.515 223.365 103.44 222.992C103.365 222.6 103.319 222.311 103.3 222.124C103.281 222.311 103.235 222.6 103.16 222.992C103.085 223.365 103.001 223.776 102.908 224.224C102.815 224.653 102.721 225.083 102.628 225.512C102.535 225.923 102.441 226.277 102.348 226.576L99.268 238H95.292L90.14 218.008H93.724L96.468 229.404C96.5613 229.777 96.6547 230.188 96.748 230.636C96.8413 231.065 96.9347 231.513 97.028 231.98C97.1213 232.428 97.2053 232.876 97.28 233.324C97.3547 233.753 97.4107 234.136 97.448 234.472C97.4853 234.117 97.5413 233.725 97.616 233.296C97.6907 232.848 97.7747 232.4 97.868 231.952C97.9613 231.485 98.0547 231.047 98.148 230.636C98.2413 230.207 98.3347 229.843 98.428 229.544L101.564 218.008H105.036L108.228 229.572C108.321 229.889 108.415 230.263 108.508 230.692C108.62 231.103 108.723 231.541 108.816 232.008C108.909 232.456 108.984 232.895 109.04 233.324C109.115 233.753 109.18 234.136 109.236 234.472C109.292 234.005 109.367 233.473 109.46 232.876C109.572 232.279 109.693 231.672 109.824 231.056C109.973 230.44 110.104 229.889 110.216 229.404L112.96 218.008H116.544ZM125.013 222.544C126.375 222.544 127.542 222.824 128.513 223.384C129.502 223.925 130.267 224.709 130.809 225.736C131.35 226.744 131.621 227.976 131.621 229.432V231.224H121.597C121.634 232.605 122.017 233.679 122.745 234.444C123.473 235.191 124.481 235.564 125.769 235.564C126.758 235.564 127.635 235.471 128.401 235.284C129.185 235.079 129.987 234.789 130.809 234.416V237.244C130.062 237.599 129.287 237.86 128.485 238.028C127.682 238.196 126.721 238.28 125.601 238.28C124.126 238.28 122.81 238 121.653 237.44C120.514 236.861 119.618 235.993 118.965 234.836C118.33 233.679 118.013 232.241 118.013 230.524C118.013 228.788 118.302 227.332 118.881 226.156C119.478 224.961 120.299 224.065 121.345 223.468C122.39 222.852 123.613 222.544 125.013 222.544ZM125.013 225.148C124.079 225.148 123.314 225.456 122.717 226.072C122.138 226.669 121.793 227.565 121.681 228.76H128.205C128.205 228.051 128.083 227.425 127.841 226.884C127.617 226.343 127.271 225.923 126.805 225.624C126.338 225.307 125.741 225.148 125.013 225.148ZM146.01 233.604C146.01 234.612 145.767 235.471 145.282 236.18C144.797 236.871 144.078 237.393 143.126 237.748C142.193 238.103 141.045 238.28 139.682 238.28C138.618 238.28 137.703 238.205 136.938 238.056C136.173 237.907 135.445 237.673 134.754 237.356V234.36C135.501 234.715 136.331 235.013 137.246 235.256C138.161 235.499 139.01 235.62 139.794 235.62C140.765 235.62 141.465 235.471 141.894 235.172C142.323 234.873 142.538 234.472 142.538 233.968C142.538 233.669 142.454 233.399 142.286 233.156C142.118 232.913 141.791 232.661 141.306 232.4C140.821 232.12 140.083 231.775 139.094 231.364C138.123 230.972 137.311 230.58 136.658 230.188C136.023 229.796 135.538 229.329 135.202 228.788C134.885 228.228 134.726 227.528 134.726 226.688C134.726 225.325 135.267 224.299 136.35 223.608C137.433 222.899 138.861 222.544 140.634 222.544C141.567 222.544 142.445 222.637 143.266 222.824C144.106 222.992 144.946 223.272 145.786 223.664L144.666 226.268C144.199 226.063 143.733 225.885 143.266 225.736C142.818 225.568 142.361 225.437 141.894 225.344C141.446 225.251 140.989 225.204 140.522 225.204C139.757 225.204 139.178 225.325 138.786 225.568C138.394 225.792 138.198 226.109 138.198 226.52C138.198 226.837 138.291 227.117 138.478 227.36C138.683 227.584 139.029 227.817 139.514 228.06C140.018 228.284 140.727 228.583 141.642 228.956C142.557 229.311 143.331 229.684 143.966 230.076C144.619 230.449 145.123 230.916 145.478 231.476C145.833 232.036 146.01 232.745 146.01 233.604ZM155.785 235.452C156.233 235.452 156.662 235.415 157.073 235.34C157.483 235.247 157.866 235.144 158.221 235.032V237.664C157.847 237.832 157.362 237.972 156.765 238.084C156.167 238.215 155.542 238.28 154.889 238.28C154.03 238.28 153.246 238.14 152.537 237.86C151.846 237.561 151.286 237.057 150.857 236.348C150.446 235.639 150.241 234.649 150.241 233.38V225.484H148.197V223.944L150.437 222.712L151.557 219.492H153.769V222.824H158.081V225.484H153.769V233.352C153.769 234.061 153.955 234.593 154.329 234.948C154.702 235.284 155.187 235.452 155.785 235.452Z" fill="white"/>
<path d="M184.428 218.008C186.089 218.008 187.48 218.167 188.6 218.484C189.739 218.801 190.588 219.324 191.148 220.052C191.727 220.78 192.016 221.751 192.016 222.964C192.016 223.748 191.867 224.448 191.568 225.064C191.288 225.661 190.859 226.165 190.28 226.576C189.72 226.968 189.029 227.239 188.208 227.388V227.528C189.048 227.659 189.804 227.901 190.476 228.256C191.167 228.611 191.708 229.115 192.1 229.768C192.492 230.421 192.688 231.271 192.688 232.316C192.688 233.529 192.408 234.565 191.848 235.424C191.288 236.264 190.485 236.908 189.44 237.356C188.413 237.785 187.181 238 185.744 238H178.716V218.008H184.428ZM184.932 226.52C186.649 226.52 187.825 226.249 188.46 225.708C189.095 225.148 189.412 224.327 189.412 223.244C189.412 222.143 189.02 221.359 188.236 220.892C187.471 220.407 186.239 220.164 184.54 220.164H181.236V226.52H184.932ZM181.236 228.62V235.872H185.268C187.041 235.872 188.273 235.527 188.964 234.836C189.655 234.145 190 233.24 190 232.12C190 231.411 189.841 230.795 189.524 230.272C189.225 229.749 188.712 229.348 187.984 229.068C187.275 228.769 186.304 228.62 185.072 228.62H181.236ZM204.091 222.712C204.371 222.712 204.67 222.731 204.987 222.768C205.323 222.787 205.612 222.824 205.855 222.88L205.547 225.148C205.304 225.092 205.034 225.045 204.735 225.008C204.455 224.971 204.184 224.952 203.923 224.952C203.344 224.952 202.794 225.073 202.271 225.316C201.748 225.559 201.282 225.904 200.871 226.352C200.46 226.781 200.134 227.304 199.891 227.92C199.667 228.536 199.555 229.227 199.555 229.992V238H197.091V222.992H199.107L199.387 225.736H199.499C199.816 225.176 200.199 224.672 200.647 224.224C201.095 223.757 201.608 223.393 202.187 223.132C202.766 222.852 203.4 222.712 204.091 222.712ZM221.658 230.468C221.658 231.719 221.49 232.829 221.154 233.8C220.837 234.752 220.37 235.564 219.754 236.236C219.157 236.908 218.42 237.421 217.542 237.776C216.684 238.112 215.722 238.28 214.658 238.28C213.669 238.28 212.754 238.112 211.914 237.776C211.074 237.421 210.346 236.908 209.73 236.236C209.114 235.564 208.629 234.752 208.274 233.8C207.938 232.829 207.77 231.719 207.77 230.468C207.77 228.807 208.05 227.407 208.61 226.268C209.17 225.111 209.973 224.233 211.018 223.636C212.064 223.02 213.305 222.712 214.742 222.712C216.105 222.712 217.3 223.02 218.326 223.636C219.372 224.233 220.184 225.111 220.762 226.268C221.36 227.407 221.658 228.807 221.658 230.468ZM210.318 230.468C210.318 231.644 210.468 232.671 210.766 233.548C211.084 234.407 211.569 235.069 212.222 235.536C212.876 236.003 213.706 236.236 214.714 236.236C215.722 236.236 216.553 236.003 217.206 235.536C217.86 235.069 218.336 234.407 218.634 233.548C218.952 232.671 219.11 231.644 219.11 230.468C219.11 229.273 218.952 228.256 218.634 227.416C218.317 226.576 217.832 225.932 217.178 225.484C216.544 225.017 215.713 224.784 214.686 224.784C213.156 224.784 212.045 225.288 211.354 226.296C210.664 227.304 210.318 228.695 210.318 230.468ZM239.112 230.468C239.112 231.719 238.944 232.829 238.608 233.8C238.29 234.752 237.824 235.564 237.208 236.236C236.61 236.908 235.873 237.421 234.996 237.776C234.137 238.112 233.176 238.28 232.112 238.28C231.122 238.28 230.208 238.112 229.368 237.776C228.528 237.421 227.8 236.908 227.184 236.236C226.568 235.564 226.082 234.752 225.728 233.8C225.392 232.829 225.224 231.719 225.224 230.468C225.224 228.807 225.504 227.407 226.064 226.268C226.624 225.111 227.426 224.233 228.472 223.636C229.517 223.02 230.758 222.712 232.196 222.712C233.558 222.712 234.753 223.02 235.78 223.636C236.825 224.233 237.637 225.111 238.216 226.268C238.813 227.407 239.112 228.807 239.112 230.468ZM227.772 230.468C227.772 231.644 227.921 232.671 228.22 233.548C228.537 234.407 229.022 235.069 229.676 235.536C230.329 236.003 231.16 236.236 232.168 236.236C233.176 236.236 234.006 236.003 234.66 235.536C235.313 235.069 235.789 234.407 236.088 233.548C236.405 232.671 236.564 231.644 236.564 230.468C236.564 229.273 236.405 228.256 236.088 227.416C235.77 226.576 235.285 225.932 234.632 225.484C233.997 225.017 233.166 224.784 232.14 224.784C230.609 224.784 229.498 225.288 228.808 226.296C228.117 227.304 227.772 228.695 227.772 230.468ZM245.953 227.836C245.953 228.135 245.934 228.527 245.897 229.012C245.878 229.497 245.859 229.917 245.841 230.272H245.953C246.065 230.123 246.233 229.908 246.457 229.628C246.681 229.348 246.905 229.068 247.129 228.788C247.371 228.489 247.577 228.247 247.745 228.06L252.533 222.992H255.417L249.341 229.404L255.837 238H252.869L247.661 231L245.953 232.484V238H243.517V216.72H245.953V227.836ZM261.438 238H258.974V216.72H261.438V238ZM269.157 222.992V238H266.693V222.992H269.157ZM267.953 217.364C268.326 217.364 268.653 217.495 268.933 217.756C269.231 217.999 269.381 218.391 269.381 218.932C269.381 219.455 269.231 219.847 268.933 220.108C268.653 220.369 268.326 220.5 267.953 220.5C267.542 220.5 267.197 220.369 266.917 220.108C266.637 219.847 266.497 219.455 266.497 218.932C266.497 218.391 266.637 217.999 266.917 217.756C267.197 217.495 267.542 217.364 267.953 217.364ZM281.635 222.712C283.427 222.712 284.781 223.151 285.695 224.028C286.61 224.887 287.067 226.287 287.067 228.228V238H284.631V228.396C284.631 227.183 284.361 226.277 283.819 225.68C283.278 225.083 282.429 224.784 281.271 224.784C279.61 224.784 278.462 225.251 277.827 226.184C277.193 227.117 276.875 228.461 276.875 230.216V238H274.411V222.992H276.399L276.763 225.036H276.903C277.239 224.513 277.65 224.084 278.135 223.748C278.639 223.393 279.19 223.132 279.787 222.964C280.385 222.796 281.001 222.712 281.635 222.712Z" fill="white"/>
<defs>
<filter id="filter0_d_6197_792" x="32" y="199" width="50" height="58" filterUnits="userSpaceOnUse" color-interpolation-filters="sRGB">
<feFlood flood-opacity="0" result="BackgroundImageFix"/>
<feColorMatrix in="SourceAlpha" type="matrix" values="0 0 0 0 0 0 0 0 0 0 0 0 0 0 0 0 0 0 127 0" result="hardAlpha"/>
<feOffset dy="2"/>
<feColorMatrix type="matrix" values="0 0 0 0 0.113725 0 0 0 0 0.168627 0 0 0 0 0.184314 0 0 0 0.25 0"/>
<feBlend mode="normal" in2="BackgroundImageFix" result="effect1_dropShadow_6197_792"/>
<feBlend mode="normal" in="SourceGraphic" in2="effect1_dropShadow_6197_792" result="shape"/>
</filter>
<clipPath id="clip0_6197_792">
<rect width="50" height="48" fill="white" transform="translate(32 203)"/>
</clipPath>
</defs>
</svg>
