<svg width="894" height="868" viewBox="0 0 894 868" fill="none" xmlns="http://www.w3.org/2000/svg">
<rect x="0.809204" y="0.837769" width="892.382" height="867.162" fill="white"/>
<path d="M335.662 363.853H556.43C556.43 363.853 556.43 545.65 556.43 590.18C556.43 634.71 505.449 644.877 505.449 698.489C505.449 752.102 505.449 793.42 505.449 793.42H386.546C386.546 762.269 386.546 730.596 386.546 698.489C386.546 650.634 335.662 641.038 335.662 598.817C335.662 519.989 335.662 445.479 335.662 363.853Z" fill="#0060FF"/>
<path d="M790.836 442.882L101.754 442.882" stroke="#0060FF" stroke-width="161.738"/>
<circle cx="290.912" cy="555.545" r="6.66631" fill="#C41515"/>
<circle cx="290.912" cy="572.572" r="6.66631" fill="#ECB800"/>
<circle cx="290.912" cy="589.598" r="6.66631" fill="#009900"/>
<rect x="278.832" y="542.26" width="24.162" height="60.6246" rx="12.081" stroke="#5E5E5E" stroke-width="3.14581"/>
<circle cx="593.588" cy="555.545" r="6.66631" fill="#C41515"/>
<circle cx="593.588" cy="572.572" r="6.66631" fill="#ECB800"/>
<circle cx="593.588" cy="589.598" r="6.66631" fill="#009900"/>
<rect x="581.507" y="542.26" width="24.162" height="60.6246" rx="12.081" stroke="#5E5E5E" stroke-width="3.14581"/>
<path d="M446.295 532.358L446.295 793.421" stroke="#0060FF" stroke-width="118.104"/>
<path d="M447.23 521.538V793.419M504.66 521.538V654.827M387.434 521.538V654.827" stroke="white" stroke-width="2.78858" stroke-dasharray="10.5 10.5"/>
<path d="M342.36 547L353.214 540.734L353.214 553.267L342.36 547ZM362.844 571.322V556.063H365.015V571.322H362.844ZM354.866 548.085H352.129V545.915H354.866L354.866 548.085ZM362.844 556.063C362.844 551.657 359.272 548.085 354.866 548.085L354.866 545.915C360.471 545.915 365.015 550.458 365.015 556.063H362.844Z" fill="white"/>
<path d="M545.896 547L535.042 540.734L535.042 553.267L545.896 547ZM525.412 572.572V556.063H523.241V572.572H525.412ZM533.39 548.085H536.127L536.127 545.915H533.39V548.085ZM525.412 556.063C525.412 551.657 528.983 548.085 533.39 548.085V545.915C527.785 545.915 523.241 550.458 523.241 556.063H525.412Z" fill="white"/>
<path d="M477.391 532.358L483.657 543.212L471.125 543.212L477.391 532.358ZM476.306 572.9L476.306 542.126L478.476 542.126L478.476 572.9L476.306 572.9Z" fill="white"/>
<path d="M416.725 532.358L422.992 543.212L410.459 543.212L416.725 532.358ZM415.64 572.9L415.64 542.126L417.811 542.126L417.811 572.9L415.64 572.9Z" fill="white"/>
<rect x="353.145" y="115.08" width="171.182" height="248.773" fill="#0060FF"/>
</svg>
