<svg width="600" height="272" viewBox="0 0 600 272" fill="none" xmlns="http://www.w3.org/2000/svg">
<rect y="0.75" width="600" height="271" rx="16" fill="#11181E"/>
<g opacity="0.4">
<path d="M89.8187 57.5898L77.7878 35.7842C77.0273 34.4053 75.046 34.4053 74.2855 35.7842L62.2546 57.5898C61.4106 59.1191 62.7959 60.9199 64.4908 60.4961L69.1363 59.335C70.083 59.0983 71 59.8144 71 60.7902V117.61C71 119.268 72.3431 120.61 74 120.61H78C79.6569 120.61 81 119.268 81 117.61V60.7717C81 59.7959 81.9171 59.0798 82.8638 59.3165L87.5825 60.4961C89.2774 60.9199 90.6627 59.1191 89.8187 57.5898Z" fill="white"/>
</g>
<g opacity="0.4">
<path d="M177.819 57.5898L165.788 35.7842C165.027 34.4053 163.046 34.4053 162.285 35.7842L150.255 57.5898C149.411 59.1191 150.796 60.9199 152.491 60.4961L157.136 59.335C158.083 59.0983 159 59.8144 159 60.7902V117.61C159 119.268 160.343 120.61 162 120.61H166C167.657 120.61 169 119.268 169 117.61V60.7717C169 59.7959 169.917 59.0798 170.864 59.3165L175.583 60.4961C177.277 60.9199 178.663 59.1191 177.819 57.5898Z" fill="white"/>
</g>
<path d="M271.204 35.0699L247.277 41.9819C245.599 42.4668 245.305 44.7195 246.803 45.6183L250.942 48.1015C251.779 48.6036 251.921 49.7584 251.231 50.4484L235.979 65.7002C232.791 68.8883 231 73.2123 231 77.721V117.75C231 119.407 232.343 120.75 234 120.75H238C239.657 120.75 241 119.407 241 117.75L241 77.721C241 75.8645 241.737 74.084 243.05 72.7713L258.302 57.5196C258.992 56.8295 260.147 56.9717 260.649 57.8085L263.132 61.9466C264.031 63.4447 266.283 63.1511 266.768 61.4727L273.68 37.5464C274.117 36.0339 272.716 34.6329 271.204 35.0699Z" fill="white"/>
<path d="M359.204 35.0699L335.277 41.9819C333.599 42.4668 333.305 44.7195 334.803 45.6183L338.942 48.1015C339.779 48.6036 339.921 49.7584 339.231 50.4484L323.979 65.7002C320.791 68.8883 319 73.2123 319 77.721V117.75C319 119.407 320.343 120.75 322 120.75H326C327.657 120.75 329 119.407 329 117.75L329 77.721C329 75.8645 329.737 74.084 331.05 72.7713L346.302 57.5196C346.992 56.8295 348.147 56.9717 348.649 57.8085L351.132 61.9466C352.031 63.4447 354.283 63.1511 354.768 61.4727L361.68 37.5464C362.117 36.0339 360.716 34.6329 359.204 35.0699Z" fill="white"/>
<path d="M33.96 169.59C33.96 167.937 34.0667 166.31 34.28 164.71C34.52 163.11 34.92 161.603 35.48 160.19C36.0667 158.75 36.8667 157.483 37.88 156.39C38.8933 155.27 40.1733 154.403 41.72 153.79C43.2933 153.15 45.1867 152.83 47.4 152.83C47.96 152.83 48.5867 152.857 49.28 152.91C50 152.937 50.5867 153.017 51.04 153.15V156.71C50.5333 156.55 49.9733 156.43 49.36 156.35C48.7733 156.27 48.1867 156.23 47.6 156.23C45.76 156.23 44.24 156.51 43.04 157.07C41.84 157.63 40.8933 158.403 40.2 159.39C39.5067 160.377 39 161.523 38.68 162.83C38.36 164.11 38.16 165.51 38.08 167.03H38.32C38.72 166.39 39.2133 165.817 39.8 165.31C40.3867 164.803 41.1067 164.403 41.96 164.11C42.8133 163.817 43.8 163.67 44.92 163.67C46.5733 163.67 48.0133 164.017 49.24 164.71C50.4933 165.403 51.4533 166.403 52.12 167.71C52.8133 169.017 53.16 170.603 53.16 172.47C53.16 174.47 52.7733 176.203 52 177.67C51.2533 179.11 50.1867 180.217 48.8 180.99C47.44 181.763 45.8 182.15 43.88 182.15C42.4933 182.15 41.2 181.897 40 181.39C38.8 180.883 37.7467 180.11 36.84 179.07C35.9333 178.03 35.2267 176.723 34.72 175.15C34.2133 173.55 33.96 171.697 33.96 169.59ZM43.84 178.63C45.36 178.63 46.6 178.137 47.56 177.15C48.52 176.137 49 174.577 49 172.47C49 170.79 48.5733 169.457 47.72 168.47C46.8933 167.483 45.64 166.99 43.96 166.99C42.8133 166.99 41.8133 167.23 40.96 167.71C40.1067 168.19 39.44 168.803 38.96 169.55C38.48 170.297 38.24 171.057 38.24 171.83C38.24 172.657 38.36 173.47 38.6 174.27C38.84 175.07 39.1867 175.803 39.64 176.47C40.12 177.137 40.7067 177.67 41.4 178.07C42.0933 178.443 42.9067 178.63 43.84 178.63ZM76.4706 167.43C76.4706 169.75 76.284 171.817 75.9106 173.63C75.564 175.443 75.004 176.99 74.2306 178.27C73.484 179.523 72.484 180.483 71.2306 181.15C70.004 181.817 68.524 182.15 66.7906 182.15C64.604 182.15 62.804 181.563 61.3906 180.39C59.9773 179.217 58.924 177.537 58.2306 175.35C57.5373 173.137 57.1906 170.497 57.1906 167.43C57.1906 164.337 57.4973 161.697 58.1106 159.51C58.7506 157.323 59.7773 155.657 61.1906 154.51C62.604 153.337 64.4706 152.75 66.7906 152.75C68.9773 152.75 70.7773 153.337 72.1906 154.51C73.6306 155.657 74.6973 157.323 75.3906 159.51C76.1106 161.697 76.4706 164.337 76.4706 167.43ZM61.4306 167.43C61.4306 169.91 61.604 171.977 61.9506 173.63C62.2973 175.283 62.8573 176.523 63.6306 177.35C64.4306 178.177 65.484 178.59 66.7906 178.59C68.0973 178.59 69.1373 178.19 69.9106 177.39C70.7106 176.563 71.284 175.323 71.6306 173.67C72.004 171.99 72.1906 169.91 72.1906 167.43C72.1906 164.95 72.004 162.897 71.6306 161.27C71.284 159.617 70.7106 158.377 69.9106 157.55C69.1373 156.723 68.0973 156.31 66.7906 156.31C65.484 156.31 64.4306 156.723 63.6306 157.55C62.8573 158.377 62.2973 159.617 61.9506 161.27C61.604 162.897 61.4306 164.95 61.4306 167.43ZM99.8613 167.43C99.8613 169.75 99.6746 171.817 99.3013 173.63C98.9546 175.443 98.3946 176.99 97.6213 178.27C96.8746 179.523 95.8746 180.483 94.6213 181.15C93.3946 181.817 91.9146 182.15 90.1813 182.15C87.9946 182.15 86.1946 181.563 84.7813 180.39C83.3679 179.217 82.3146 177.537 81.6213 175.35C80.9279 173.137 80.5813 170.497 80.5813 167.43C80.5813 164.337 80.8879 161.697 81.5013 159.51C82.1413 157.323 83.1679 155.657 84.5813 154.51C85.9946 153.337 87.8613 152.75 90.1813 152.75C92.3679 152.75 94.1679 153.337 95.5813 154.51C97.0213 155.657 98.0879 157.323 98.7812 159.51C99.5013 161.697 99.8613 164.337 99.8613 167.43ZM84.8213 167.43C84.8213 169.91 84.9946 171.977 85.3413 173.63C85.6879 175.283 86.2479 176.523 87.0213 177.35C87.8213 178.177 88.8746 178.59 90.1813 178.59C91.4879 178.59 92.5279 178.19 93.3013 177.39C94.1013 176.563 94.6746 175.323 95.0213 173.67C95.3946 171.99 95.5813 169.91 95.5813 167.43C95.5813 164.95 95.3946 162.897 95.0213 161.27C94.6746 159.617 94.1013 158.377 93.3013 157.55C92.5279 156.723 91.4879 156.31 90.1813 156.31C88.8746 156.31 87.8213 156.723 87.0213 157.55C86.2479 158.377 85.6879 159.617 85.3413 161.27C84.9946 162.897 84.8213 164.95 84.8213 167.43ZM140.543 159.79C142.969 159.79 144.796 160.417 146.023 161.67C147.249 162.923 147.863 164.937 147.863 167.71V181.75H143.623V168.27C143.623 166.617 143.289 165.377 142.623 164.55C141.983 163.697 140.969 163.27 139.583 163.27C137.663 163.27 136.289 163.87 135.463 165.07C134.636 166.243 134.223 167.95 134.223 170.19V181.75H130.023V168.27C130.023 167.177 129.863 166.257 129.543 165.51C129.249 164.763 128.809 164.203 128.223 163.83C127.636 163.457 126.876 163.27 125.943 163.27C124.609 163.27 123.556 163.563 122.783 164.15C122.009 164.737 121.449 165.603 121.103 166.75C120.783 167.87 120.623 169.243 120.623 170.87V181.75H116.383V160.19H119.743L120.343 163.07H120.583C121.036 162.323 121.583 161.71 122.223 161.23C122.889 160.75 123.623 160.39 124.423 160.15C125.223 159.91 126.049 159.79 126.903 159.79C128.529 159.79 129.903 160.083 131.023 160.67C132.143 161.23 132.956 162.097 133.463 163.27H133.783C134.476 162.07 135.436 161.19 136.663 160.63C137.889 160.07 139.183 159.79 140.543 159.79Z" fill="white"/>
<g filter="url(#filter0_d_6219_218)">
<rect x="32" y="207.75" width="75" height="36" rx="3" fill="#F7B817"/>
<rect x="33.5" y="209.25" width="72" height="33" rx="1.5" stroke="#F7B817" stroke-width="3"/>
<path d="M52.9137 234.75L51.3537 230.214H44.8977L43.3617 234.75H40.0977L46.3857 217.542H49.8897L56.1777 234.75H52.9137ZM49.0737 223.158C49.0097 222.934 48.9137 222.63 48.7857 222.246C48.6577 221.862 48.5297 221.47 48.4017 221.07C48.2897 220.654 48.2017 220.31 48.1377 220.038C48.0577 220.358 47.9537 220.726 47.8257 221.142C47.7137 221.558 47.6017 221.95 47.4897 222.318C47.3937 222.686 47.3137 222.966 47.2497 223.158L45.7377 227.574H50.5617L49.0737 223.158ZM66.0832 234.75H63.0592V224.07C63.0592 223.718 63.0592 223.358 63.0592 222.99C63.0752 222.622 63.0912 222.254 63.1072 221.886C63.1232 221.502 63.1392 221.15 63.1552 220.83C62.9952 220.99 62.7952 221.182 62.5552 221.406C62.3152 221.614 62.0672 221.83 61.8112 222.054L59.8912 223.59L58.3792 221.718L63.5632 217.614H66.0832V234.75ZM83.6536 226.158C83.6536 227.55 83.5496 228.79 83.3416 229.878C83.1336 230.966 82.7896 231.894 82.3096 232.662C81.8456 233.414 81.2376 233.99 80.4856 234.39C79.7496 234.79 78.8456 234.99 77.7736 234.99C76.4296 234.99 75.3256 234.638 74.4616 233.934C73.5976 233.23 72.9576 232.222 72.5416 230.91C72.1256 229.582 71.9176 227.998 71.9176 226.158C71.9176 224.318 72.1096 222.742 72.4936 221.43C72.8776 220.118 73.4936 219.11 74.3416 218.406C75.2056 217.702 76.3496 217.35 77.7736 217.35C79.1176 217.35 80.2216 217.702 81.0856 218.406C81.9496 219.094 82.5896 220.102 83.0056 221.43C83.4376 222.742 83.6536 224.318 83.6536 226.158ZM74.9656 226.182C74.9656 227.574 75.0536 228.742 75.2296 229.686C75.4056 230.614 75.6936 231.318 76.0936 231.798C76.5096 232.262 77.0696 232.494 77.7736 232.494C78.4776 232.494 79.0296 232.262 79.4296 231.798C79.8456 231.334 80.1416 230.63 80.3176 229.686C80.5096 228.742 80.6056 227.574 80.6056 226.182C80.6056 224.774 80.5096 223.606 80.3176 222.678C80.1416 221.734 79.8456 221.03 79.4296 220.566C79.0296 220.086 78.4776 219.846 77.7736 219.846C77.0696 219.846 76.5096 220.086 76.0936 220.566C75.6936 221.03 75.4056 221.726 75.2296 222.654C75.0536 223.582 74.9656 224.758 74.9656 226.182ZM97.888 226.158C97.888 227.55 97.784 228.79 97.576 229.878C97.368 230.966 97.024 231.894 96.544 232.662C96.08 233.414 95.472 233.99 94.72 234.39C93.984 234.79 93.08 234.99 92.008 234.99C90.664 234.99 89.56 234.638 88.696 233.934C87.832 233.23 87.192 232.222 86.776 230.91C86.36 229.582 86.152 227.998 86.152 226.158C86.152 224.318 86.344 222.742 86.728 221.43C87.112 220.118 87.728 219.11 88.576 218.406C89.44 217.702 90.584 217.35 92.008 217.35C93.352 217.35 94.456 217.702 95.32 218.406C96.184 219.094 96.824 220.102 97.24 221.43C97.672 222.742 97.888 224.318 97.888 226.158ZM89.2 226.182C89.2 227.574 89.288 228.742 89.464 229.686C89.64 230.614 89.928 231.318 90.328 231.798C90.744 232.262 91.304 232.494 92.008 232.494C92.712 232.494 93.264 232.262 93.664 231.798C94.08 231.334 94.376 230.63 94.552 229.686C94.744 228.742 94.84 227.574 94.84 226.182C94.84 224.774 94.744 223.606 94.552 222.678C94.376 221.734 94.08 221.03 93.664 220.566C93.264 220.086 92.712 219.846 92.008 219.846C91.304 219.846 90.744 220.086 90.328 220.566C89.928 221.03 89.64 221.726 89.464 222.654C89.288 223.582 89.2 224.758 89.2 226.182Z" fill="black"/>
</g>
<path d="M134.396 226.194H141.312V235.994C140.229 236.349 139.137 236.61 138.036 236.778C136.935 236.946 135.684 237.03 134.284 237.03C132.212 237.03 130.467 236.619 129.048 235.798C127.629 234.958 126.547 233.773 125.8 232.242C125.072 230.693 124.708 228.863 124.708 226.754C124.708 224.663 125.119 222.853 125.94 221.322C126.761 219.791 127.937 218.606 129.468 217.766C131.017 216.907 132.884 216.478 135.068 216.478C136.188 216.478 137.243 216.581 138.232 216.786C139.24 216.991 140.173 217.281 141.032 217.654L140.08 219.838C139.371 219.521 138.568 219.25 137.672 219.026C136.795 218.802 135.88 218.69 134.928 218.69C133.341 218.69 131.979 219.017 130.84 219.67C129.701 220.323 128.833 221.257 128.236 222.47C127.639 223.665 127.34 225.093 127.34 226.754C127.34 228.341 127.592 229.75 128.096 230.982C128.619 232.195 129.431 233.147 130.532 233.838C131.633 234.51 133.08 234.846 134.872 234.846C135.469 234.846 135.992 234.827 136.44 234.79C136.907 234.734 137.327 234.669 137.7 234.594C138.092 234.519 138.456 234.445 138.792 234.37V228.434H134.396V226.194ZM153.251 221.462C153.531 221.462 153.83 221.481 154.147 221.518C154.483 221.537 154.772 221.574 155.015 221.63L154.707 223.898C154.464 223.842 154.194 223.795 153.895 223.758C153.615 223.721 153.344 223.702 153.083 223.702C152.504 223.702 151.954 223.823 151.431 224.066C150.908 224.309 150.442 224.654 150.031 225.102C149.62 225.531 149.294 226.054 149.051 226.67C148.827 227.286 148.715 227.977 148.715 228.742V236.75H146.251V221.742H148.267L148.547 224.486H148.659C148.976 223.926 149.359 223.422 149.807 222.974C150.255 222.507 150.768 222.143 151.347 221.882C151.926 221.602 152.56 221.462 153.251 221.462ZM163.567 221.462C164.855 221.462 165.956 221.742 166.871 222.302C167.804 222.862 168.513 223.655 168.999 224.682C169.503 225.69 169.755 226.875 169.755 228.238V229.722H159.479C159.516 231.421 159.945 232.718 160.767 233.614C161.607 234.491 162.773 234.93 164.267 234.93C165.219 234.93 166.059 234.846 166.787 234.678C167.533 234.491 168.299 234.23 169.083 233.894V236.05C168.317 236.386 167.561 236.629 166.815 236.778C166.068 236.946 165.181 237.03 164.155 237.03C162.736 237.03 161.476 236.741 160.375 236.162C159.292 235.583 158.443 234.725 157.827 233.586C157.229 232.429 156.931 231.019 156.931 229.358C156.931 227.715 157.201 226.306 157.743 225.13C158.303 223.954 159.077 223.049 160.067 222.414C161.075 221.779 162.241 221.462 163.567 221.462ZM163.539 223.478C162.363 223.478 161.429 223.861 160.739 224.626C160.067 225.373 159.665 226.418 159.535 227.762H167.179C167.179 226.903 167.048 226.157 166.787 225.522C166.525 224.887 166.124 224.393 165.583 224.038C165.06 223.665 164.379 223.478 163.539 223.478ZM181.299 221.462C183.091 221.462 184.445 221.901 185.359 222.778C186.274 223.637 186.731 225.037 186.731 226.978V236.75H184.295V227.146C184.295 225.933 184.025 225.027 183.483 224.43C182.942 223.833 182.093 223.534 180.935 223.534C179.274 223.534 178.126 224.001 177.491 224.934C176.857 225.867 176.539 227.211 176.539 228.966V236.75H174.075V221.742H176.063L176.427 223.786H176.567C176.903 223.263 177.314 222.834 177.799 222.498C178.303 222.143 178.854 221.882 179.451 221.714C180.049 221.546 180.665 221.462 181.299 221.462ZM201.572 236.75H190.596V235.126L198.66 223.646H191.072V221.742H201.376V223.59L193.424 234.846H201.572V236.75ZM211.22 221.49C213.05 221.49 214.403 221.891 215.28 222.694C216.158 223.497 216.596 224.775 216.596 226.53V236.75H214.804L214.328 234.622H214.216C213.787 235.163 213.339 235.621 212.872 235.994C212.424 236.349 211.902 236.61 211.304 236.778C210.726 236.946 210.016 237.03 209.176 237.03C208.28 237.03 207.468 236.871 206.74 236.554C206.031 236.237 205.471 235.751 205.06 235.098C204.65 234.426 204.444 233.586 204.444 232.578C204.444 231.085 205.032 229.937 206.208 229.134C207.384 228.313 209.195 227.865 211.64 227.79L214.188 227.706V226.81C214.188 225.559 213.918 224.691 213.376 224.206C212.835 223.721 212.07 223.478 211.08 223.478C210.296 223.478 209.55 223.599 208.84 223.842C208.131 224.066 207.468 224.327 206.852 224.626L206.096 222.778C206.75 222.423 207.524 222.125 208.42 221.882C209.316 221.621 210.25 221.49 211.22 221.49ZM211.948 229.498C210.082 229.573 208.784 229.871 208.056 230.394C207.347 230.917 206.992 231.654 206.992 232.606C206.992 233.446 207.244 234.062 207.748 234.454C208.271 234.846 208.934 235.042 209.736 235.042C211.006 235.042 212.06 234.697 212.9 234.006C213.74 233.297 214.16 232.214 214.16 230.758V229.414L211.948 229.498ZM224.196 236.75H221.732V215.47H224.196V236.75ZM235.246 221.462C236.534 221.462 237.636 221.742 238.55 222.302C239.484 222.862 240.193 223.655 240.678 224.682C241.182 225.69 241.434 226.875 241.434 228.238V229.722H231.158C231.196 231.421 231.625 232.718 232.446 233.614C233.286 234.491 234.453 234.93 235.946 234.93C236.898 234.93 237.738 234.846 238.466 234.678C239.213 234.491 239.978 234.23 240.762 233.894V236.05C239.997 236.386 239.241 236.629 238.494 236.778C237.748 236.946 236.861 237.03 235.834 237.03C234.416 237.03 233.156 236.741 232.054 236.162C230.972 235.583 230.122 234.725 229.506 233.586C228.909 232.429 228.61 231.019 228.61 229.358C228.61 227.715 228.881 226.306 229.422 225.13C229.982 223.954 230.757 223.049 231.746 222.414C232.754 221.779 233.921 221.462 235.246 221.462ZM235.218 223.478C234.042 223.478 233.109 223.861 232.418 224.626C231.746 225.373 231.345 226.418 231.214 227.762H238.858C238.858 226.903 238.728 226.157 238.466 225.522C238.205 224.887 237.804 224.393 237.262 224.038C236.74 223.665 236.058 223.478 235.218 223.478ZM251.551 221.462C252.839 221.462 253.94 221.742 254.855 222.302C255.788 222.862 256.498 223.655 256.983 224.682C257.487 225.69 257.739 226.875 257.739 228.238V229.722H247.463C247.5 231.421 247.93 232.718 248.751 233.614C249.591 234.491 250.758 234.93 252.251 234.93C253.203 234.93 254.043 234.846 254.771 234.678C255.518 234.491 256.283 234.23 257.067 233.894V236.05C256.302 236.386 255.546 236.629 254.799 236.778C254.052 236.946 253.166 237.03 252.139 237.03C250.72 237.03 249.46 236.741 248.359 236.162C247.276 235.583 246.427 234.725 245.811 233.586C245.214 232.429 244.915 231.019 244.915 229.358C244.915 227.715 245.186 226.306 245.727 225.13C246.287 223.954 247.062 223.049 248.051 222.414C249.059 221.779 250.226 221.462 251.551 221.462ZM251.523 223.478C250.347 223.478 249.414 223.861 248.723 224.626C248.051 225.373 247.65 226.418 247.519 227.762H255.163C255.163 226.903 255.032 226.157 254.771 225.522C254.51 224.887 254.108 224.393 253.567 224.038C253.044 223.665 252.363 223.478 251.523 223.478Z" fill="white"/>
<defs>
<filter id="filter0_d_6219_218" x="32" y="207.75" width="75" height="38" filterUnits="userSpaceOnUse" color-interpolation-filters="sRGB">
<feFlood flood-opacity="0" result="BackgroundImageFix"/>
<feColorMatrix in="SourceAlpha" type="matrix" values="0 0 0 0 0 0 0 0 0 0 0 0 0 0 0 0 0 0 127 0" result="hardAlpha"/>
<feOffset dy="2"/>
<feColorMatrix type="matrix" values="0 0 0 0 0.113725 0 0 0 0 0.168627 0 0 0 0 0.184314 0 0 0 0.25 0"/>
<feBlend mode="normal" in2="BackgroundImageFix" result="effect1_dropShadow_6219_218"/>
<feBlend mode="normal" in="SourceGraphic" in2="effect1_dropShadow_6219_218" result="shape"/>
</filter>
</defs>
</svg>
