<svg width="600" height="280" viewBox="0 0 600 280" fill="none" xmlns="http://www.w3.org/2000/svg">
<rect y="0.75" width="600" height="279" rx="16" fill="#11181E"/>
<g opacity="0.4">
<path d="M89.8187 57.5898L77.7878 35.7842C77.0273 34.4053 75.046 34.4053 74.2855 35.7842L62.2546 57.5898C61.4106 59.1191 62.7959 60.9199 64.4908 60.4961L69.1363 59.335C70.083 59.0983 71 59.8144 71 60.7902V117.61C71 119.268 72.3431 120.61 74 120.61H78C79.6569 120.61 81 119.268 81 117.61V60.7717C81 59.7959 81.9171 59.0798 82.8638 59.3165L87.5825 60.4961C89.2774 60.9199 90.6627 59.1191 89.8187 57.5898Z" fill="white"/>
</g>
<g opacity="0.4">
<path d="M177.819 57.5898L165.788 35.7842C165.027 34.4053 163.046 34.4053 162.285 35.7842L150.255 57.5898C149.411 59.1191 150.796 60.9199 152.491 60.4961L157.136 59.335C158.083 59.0983 159 59.8144 159 60.7902V117.61C159 119.268 160.343 120.61 162 120.61H166C167.657 120.61 169 119.268 169 117.61V60.7717C169 59.7959 169.917 59.0798 170.864 59.3165L175.583 60.4961C177.277 60.9199 178.663 59.1191 177.819 57.5898Z" fill="white"/>
</g>
<g opacity="0.4">
<path d="M265.819 57.5898L253.788 35.7842C253.027 34.4053 251.046 34.4053 250.285 35.7842L238.255 57.5898C237.411 59.1191 238.796 60.9199 240.491 60.4961L245.136 59.335C246.083 59.0983 247 59.8144 247 60.7902V117.61C247 119.268 248.343 120.61 250 120.61H254C255.657 120.61 257 119.268 257 117.61V60.7717C257 59.7959 257.917 59.0798 258.864 59.3165L263.583 60.4961C265.277 60.9199 266.663 59.1191 265.819 57.5898Z" fill="white"/>
</g>
<path d="M359.204 35.0697L335.277 41.9818C333.599 42.4667 333.305 44.7193 334.803 45.6182L338.942 48.1014C339.779 48.6034 339.921 49.7582 339.231 50.4483L323.979 65.7001C320.791 68.8882 319 73.2122 319 77.7209V117.75C319 119.407 320.343 120.75 322 120.75H326C327.657 120.75 329 119.407 329 117.75L329 77.7209C329 75.8644 329.737 74.0839 331.05 72.7711L346.302 57.5194C346.992 56.8294 348.147 56.9716 348.649 57.8084L351.132 61.9465C352.031 63.4446 354.283 63.151 354.768 61.4726L361.68 37.5462C362.117 36.0337 360.716 34.6328 359.204 35.0697Z" fill="white"/>
<path d="M33.96 169.59C33.96 167.937 34.0667 166.31 34.28 164.71C34.52 163.11 34.92 161.603 35.48 160.19C36.0667 158.75 36.8667 157.483 37.88 156.39C38.8933 155.27 40.1733 154.403 41.72 153.79C43.2933 153.15 45.1867 152.83 47.4 152.83C47.96 152.83 48.5867 152.857 49.28 152.91C50 152.937 50.5867 153.017 51.04 153.15V156.71C50.5333 156.55 49.9733 156.43 49.36 156.35C48.7733 156.27 48.1867 156.23 47.6 156.23C45.76 156.23 44.24 156.51 43.04 157.07C41.84 157.63 40.8933 158.403 40.2 159.39C39.5067 160.377 39 161.523 38.68 162.83C38.36 164.11 38.16 165.51 38.08 167.03H38.32C38.72 166.39 39.2133 165.817 39.8 165.31C40.3867 164.803 41.1067 164.403 41.96 164.11C42.8133 163.817 43.8 163.67 44.92 163.67C46.5733 163.67 48.0133 164.017 49.24 164.71C50.4933 165.403 51.4533 166.403 52.12 167.71C52.8133 169.017 53.16 170.603 53.16 172.47C53.16 174.47 52.7733 176.203 52 177.67C51.2533 179.11 50.1867 180.217 48.8 180.99C47.44 181.763 45.8 182.15 43.88 182.15C42.4933 182.15 41.2 181.897 40 181.39C38.8 180.883 37.7467 180.11 36.84 179.07C35.9333 178.03 35.2267 176.723 34.72 175.15C34.2133 173.55 33.96 171.697 33.96 169.59ZM43.84 178.63C45.36 178.63 46.6 178.137 47.56 177.15C48.52 176.137 49 174.577 49 172.47C49 170.79 48.5733 169.457 47.72 168.47C46.8933 167.483 45.64 166.99 43.96 166.99C42.8133 166.99 41.8133 167.23 40.96 167.71C40.1067 168.19 39.44 168.803 38.96 169.55C38.48 170.297 38.24 171.057 38.24 171.83C38.24 172.657 38.36 173.47 38.6 174.27C38.84 175.07 39.1867 175.803 39.64 176.47C40.12 177.137 40.7067 177.67 41.4 178.07C42.0933 178.443 42.9067 178.63 43.84 178.63ZM76.4706 167.43C76.4706 169.75 76.284 171.817 75.9106 173.63C75.564 175.443 75.004 176.99 74.2306 178.27C73.484 179.523 72.484 180.483 71.2306 181.15C70.004 181.817 68.524 182.15 66.7906 182.15C64.604 182.15 62.804 181.563 61.3906 180.39C59.9773 179.217 58.924 177.537 58.2306 175.35C57.5373 173.137 57.1906 170.497 57.1906 167.43C57.1906 164.337 57.4973 161.697 58.1106 159.51C58.7506 157.323 59.7773 155.657 61.1906 154.51C62.604 153.337 64.4706 152.75 66.7906 152.75C68.9773 152.75 70.7773 153.337 72.1906 154.51C73.6306 155.657 74.6973 157.323 75.3906 159.51C76.1106 161.697 76.4706 164.337 76.4706 167.43ZM61.4306 167.43C61.4306 169.91 61.604 171.977 61.9506 173.63C62.2973 175.283 62.8573 176.523 63.6306 177.35C64.4306 178.177 65.484 178.59 66.7906 178.59C68.0973 178.59 69.1373 178.19 69.9106 177.39C70.7106 176.563 71.284 175.323 71.6306 173.67C72.004 171.99 72.1906 169.91 72.1906 167.43C72.1906 164.95 72.004 162.897 71.6306 161.27C71.284 159.617 70.7106 158.377 69.9106 157.55C69.1373 156.723 68.0973 156.31 66.7906 156.31C65.484 156.31 64.4306 156.723 63.6306 157.55C62.8573 158.377 62.2973 159.617 61.9506 161.27C61.604 162.897 61.4306 164.95 61.4306 167.43ZM99.8613 167.43C99.8613 169.75 99.6746 171.817 99.3013 173.63C98.9546 175.443 98.3946 176.99 97.6213 178.27C96.8746 179.523 95.8746 180.483 94.6213 181.15C93.3946 181.817 91.9146 182.15 90.1813 182.15C87.9946 182.15 86.1946 181.563 84.7813 180.39C83.3679 179.217 82.3146 177.537 81.6213 175.35C80.9279 173.137 80.5813 170.497 80.5813 167.43C80.5813 164.337 80.8879 161.697 81.5013 159.51C82.1413 157.323 83.1679 155.657 84.5813 154.51C85.9946 153.337 87.8613 152.75 90.1813 152.75C92.3679 152.75 94.1679 153.337 95.5813 154.51C97.0213 155.657 98.0879 157.323 98.7812 159.51C99.5013 161.697 99.8613 164.337 99.8613 167.43ZM84.8213 167.43C84.8213 169.91 84.9946 171.977 85.3413 173.63C85.6879 175.283 86.2479 176.523 87.0213 177.35C87.8213 178.177 88.8746 178.59 90.1813 178.59C91.4879 178.59 92.5279 178.19 93.3013 177.39C94.1013 176.563 94.6746 175.323 95.0213 173.67C95.3946 171.99 95.5813 169.91 95.5813 167.43C95.5813 164.95 95.3946 162.897 95.0213 161.27C94.6746 159.617 94.1013 158.377 93.3013 157.55C92.5279 156.723 91.4879 156.31 90.1813 156.31C88.8746 156.31 87.8213 156.723 87.0213 157.55C86.2479 158.377 85.6879 159.617 85.3413 161.27C84.9946 162.897 84.8213 164.95 84.8213 167.43ZM140.543 159.79C142.969 159.79 144.796 160.417 146.023 161.67C147.249 162.923 147.863 164.937 147.863 167.71V181.75H143.623V168.27C143.623 166.617 143.289 165.377 142.623 164.55C141.983 163.697 140.969 163.27 139.583 163.27C137.663 163.27 136.289 163.87 135.463 165.07C134.636 166.243 134.223 167.95 134.223 170.19V181.75H130.023V168.27C130.023 167.177 129.863 166.257 129.543 165.51C129.249 164.763 128.809 164.203 128.223 163.83C127.636 163.457 126.876 163.27 125.943 163.27C124.609 163.27 123.556 163.563 122.783 164.15C122.009 164.737 121.449 165.603 121.103 166.75C120.783 167.87 120.623 169.243 120.623 170.87V181.75H116.383V160.19H119.743L120.343 163.07H120.583C121.036 162.323 121.583 161.71 122.223 161.23C122.889 160.75 123.623 160.39 124.423 160.15C125.223 159.91 126.049 159.79 126.903 159.79C128.529 159.79 129.903 160.083 131.023 160.67C132.143 161.23 132.956 162.097 133.463 163.27H133.783C134.476 162.07 135.436 161.19 136.663 160.63C137.889 160.07 139.183 159.79 140.543 159.79Z" fill="white"/>
<mask id="mask0_6219_433" style="mask-type:alpha" maskUnits="userSpaceOnUse" x="426" y="148" width="62" height="44">
<path d="M445.811 148.899L443.202 191.601H428.004C427.222 191.601 426.735 190.979 426.921 190.218L436.796 150.282C436.987 149.521 437.782 148.899 438.562 148.899H445.811ZM457.928 148.899C458.71 148.899 459.504 149.521 459.689 150.282L463.633 166.231C465.884 161.208 468.935 156.968 473.622 153.955L466.532 148.901L487.883 148.899L477.779 167.879L476.718 159.225C472.114 162.248 469.39 166.776 467.953 172.138C467.015 175.633 466.95 179.22 467.694 182.659L467.935 183.634L469.416 189.623L469.562 190.218C469.753 190.979 469.268 191.601 468.479 191.601H453.287L450.673 148.899H457.928Z" fill="white"/>
</mask>
<g mask="url(#mask0_6219_433)">
<path d="M445.811 148.899L443.202 191.601H428.004C427.222 191.601 426.735 190.979 426.921 190.218L436.796 150.282C436.987 149.521 437.782 148.899 438.562 148.899H445.811ZM457.928 148.899C458.71 148.899 459.504 149.521 459.689 150.282L463.633 166.231C465.884 161.208 468.935 156.968 473.622 153.955L466.532 148.901L487.883 148.899L477.779 167.879L476.718 159.225C472.114 162.248 469.39 166.776 467.953 172.138C467.015 175.633 466.95 179.22 467.694 182.659L467.935 183.634L469.416 189.623L469.562 190.218C469.753 190.979 469.268 191.601 468.479 191.601H453.287L450.673 148.899H457.928Z" fill="white"/>
<path d="M487.885 148.899H426.882V191.601H487.885V148.899Z" fill="#F6F9FF"/>
</g>
<circle cx="534.5" cy="170.25" r="31.5" fill="#020202" stroke="white" stroke-width="4"/>
<path d="M534.416 181.33C538.016 181.33 539.744 177.586 539.852 173.554C538.592 174.994 536.864 175.93 534.596 175.93C530.204 175.93 526.856 173.05 526.856 167.938V167.83C526.856 162.79 530.42 159.118 535.244 159.118C537.836 159.118 539.636 159.91 541.184 161.458C542.912 163.258 544.1 165.958 544.1 171.178V171.43C544.1 180.07 540.392 185.182 534.344 185.182C531.608 185.182 529.52 184.21 527.504 182.626L529.556 179.314C531.104 180.574 532.58 181.33 534.416 181.33ZM535.352 172.366C538.052 172.366 539.708 170.458 539.708 167.722V167.65C539.708 164.77 538.016 162.826 535.28 162.826C532.58 162.826 530.996 164.878 530.996 167.65V167.722C530.996 170.602 532.724 172.366 535.352 172.366Z" fill="white"/>
<g filter="url(#filter0_d_6219_433)">
<rect x="32" y="215.75" width="61" height="36" rx="3" fill="#F7B817"/>
<rect x="33.5" y="217.25" width="58" height="33" rx="1.5" stroke="#F7B817" stroke-width="3"/>
<path d="M53.0308 242.75L51.4708 238.214H45.0148L43.4788 242.75H40.2148L46.5028 225.542H50.0068L56.2948 242.75H53.0308ZM49.1908 231.158C49.1268 230.934 49.0308 230.63 48.9028 230.246C48.7748 229.862 48.6468 229.47 48.5188 229.07C48.4068 228.654 48.3188 228.31 48.2548 228.038C48.1748 228.358 48.0708 228.726 47.9428 229.142C47.8308 229.558 47.7188 229.95 47.6068 230.318C47.5108 230.686 47.4308 230.966 47.3668 231.158L45.8548 235.574H50.6788L49.1908 231.158ZM66.2004 242.75H63.1764V232.07C63.1764 231.718 63.1764 231.358 63.1764 230.99C63.1924 230.622 63.2084 230.254 63.2244 229.886C63.2404 229.502 63.2564 229.15 63.2724 228.83C63.1124 228.99 62.9124 229.182 62.6724 229.406C62.4324 229.614 62.1844 229.83 61.9284 230.054L60.0084 231.59L58.4964 229.718L63.6804 225.614H66.2004V242.75ZM83.7708 234.158C83.7708 235.55 83.6668 236.79 83.4588 237.878C83.2508 238.966 82.9068 239.894 82.4268 240.662C81.9628 241.414 81.3548 241.99 80.6028 242.39C79.8668 242.79 78.9628 242.99 77.8908 242.99C76.5468 242.99 75.4428 242.638 74.5788 241.934C73.7148 241.23 73.0748 240.222 72.6588 238.91C72.2428 237.582 72.0348 235.998 72.0348 234.158C72.0348 232.318 72.2268 230.742 72.6108 229.43C72.9948 228.118 73.6108 227.11 74.4588 226.406C75.3228 225.702 76.4668 225.35 77.8908 225.35C79.2348 225.35 80.3388 225.702 81.2028 226.406C82.0668 227.094 82.7068 228.102 83.1228 229.43C83.5548 230.742 83.7708 232.318 83.7708 234.158ZM75.0828 234.182C75.0828 235.574 75.1708 236.742 75.3468 237.686C75.5228 238.614 75.8108 239.318 76.2108 239.798C76.6268 240.262 77.1868 240.494 77.8908 240.494C78.5948 240.494 79.1468 240.262 79.5468 239.798C79.9628 239.334 80.2588 238.63 80.4348 237.686C80.6268 236.742 80.7228 235.574 80.7228 234.182C80.7228 232.774 80.6268 231.606 80.4348 230.678C80.2588 229.734 79.9628 229.03 79.5468 228.566C79.1468 228.086 78.5948 227.846 77.8908 227.846C77.1868 227.846 76.6268 228.086 76.2108 228.566C75.8108 229.03 75.5228 229.726 75.3468 230.654C75.1708 231.582 75.0828 232.758 75.0828 234.182Z" fill="black"/>
</g>
<path d="M114.236 244.75H111.716V224.758H122.888V226.97H114.236V234.054H122.356V236.266H114.236V244.75ZM133.4 229.462C133.68 229.462 133.978 229.481 134.296 229.518C134.632 229.537 134.921 229.574 135.164 229.63L134.856 231.898C134.613 231.842 134.342 231.795 134.044 231.758C133.764 231.721 133.493 231.702 133.232 231.702C132.653 231.702 132.102 231.823 131.58 232.066C131.057 232.309 130.59 232.654 130.18 233.102C129.769 233.531 129.442 234.054 129.2 234.67C128.976 235.286 128.864 235.977 128.864 236.742V244.75H126.4V229.742H128.416L128.696 232.486H128.808C129.125 231.926 129.508 231.422 129.956 230.974C130.404 230.507 130.917 230.143 131.496 229.882C132.074 229.602 132.709 229.462 133.4 229.462ZM143.603 229.49C145.432 229.49 146.786 229.891 147.663 230.694C148.54 231.497 148.979 232.775 148.979 234.53V244.75H147.187L146.711 242.622H146.599C146.17 243.163 145.722 243.621 145.255 243.994C144.807 244.349 144.284 244.61 143.687 244.778C143.108 244.946 142.399 245.03 141.559 245.03C140.663 245.03 139.851 244.871 139.123 244.554C138.414 244.237 137.854 243.751 137.443 243.098C137.032 242.426 136.827 241.586 136.827 240.578C136.827 239.085 137.415 237.937 138.591 237.134C139.767 236.313 141.578 235.865 144.023 235.79L146.571 235.706V234.81C146.571 233.559 146.3 232.691 145.759 232.206C145.218 231.721 144.452 231.478 143.463 231.478C142.679 231.478 141.932 231.599 141.223 231.842C140.514 232.066 139.851 232.327 139.235 232.626L138.479 230.778C139.132 230.423 139.907 230.125 140.803 229.882C141.699 229.621 142.632 229.49 143.603 229.49ZM144.331 237.498C142.464 237.573 141.167 237.871 140.439 238.394C139.73 238.917 139.375 239.654 139.375 240.606C139.375 241.446 139.627 242.062 140.131 242.454C140.654 242.846 141.316 243.042 142.119 243.042C143.388 243.042 144.443 242.697 145.283 242.006C146.123 241.297 146.543 240.214 146.543 238.758V237.414L144.331 237.498ZM161.338 229.462C163.13 229.462 164.484 229.901 165.398 230.778C166.313 231.637 166.77 233.037 166.77 234.978V244.75H164.334V235.146C164.334 233.933 164.064 233.027 163.522 232.43C162.981 231.833 162.132 231.534 160.974 231.534C159.313 231.534 158.165 232.001 157.53 232.934C156.896 233.867 156.578 235.211 156.578 236.966V244.75H154.114V229.742H156.102L156.466 231.786H156.606C156.942 231.263 157.353 230.834 157.838 230.498C158.342 230.143 158.893 229.882 159.49 229.714C160.088 229.546 160.704 229.462 161.338 229.462ZM174.359 234.586C174.359 234.885 174.34 235.277 174.303 235.762C174.284 236.247 174.266 236.667 174.247 237.022H174.359C174.471 236.873 174.639 236.658 174.863 236.378C175.087 236.098 175.311 235.818 175.535 235.538C175.778 235.239 175.983 234.997 176.151 234.81L180.939 229.742H183.823L177.747 236.154L184.243 244.75H181.275L176.067 237.75L174.359 239.234V244.75H171.923V223.47H174.359V234.586ZM194.296 231.646H190.516V244.75H188.052V231.646H185.42V230.498L188.052 229.658V228.79C188.052 227.502 188.239 226.457 188.612 225.654C189.004 224.851 189.564 224.263 190.292 223.89C191.02 223.517 191.897 223.33 192.924 223.33C193.521 223.33 194.063 223.386 194.548 223.498C195.052 223.591 195.481 223.703 195.836 223.834L195.192 225.766C194.893 225.673 194.548 225.579 194.156 225.486C193.764 225.393 193.363 225.346 192.952 225.346C192.131 225.346 191.515 225.626 191.104 226.186C190.712 226.727 190.516 227.586 190.516 228.762V229.742H194.296V231.646ZM210.049 229.742V244.75H208.033L207.669 242.762H207.557C207.24 243.285 206.829 243.714 206.325 244.05C205.821 244.386 205.27 244.629 204.673 244.778C204.076 244.946 203.45 245.03 202.797 245.03C201.602 245.03 200.594 244.843 199.773 244.47C198.97 244.078 198.364 243.481 197.953 242.678C197.542 241.875 197.337 240.839 197.337 239.57V229.742H199.829V239.402C199.829 240.597 200.1 241.493 200.641 242.09C201.182 242.687 202.022 242.986 203.161 242.986C204.281 242.986 205.158 242.781 205.793 242.37C206.446 241.941 206.904 241.325 207.165 240.522C207.445 239.701 207.585 238.711 207.585 237.554V229.742H210.049ZM222.314 229.462C222.594 229.462 222.892 229.481 223.21 229.518C223.546 229.537 223.835 229.574 224.078 229.63L223.77 231.898C223.527 231.842 223.256 231.795 222.958 231.758C222.678 231.721 222.407 231.702 222.146 231.702C221.567 231.702 221.016 231.823 220.494 232.066C219.971 232.309 219.504 232.654 219.094 233.102C218.683 233.531 218.356 234.054 218.114 234.67C217.89 235.286 217.778 235.977 217.778 236.742V244.75H215.314V229.742H217.33L217.61 232.486H217.722C218.039 231.926 218.422 231.422 218.87 230.974C219.318 230.507 219.831 230.143 220.41 229.882C220.988 229.602 221.623 229.462 222.314 229.462ZM232.392 243.014C232.765 243.014 233.148 242.986 233.54 242.93C233.932 242.855 234.249 242.781 234.492 242.706V244.582C234.231 244.713 233.857 244.815 233.372 244.89C232.887 244.983 232.42 245.03 231.972 245.03C231.188 245.03 230.46 244.899 229.788 244.638C229.135 244.358 228.603 243.882 228.192 243.21C227.781 242.538 227.576 241.595 227.576 240.382V231.646H225.448V230.47L227.604 229.49L228.584 226.298H230.04V229.742H234.38V231.646H230.04V240.326C230.04 241.241 230.255 241.922 230.684 242.37C231.132 242.799 231.701 243.014 232.392 243.014ZM263.551 234.726C263.551 236.275 263.355 237.685 262.963 238.954C262.571 240.205 261.983 241.287 261.199 242.202C260.433 243.117 259.472 243.817 258.315 244.302C257.176 244.787 255.851 245.03 254.339 245.03C252.771 245.03 251.408 244.787 250.251 244.302C249.093 243.798 248.132 243.098 247.367 242.202C246.601 241.287 246.032 240.195 245.659 238.926C245.285 237.657 245.099 236.247 245.099 234.698C245.099 232.645 245.435 230.853 246.107 229.322C246.779 227.791 247.796 226.597 249.159 225.738C250.54 224.879 252.276 224.45 254.367 224.45C256.364 224.45 258.044 224.879 259.407 225.738C260.769 226.578 261.796 227.773 262.487 229.322C263.196 230.853 263.551 232.654 263.551 234.726ZM247.759 234.726C247.759 236.406 247.992 237.853 248.459 239.066C248.925 240.279 249.644 241.213 250.615 241.866C251.604 242.519 252.845 242.846 254.339 242.846C255.851 242.846 257.083 242.519 258.035 241.866C259.005 241.213 259.724 240.279 260.191 239.066C260.657 237.853 260.891 236.406 260.891 234.726C260.891 232.206 260.368 230.237 259.323 228.818C258.277 227.381 256.625 226.662 254.367 226.662C252.855 226.662 251.604 226.989 250.615 227.642C249.644 228.277 248.925 229.201 248.459 230.414C247.992 231.609 247.759 233.046 247.759 234.726ZM273.466 245.03C271.599 245.03 270.106 244.386 268.986 243.098C267.866 241.791 267.306 239.85 267.306 237.274C267.306 234.698 267.866 232.757 268.986 231.45C270.124 230.125 271.627 229.462 273.494 229.462C274.278 229.462 274.959 229.565 275.538 229.77C276.116 229.957 276.62 230.218 277.05 230.554C277.479 230.89 277.843 231.263 278.142 231.674H278.31C278.291 231.431 278.254 231.077 278.198 230.61C278.16 230.125 278.142 229.742 278.142 229.462V223.47H280.606V244.75H278.618L278.254 242.734H278.142C277.843 243.163 277.479 243.555 277.05 243.91C276.62 244.246 276.107 244.517 275.51 244.722C274.931 244.927 274.25 245.03 273.466 245.03ZM273.858 242.986C275.444 242.986 276.555 242.557 277.19 241.698C277.843 240.821 278.17 239.505 278.17 237.75V237.302C278.17 235.435 277.862 234.007 277.246 233.018C276.63 232.01 275.491 231.506 273.83 231.506C272.504 231.506 271.506 232.038 270.834 233.102C270.18 234.147 269.854 235.557 269.854 237.33C269.854 239.122 270.18 240.513 270.834 241.502C271.506 242.491 272.514 242.986 273.858 242.986ZM291.668 229.462C292.956 229.462 294.058 229.742 294.972 230.302C295.906 230.862 296.615 231.655 297.1 232.682C297.604 233.69 297.856 234.875 297.856 236.238V237.722H287.58C287.618 239.421 288.047 240.718 288.868 241.614C289.708 242.491 290.875 242.93 292.368 242.93C293.32 242.93 294.16 242.846 294.888 242.678C295.635 242.491 296.4 242.23 297.184 241.894V244.05C296.419 244.386 295.663 244.629 294.916 244.778C294.17 244.946 293.283 245.03 292.256 245.03C290.838 245.03 289.578 244.741 288.476 244.162C287.394 243.583 286.544 242.725 285.928 241.586C285.331 240.429 285.032 239.019 285.032 237.358C285.032 235.715 285.303 234.306 285.844 233.13C286.404 231.954 287.179 231.049 288.168 230.414C289.176 229.779 290.343 229.462 291.668 229.462ZM291.64 231.478C290.464 231.478 289.531 231.861 288.84 232.626C288.168 233.373 287.767 234.418 287.636 235.762H295.28C295.28 234.903 295.15 234.157 294.888 233.522C294.627 232.887 294.226 232.393 293.684 232.038C293.162 231.665 292.48 231.478 291.64 231.478ZM309.177 229.462C309.457 229.462 309.756 229.481 310.073 229.518C310.409 229.537 310.698 229.574 310.941 229.63L310.633 231.898C310.39 231.842 310.12 231.795 309.821 231.758C309.541 231.721 309.27 231.702 309.009 231.702C308.43 231.702 307.88 231.823 307.357 232.066C306.834 232.309 306.368 232.654 305.957 233.102C305.546 233.531 305.22 234.054 304.977 234.67C304.753 235.286 304.641 235.977 304.641 236.742V244.75H302.177V229.742H304.193L304.473 232.486H304.585C304.902 231.926 305.285 231.422 305.733 230.974C306.181 230.507 306.694 230.143 307.273 229.882C307.852 229.602 308.486 229.462 309.177 229.462Z" fill="white"/>
<defs>
<filter id="filter0_d_6219_433" x="32" y="215.75" width="61" height="38" filterUnits="userSpaceOnUse" color-interpolation-filters="sRGB">
<feFlood flood-opacity="0" result="BackgroundImageFix"/>
<feColorMatrix in="SourceAlpha" type="matrix" values="0 0 0 0 0 0 0 0 0 0 0 0 0 0 0 0 0 0 127 0" result="hardAlpha"/>
<feOffset dy="2"/>
<feColorMatrix type="matrix" values="0 0 0 0 0.113725 0 0 0 0 0.168627 0 0 0 0 0.184314 0 0 0 0.25 0"/>
<feBlend mode="normal" in2="BackgroundImageFix" result="effect1_dropShadow_6219_433"/>
<feBlend mode="normal" in="SourceGraphic" in2="effect1_dropShadow_6219_433" result="shape"/>
</filter>
</defs>
</svg>
