<?xml version="1.0" encoding="UTF-8"?>
<svg width="2560" height="1440" version="1.1" viewBox="0 0 2560 1440" xml:space="preserve" xmlns="http://www.w3.org/2000/svg"><defs><clipPath id="clipPath19678"><path d="m212.06 696.73h66.147v294.83h-66.147z"/></clipPath><clipPath id="clipPath19692"><path d="m0 0h1920v1080h-1920z"/></clipPath><clipPath id="clipPath19706"><path d="m80.106 962.64h123.94v9h-123.94z"/></clipPath><clipPath id="clipPath19720"><path d="m0 0h1920v1080h-1920z"/></clipPath><clipPath id="clipPath19734"><path d="m80.106 938.28h123.94v9h-123.94z"/></clipPath><clipPath id="clipPath19748"><path d="m0 0h1920v1080h-1920z"/></clipPath><clipPath id="clipPath19762"><path d="m80.106 908.99h123.94v9h-123.94z"/></clipPath><clipPath id="clipPath19776"><path d="m0 0h1920v1080h-1920z"/></clipPath><clipPath id="clipPath19876"><path d="m572.98 685.57h212.16v348.84h-212.16z"/></clipPath><clipPath id="clipPath19908"><path d="m0 0h1920v1080h-1920z"/></clipPath></defs><g transform="matrix(1.3333 0 0 -1.3333 0 1440)"><g transform="matrix(2.4996 0 0 2.4996 -89.923 -1553.4)"><g transform="matrix(1 0 0 -1 211.06 992.55)"><path d="m0 0h68.147v296.83h-68.147z" fill="none" stroke="#000"/></g><g clip-path="url(#clipPath19678)"><g transform="translate(219.85 981.24)"><text transform="scale(1,-1)" fill="#000000" font-family="'Helvetica Neue'" font-size="7px"><tspan x="0 4.5359998 8.2950001 12.054 15.946 19.705 22.035999 23.59 27.608 30.982 33.313 37.071999 40.831001 44.464001 48.223" y="0">ScenarioTracker</tspan></text></g></g><g clip-path="url(#clipPath19692)"><g transform="matrix(1 0 0 -1 78.436 960.52)"><path d="m0 0h126.62" fill="none" stroke="#000"/></g><path d="m204.56 957.52 6 3-6 3z"/></g><g clip-path="url(#clipPath19706)"><g transform="translate(101.69 963.57)"><text transform="scale(1,-1)" fill="#000000" font-family="'Helvetica Neue'" font-size="8px"><tspan x="0 5.776 10.52 14.816 19.408001 26.232 28.007999 32.456001 37.048 39.271999 41.048 45.495998 49.495998 52.015999 54.68 59.127998 63.424 65.944 67.720001 72.311996 76.760002" y="0">Upcoming instructions</tspan></text></g></g><g clip-path="url(#clipPath19720)"><g transform="matrix(1 0 0 -1 78.436 935.15)"><path d="m0 0h126.62" fill="none" stroke="#000"/></g><path d="m204.56 932.15 6 3-6 3z"/></g><g clip-path="url(#clipPath19734)"><g transform="translate(110.44 939.2)"><text transform="scale(1,-1)" fill="#000000" font-family="'Helvetica Neue'" font-size="8px"><tspan x="0 3.8559999 6.52 8.2959995 12.888 17.48 21.775999 24.440001 26.216 30.664 35.256001 37.48 42.223999 46.672001 50.967999 54.967999 59.264" y="0">Triggering phases</tspan></text></g></g><g clip-path="url(#clipPath19748)"><g transform="matrix(1 0 0 -1 78.436 906.87)"><path d="m0 0h126.62" fill="none" stroke="#000"/></g><path d="m204.56 903.87 6 3-6 3z"/></g><g clip-path="url(#clipPath19762)"><g transform="translate(110.29 909.92)"><text transform="scale(1,-1)" fill="#000000" font-family="'Helvetica Neue'" font-size="8px"><tspan x="0 5.184 7.704 12.296 16.888 19.408001 23.704 27.704 31.704 33.928001 38.52 42.967999 45.192001 47.712002 52.304001 56.751999 59.271999" y="0">Progress on route</tspan></text></g></g><g clip-path="url(#clipPath19776)"><g transform="matrix(1 0 0 -1 62.071 1033.3)"><path d="m0 0h430.83v157.1h-430.83z" fill="none" stroke="#000" stroke-dasharray="6, 6"/></g><g transform="translate(188.82 1012.5)"><text transform="scale(1,-1)" fill="#000000" font-family="CanelaText" font-size="10px" font-weight="bold"><tspan x="0 7.5999999 15.95 22.92 25.32 29.42 35.169998 39.810001 46.029999 48.43 54.709999 60.799999 66.150002 72.239998 77.589996 79.989998 84.089996 90.559998 95.099998 100.45 106.1" y="0">TOB task queue thread</tspan></text></g><g transform="matrix(1 0 0 -1 184.32 1028.4)"><path d="m4.5 17.317h112.61" fill="none" stroke="#000" stroke-miterlimit="10" stroke-width=".4"/></g><g transform="matrix(1 0 0 -1 387.71 958.96)"><path d="m76.376 4.9792c17.472 6.6389 17.472 17.403 0 24.042-17.472 6.6389-45.8 6.6389-63.272 0-17.472-6.6389-17.472-17.403 0-24.042 17.472-6.6389 45.8-6.6389 63.272 0z" fill="none" stroke="#000"/></g><g transform="translate(395.31 937.51)"><text transform="scale(1,-1)" fill="#000000" font-family="CanelaText" font-size="10px"><tspan x="0 6.9000001 13.05 19.280001 24.540001 28.120001 33.259998 35.630001 40.130001 45.23 50.369999 56.290001 61.650002 65.510002 68.089996" y="0">Update scenario</tspan></text></g><g transform="matrix(1 0 0 -1 372.38 845.61)"><path d="m76.376 4.9792c17.472 6.6389 17.472 17.403 0 24.042-17.472 6.6389-45.8 6.6389-63.272 0-17.472-6.6389-17.472-17.403 0-24.042 17.472-6.6389 45.8-6.6389 63.272 0z" fill="none" stroke="#000"/></g><g transform="translate(374.64 824.3)"><text transform="scale(1,-1)" fill="#000000" font-family="CanelaText" font-size="9px"><tspan x="0 6.849 10.233 14.814 19.548 22.77 27.396 29.528999 34.856998 39.393002 46.305 48.438 52.487999 57.077999 61.703999 67.031998 71.856003 75.330002 77.652" y="0">Create new scenario</tspan></text></g><g transform="matrix(1 0 0 -1 61.096 865.06)"><path d="m0 0h432.78v96.259h-432.78z" fill="none" stroke="#000" stroke-dasharray="6, 6"/></g><g transform="translate(72.189 817.91)"><text transform="scale(1,-1)" fill="#000000" font-family="CanelaText" font-size="10px" font-weight="bold"><tspan x="0 7.6500001 14.12 18.66 24.01 29.66 36.169998 39.709999 47.240002 52.029999 57.34 63.84 69.07 71.470001 75.57 81.32 85.959999 92.230003 95.720001 98.120003 104.67" y="0">Thread(Async task) #1</tspan></text></g><g transform="matrix(1 0 0 -1 67.689 833.81)"><path d="m4.5 17.317h108.34" fill="none" stroke="#000" stroke-miterlimit="10" stroke-width=".4"/></g><g transform="matrix(1 0 0 -1 279.15 942.84)"><path d="m0 0h103.7" fill="none" stroke="#000"/></g><path d="m382.35 939.84 6 3-6 3z"/><g transform="translate(285.66 946.93)"><text transform="scale(1,-1)" fill="#000000" font-family="'Helvetica Neue'" font-size="8px"><tspan x="0 6.9679999 11.264 15.712 17.936001 20.16 24.16 28.455999 33.048 35.271999 39.720001 44.464001 48.911999 53.208 57.208 61.504002 63.728001 65.952003 70.248001 74.695999 76.624001 78.848 81.071999 85.071999 89.367996 93.959999 96.183998" y="0">Man. seg, phase, cur. seg. </tspan></text></g><g transform="matrix(1 0 0 -1 378.71 740.59)"><path d="m76.376 4.9792c17.472 6.6389 17.472 17.403 0 24.042-17.472 6.6389-45.8 6.6389-63.272 0-17.472-6.6389-17.472-17.403 0-24.042 17.472-6.6389 45.8-6.6389 63.272 0z" fill="none" stroke="#000"/></g><g transform="translate(381.84 719.33)"><text transform="scale(1,-1)" fill="#000000" font-family="CanelaText" font-size="9px"><tspan x="0 6.849 10.233 14.814 19.548 22.77 27.396 29.528999 34.856998 39.393002 46.305 48.438 52.487999 57.077999 61.703999 67.031998 71.856003 75.330002 77.652" y="0">Create new scenario</tspan></text></g><g transform="translate(390.12 771.88)"><text transform="scale(1,-1)" fill="#000000" font-family="CanelaText" font-size="10px"><tspan x="0" y="0">…</tspan></text></g><g transform="matrix(.79993 -.6001 -.6001 -.79993 277.89 922.45)"><path d="m0 0h130.63" fill="none" stroke="#000"/></g><path d="m380.19 841.96 6.5999-1.2008-2.9993 6.0003z"/><g transform="matrix(.61531 -.78829 -.78829 -.61531 279.84 922.59)"><path d="m0 0h224.74" fill="none" stroke="#000"/></g><path d="m415.45 743.97 6.0567-2.8838-1.327 6.5756z"/><g transform="matrix(1 0 0 -1 572.93 1035.4)"><path d="m0 0h212.25v350.84h-212.25z" fill="none" stroke="#000"/></g></g><g clip-path="url(#clipPath19876)"><g transform="translate(580.67 863.5)"><text transform="scale(1,-1)" fill="#000000" font-family="'Helvetica Neue'" font-size="17px"><tspan x="0 9.4519997 18.580999 28.033001 37.161999 50.064999 59.516998 63.291 73.372002 82.500999 91.953003 101.082 110.211 122.485 132.243 137.59801" y="0">LaneGuidanceNoti</tspan></text></g><g transform="translate(580.67 863.5)"><text transform="matrix(1 0 0 -1 141.37 0)" fill="#000000" font-family="'Helvetica Neue'" font-size="17px"><tspan x="0" y="0">f</tspan></text></g><g transform="translate(580.67 863.5)"><text transform="matrix(1 0 0 -1 150.18 0)" fill="#000000" font-family="'Helvetica Neue'" font-size="17px"><tspan x="0 9.1289997 18.257999 23.613001 27.386999 37.145" y="0">cation</tspan></text></g><g transform="translate(645.53 843.5)"><text transform="scale(1,-1)" fill="#000000" font-family="'Helvetica Neue'" font-size="17px"><tspan x="0 14.807 23.936001 33.388 42.516998 52.275002 61.403999" y="0">Manager</tspan></text></g></g><g clip-path="url(#clipPath19908)"><g transform="matrix(1 0 0 -1 478.34 943.41)"><path d="m0 0h90.11" fill="none" stroke="#000"/></g><path d="m567.95 940.41 6 3-6 3z"/><g transform="translate(498.96 949.86)"><text transform="scale(1,-1)" fill="#000000" font-family="'Helvetica Neue'" font-size="8px"><tspan x="0 5.184 9.4799995 13.776 18.224001 22.52 25.184 26.959999 31.552 33.776001 38.576 40.799999 44.799999 49.096001 51.759998 55.759998 57.535999 62.127998" y="0">Scenario + version</tspan></text></g><g transform="matrix(-1 0 0 1 375.79 822.4)"><path d="m0 0h90.11" fill="none" stroke="#000"/></g><path d="m286.18 825.4-6-3 6-3z"/><g transform="translate(296.92 837.36)" fill="#000000" font-family="'Helvetica Neue'" font-size="8px"><text transform="scale(1,-1)"><tspan x="0 5.184 9.4799995 13.776 18.224001 22.52 25.184 26.959999 31.552 36.352001 40.352001 44.647999 47.312 51.312 53.088001 57.68" y="0">Scenario+version</tspan></text><text transform="matrix(1,0,0,-1,62.128,0)"><tspan x="0" y="0"/></text></g><g transform="translate(289.84 827.36)" fill="#000000" font-family="'Helvetica Neue'" font-size="8px"><text transform="matrix(1,0,0,-1,2.224,0)"><tspan x="0 4 8.2959995 12.592 17.040001 21.336 24 25.775999 30.368 32.591999 34.368 38.816002 42.816002 45.335999 48 52.448002 56.743999 59.264 61.040001 65.632004 70.080002" y="0">scenario instructions</tspan></text><text transform="matrix(1,0,0,-1,76.304,0)"><tspan x="0" y="0"/></text></g><g transform="matrix(1 0 0 -1 277.74 787.41)"><path d="m0 0h289.73" fill="none" stroke="#000"/></g><path d="m566.97 784.41 6 3-6 3z"/><g transform="translate(499.73 794.64)"><text transform="scale(1,-1)" fill="#000000" font-family="'Helvetica Neue'" font-size="8px"><tspan x="0 5.184 9.4799995 13.776 18.224001 22.52 25.184 26.959999 31.552 33.776001 38.576 40.799999 44.799999 49.096001 51.759998 55.759998 57.535999 62.127998" y="0">Scenario + version</tspan></text></g><g transform="translate(70.329 718.13)"><text transform="scale(1,-1)" fill="#000000" font-family="CanelaText" font-size="10px" font-weight="bold"><tspan x="0 7.6500001 14.12 18.66 24.01 29.66 36.169998 39.709999 47.240002 52.029999 57.34 63.84 69.07 71.470001 75.57 81.32 85.959999 92.230003 95.720001 98.120003 104.47" y="0">Thread(Async task) #N</tspan></text></g><g transform="matrix(1 0 0 -1 65.829 734.03)"><path d="m4.5 17.317h112.06" fill="none" stroke="#000" stroke-miterlimit="10" stroke-width=".4"/></g><g transform="translate(314.76 930.96)"><text transform="scale(1,-1)" fill="#000000" font-family="'Helvetica Neue'" font-size="8px"><tspan x="0 4.8000002 7.0240002 11.024 15.32 17.983999 21.983999 23.76 28.351999" y="0">+ version</tspan></text></g><g transform="matrix(1 0 0 -1 60.466 757.94)"><path d="m0 0h432.78v75.286h-432.78z" fill="none" stroke="#000" stroke-dasharray="6, 6"/></g><g transform="matrix(1 0 0 -1 279.46 703.06)"><path d="m0 0h289.73" fill="none" stroke="#000"/></g><path d="m568.69 700.06 6 3-6 3z"/><g transform="translate(501.45 710.3)"><text transform="scale(1,-1)" fill="#000000" font-family="'Helvetica Neue'" font-size="8px"><tspan x="0 5.184 9.4799995 13.776 18.224001 22.52 25.184 26.959999 31.552 33.776001 38.576 40.799999 44.799999 49.096001 51.759998 55.759998 57.535999 62.127998" y="0">Scenario + version</tspan></text></g><g transform="matrix(-1 0 0 1 387.32 713.54)"><path d="m0 0h101.64" fill="none" stroke="#000"/></g><path d="m286.18 716.54-6-3 6-3z"/><g transform="translate(297.89 728.76)" fill="#000000" font-family="'Helvetica Neue'" font-size="8px"><text transform="scale(1,-1)"><tspan x="0 5.184 9.4799995 13.776 18.224001 22.52 25.184 26.959999 31.552 36.352001 40.352001 44.647999 47.312 51.312 53.088001 57.68" y="0">Scenario+version</tspan></text><text transform="matrix(1,0,0,-1,62.128,0)"><tspan x="0" y="0"/></text></g><g transform="translate(290.8 718.76)" fill="#000000" font-family="'Helvetica Neue'" font-size="8px"><text transform="matrix(1,0,0,-1,2.224,0)"><tspan x="0 4 8.2959995 12.592 17.040001 21.336 24 25.775999 30.368 32.591999 34.368 38.816002 42.816002 45.335999 48 52.448002 56.743999 59.264 61.040001 65.632004 70.080002" y="0">scenario instructions</tspan></text><text transform="matrix(1,0,0,-1,76.304,0)"><tspan x="0" y="0"/></text></g></g></g></g></svg>
