<?xml version="1.0" encoding="UTF-8"?>
<svg width="2560" height="1440" version="1.1" viewBox="0 0 2560 1440" xml:space="preserve" xmlns="http://www.w3.org/2000/svg"><defs><clipPath id="clipPath23706"><path d="m1132.2 683.85h68.769v155.75h-68.769z"/></clipPath><clipPath id="clipPath23724"><path d="m0 0h1920v1080h-1920z"/></clipPath><clipPath id="clipPath23738"><path d="m1000.2 810.7h123.94v9h-123.94z"/></clipPath><clipPath id="clipPath23752"><path d="m0 0h1920v1080h-1920z"/></clipPath><clipPath id="clipPath23766"><path d="m1000.2 785.33h123.94v9h-123.94z"/></clipPath><clipPath id="clipPath23780"><path d="m0 0h1920v1080h-1920z"/></clipPath><clipPath id="clipPath23794"><path d="m1000.2 757.04h123.94v9h-123.94z"/></clipPath><clipPath id="clipPath23808"><path d="m0 0h1920v1080h-1920z"/></clipPath><clipPath id="clipPath23844"><path d="m1470.1 641h212.16v241.46h-212.16z"/></clipPath><clipPath id="clipPath23876"><path d="m0 0h1920v1080h-1920z"/></clipPath></defs><g transform="matrix(1.3333 0 0 -1.3333 0 1440)"><g transform="matrix(2.6401 0 0 2.6401 -2566.2 -1339.5)"><g transform="matrix(1 0 0 -1 1131.2 840.61)"><path d="m0 0h68.147v157.75h-68.147z" fill="none" stroke="#000"/></g><g clip-path="url(#clipPath23706)"><g transform="translate(1140 829.29)" fill="#000000" font-family="'Helvetica Neue'" font-size="7px"><text transform="scale(1,-1)"><tspan x="0 4.5359998 8.2950001 12.054 15.946 19.705 22.035999 23.59 27.608 30.982 33.313 37.071999 40.831001 44.464001 48.223" y="0">ScenarioTracker</tspan></text><text transform="matrix(1,0,0,-1,50.554,0)"><tspan x="0" y="0"> </tspan></text></g></g><g clip-path="url(#clipPath23724)"><g transform="matrix(1 0 0 -1 998.55 808.57)"><path d="m0 0h126.62" fill="none" stroke="#000"/></g><path d="m1124.7 805.57 6 3-6 3z"/></g><g clip-path="url(#clipPath23738)"><g transform="translate(1021.8 811.62)"><text transform="scale(1,-1)" fill="#000000" font-family="'Helvetica Neue'" font-size="8px"><tspan x="0 5.776 10.52 14.816 19.408001 26.232 28.007999 32.456001 37.048 39.271999 41.048 45.495998 49.495998 52.015999 54.68 59.127998 63.424 65.944 67.720001 72.311996 76.760002" y="0">Upcoming instructions</tspan></text></g></g><g clip-path="url(#clipPath23752)"><g transform="matrix(1 0 0 -1 998.55 783.21)"><path d="m0 0h126.62" fill="none" stroke="#000"/></g><path d="m1124.7 780.21 6 3-6 3z"/></g><g clip-path="url(#clipPath23766)"><g transform="translate(1030.6 786.26)"><text transform="scale(1,-1)" fill="#000000" font-family="'Helvetica Neue'" font-size="8px"><tspan x="0 3.8559999 6.52 8.2959995 12.888 17.48 21.775999 24.440001 26.216 30.664 35.256001 37.48 42.223999 46.672001 50.967999 54.967999 59.264" y="0">Triggering phases</tspan></text></g></g><g clip-path="url(#clipPath23780)"><g transform="matrix(1 0 0 -1 998.55 754.92)"><path d="m0 0h126.62" fill="none" stroke="#000"/></g><path d="m1124.7 751.92 6 3-6 3z"/></g><g clip-path="url(#clipPath23794)"><g transform="translate(1030.4 757.97)"><text transform="scale(1,-1)" fill="#000000" font-family="'Helvetica Neue'" font-size="8px"><tspan x="0 5.184 7.704 12.296 16.888 19.408001 23.704 27.704 31.704 33.928001 38.52 42.967999 45.192001 47.712002 52.304001 56.751999 59.271999" y="0">Progress on route</tspan></text></g></g><g clip-path="url(#clipPath23808)"><g transform="matrix(1 0 0 -1 982.19 881.38)"><path d="m0 0h294.23v239.3h-294.23z" fill="none" stroke="#000" stroke-dasharray="6, 6"/></g><g transform="translate(986.94 864.56)"><text transform="scale(1,-1)" fill="#000000" font-family="CanelaText" font-size="10px" font-weight="bold"><tspan x="0 7.5999999 15.95 22.92 25.32 29.42 35.169998 39.810001 46.029999 48.43 54.709999 60.799999 66.150002 72.239998 77.589996 79.989998 84.089996 90.559998 95.099998 100.45 106.1" y="0">TOB task queue thread</tspan></text></g><g transform="matrix(1 0 0 -1 982.44 880.46)"><path d="m4.5 17.317h112.61" fill="none" stroke="#000" stroke-miterlimit="10" stroke-width=".4"/></g><g transform="matrix(1 0 0 -1 1312.8 835.02)"><path d="m76.376 4.9792c17.472 6.6389 17.472 17.403 0 24.042-17.472 6.6389-45.8 6.6389-63.272 0-17.472-6.6389-17.472-17.403 0-24.042 17.472-6.6389 45.8-6.6389 63.272 0z" fill="none" stroke="#000"/></g><g transform="translate(1318.4 813.57)"><text transform="scale(1,-1)" fill="#000000" font-family="CanelaText" font-size="10px"><tspan x="0 6.9000001 13.05 19.280001 24.540001 28.120001 33.259998 35.630001 40.130001 45.23 50.369999 56.290001 61.650002 65.510002 68.089996" y="0">Update scenario</tspan></text></g><g transform="matrix(1 0 0 -1 1470.1 883.46)"><path d="m0 0h212.25v243.46h-212.25z" fill="none" stroke="#000"/></g></g><g clip-path="url(#clipPath23844)"><g transform="translate(1477.8 765.56)"><text transform="scale(1,-1)" fill="#000000" font-family="'Helvetica Neue'" font-size="17px"><tspan x="0 9.4519997 18.580999 28.033001 37.161999 50.064999 59.516998 63.291 73.372002 82.500999 91.953003 101.082 110.211 122.485 132.243 137.59801" y="0">LaneGuidanceNoti</tspan></text></g><g transform="translate(1477.8 765.56)"><text transform="matrix(1 0 0 -1 141.37 0)" fill="#000000" font-family="'Helvetica Neue'" font-size="17px"><tspan x="0" y="0">f</tspan></text></g><g transform="translate(1477.8 765.56)"><text transform="matrix(1 0 0 -1 150.18 0)" fill="#000000" font-family="'Helvetica Neue'" font-size="17px"><tspan x="0 9.1289997 18.257999 23.613001 27.386999 37.145" y="0">cation</tspan></text></g><g transform="translate(1542.6 745.56)"><text transform="scale(1,-1)" fill="#000000" font-family="'Helvetica Neue'" font-size="17px"><tspan x="0 14.807 23.936001 33.388 42.516998 52.275002 61.403999" y="0">Manager</tspan></text></g></g><g clip-path="url(#clipPath23876)"><g transform="matrix(1 0 0 -1 1294.2 881.38)"><path d="m0 0h146.07v239.3h-146.07z" fill="none" stroke="#000" stroke-dasharray="6, 6"/></g><g transform="translate(1305.2 866.94)"><text transform="scale(1,-1)" fill="#000000" font-family="CanelaText" font-size="10px" font-weight="bold"><tspan x="0 10.12 16.42 21.059999 26.879999 32.279999 36.919998 39.32 43.419998 49.889999 54.43 59.779999 65.43" y="0">Worker thread</tspan></text></g><g transform="matrix(1 0 0 -1 1300.7 882.84)"><path d="m4.5 17.317h71.94" fill="none" stroke="#000" stroke-miterlimit="10" stroke-width=".4"/></g><g transform="matrix(1 0 0 -1 1313.8 793.08)"><path d="m76.376 4.9792c17.472 6.6389 17.472 17.403 0 24.042-17.472 6.6389-45.8 6.6389-63.272 0-17.472-6.6389-17.472-17.403 0-24.042 17.472-6.6389 45.8-6.6389 63.272 0z" fill="none" stroke="#000"/></g><g transform="translate(1317 771.82)"><text transform="scale(1,-1)" fill="#000000" font-family="CanelaText" font-size="9px"><tspan x="0 6.849 10.233 14.814 19.548 22.77 27.396 29.528999 34.856998 39.393002 46.305 48.438 52.487999 57.077999 61.703999 67.031998 71.856003 75.330002 77.652" y="0">Create new scenario</tspan></text></g><g transform="matrix(1 0 0 -1 1192.8 896.3)"><path d="m106.53 35.856-0.2949-0.40383c-39.934-53.126-75.346-46.544-106.24 19.744" fill="none" stroke="#000"/></g><path d="m1296.6 859.08 5.961-3.0772-1.115 6.6149z"/><g transform="matrix(1 0 0 -1 1302.4 855.51)"><path d="m0 0h107.58v207.61h-107.58z" fill="none" stroke="#000"/></g><g transform="translate(1334.8 841.79)" fill="#000000" font-family="'Helvetica Neue'" font-size="7px"><text transform="scale(1,-1)"><tspan x="0 3.2409999 7 10.5 14.133 16.079 20.23 24.122 27.881001 31.773001" y="0">Task queue</tspan></text><text transform="matrix(1,0,0,-1,35.532,0)"><tspan x="0" y="0"/></text></g><g transform="matrix(1 0 0 -1 1391.6 647.38)"><path d="m118.06 12.338-0.2941 0.40435c-44.86 60.189-84.115 55.942-117.77-12.743" fill="none" stroke="#000"/></g><path d="m1511.8 632.87 1.103 6.6169-5.955-3.0875z"/><g transform="matrix(1 0 0 -1 1310.8 752.02)"><path d="m76.376 4.9792c17.472 6.6389 17.472 17.403 0 24.042-17.472 6.6389-45.8 6.6389-63.272 0-17.472-6.6389-17.472-17.403 0-24.042 17.472-6.6389 45.8-6.6389 63.272 0z" fill="none" stroke="#000"/></g><g transform="translate(1316.4 730.57)"><text transform="scale(1,-1)" fill="#000000" font-family="CanelaText" font-size="10px"><tspan x="0 6.9000001 13.05 19.280001 24.540001 28.120001 33.259998 35.630001 40.130001 45.23 50.369999 56.290001 61.650002 65.510002 68.089996" y="0">Update scenario</tspan></text></g><g transform="matrix(1 0 0 -1 1310.8 710.02)"><path d="m76.376 4.9792c17.472 6.6389 17.472 17.403 0 24.042-17.472 6.6389-45.8 6.6389-63.272 0-17.472-6.6389-17.472-17.403 0-24.042 17.472-6.6389 45.8-6.6389 63.272 0z" fill="none" stroke="#000"/></g><g transform="translate(1316.4 688.57)"><text transform="scale(1,-1)" fill="#000000" font-family="CanelaText" font-size="10px"><tspan x="0 6.9000001 13.05 19.280001 24.540001 28.120001 33.259998 35.630001 40.130001 45.23 50.369999 56.290001 61.650002 65.510002 68.089996" y="0">Update scenario</tspan></text></g><g transform="matrix(1 0 0 -1 1192.4 682.36)"><path d="m2.2129 5.0352 0.20117 0.45774c34.125 75.937 70.987 85.764 110.59 29.484" fill="none" stroke="#000"/></g><path d="m1197.6 678.07-5.161 4.2858-0.332-6.6999z"/><g transform="translate(1240.6 903.17)" fill="#000000" font-family="'Helvetica Neue'" font-size="7px"><text transform="scale(1,-1)"><tspan x="0 3.2409999 7 10.5 14.133" y="0">Tasks</tspan></text><text transform="matrix(1,0,0,-1,17.633,0)"><tspan x="0" y="0"/></text></g><g transform="translate(1201 598.39)" fill="#000000" font-family="'Helvetica Neue'" font-size="7px"><text transform="scale(1,-1)"><tspan x="0 4.5359998 8.2950001 12.054 15.946 19.705 22.035999 23.59 27.608 29.554001 33.754002 35.700001 39.200001 42.959 46.717999 50.610001 54.368999 56.700001 58.254002 62.271999 64.218002 65.772003 69.664001 73.164001 75.369003 77.699997 81.592003 85.350998 87.556 89.110001 93.127998 97.019997" y="0">Scenario + scenario instructions</tspan></text><text transform="matrix(1,0,0,-1,100.52,0)"><tspan x="0" y="0"/></text></g><g transform="translate(1460.6 581.98)" fill="#000000" font-family="'Helvetica Neue'" font-size="7px"><text transform="scale(1,-1)"><tspan x="0 4.5359998 8.2950001 12.054 15.946 19.705 22.035999 23.59" y="0">Scenario</tspan></text><text transform="matrix(1,0,0,-1,27.608,0)"><tspan x="0" y="0"/></text></g></g></g></g></svg>
