<?xml version="1.0" encoding="UTF-8"?>
<svg width="210mm" height="297mm" version="1.1" viewBox="0 0 210 297" xmlns="http://www.w3.org/2000/svg"><g transform="matrix(.35278 0 0 -.35278 -290.67 162.69)"><g transform="scale(-1)"><g transform="rotate(180,-29.36,28.775)"></g></g></g><g transform="matrix(.35278 0 0 -.35278 -290.67 162.69)"><g transform="scale(-1)"><g transform="rotate(180,-29.36,28.775)"></g></g></g><g transform="matrix(.35278 0 0 -.35278 -290.67 162.69)"><g transform="scale(-1)"><g transform="rotate(180,-29.36,28.775)"></g></g></g><g transform="matrix(.35278 0 0 -.35278 -290.67 162.69)"><g transform="scale(-1)"><g transform="rotate(180,-29.36,28.775)"></g></g></g><g transform="matrix(.35278 0 0 -.35278 -290.67 162.69)"><g transform="scale(-1)"><g transform="rotate(180,-29.36,28.775)"></g></g></g><g transform="matrix(.35278 0 0 -.35278 -290.67 162.69)"><g transform="scale(-1)"><g transform="rotate(180,-29.36,28.775)"></g></g></g><g transform="matrix(.35278 0 0 -.35278 -290.67 162.69)"><g transform="scale(-1)"><g transform="rotate(180,-29.36,28.775)"></g></g></g><g transform="matrix(.35278 0 0 -.35278 -290.67 162.69)"><g transform="scale(-1)"><g transform="rotate(180,-29.36,28.775)"></g></g></g><g transform="matrix(.35278 0 0 -.35278 -290.67 162.69)"><g transform="scale(-1)"><g transform="rotate(180,-29.36,28.775)"></g></g></g><g transform="matrix(.35278 0 0 -.35278 -290.67 162.69)"><g transform="scale(-1)"><g transform="rotate(180,-29.36,28.775)"></g></g></g><g transform="matrix(.35278 0 0 -.35278 -290.67 162.69)"><g transform="scale(-1)"><g transform="rotate(180,-29.36,28.775)"></g></g></g><g transform="matrix(.35278 0 0 -.35278 -290.67 162.69)"><g transform="scale(-1)"><g transform="rotate(180,-29.36,28.775)"></g></g></g><g transform="matrix(.35278 0 0 -.35278 -290.67 162.69)"><g transform="scale(-1)"><g transform="rotate(180,-29.36,28.775)"></g></g></g><g transform="matrix(.35278 0 0 -.35278 -290.67 162.69)"><g transform="scale(-1)"><g transform="rotate(180,-29.36,28.775)"></g></g></g><g transform="matrix(.35278 0 0 -.35278 -290.67 162.69)"><g transform="scale(-1)"><g transform="rotate(180,-29.36,28.775)"></g></g></g><g transform="matrix(.35278 0 0 -.35278 -290.67 162.69)"><g transform="scale(-1)"><g transform="rotate(180,-29.36,28.775)"></g></g></g><g transform="matrix(.35278 0 0 -.35278 -290.67 162.69)"><g transform="scale(-1)"><g transform="rotate(180,-29.36,28.775)"></g></g></g><g transform="matrix(.35278 0 0 -.35278 -290.67 162.69)"><g transform="scale(-1)"><g transform="rotate(180,-29.36,28.775)"></g></g></g><g transform="matrix(.35278 0 0 -.35278 -290.67 162.69)"><g transform="scale(-1)"><g transform="rotate(180,-29.36,28.775)"></g></g></g><g transform="matrix(.35278 0 0 -.35278 -290.67 162.69)"><g transform="scale(-1)"><g transform="rotate(180,-29.36,28.775)"></g></g></g><g transform="matrix(.35278 0 0 -.35278 -290.67 162.69)"><g transform="scale(-1)"><g transform="rotate(180,-29.36,28.775)"></g></g></g><g transform="matrix(.35278 0 0 -.35278 -290.67 162.69)"><g transform="scale(-1)"><g transform="rotate(180,-29.36,28.775)"></g></g></g><g transform="matrix(.35278 0 0 -.35278 -290.67 162.69)"><g transform="scale(-1)"><g transform="rotate(180,-29.36,28.775)"></g></g></g><g transform="matrix(.35278 0 0 -.35278 -290.67 162.69)"><g transform="scale(-1)"><g transform="rotate(180,-29.36,28.775)"></g></g></g><g transform="matrix(.35278 0 0 -.35278 -290.67 162.69)"><g transform="scale(-1)"><g transform="rotate(180,-29.36,28.775)"></g></g></g><g transform="matrix(.35278 0 0 -.35278 -290.67 162.69)"><g transform="scale(-1)"><g transform="rotate(180,-29.36,28.775)"></g></g></g><g transform="matrix(.35278 0 0 -.35278 -290.67 162.69)"><g transform="scale(-1)"><g transform="rotate(180,-29.36,28.775)"></g></g></g><g transform="matrix(.35278 0 0 -.35278 -290.67 162.69)"><g transform="scale(-1)"><g transform="rotate(180,-29.36,28.775)"></g></g></g><g transform="matrix(.35278 0 0 -.35278 -290.67 162.69)"><g transform="scale(-1)"><g transform="rotate(180,-29.36,28.775)"></g></g></g><g transform="matrix(.35278 0 0 -.35278 -290.67 162.69)"><g transform="scale(-1)"><g transform="rotate(180,-29.36,28.775)"></g></g></g><g transform="matrix(.35278 0 0 -.35278 -290.67 162.69)"><g transform="scale(-1)"><g transform="rotate(180,-29.36,28.775)"></g></g></g><g transform="matrix(.35278 0 0 -.35278 -290.67 162.69)"><g transform="scale(-1)"><g transform="rotate(180,-29.36,28.775)"></g></g></g><g transform="matrix(.35278 0 0 -.35278 -290.67 162.69)"><g transform="scale(-1)"><g transform="rotate(180,-29.36,28.775)"></g></g></g><g transform="matrix(.35278 0 0 -.35278 -290.67 162.69)"><g transform="scale(-1)"><g transform="rotate(180,-29.36,28.775)"></g></g></g><g transform="matrix(.35278 0 0 -.35278 -290.67 162.69)"><g transform="scale(-1)"><g transform="rotate(180,-29.36,28.775)"></g></g></g><g transform="matrix(.35278 0 0 -.35278 -290.67 162.69)"><g transform="scale(-1)"><g transform="rotate(180,-29.36,28.775)"></g></g></g><g transform="matrix(.35278 0 0 -.35278 -290.67 162.69)"><g transform="scale(-1)"><g transform="rotate(180,-29.36,28.775)"></g></g></g><g transform="matrix(.35278 0 0 -.35278 -290.67 162.69)"><g transform="scale(-1)"><g transform="rotate(180,-29.36,28.775)"></g></g></g><g transform="matrix(.35278 0 0 -.35278 -290.67 162.69)"><g transform="scale(-1)"><g transform="rotate(180,-29.36,28.775)"></g></g></g><g transform="matrix(.35278 0 0 -.35278 -290.67 162.69)"><g transform="scale(-1)"><g transform="rotate(180,-29.36,28.775)"></g></g></g><g transform="matrix(.35278 0 0 -.35278 -290.67 162.69)"><g transform="scale(-1)"><g transform="rotate(180,-29.36,28.775)"></g></g></g><g transform="matrix(.35278 0 0 -.35278 -290.67 162.69)"><g transform="scale(-1)"><g transform="rotate(180,-29.36,28.775)"></g></g></g><g transform="matrix(.35278 0 0 -.35278 -290.67 162.69)"><g transform="scale(-1)"><g transform="rotate(180,-29.36,28.775)"></g></g></g><g transform="matrix(.35278 0 0 -.35278 -290.67 162.69)"><g transform="scale(-1)"><g transform="rotate(180,-29.36,28.775)"></g></g></g><g transform="matrix(.35278 0 0 -.35278 -290.67 162.69)"><g transform="scale(-1)"><g transform="rotate(180,-29.36,28.775)"></g></g></g><g transform="matrix(.35278 0 0 -.35278 -290.67 162.69)"><g transform="scale(-1)"><g transform="rotate(180,-29.36,28.775)"></g></g></g><g transform="matrix(.35278 0 0 -.35278 -290.67 162.69)"><g transform="scale(-1)"><g transform="rotate(180,-29.36,28.775)"></g></g></g><g transform="matrix(.35278 0 0 -.35278 -290.67 162.69)"><g transform="scale(-1)"><g transform="rotate(180,-29.36,28.775)"></g></g></g><g transform="matrix(.35278 0 0 -.35278 -290.67 162.69)"><g transform="scale(-1)"><g transform="rotate(180,-29.36,28.775)"></g></g></g><g transform="matrix(.35278 0 0 -.35278 -290.67 162.69)"><g transform="scale(-1)"><g transform="rotate(180,-29.36,28.775)"></g></g></g><g transform="matrix(.35278 0 0 -.35278 -290.67 162.69)"><g transform="scale(-1)"><g transform="rotate(180,-29.36,28.775)"></g></g></g><g transform="matrix(.35278 0 0 -.35278 -290.67 162.69)"><g transform="scale(-1)"><g transform="rotate(180,-29.36,28.775)"></g></g></g><g transform="matrix(.35278 0 0 -.35278 -290.67 162.69)"><g transform="scale(-1)"><g transform="rotate(180,-29.36,28.775)"></g></g></g><g transform="matrix(.35278 0 0 -.35278 -290.67 162.69)"><g transform="scale(-1)"><g transform="rotate(180,-29.36,28.775)"></g></g></g><g transform="matrix(.35278 0 0 -.35278 -290.67 162.69)"><g transform="scale(-1)"><g transform="rotate(180,-29.36,28.775)"></g></g></g><g transform="matrix(.35278 0 0 -.35278 -290.67 162.69)"><g transform="scale(-1)"><g transform="rotate(180,-29.36,28.775)"></g></g></g><g transform="matrix(.35278 0 0 -.35278 -290.67 162.69)"><g transform="scale(-1)"><g transform="rotate(180,-29.36,28.775)"></g></g></g><g transform="matrix(.35278 0 0 -.35278 -290.67 162.69)"><g transform="scale(-1)"><g transform="rotate(180,-29.36,28.775)"></g></g></g><g transform="matrix(.35278 0 0 -.35278 -290.67 162.69)"><g transform="scale(-1)"><g transform="rotate(180,-29.36,28.775)"></g></g></g><g transform="matrix(.35278 0 0 -.35278 -290.67 162.69)"><g transform="scale(-1)"><g transform="rotate(180,-29.36,28.775)"></g></g></g><g transform="matrix(.35278 0 0 -.35278 -290.67 162.69)"><g transform="scale(-1)"><g transform="rotate(180,-29.36,28.775)"></g></g></g><g transform="matrix(.35278 0 0 -.35278 -290.67 162.69)"><g transform="scale(-1)"><g transform="rotate(180,-29.36,28.775)"></g></g></g><g transform="matrix(.35278 0 0 -.35278 -290.67 162.69)"><g transform="scale(-1)"><g transform="rotate(180,-29.36,28.775)"></g></g></g><g transform="matrix(.35278 0 0 -.35278 -290.67 162.69)"><g transform="scale(-1)"><g transform="rotate(180,-29.36,28.775)"></g></g></g><g transform="matrix(.35278 0 0 -.35278 -290.67 162.69)"><g transform="scale(-1)"><g transform="rotate(180,-29.36,28.775)"></g></g></g><g transform="matrix(.35278 0 0 -.35278 -290.67 162.69)"><g transform="scale(-1)"><g transform="rotate(180,-29.36,28.775)"></g></g></g><g transform="matrix(.35278 0 0 -.35278 -290.67 162.69)"><g transform="scale(-1)"><g transform="rotate(180,-29.36,28.775)"></g></g></g><g transform="matrix(.35278 0 0 -.35278 -290.67 162.69)"><g transform="scale(-1)"><g transform="rotate(180,-29.36,28.775)"></g></g></g><g transform="matrix(.35278 0 0 -.35278 -290.67 162.69)"><g transform="scale(-1)"><g transform="rotate(180,-29.36,28.775)"></g></g></g><g transform="matrix(.35278 0 0 -.35278 -290.67 162.69)"><g transform="scale(-1)"><g transform="rotate(180,-29.36,28.775)"></g></g></g><g transform="matrix(.35278 0 0 -.35278 -290.67 162.69)"><g transform="scale(-1)"><g transform="rotate(180,-29.36,28.775)"></g></g></g><g transform="matrix(.35278 0 0 -.35278 -290.67 162.69)"><g transform="scale(-1)"><g transform="rotate(180,-29.36,28.775)"></g></g></g><g transform="matrix(.35278 0 0 -.35278 -290.67 162.69)"><g transform="scale(-1)"><g transform="rotate(180,-29.36,28.775)"></g></g></g><g transform="matrix(.35278 0 0 -.35278 -290.67 162.69)"><g transform="scale(-1)"><g transform="rotate(180,-29.36,28.775)"></g></g></g><g transform="matrix(.35278 0 0 -.35278 -290.67 162.69)"><g transform="scale(-1)"><g transform="rotate(180,-29.36,28.775)"></g></g></g><g transform="matrix(.35278 0 0 -.35278 -290.67 162.69)"><g transform="scale(-1)"><g transform="rotate(180,-29.36,28.775)"></g></g></g><g transform="matrix(.35278 0 0 -.35278 -290.67 162.69)"><g transform="scale(-1)"><g transform="rotate(180,-29.36,28.775)"></g></g></g><g transform="matrix(.35278 0 0 -.35278 -290.67 162.69)"><g transform="scale(-1)"><g transform="rotate(180,-29.36,28.775)"></g></g></g><g transform="matrix(.35278 0 0 -.35278 -290.67 162.69)"><g transform="scale(-1)"><g transform="rotate(180,-29.36,28.775)"></g></g></g><g transform="matrix(.35278 0 0 -.35278 -290.67 162.69)"><g transform="scale(-1)"><g transform="rotate(180,-29.36,28.775)"></g></g></g><g transform="matrix(.35278 0 0 -.35278 -290.67 162.69)"><g transform="scale(-1)"><g transform="rotate(180,-29.36,28.775)"></g></g></g><g transform="matrix(.35278 0 0 -.35278 -290.67 162.69)"><g transform="scale(-1)"><g transform="rotate(180,-29.36,28.775)"></g></g></g><g transform="matrix(.35278 0 0 -.35278 -290.67 162.69)"><g transform="scale(-1)"><g transform="rotate(180,-29.36,28.775)"></g></g></g><g transform="matrix(.35278 0 0 -.35278 -290.67 162.69)"><g transform="scale(-1)"><g transform="rotate(180,-29.36,28.775)"></g></g></g><g transform="matrix(.35278 0 0 -.35278 -290.67 162.69)"><g transform="scale(-1)"><g transform="rotate(180,-29.36,28.775)"></g></g></g><g transform="matrix(.35278 0 0 -.35278 -290.67 162.69)"><g transform="scale(-1)"><g transform="rotate(180,-29.36,28.775)"></g></g></g><g transform="matrix(.35278 0 0 -.35278 -290.67 162.69)"><g transform="scale(-1)"><g transform="rotate(180,-29.36,28.775)"></g></g></g><g transform="matrix(.35278 0 0 -.35278 -290.67 162.69)"><g transform="scale(-1)"><g transform="rotate(180,-29.36,28.775)"></g></g></g><g transform="matrix(.35278 0 0 -.35278 -290.67 162.69)"><g transform="scale(-1)"><g transform="rotate(180,-29.36,28.775)"></g></g></g><g transform="matrix(.35278 0 0 -.35278 -290.67 162.69)"><g transform="scale(-1)"><g transform="rotate(180,-29.36,28.775)"></g></g></g><g transform="matrix(.35278 0 0 -.35278 -290.67 162.69)"><g transform="scale(-1)"><g transform="rotate(180,-29.36,28.775)"></g></g></g><g transform="matrix(.35278 0 0 -.35278 -290.67 162.69)"><g transform="scale(-1)"><g transform="rotate(180,-29.36,28.775)"></g></g></g><g transform="matrix(.35278 0 0 -.35278 -290.67 162.69)"><g transform="scale(-1)"><g transform="rotate(180,-29.36,28.775)"></g></g></g><g transform="matrix(.35278 0 0 -.35278 -290.67 162.69)"><g transform="scale(-1)"><g transform="rotate(180,-29.36,28.775)"></g></g></g><g transform="matrix(.35278 0 0 -.35278 -290.67 162.69)"><g transform="scale(-1)"><g transform="rotate(180,-29.36,28.775)"></g></g></g><g transform="matrix(.35278 0 0 -.35278 -290.67 162.69)"><g transform="scale(-1)"><g transform="rotate(180,-29.36,28.775)"></g></g></g><g transform="matrix(.35278 0 0 -.35278 -290.67 162.69)"><g transform="scale(-1)"><g transform="rotate(180,-29.36,28.775)"></g></g></g><g transform="matrix(.35278 0 0 -.35278 -290.67 162.69)"><g transform="scale(-1)"><g transform="rotate(180,-29.36,28.775)"></g></g></g><g transform="matrix(.35278 0 0 -.35278 -290.67 162.69)"><g transform="scale(-1)"><g transform="rotate(180,-29.36,28.775)"></g></g></g><g transform="matrix(.35278 0 0 -.35278 -290.67 162.69)"><g transform="scale(-1)"><g transform="rotate(180,-29.36,28.775)"></g></g></g><g transform="matrix(.35278 0 0 -.35278 -290.67 162.69)"><g transform="scale(-1)"><g transform="rotate(180,-29.36,28.775)"></g></g></g><g transform="matrix(.35278 0 0 -.35278 -290.67 162.69)"><g transform="scale(-1)"><g transform="rotate(180,-29.36,28.775)"></g></g></g><g transform="matrix(.35278 0 0 -.35278 -290.67 162.69)"><g transform="scale(-1)"><g transform="rotate(180,-29.36,28.775)"></g></g></g><g transform="matrix(.35278 0 0 -.35278 -290.67 162.69)"><g transform="scale(-1)"><g transform="rotate(180,-29.36,28.775)"></g></g></g><g transform="matrix(.35278 0 0 -.35278 -290.67 162.69)"><g transform="scale(-1)"><g transform="rotate(180,-29.36,28.775)"></g></g></g><g transform="matrix(.35278 0 0 -.35278 -290.67 162.69)"><g transform="scale(-1)"><g transform="rotate(180,-29.36,28.775)"></g></g></g><g transform="matrix(.35278 0 0 -.35278 -290.67 162.69)"><g transform="scale(-1)"><g transform="rotate(180,-29.36,28.775)"></g></g></g><g transform="matrix(.35278 0 0 -.35278 -290.67 162.69)"><g transform="scale(-1)"><g transform="rotate(180,-29.36,28.775)"></g></g></g><g transform="matrix(.35278 0 0 -.35278 -290.67 162.69)"><g transform="scale(-1)"><g transform="rotate(180,-29.36,28.775)"></g></g></g><g transform="matrix(.35278 0 0 -.35278 -290.67 162.69)"><g transform="scale(-1)"><g transform="rotate(180,-29.36,28.775)"></g></g></g><g transform="matrix(.35278 0 0 -.35278 -290.67 162.69)"><g transform="scale(-1)"><g transform="rotate(180,-29.36,28.775)"></g></g></g><g transform="matrix(.35278 0 0 -.35278 -290.67 162.69)"><g transform="scale(-1)"><g transform="rotate(180,-29.36,28.775)"></g></g></g><g transform="matrix(.35278 0 0 -.35278 -290.67 162.69)"><g transform="scale(-1)"><g transform="rotate(180,-29.36,28.775)"></g></g></g><g transform="matrix(.35278 0 0 -.35278 -290.67 162.69)"><g transform="scale(-1)"><g transform="rotate(180,-29.36,28.775)"></g></g></g><g transform="matrix(.35278 0 0 -.35278 -290.67 162.69)"><g transform="scale(-1)"><g transform="rotate(180,-29.36,28.775)"></g></g></g><g transform="matrix(.35278 0 0 -.35278 -290.67 162.69)"><g transform="scale(-1)"><g transform="rotate(180,-29.36,28.775)"></g></g></g><g transform="matrix(.35278 0 0 -.35278 -290.67 162.69)"><g transform="scale(-1)"><g transform="rotate(180,-29.36,28.775)"></g></g></g><g transform="matrix(.35278 0 0 -.35278 -290.67 162.69)"><g transform="scale(-1)"><g transform="rotate(180,-29.36,28.775)"></g></g></g><g transform="matrix(.35278 0 0 -.35278 -290.67 162.69)"><g transform="scale(-1)"><g transform="rotate(180,-29.36,28.775)"></g></g></g><g transform="matrix(.35278 0 0 -.35278 -290.67 162.69)"><g transform="scale(-1)"><g transform="rotate(180,-29.36,28.775)"></g></g></g><g transform="matrix(.35278 0 0 -.35278 -290.67 162.69)"><g transform="scale(-1)"><g transform="rotate(180,-29.36,28.775)"></g></g></g><g transform="matrix(.35278 0 0 -.35278 -290.67 162.69)"><g transform="scale(-1)"><g transform="rotate(180,-29.36,28.775)"></g></g></g><g transform="matrix(.35278 0 0 -.35278 -290.67 162.69)"><g transform="scale(-1)"><g transform="rotate(180,-29.36,28.775)"></g></g></g><g transform="matrix(.72065 0 0 .75964 210.72 -117.64)"><g transform="matrix(.35278 0 0 -.35278 -290.67 162.69)"><path d="m35.217-11.538v-1063.4" fill="none" stroke="#000" stroke-dasharray="0.3985, 1.99255" stroke-miterlimit="10" stroke-width=".3985"/><path d="m104.3-11.538v-1063.4" fill="none" stroke="#000" stroke-dasharray="0.3985, 1.99255" stroke-miterlimit="10" stroke-width=".3985"/><path d="m217.73-11.538v-1063.4" fill="none" stroke="#000" stroke-dasharray="0.3985, 1.99255" stroke-miterlimit="10" stroke-width=".3985"/><path d="m364.88-14.451v-1060.5" fill="none" stroke="#000" stroke-dasharray="0.3985, 1.99255" stroke-miterlimit="10" stroke-width=".3985"/><path d="m541.22-11.538v-1063.4" fill="none" stroke="#000" stroke-dasharray="0.3985, 1.99255" stroke-miterlimit="10" stroke-width=".3985"/><path d="m730.29-11.538v-1063.4" fill="none" stroke="#000" stroke-dasharray="0.3985, 1.99255" stroke-miterlimit="10" stroke-width=".3985"/><g transform="scale(-1)"><g transform="rotate(180,-29.36,28.775)"></g></g><g transform="scale(-1)"><g transform="rotate(180,-29.36,28.775)"></g></g></g><g transform="matrix(.35278 0 0 -.35278 -290.67 162.69)"><path d="m214.21-105.45h7.0396v-10.205h-7.0396z" fill="#d9d9d9" stroke="#000" stroke-miterlimit="10" stroke-width=".3985"/><path d="m361.36-88.443h7.0396v-44.221h-7.0396z" fill="#d9d9d9" stroke="#000" stroke-miterlimit="10" stroke-width=".3985"/><path d="m214.21-71.434h7.0396v-78.238h-7.0396z" fill="#d9d9d9" stroke="#000" stroke-miterlimit="10" stroke-width=".3985"/><path d="m537.7-190.49h7.0396v-17.008h-7.0396z" fill="#d9d9d9" stroke="#000" stroke-miterlimit="10" stroke-width=".3985"/><path d="m537.7-224.51h7.0396v-10.205h-7.0396z" fill="#d9d9d9" stroke="#000" stroke-miterlimit="10" stroke-width=".3985"/><path d="m214.21-258.53h7.0396v-10.205h-7.0396z" fill="#d9d9d9" stroke="#000" stroke-miterlimit="10" stroke-width=".3985"/><path d="m214.21-173.48h7.0396v-112.25h-7.0396z" fill="#d9d9d9" stroke="#000" stroke-miterlimit="10" stroke-width=".3985"/><path d="m104.3-332.17h7.0396v-22.111h-7.0396z" fill="#d9d9d9" stroke="#000" stroke-miterlimit="10" stroke-width=".3985"/><path d="m541.22-417.21h7.0396v-5.1027h-7.0396z" fill="#d9d9d9" stroke="#000" stroke-miterlimit="10" stroke-width=".3985"/><path d="m537.7-394.59h7.0396v-44.221h-7.0396z" fill="#d9d9d9" stroke="#000" stroke-miterlimit="10" stroke-width=".3985"/><path d="m537.7-462.62h7.0396v-17.008h-7.0396z" fill="#d9d9d9" stroke="#000" stroke-miterlimit="10" stroke-width=".3985"/><path d="m726.77-496.64h7.0396v-10.205h-7.0396z" fill="#d9d9d9" stroke="#000" stroke-miterlimit="10" stroke-width=".3985"/><path d="m214.21-530.66h7.0396v-10.205h-7.0396z" fill="#d9d9d9" stroke="#000" stroke-miterlimit="10" stroke-width=".3985"/><path d="m214.21-377.58h7.0396v-180.29h-7.0396z" fill="#d9d9d9" stroke="#000" stroke-miterlimit="10" stroke-width=".3985"/><path d="m537.7-649.72h7.0396v-10.205h-7.0396z" fill="#d9d9d9" stroke="#000" stroke-miterlimit="10" stroke-width=".3985"/><path d="m100.78-700.74h7.0396v-10.205h-7.0396z" fill="#d9d9d9" stroke="#000" stroke-miterlimit="10" stroke-width=".3985"/><path d="m361.36-683.73h7.0396v-44.221h-7.0396z" fill="#d9d9d9" stroke="#000" stroke-miterlimit="10" stroke-width=".3985"/><path d="m214.21-751.76h7.0396v-10.205h-7.0396z" fill="#d9d9d9" stroke="#000" stroke-miterlimit="10" stroke-width=".3985"/><path d="m214.21-632.71h7.0396v-146.27h-7.0396z" fill="#d9d9d9" stroke="#000" stroke-miterlimit="10" stroke-width=".3985"/><path d="m541.22-893.44h7.0396v-5.1027h-7.0396z" fill="#d9d9d9" stroke="#000" stroke-miterlimit="10" stroke-width=".3985"/><path d="m537.7-870.82h7.0396v-44.221h-7.0396z" fill="#d9d9d9" stroke="#000" stroke-miterlimit="10" stroke-width=".3985"/><path d="m537.7-938.86h7.0396v-17.008h-7.0396z" fill="#d9d9d9" stroke="#000" stroke-miterlimit="10" stroke-width=".3985"/><path d="m726.77-972.87h7.0396v-10.205h-7.0396z" fill="#d9d9d9" stroke="#000" stroke-miterlimit="10" stroke-width=".3985"/><path d="m214.21-1006.9h7.0396v-10.205h-7.0396z" fill="#d9d9d9" stroke="#000" stroke-miterlimit="10" stroke-width=".3985"/><path d="m214.21-853.81h7.0396v-180.29h-7.0396z" fill="#d9d9d9" stroke="#000" stroke-miterlimit="10" stroke-width=".3985"/><path d="m31.697-22.678h7.0396v-1039.2h-7.0396z" fill="#d9d9d9" stroke="#000" stroke-miterlimit="10" stroke-width=".3985"/><path d="m100.78-22.678h7.0396v-1039.2h-7.0396z" fill="#d9d9d9" stroke="#000" stroke-miterlimit="10" stroke-width=".3985"/></g><g transform="matrix(.35278 0 0 -.35278 -290.67 162.69)"><g transform="translate(2.1447 -2.1447)"><path d="m5.8685-11.339h58.697v22.678h-58.697z"/></g><path d="m5.8685-11.339h58.697v22.678h-58.697z" fill="#fff" stroke="#000" stroke-miterlimit="10" stroke-width=".3985"/><g transform="scale(-1)"><g transform="rotate(180,-29.36,28.775)"><g transform="translate(9.19,-2.46)"><text transform="matrix(1,0,0,-1,-58.72,57.55)" fill="#000000" font-family="CMR10" font-size="9.963px"><tspan x="0 7.1952786 14.9445 23.797623 27.672232 33.207676 37.110184 41.537739 46.519241" y="0">TOSthread</tspan></text><path d="m-58.72 56.15h52.06" fill="none" stroke="#000" stroke-miterlimit="10" stroke-width=".398"/></g></g></g></g><g transform="matrix(.35278 0 0 -.35278 -290.67 162.69)"><g transform="translate(2.1447 -2.1447)"><path d="m70.633-11.339h67.331v22.678h-67.331z"/></g><path d="m70.633-11.339h67.331v22.678h-67.331z" fill="#fff" stroke="#000" stroke-miterlimit="10" stroke-width=".3985"/><g transform="scale(-1)"><g transform="rotate(180,-29.36,28.775)"><g transform="translate(73.95,-2.46)"><text transform="matrix(1,0,0,-1,-58.72,57.55)" fill="#000000" font-family="CMR10" font-size="9.963px"><tspan x="0 6.9262776 11.907778 15.810285 20.789793 25.21735 32.437534 36.312145 41.847588 45.750095 50.177654 55.159153" y="0">workerthread</tspan></text><path d="m-58.72 56.15h60.69" fill="none" stroke="#000" stroke-miterlimit="10" stroke-width=".398"/></g></g></g></g><g transform="matrix(.35278 0 0 -.35278 -290.67 162.69)"><g transform="translate(2.1447 -2.1447)"><path d="m195.06-11.339h45.355v22.678h-45.355z"/></g><path d="m195.06-11.339h45.355v22.678h-45.355z" fill="#fff" stroke="#000" stroke-miterlimit="10" stroke-width=".3985"/><g transform="scale(-1)"><g transform="rotate(180,-29.36,28.775)"><g transform="translate(203.62,-2.41)"><text transform="matrix(1,0,0,-1,-58.72,57.55)" fill="#000000" font-family="CMR10" font-size="9.963px"><tspan x="0 9.1330824 14.668525 18.543135 22.970694" y="0">Mutex</tspan></text><path d="m-58.72 56.15h28.23" fill="none" stroke="#000" stroke-miterlimit="10" stroke-width=".398"/></g></g></g></g><g transform="matrix(.35278 0 0 -.35278 -290.67 162.69)"><g transform="translate(2.1447 -2.1447)"><path d="m297.5-14.252h134.75v28.504h-134.75z"/></g><path d="m297.5-14.252h134.75v28.504h-134.75z" fill="#fff" stroke="#000" stroke-miterlimit="10" stroke-width=".3985"/><g transform="scale(-1)"><g transform="rotate(180,-29.36,28.775)"><g transform="translate(300.82,-6.45)"><text transform="matrix(1,0,0,-1,-15.85,68.01)" fill="#000000" font-family="CMR10" font-size="9.963px"><tspan x="0 7.1952786 12.176779 17.712221 23.247663 26.015385 30.725891 35.707394 39.609898" y="0">Cond.var.</tspan><tspan x="-42.869999 -38.995388 -35.092884 -30.111382 -25.952826 -20.973318 -16.545761 -12.643254 -9.8755331 -2.4032829 2.578217 6.5076241 13.979875 18.407431 25.602711 29.20035 34.735794 38.665199 42.53981 46.442318 51.97776 56.405315 60.279926 63.047649 68.029152 73.56459 77.493996 81.368607" y="10.46">tracker.HasNewInstructions()</tspan></text><path d="m-58.72 53.66h128.11" fill="none" stroke="#000" stroke-miterlimit="10" stroke-width=".398"/></g></g></g></g><g transform="matrix(.35278 0 0 -.35278 -290.67 162.69)"><g transform="translate(2.1447 -2.1447)"><path d="m489.34-11.339h103.76v22.678h-103.76z"/></g><path d="m489.34-11.339h103.76v22.678h-103.76z" fill="#fff" stroke="#000" stroke-miterlimit="10" stroke-width=".3985"/><g transform="scale(-1)"><g transform="rotate(180,-29.36,28.775)"><g transform="translate(492.66,-2.46)"><text transform="matrix(1,0,0,-1,-58.72,57.55)" fill="#000000" font-family="CMR10" font-size="9.963px"><tspan x="0 6.2268748 11.208375 16.743818 21.171375 28.989342 33.97084 39.506283 45.041725 50.023228 55.55867 59.986225 64.41378 70.792099 74.694603 79.676102 83.824699 88.804207 93.231758" y="0">LaneGaudanceTracker</tspan></text><path d="m-58.72 56.15h97.13" fill="none" stroke="#000" stroke-miterlimit="10" stroke-width=".398"/></g></g></g></g><g transform="matrix(.35278 0 0 -.35278 -290.67 162.69)"><g transform="translate(2.1447 -2.1447)"><path d="m650.2-11.339h160.19v22.678h-160.19z"/></g><path d="m650.2-11.339h160.19v22.678h-160.19z" fill="#fff" stroke="#000" stroke-miterlimit="10" stroke-width=".3985"/><g transform="scale(-1)"><g transform="rotate(180,-29.36,28.775)"><g transform="translate(653.52,-1.49)"><text transform="matrix(1,0,0,-1,-58.72,57.55)" fill="#000000" font-family="CMR10" font-size="9.963px"><tspan x="0 6.2268748 11.208375 16.743818 21.171375 28.989342 33.97084 39.506283 45.041725 50.023228 55.55867 59.986225 64.41378 71.886032 76.867531 80.742142 83.509865 89.045311 93.472862 98.454369 102.32898 105.09669 110.0782 115.61364 124.74672 129.72823 135.26367 140.24516 145.22667 149.65422" y="0">LaneGaudanceNotifcationManager</tspan></text><path d="m-58.72 54.22h153.55" fill="none" stroke="#000" stroke-miterlimit="10" stroke-width=".398"/></g></g></g></g><path d="m-252.63 187.89h37.323" fill="none" stroke="#000" stroke-miterlimit="10" stroke-width=".14058"/><g transform="matrix(.35278 0 0 -.35278 -215.31 187.89)"><path d="m-2.9068 1.7933 3.106-1.7933-3.106-1.7933" fill="none" stroke="#000" stroke-linecap="round" stroke-miterlimit="10" stroke-width=".3985"/></g><g transform="matrix(.35278 0 0 -.35278 -290.67 162.69)"><g transform="scale(-1)"><g transform="rotate(180,-29.36,28.775)"><g transform="translate(148.42,-65.42)"><text transform="matrix(1,0,0,-1,-58.72,57.55)" fill="#000000" font-family="CMR10" font-size="9.963px"><tspan x="0 2.7677214 8.0281858 12.186742 17.445213 21.319824" y="0">lock()</tspan></text></g></g></g></g><path d="m-252.63 193.89h89.232" fill="none" stroke="#000" stroke-miterlimit="10" stroke-width=".14058"/><g transform="matrix(.35278 0 0 -.35278 -163.4 193.89)"><path d="m-2.9068 1.7933 3.106-1.7933-3.106-1.7933" fill="none" stroke="#000" stroke-linecap="round" stroke-miterlimit="10" stroke-width=".3985"/></g><g transform="matrix(.35278 0 0 -.35278 -272.27 163.1)"><g transform="scale(-1)"><g transform="rotate(180,-29.36,28.775)"><g transform="translate(221.44,-82.43)"><text transform="matrix(1,0,0,-1,-58.72,57.55)" fill="#000000" font-family="CMR10" font-size="9.963px"><tspan x="0 6.9262776 11.907778 14.675499 18.55011 22.424721" y="0">wait()</tspan></text></g></g></g></g><path d="m-163.19 199.89h-49.214" fill="none" stroke="#000" stroke-miterlimit="10" stroke-width=".14058"/><g transform="matrix(-.35278 0 0 .35278 -212.41 199.89)"><path d="m-2.9068 1.7933 3.106-1.7933-3.106-1.7933" fill="none" stroke="#000" stroke-linecap="round" stroke-miterlimit="10" stroke-width=".3985"/></g><g transform="matrix(.35278 0 0 -.35278 -290.67 162.69)"><g transform="scale(-1)"><g transform="rotate(180,-29.36,28.775)"><g transform="translate(273,-99.44)"><text transform="matrix(1,0,0,-1,-58.72,57.55)" fill="#000000" font-family="CMR10" font-size="9.963px"><tspan x="0 3.9025071 8.3300648 11.097786 15.525343 20.506844 24.436251 28.863808 32.738419" y="0">release()</tspan></text></g></g></g></g><path d="m-252.63 223.89h37.323" fill="none" stroke="#000" stroke-miterlimit="10" stroke-width=".14058"/><g transform="matrix(.35278 0 0 -.35278 -215.31 223.89)"><path d="m-2.9068 1.7933 3.106-1.7933-3.106-1.7933" fill="none" stroke="#000" stroke-linecap="round" stroke-miterlimit="10" stroke-width=".3985"/></g><g transform="matrix(.35278 0 0 -.35278 -290.67 162.69)"><g transform="scale(-1)"><g transform="rotate(180,-29.36,28.775)"><g transform="translate(148.42,-167.47)"><text transform="matrix(1,0,0,-1,-58.72,57.55)" fill="#000000" font-family="CMR10" font-size="9.963px"><tspan x="0 2.7677214 8.0281858 12.186742 17.445213 21.319824" y="0">lock()</tspan></text></g></g></g></g><path d="m-252.63 229.89h151.41" fill="none" stroke="#000" stroke-miterlimit="10" stroke-width=".14058"/><g transform="matrix(.35278 0 0 -.35278 -101.23 229.89)"><path d="m-4.3602 2.6899 4.659-2.6899-4.659-2.6899z" stroke="#000" stroke-miterlimit="10" stroke-width=".3985"/></g><g transform="matrix(.35278 0 0 -.35278 -290.67 162.69)"><g transform="scale(-1)"><g transform="rotate(180,-29.36,28.775)"><g transform="translate(275.2,-184.48)"><text transform="matrix(1,0,0,-1,-58.72,57.55)" fill="#000000" font-family="CMR10" font-size="9.963px"><tspan x="0 7.47225 12.45375 16.383158 23.855408 28.282965 35.478245 39.075882 44.611324 48.540733 52.415344 56.317848 61.853294 66.280853 70.155464 72.92318 77.904686 83.440125 87.36953 91.244141" y="0">HasNewInstructions()</tspan></text></g></g></g></g><g transform="matrix(.35278 0 0 -.35278 -290.67 162.69)"><path d="m537.7-207.5h-429.29" fill="none" stroke="#000" stroke-dasharray="2.98883, 2.98883" stroke-miterlimit="10" stroke-width=".3985"/><g transform="rotate(180 54.208 -103.75)"><path d="m-2.9068 1.7933 3.106-1.7933-3.106-1.7933" fill="none" stroke="#000" stroke-linecap="round" stroke-miterlimit="10" stroke-width=".3985"/></g><g transform="scale(-1)"><g transform="rotate(180,-29.36,28.775)"><g transform="translate(305.88,-203.98)"><text transform="matrix(1,0,0,-1,-58.72,57.55)" fill="#000000" font-family="CMR10" font-size="9.963px"><tspan x="0 5.8144069 11.064908 16.046408 18.814129 23.241686 28.223186" y="0">boolean</tspan></text></g></g></g></g><path d="m-252.63 241.89h151.44" fill="none" stroke="#000" stroke-miterlimit="10" stroke-width=".14058"/><g transform="matrix(.35278 0 0 -.35278 -101.19 241.89)"><path d="m-2.9068 1.7933 3.106-1.7933-3.106-1.7933" fill="none" stroke="#000" stroke-linecap="round" stroke-miterlimit="10" stroke-width=".3985"/></g><g transform="matrix(.35278 0 0 -.35278 -279.51 162.69)"><g transform="scale(-1)"><g transform="rotate(180,-29.36,28.775)"><g transform="translate(215.91,-218.5)"><text transform="matrix(1,0,0,-1,-58.72,57.55)" fill="#000000" font-family="CMR10" font-size="9.963px"><tspan x="0 4.9815001 9.1400566 14.398527 19.933969 24.636507 31.831785 34.599506 39.027065 44.562508 49.544006 53.971565 57.846176 61.74868 66.176239 70.105644 74.533203 81.725494 85.600105 89.502609 94.484108 98.64267 103.62218 108.04973 111.95224 114.71996 122.19221 127.17371 131.10312 138.57536 143.00293 150.1982 153.79584 159.33128 163.2607 167.1353 171.03781 176.57326 181.00081 184.87543 187.64314 192.62465 198.16008 202.08949 205.9641 209.83871" y="0">acknowledge(resettracker.HasNewInstructions())</tspan></text></g></g></g></g><path d="m-252.63 253.89h37.323" fill="none" stroke="#000" stroke-miterlimit="10" stroke-width=".14058"/><g transform="matrix(.35278 0 0 -.35278 -215.31 253.89)"><path d="m-2.9068 1.7933 3.106-1.7933-3.106-1.7933" fill="none" stroke="#000" stroke-linecap="round" stroke-miterlimit="10" stroke-width=".3985"/></g><g transform="matrix(.35278 0 0 -.35278 -290.67 162.69)"><g transform="scale(-1)"><g transform="rotate(180,-29.36,28.775)"><g transform="translate(142.71,-252.51)"><text transform="matrix(1,0,0,-1,-58.72,57.55)" fill="#000000" font-family="CMR10" font-size="9.963px"><tspan x="0 3.9025071 8.3300648 11.097786 15.525343 20.506844 24.436251 28.863808 32.738419" y="0">release()</tspan></text></g></g></g></g><path d="m-252.63 277.89h8.0001v1.98h-6.5124" fill="none" stroke="#000" stroke-miterlimit="10" stroke-width=".14058"/><g transform="matrix(-.35278 0 0 .35278 -251.15 279.87)"><path d="m-4.3602 2.6899 4.659-2.6899-4.659-2.6899z" stroke="#000" stroke-miterlimit="10" stroke-width=".3985"/></g><g transform="matrix(.35278 0 0 -.35278 -290.67 162.69)"><g transform="scale(-1)"><g transform="rotate(180,-29.36,28.775)"><g transform="translate(117.01,-320.55)"><text transform="matrix(1,0,0,-1,-58.72,57.55)" fill="#000000" font-family="CMR10" font-size="9.963px"><tspan x="0 7.0567927 12.592236 15.359957 18.127678 23.663122 29.198565 33.626122 38.053677 43.589123 48.570621 52.473129 55.240849 60.222351 64.096962" y="0">BuildScenario()</tspan></text></g></g></g></g><g transform="matrix(.35278 0 0 -.35278 -290.66 160.08)"><path d="m107.82-354.28h22.678v-5.6126h-22.08" fill="none" stroke="#000" stroke-dasharray="2.98883, 2.98883" stroke-miterlimit="10" stroke-width=".3985"/><g transform="rotate(180 54.208 -179.95)"><path d="m-2.9068 1.7933 3.106-1.7933-3.106-1.7933" fill="none" stroke="#000" stroke-linecap="round" stroke-miterlimit="10" stroke-width=".3985"/></g><g transform="scale(-1)"><g transform="rotate(180,-29.36,28.775)"></g></g><g transform="scale(-1)"><g transform="rotate(180,-29.36,28.775)"><g transform="translate(134.02,-360.55)"><text transform="matrix(1,0,0,-1,-58.72,57.55)" fill="#000000" font-family="CMR10" font-size="9.963px"><tspan x="0 5.5354428 9.9630003 20.475958 26.702833 31.684332 37.219776 41.647331 49.465298 55.00074 57.768463 63.303905 68.285408 73.820847 78.248405 82.675964 88.211403 92.638962 97.066521 102.60196 107.58347 111.48597 114.25369" y="0">newLaneGuidanceScenario</tspan></text></g></g></g></g><path d="m-252.63 295.89h37.323" fill="none" stroke="#000" stroke-miterlimit="10" stroke-width=".14058"/><g transform="matrix(.35278 0 0 -.35278 -215.31 295.89)"><path d="m-2.9068 1.7933 3.106-1.7933-3.106-1.7933" fill="none" stroke="#000" stroke-linecap="round" stroke-miterlimit="10" stroke-width=".3985"/></g><g transform="matrix(.35278 0 0 -.35278 -290.46 163.52)"><g transform="scale(-1)"><g transform="rotate(180,-29.36,28.775)"><g transform="translate(148.42,-371.57)"><text transform="matrix(1,0,0,-1,-58.72,57.55)" fill="#000000" font-family="CMR10" font-size="9.963px"><tspan x="0 2.7677214 8.0281858 12.186742 17.445213 21.319824" y="0">lock()</tspan></text></g></g></g></g><path d="m-252.63 301.89h151.44" fill="none" stroke="#000" stroke-miterlimit="10" stroke-width=".14058"/><g transform="matrix(.35278 0 0 -.35278 -101.19 301.89)"><path d="m-2.9068 1.7933 3.106-1.7933-3.106-1.7933" fill="none" stroke="#000" stroke-linecap="round" stroke-miterlimit="10" stroke-width=".3985"/></g><g transform="matrix(.35278 0 0 -.35278 -290.67 162.69)"><g transform="scale(-1)"><g transform="rotate(180,-29.36,28.775)"><g transform="translate(293.69,-388.58)"><text transform="matrix(1,0,0,-1,-58.72,57.55)" fill="#000000" font-family="CMR10" font-size="9.963px"><tspan x="0 5.5354428 9.9630003 13.83761 19.373053 23.800611 28.228168 33.763611 38.74511 42.647617 45.41534 50.396839 54.27145" y="0">SetScenario()</tspan></text></g></g></g></g><path d="m-98.496 307.89h8.0001v1.98h-6.5124" fill="none" stroke="#000" stroke-miterlimit="10" stroke-width=".14058"/><g transform="matrix(-.35278 0 0 .35278 -97.009 309.87)"><path d="m-4.3602 2.6899 4.659-2.6899-4.659-2.6899z" stroke="#000" stroke-miterlimit="10" stroke-width=".3985"/></g><g transform="matrix(.35278 0 0 -.35278 -290.67 162.69)"><g transform="scale(-1)"><g transform="rotate(180,-29.36,28.775)"><g transform="translate(553.93,-405.59)"><text transform="matrix(1,0,0,-1,-58.72,57.55)" fill="#000000" font-family="CMR10" font-size="9.963px"><tspan x="0 7.47225 13.286656 18.8221 23.8036 27.678211 32.105766 35.980377" y="0">Update()</tspan></text></g></g></g></g><g transform="matrix(.35278 0 0 -.35278 -290.67 162.69)"><path d="m544.74-422.31h22.678v-5.6126h-22.08" fill="none" stroke="#000" stroke-dasharray="2.98883, 2.98883" stroke-miterlimit="10" stroke-width=".3985"/><g transform="rotate(180 272.67 -213.96)"><path d="m-2.9068 1.7933 3.106-1.7933-3.106-1.7933" fill="none" stroke="#000" stroke-linecap="round" stroke-miterlimit="10" stroke-width=".3985"/></g><g transform="scale(-1)"><g transform="rotate(180,-29.36,28.775)"></g></g><g transform="scale(-1)"><g transform="rotate(180,-29.36,28.775)"></g></g></g><path d="m-252.63 325.89h151.41" fill="none" stroke="#000" stroke-miterlimit="10" stroke-width=".14058"/><g transform="matrix(.35278 0 0 -.35278 -101.23 325.89)"><path d="m-4.3602 2.6899 4.659-2.6899-4.659-2.6899z" stroke="#000" stroke-miterlimit="10" stroke-width=".3985"/></g><g transform="matrix(.35278 0 0 -.35278 -290.67 162.69)"><g transform="scale(-1)"><g transform="rotate(180,-29.36,28.775)"><g transform="translate(292.55,-456.61)"><text transform="matrix(1,0,0,-1,-58.72,57.55)" fill="#000000" font-family="CMR10" font-size="9.963px"><tspan x="0 7.817966 12.245523 16.120134 21.655577 26.083134 30.510691 36.046135 41.027634 44.930141 47.697861 52.679363 56.553974" y="0">GetScenario()</tspan></text></g></g></g></g><path d="m-100.98 331.89h-151.44" fill="none" stroke="#000" stroke-dasharray="1.05439, 1.05439" stroke-miterlimit="10" stroke-width=".14058"/><g transform="matrix(-.35278 0 0 .35278 -252.42 331.89)"><path d="m-2.9068 1.7933 3.106-1.7933-3.106-1.7933" fill="none" stroke="#000" stroke-linecap="round" stroke-miterlimit="10" stroke-width=".3985"/></g><g transform="matrix(.35278 0 0 -.35278 -276.05 163.13)"><g transform="scale(-1)"><g transform="rotate(180,-29.36,28.775)"><g transform="translate(211.26,-474.18)"><text transform="matrix(1,0,0,-1,-58.72,57.55)" fill="#000000" font-family="CMR10" font-size="9.963px"><tspan x="0 3.9294071 8.3569641 12.784522 18.319963 23.301464 27.203972 29.971693 38.27087 45.466152 48.233871 52.108482 60.971569 66.507011 72.311455 77.846893 82.8284 86.703011 91.130562 99.993652 108.29581 113.27732 118.81276 123.24032 128.77576 133.76523 138.19279 145.40302 149.33241 153.75998 158.74147 164.83684 169.81834 175.35378 180.33528 185.87073 191.40617 198.59746 204.1329 209.66835 214.64984 218.57925" y="0">scenariowithupdatedmaneuverseg,anoun.phase</tspan></text></g></g></g></g><path d="m-252.63 337.89h218.14" fill="none" stroke="#000" stroke-miterlimit="10" stroke-width=".14058"/><g transform="matrix(.35278 0 0 -.35278 -34.491 337.89)"><path d="m-2.9068 1.7933 3.106-1.7933-3.106-1.7933" fill="none" stroke="#000" stroke-linecap="round" stroke-miterlimit="10" stroke-width=".3985"/></g><g transform="matrix(.35278 0 0 -.35278 -290.82 163.86)"><g transform="scale(-1)"><g transform="rotate(180,-29.36,28.775)"><g transform="translate(338.31,-490.63)"><text transform="matrix(1,0,0,-1,-58.72,57.55)" fill="#000000" font-family="CMR10" font-size="9.963px"><tspan x="0 7.7492213 13.284664 19.511539 24.49304 30.028482 34.456039 42.274006 47.809448 50.577171 56.112614 61.094112 66.629555 71.057114 75.484673 81.020111 85.44767 89.875229 95.410667 100.39217 104.29468 107.0624 112.0439 119.23917 124.77462 129.75612 135.29156 140.27306 144.70062 150.23607 154.11067" y="0">OnLaneGuidanceScenarioChanged()</tspan></text></g></g></g></g><path d="m-252.63 349.9h37.323" fill="none" stroke="#000" stroke-miterlimit="10" stroke-width=".14058"/><g transform="matrix(.35278 0 0 -.35278 -215.31 349.9)"><path d="m-2.9068 1.7933 3.106-1.7933-3.106-1.7933" fill="none" stroke="#000" stroke-linecap="round" stroke-miterlimit="10" stroke-width=".3985"/></g><g transform="matrix(.35278 0 0 -.35278 -290.67 162.69)"><g transform="scale(-1)"><g transform="rotate(180,-29.36,28.775)"><g transform="translate(142.71,-524.65)"><text transform="matrix(1,0,0,-1,-58.72,57.55)" fill="#000000" font-family="CMR10" font-size="9.963px"><tspan x="0 3.9025071 8.3300648 11.097786 15.525343 20.506844 24.436251 28.863808 32.738419" y="0">release()</tspan></text></g></g></g></g><g transform="matrix(.35278 0 0 -.35278 -290.67 162.69)"><g transform="scale(-1)"><g transform="rotate(180,-29.36,28.775)"><g transform="translate(98.83,-44.34)"><text transform="matrix(1,0,0,-1,-58.72,57.55)" fill="#000000" font-family="CMR10" font-size="9.963px"><tspan x="0 7.1952786 11.097786 15.525343 20.506844 24.381454 32.12669 37.662132 42.089691 52.61261 56.542019 60.969574 65.397133 70.932571 75.914078 79.816582 82.584305" y="0">Createnewscenario</tspan></text></g></g></g></g><g transform="matrix(.35278 0 0 -.35278 -290.67 162.69)"><path d="m95.309-34.016h94.601v-8.1782l-5.6693-5.6693h-88.932z" fill="#fff" stroke="#000" stroke-miterlimit="10" stroke-width=".3985"/></g><g transform="matrix(.35278 0 0 -.35278 -290.67 162.69)"><g transform="scale(-1)"><g transform="rotate(180,-29.36,28.775)"><g transform="translate(98.83,-44.34)"><text transform="matrix(1,0,0,-1,-58.72,57.55)" fill="#000000" font-family="CMR10" font-size="9.963px"><tspan x="0 7.1952786 11.097786 15.525343 20.506844 24.381454 32.12669 37.662132 42.089691 52.61261 56.542019 60.969574 65.397133 70.932571 75.914078 79.816582 82.584305" y="0">Createnewscenario</tspan></text></g></g></g></g><g transform="matrix(.35278 0 0 -.35278 -290.67 162.69)"><g transform="scale(-1)"><g transform="rotate(180,-29.36,28.775)"><g transform="translate(199.1,-43.76)"><text transform="matrix(1,0,0,-1,-58.72,57.55)" fill="#000000" font-family="CMR9" font-size="8.966px"><tspan x="0 8.7077789 13.315407 16.919739 21.531849 25.631104 32.292843 35.876553 40.99614 44.600471 48.699726 53.307354" y="0">Workerthread</tspan></text></g></g></g></g><path d="m-28.555 367.87v-193.18h-228.49v193.18z" fill="none" stroke="#000" stroke-miterlimit="10" stroke-width=".14058"/><path d="m-277 385.9h61.694" fill="none" stroke="#000" stroke-miterlimit="10" stroke-width=".14058"/><g transform="matrix(.35278 0 0 -.35278 -215.31 385.9)"><path d="m-2.9068 1.7933 3.106-1.7933-3.106-1.7933" fill="none" stroke="#000" stroke-linecap="round" stroke-miterlimit="10" stroke-width=".3985"/></g><g transform="matrix(.35278 0 0 -.35278 -281.17 162.84)"><g transform="scale(-1)"><g transform="rotate(180,-29.36,28.775)"><g transform="translate(113.88,-626.7)"><text transform="matrix(1,0,0,-1,-58.72,57.55)" fill="#000000" font-family="CMR10" font-size="9.963px"><tspan x="0 2.7677214 8.0281858 12.186742 17.445213 21.319824" y="0">lock()</tspan></text></g></g></g></g><path d="m-277 391.9h175.81" fill="none" stroke="#000" stroke-miterlimit="10" stroke-width=".14058"/><g transform="matrix(.35278 0 0 -.35278 -101.19 391.9)"><path d="m-2.9068 1.7933 3.106-1.7933-3.106-1.7933" fill="none" stroke="#000" stroke-linecap="round" stroke-miterlimit="10" stroke-width=".3985"/></g><g transform="matrix(.35278 0 0 -.35278 -262.9 162.11)"><g transform="scale(-1)"><g transform="rotate(180,-29.36,28.775)"><g transform="translate(229.34,-643.7)"><text transform="matrix(1,0,0,-1,-58.72,57.55)" fill="#000000" font-family="CMR10" font-size="9.963px"><tspan x="0 5.5354428 9.9630003 13.83761 21.30986 27.124268 31.551825 36.533325 44.835491 47.603214 53.138657 58.120155 61.717796 67.253242 71.182648 75.057259 78.959763 84.495209 88.922768 92.797371 95.565094 100.54659 106.08204 110.01144 113.88605" y="0">SetUpcomingInstructions()</tspan></text></g></g></g></g><path d="m-277 403.9h113.6" fill="none" stroke="#000" stroke-miterlimit="10" stroke-width=".14058"/><g transform="matrix(.35278 0 0 -.35278 -163.4 403.9)"><path d="m-2.9068 1.7933 3.106-1.7933-3.106-1.7933" fill="none" stroke="#000" stroke-linecap="round" stroke-miterlimit="10" stroke-width=".3985"/></g><g transform="matrix(.35278 0 0 -.35278 -263.19 162.84)"><g transform="scale(-1)"><g transform="rotate(180,-29.36,28.775)"><g transform="translate(183.44,-677.72)"><text transform="matrix(1,0,0,-1,-58.72,57.55)" fill="#000000" font-family="CMR10" font-size="9.963px"><tspan x="0 5.5354428 10.516943 14.391554 17.159275 20.203968 25.462439 29.337049" y="0">notify()</tspan></text></g></g></g></g><path d="m-163.19 409.9h-89.232" fill="none" stroke="#000" stroke-miterlimit="10" stroke-width=".14058"/><g transform="matrix(-.35278 0 0 .35278 -252.42 409.9)"><path d="m-2.9068 1.7933 3.106-1.7933-3.106-1.7933" fill="none" stroke="#000" stroke-linecap="round" stroke-miterlimit="10" stroke-width=".3985"/></g><g transform="matrix(.35278 0 0 -.35278 -275.18 162.84)"><g transform="scale(-1)"><g transform="rotate(180,-29.36,28.775)"><g transform="translate(214.52,-694.73)"><text transform="matrix(1,0,0,-1,-58.72,57.55)" fill="#000000" font-family="CMR10" font-size="9.963px"><tspan x="0 6.9262776 11.907778 16.887285 21.314842 26.850285 32.385727 36.260338" y="0">wakeup()</tspan></text></g></g></g></g><path d="m-277 427.9h61.694" fill="none" stroke="#000" stroke-miterlimit="10" stroke-width=".14058"/><g transform="matrix(.35278 0 0 -.35278 -215.31 427.9)"><path d="m-2.9068 1.7933 3.106-1.7933-3.106-1.7933" fill="none" stroke="#000" stroke-linecap="round" stroke-miterlimit="10" stroke-width=".3985"/></g><g transform="matrix(.35278 0 0 -.35278 -281.02 163.28)"><g transform="scale(-1)"><g transform="rotate(180,-29.36,28.775)"><g transform="translate(108.17,-745.75)"><text transform="matrix(1,0,0,-1,-58.72,57.55)" fill="#000000" font-family="CMR10" font-size="9.963px"><tspan x="0 3.9025071 8.3300648 11.097786 15.525343 20.506844 24.436251 28.863808 32.738419" y="0">release()</tspan></text></g></g></g></g><g transform="matrix(.35278 0 0 -.35278 -290.67 162.69)"><g transform="scale(-1)"><g transform="rotate(180,-29.36,28.775)"><g transform="translate(29.75,-606.28)"><text transform="matrix(1,0,0,-1,-58.72,57.55)" fill="#000000" font-family="CMR10" font-size="9.963px"><tspan x="0 5.5354428 9.9630003 13.83761 21.30986 27.124268 31.551825 36.533325 44.835491 47.603214 53.138657 58.120155 61.717796 67.253242 71.182648 75.057259 78.959763 84.495209 88.922768 92.797371 95.565094 100.54659 106.08204 110.01144 113.88605" y="0">SetUpcomingInstructions()</tspan></text></g></g></g></g><g transform="matrix(.35278 0 0 -.35278 -290.67 162.69)"><path d="m26.227-595.29h124.79v-11.333l-5.6693-5.6693h-119.13z" fill="#fff" stroke="#000" stroke-miterlimit="10" stroke-width=".3985"/></g><g transform="matrix(.35278 0 0 -.35278 -290.67 162.69)"><g transform="scale(-1)"><g transform="rotate(180,-29.36,28.775)"><g transform="translate(29.75,-606.28)"><text transform="matrix(1,0,0,-1,-58.72,57.55)" fill="#000000" font-family="CMR10" font-size="9.963px"><tspan x="0 5.5354428 9.9630003 13.83761 21.30986 27.124268 31.551825 36.533325 44.835491 47.603214 53.138657 58.120155 61.717796 67.253242 71.182648 75.057259 78.959763 84.495209 88.922768 92.797371 95.565094 100.54659 106.08204 110.01144 113.88605" y="0">SetUpcomingInstructions()</tspan></text></g></g></g></g><g transform="matrix(.35278 0 0 -.35278 -290.67 162.69)"><g transform="scale(-1)"><g transform="rotate(180,-29.36,28.775)"><g transform="translate(160.21,-605.04)"><text transform="matrix(1,0,0,-1,-58.72,57.55)" fill="#000000" font-family="CMR9" font-size="8.966px"><tspan x="0 3.5837102 7.1880422 9.7478352 14.867421 17.939173 22.546801 27.415339 32.785973 37.3936 42.001228 45.60556 50.725143 54.359962 58.459217 62.063549 66.926704 69.486504 74.606087 81.771713 85.355423 89.963051 93.59787 101.53636 106.39952 111.51911 115.61836 120.73795 127.91254 131.49625 136.61584 140.22017 144.31943 148.92705" y="0">trip-onboardservidetaskqueuethread</tspan></text></g></g></g></g><path d="m-95.255 445.87v-73.173h-186.16v73.173z" fill="none" stroke="#000" stroke-miterlimit="10" stroke-width=".14058"/><path d="m-277 463.9h61.694" fill="none" stroke="#000" stroke-miterlimit="10" stroke-width=".14058"/><g transform="matrix(.35278 0 0 -.35278 -215.31 463.9)"><path d="m-2.9068 1.7933 3.106-1.7933-3.106-1.7933" fill="none" stroke="#000" stroke-linecap="round" stroke-miterlimit="10" stroke-width=".3985"/></g><g transform="matrix(.35278 0 0 -.35278 -281.14 162.69)"><g transform="scale(-1)"><g transform="rotate(180,-29.36,28.775)"><g transform="translate(113.88,-847.8)"><text transform="matrix(1,0,0,-1,-58.72,57.55)" fill="#000000" font-family="CMR10" font-size="9.963px"><tspan x="0 2.7677214 8.0281858 12.186742 17.445213 21.319824" y="0">lock()</tspan></text></g></g></g></g><path d="m-277 469.9h175.81" fill="none" stroke="#000" stroke-miterlimit="10" stroke-width=".14058"/><g transform="matrix(.35278 0 0 -.35278 -101.19 469.9)"><path d="m-2.9068 1.7933 3.106-1.7933-3.106-1.7933" fill="none" stroke="#000" stroke-linecap="round" stroke-miterlimit="10" stroke-width=".3985"/></g><g transform="matrix(.35278 0 0 -.35278 -261.57 162.69)"><g transform="scale(-1)"><g transform="rotate(180,-29.36,28.775)"><g transform="translate(200.44,-864.81)"><text transform="matrix(1,0,0,-1,-58.72,57.55)" fill="#000000" font-family="CMR10" font-size="9.963px"><tspan x="0 5.5354428 9.9630003 13.83761 20.349428 25.330927 29.260334 32.028057 35.902668 38.670387 43.65189 49.187332 53.061943 56.936554 63.01199 68.547432 72.974991 76.849602 84.321854 89.857292 95.392738 100.37424 105.90968 111.44512 115.87268 120.30024 128.6024 133.02997 138.30637 142.18097 148.96179 154.49724 159.47874 163.40814 167.83571 171.71031" y="0">SetPosition(),SetAnnouncementPhase()</tspan></text></g></g></g></g><path d="m-98.496 475.9h8.0001v1.98h-6.5124" fill="none" stroke="#000" stroke-miterlimit="10" stroke-width=".14058"/><g transform="matrix(-.35278 0 0 .35278 -97.009 477.88)"><path d="m-4.3602 2.6899 4.659-2.6899-4.659-2.6899z" stroke="#000" stroke-miterlimit="10" stroke-width=".3985"/></g><g transform="matrix(.35278 0 0 -.35278 -290.67 162.69)"><g transform="scale(-1)"><g transform="rotate(180,-29.36,28.775)"><g transform="translate(553.93,-881.82)"><text transform="matrix(1,0,0,-1,-58.72,57.55)" fill="#000000" font-family="CMR10" font-size="9.963px"><tspan x="0 7.47225 13.286656 18.8221 23.8036 27.678211 32.105766 35.980377" y="0">Update()</tspan></text></g></g></g></g><g transform="matrix(.35278 0 0 -.35278 -290.67 162.69)"><path d="m544.74-898.55h22.678v-5.6126h-22.08" fill="none" stroke="#000" stroke-dasharray="2.98883, 2.98883" stroke-miterlimit="10" stroke-width=".3985"/><g transform="rotate(180 272.67 -452.08)"><path d="m-2.9068 1.7933 3.106-1.7933-3.106-1.7933" fill="none" stroke="#000" stroke-linecap="round" stroke-miterlimit="10" stroke-width=".3985"/></g><g transform="scale(-1)"><g transform="rotate(180,-29.36,28.775)"></g></g><g transform="scale(-1)"><g transform="rotate(180,-29.36,28.775)"></g></g></g><path d="m-252.63 493.9h151.41" fill="none" stroke="#000" stroke-miterlimit="10" stroke-width=".14058"/><g transform="matrix(.35278 0 0 -.35278 -101.23 493.9)"><path d="m-4.3602 2.6899 4.659-2.6899-4.659-2.6899z" stroke="#000" stroke-miterlimit="10" stroke-width=".3985"/></g><g transform="matrix(.35278 0 0 -.35278 -290.67 162.69)"><g transform="scale(-1)"><g transform="rotate(180,-29.36,28.775)"><g transform="translate(292.55,-932.85)"><text transform="matrix(1,0,0,-1,-58.72,57.55)" fill="#000000" font-family="CMR10" font-size="9.963px"><tspan x="0 7.817966 12.245523 16.120134 21.655577 26.083134 30.510691 36.046135 41.027634 44.930141 47.697861 52.679363 56.553974" y="0">GetScenario()</tspan></text></g></g></g></g><g transform="matrix(.35278 0 0 -.35278 -290.67 162.69)"><path d="m537.7-955.86h-429.29" fill="none" stroke="#000" stroke-dasharray="2.98883, 2.98883" stroke-miterlimit="10" stroke-width=".3985"/><g transform="rotate(180 54.208 -477.93)"><path d="m-2.9068 1.7933 3.106-1.7933-3.106-1.7933" fill="none" stroke="#000" stroke-linecap="round" stroke-miterlimit="10" stroke-width=".3985"/></g><g transform="scale(-1)"><g transform="rotate(180,-29.36,28.775)"><g transform="translate(273.38,-952.34)"><text transform="matrix(1,0,0,-1,-58.72,57.55)" fill="#000000" font-family="CMR10" font-size="9.963px"><tspan x="0 6.2268748 11.208375 16.743818 21.171375 28.989342 34.524784 37.292507 42.82795 47.809448 53.344891 57.772449 62.200005 67.735451 72.163002 76.590561 82.126007 87.107506 91.01001 93.777733" y="0">LaneGuidanceScenario</tspan></text></g></g></g></g><path d="m-252.63 505.9h218.14" fill="none" stroke="#000" stroke-miterlimit="10" stroke-width=".14058"/><g transform="matrix(.35278 0 0 -.35278 -34.491 505.9)"><path d="m-2.9068 1.7933 3.106-1.7933-3.106-1.7933" fill="none" stroke="#000" stroke-linecap="round" stroke-miterlimit="10" stroke-width=".3985"/></g><g transform="matrix(.35278 0 0 -.35278 -290.67 162.69)"><g transform="scale(-1)"><g transform="rotate(180,-29.36,28.775)"><g transform="translate(338.31,-966.86)"><text transform="matrix(1,0,0,-1,-58.72,57.55)" fill="#000000" font-family="CMR10" font-size="9.963px"><tspan x="0 7.7492213 13.284664 19.511539 24.49304 30.028482 34.456039 42.274006 47.809448 50.577171 56.112614 61.094112 66.629555 71.057114 75.484673 81.020111 85.44767 89.875229 95.410667 100.39217 104.29468 107.0624 112.0439 119.23917 124.77462 129.75612 135.29156 140.27306 144.70062 150.23607 154.11067" y="0">OnLaneGuidanceScenarioChanged()</tspan></text></g></g></g></g><path d="m-277 517.9h61.694" fill="none" stroke="#000" stroke-miterlimit="10" stroke-width=".14058"/><g transform="matrix(.35278 0 0 -.35278 -215.31 517.9)"><path d="m-2.9068 1.7933 3.106-1.7933-3.106-1.7933" fill="none" stroke="#000" stroke-linecap="round" stroke-miterlimit="10" stroke-width=".3985"/></g><g transform="matrix(.35278 0 0 -.35278 -281.14 162.69)"><g transform="scale(-1)"><g transform="rotate(180,-29.36,28.775)"><g transform="translate(108.17 -1000.9)"><text transform="matrix(1,0,0,-1,-58.72,57.55)" fill="#000000" font-family="CMR10" font-size="9.963px"><tspan x="0 3.9025071 8.3300648 11.097786 15.525343 20.506844 24.436251 28.863808 32.738419" y="0">release()</tspan></text></g></g></g></g><g transform="matrix(.35278 0 0 -.35278 -290.67 162.69)"><g transform="scale(-1)"><g transform="rotate(180,-29.36,28.775)"><g transform="translate(29.75,-827.39)"><text transform="matrix(1,0,0,-1,-58.72,57.55)" fill="#000000" font-family="CMR10" font-size="9.963px"><tspan x="0 5.5354428 9.9630003 13.83761 20.349428 25.330927 29.260334 32.028057 35.902668 38.670387 43.65189 49.187332 53.061943 56.936554 63.01199 68.547432 72.974991 76.849602 84.321854 89.857292 95.392738 100.37424 105.90968 111.44512 115.87268 120.30024 128.6024 133.02997 138.30637 142.18097 148.96179 154.49724 159.47874 163.40814 167.83571 171.71031 175.58493" y="0">SetPosition(),SetAnnouncementPhase(),</tspan></text></g></g></g></g><g transform="matrix(.35278 0 0 -.35278 -290.67 162.69)"><path d="m26.227-816.4h185.37v-11.333l-5.6693-5.6693h-179.7z" fill="#fff" stroke="#000" stroke-miterlimit="10" stroke-width=".3985"/></g><g transform="matrix(.35278 0 0 -.35278 -290.67 162.69)"><g transform="scale(-1)"><g transform="rotate(180,-29.36,28.775)"><g transform="translate(29.75,-827.39)"><text transform="matrix(1,0,0,-1,-58.72,57.55)" fill="#000000" font-family="CMR10" font-size="9.963px"><tspan x="0 5.5354428 9.9630003 13.83761 20.349428 25.330927 29.260334 32.028057 35.902668 38.670387 43.65189 49.187332 53.061943 56.936554 63.01199 68.547432 72.974991 76.849602 84.321854 89.857292 95.392738 100.37424 105.90968 111.44512 115.87268 120.30024 128.6024 133.02997 138.30637 142.18097 148.96179 154.49724 159.47874 163.40814 167.83571 171.71031 175.58493" y="0">SetPosition(),SetAnnouncementPhase(),</tspan></text></g></g></g></g><g transform="matrix(.35278 0 0 -.35278 -290.67 162.69)"><g transform="scale(-1)"><g transform="rotate(180,-29.36,28.775)"><g transform="translate(220.79,-826.14)"><text transform="matrix(1,0,0,-1,-58.72,57.55)" fill="#000000" font-family="CMR9" font-size="8.966px"><tspan x="0 3.5837102 7.1880422 9.7478352 14.867421 17.939173 22.546801 27.415339 32.785973 37.3936 42.001228 45.60556 50.725143 54.359962 58.459217 62.063549 66.926704 69.486504 74.606087 81.771713 85.355423 89.963051 93.59787 101.53636 106.39952 111.51911 115.61836 120.73795 127.91254 131.49625 136.61584 140.22017 144.31943 148.92705" y="0">trip-onboardservidetaskqueuethread</tspan></text></g></g></g></g><path d="m-28.555 535.87v-85.173h-252.86v85.173z" fill="none" stroke="#000" stroke-miterlimit="10" stroke-width=".14058"/></g></svg>
