<?xml version="1.0" encoding="UTF-8"?>
<svg width="2560" height="1440" version="1.1" viewBox="0 0 2560 1440" xml:space="preserve" xmlns="http://www.w3.org/2000/svg"><defs><clipPath id="clipPath8901"><path d="m658.19 129.11h121.14v155.75h-121.14z"/></clipPath><clipPath id="clipPath8995"><path d="m0 0h1920v1080h-1920z"/></clipPath><clipPath id="clipPath9009"><path d="m526.24 255.95h123.94v9h-123.94z"/></clipPath><clipPath id="clipPath9023"><path d="m0 0h1920v1080h-1920z"/></clipPath><clipPath id="clipPath9037"><path d="m526.24 231.58h123.94v9h-123.94z"/></clipPath><clipPath id="clipPath9051"><path d="m0 0h1920v1080h-1920z"/></clipPath><clipPath id="clipPath9065"><path d="m526.24 202.29h123.94v9h-123.94z"/></clipPath><clipPath id="clipPath9079"><path d="m0 0h1920v1080h-1920z"/></clipPath><clipPath id="clipPath9093"><path d="m526.24 152.51h123.94v9h-123.94z"/></clipPath><clipPath id="clipPath9107"><path d="m0 0h1920v1080h-1920z"/></clipPath><clipPath id="clipPath9119"><path d="m404.3 129.11h123.99v155.75h-123.99z"/></clipPath><clipPath id="clipPath9203"><path d="m160.06 131.27h118.98v155.75h-118.98z"/></clipPath><clipPath id="clipPath9217"><path d="m0 0h1920v1080h-1920z"/></clipPath><clipPath id="clipPath9231"><path d="m290.32 267.47h100.71v9h-100.71z"/></clipPath><clipPath id="clipPath9245"><path d="m0 0h1920v1080h-1920z"/></clipPath><clipPath id="clipPath9259"><path d="m290.32 240.04h100.71v9h-100.71z"/></clipPath><clipPath id="clipPath9273"><path d="m0 0h1920v1080h-1920z"/></clipPath><clipPath id="clipPath9287"><path d="m289.26 210.75h100.71v9h-100.71z"/></clipPath><clipPath id="clipPath9301"><path d="m0 0h1920v1080h-1920z"/></clipPath><clipPath id="clipPath9319"><path d="m399.08 66.245h123.01v23.657h-123.01z"/></clipPath><clipPath id="clipPath9349"><path d="m309.22 105.51h169.36v9h-169.36z"/></clipPath></defs><g transform="matrix(1.3333 0 0 -1.3333 0 1440)"><g transform="matrix(3.04 0 0 -3.04 1534.2 1024.2)"><path d="m0 0h120.97v157.75h-120.97z" fill="none" stroke="#000"/></g><g transform="matrix(3.04 0 0 3.04 -463.64 155.19)"><g clip-path="url(#clipPath8901)"><g transform="translate(678.6 271.32)"><text transform="scale(1,-1)" fill="#000000" font-family="'Helvetica Neue'" font-size="10px" font-weight="bold"><tspan x="0 6.4899998 12.23 17.969999 23.9 29.639999 33.529999 36.110001 42.220001 47.41 51.299999 57.040001 62.779999 68.519997 74.260002 78.150002" y="0">ScenarioTracker </tspan></text></g><g transform="translate(700.31 254.55)" fill="#000000" font-family="'Helvetica Neue'" font-size="7px"><text transform="scale(1,-1)"><tspan x="0 5.0539999 8.8129997 10.367 14.126 18.018 19.572001 23.330999 25.535999 29.295 32.794998" y="0">Calculates:</tspan></text><text transform="matrix(1,0,0,-1,34.741,0)"><tspan x="0" y="0"/></text></g><g transform="translate(689.15 238.55)" fill="#000000" font-family="'Helvetica Neue'" font-size="7px"><text transform="scale(1,-1)"><tspan x="0 2.723 4.6690001 9.7229996 13.615 15.946 18.150999 21.91 25.802 28.007 29.952999 33.452999 37.212002 41.23 47.201 50.959999 54.852001" y="0">- Current segment</tspan></text><text transform="matrix(1,0,0,-1,57.057,0)"><tspan x="0" y="0"/></text></g><g transform="translate(686.3 230.55)" fill="#000000" font-family="'Helvetica Neue'" font-size="7px"><text transform="scale(1,-1)"><tspan x="0 1.813 6.6079998 10.367 13.867 17.625999 21.777 23.723 27.740999 31.632999 33.578999 37.73 39.935001 43.952999 47.971001 50.175999 53.935001 57.435001 60.935001" y="0">(Based on progress)</tspan></text><text transform="matrix(1,0,0,-1,62.748,0)"><tspan x="0" y="0"/></text></g><g transform="translate(686.17 214.55)" fill="#000000" font-family="'Helvetica Neue'" font-size="7px"><text transform="scale(1,-1)"><tspan x="0 2.723 4.6690001 10.766 14.525 18.417 22.176001 26.068001 29.568001 33.327 35.658001 37.604 41.104 44.862999 47.194 53.165001 56.924 60.816002" y="0">- Maneuver serment</tspan></text><text transform="matrix(1,0,0,-1,63.021,0)"><tspan x="0" y="0"/></text></g><g transform="translate(675.77 206.55)"><text transform="scale(1,-1)" fill="#000000" font-family="'Helvetica Neue'" font-size="7px"><tspan x="0 1.813 6.6079998 10.367 13.867 17.625999 19.572001 23.59 27.482 29.427999 33.32 37.078999 40.705002 42.91 44.855999 46.41 50.301998 53.801998 56.007 58.338001 62.23 65.988998 68.194 69.748001 73.765999 77.657997 79.603996 83.804001" y="0">(Base on next instruction + </tspan></text></g><g transform="translate(684.36 198.55)" fill="#000000" font-family="'Helvetica Neue'" font-size="7px"><text transform="scale(1,-1)"><tspan x="0 3.5 7.2589998 11.018 14.91 18.669001 21 22.554001 26.572001 28.518 30.072001 33.964001 37.464001 39.668999 42 45.891998 49.651001 51.855999 53.41 57.428001 61.32 64.82" y="0">scenario instructions)</tspan></text><text transform="matrix(1,0,0,-1,66.633,0)"><tspan x="0" y="0"/></text></g><g transform="translate(689.41 182.55)" fill="#000000" font-family="'Helvetica Neue'" font-size="7px"><text transform="scale(1,-1)"><tspan x="0 2.723 4.6690001 8.0430002 10.374 11.928 15.946 19.964001 23.723 26.054001 27.608 31.5 35.518002 37.464001 41.615002 45.507 49.265999 52.765999" y="0">- Triggering phase</tspan></text><text transform="matrix(1,0,0,-1,56.525,0)"><tspan x="0" y="0"/></text></g><g transform="translate(665.22 166.55)" fill="#000000" font-family="'Helvetica Neue'" font-size="7px"><text transform="scale(1,-1)"><tspan x="0 2.723 4.6690001 9.2049999 13.097 17.115 21.007 22.561001 26.712 28.658001 30.863001 34.755001 38.514 40.459999 43.959999 47.719002 51.478001 55.369999 59.129002 61.459999 63.014 67.031998 68.977997 73.128998 76.888 78.834 82.725998 86.876999 91.028 94.787003 96.991997 100.751" y="0">- Should the scenario be updated</tspan></text><text transform="matrix(1 0 0 -1 104.9 0)"><tspan x="0" y="0"/></text></g><g transform="matrix(1 0 0 -1 658.19 284.86)"><path d="m42.113 30.785h34.741" fill="none" stroke="#000" stroke-miterlimit="10" stroke-width=".35"/></g></g></g><g transform="matrix(3.04 0 0 3.04 -463.64 155.19)"><g clip-path="url(#clipPath8995)"><g transform="matrix(1 0 0 -1 524.57 253.83)"><path d="m0 0h126.62" fill="none" stroke="#000"/></g><path d="m650.69 250.83 6 3-6 3z"/></g></g><g transform="matrix(3.04 0 0 3.04 -463.64 155.19)"><g clip-path="url(#clipPath9009)"><g transform="translate(547.83 256.87)"><text transform="scale(1,-1)" fill="#000000" font-family="'Helvetica Neue'" font-size="8px"><tspan x="0 5.776 10.52 14.816 19.408001 26.232 28.007999 32.456001 37.048 39.271999 41.048 45.495998 49.495998 52.015999 54.68 59.127998 63.424 65.944 67.720001 72.311996 76.760002" y="0">Upcoming instructions</tspan></text></g></g></g><g transform="matrix(3.04 0 0 3.04 -463.64 155.19)"><g clip-path="url(#clipPath9023)"><g transform="matrix(1 0 0 -1 524.57 228.46)"><path d="m0 0h126.62" fill="none" stroke="#000"/></g><path d="m650.69 225.46 6 3-6 3z"/></g></g><g transform="matrix(3.04 0 0 3.04 -463.64 155.19)"><g clip-path="url(#clipPath9037)"><g transform="translate(556.58 232.51)"><text transform="scale(1,-1)" fill="#000000" font-family="'Helvetica Neue'" font-size="8px"><tspan x="0 3.8559999 6.52 8.2959995 12.888 17.48 21.775999 24.440001 26.216 30.664 35.256001 37.48 42.223999 46.672001 50.967999 54.967999 59.264" y="0">Triggering phases</tspan></text></g></g></g><g transform="matrix(3.04 0 0 3.04 -463.64 155.19)"><g clip-path="url(#clipPath9051)"><g transform="matrix(1 0 0 -1 524.57 200.17)"><path d="m0 0h126.62" fill="none" stroke="#000"/></g><path d="m650.69 197.17 6 3-6 3z"/></g></g><g transform="matrix(3.04 0 0 3.04 -463.64 155.19)"><g clip-path="url(#clipPath9065)"><g transform="translate(556.43 203.22)"><text transform="scale(1,-1)" fill="#000000" font-family="'Helvetica Neue'" font-size="8px"><tspan x="0 5.184 7.704 12.296 16.888 19.408001 23.704 27.704 31.704 33.928001 38.52 42.967999 45.192001 47.712002 52.304001 56.751999 59.271999" y="0">Progress on route</tspan></text></g></g></g><g transform="matrix(3.04 0 0 3.04 -463.64 155.19)"><g clip-path="url(#clipPath9079)"><g transform="matrix(1 0 0 -1 524.57 150.39)"><path d="m0 0h126.62" fill="none" stroke="#000"/></g><path d="m650.69 147.39 6 3-6 3z"/></g></g><g transform="matrix(3.04 0 0 3.04 -463.64 155.19)"><g clip-path="url(#clipPath9093)"><g transform="translate(530.77 153.44)"><text transform="scale(1,-1)" fill="#000000" font-family="'Helvetica Neue'" font-size="8px"><tspan x="0 5.184 9.4799995 13.776 18.224001 22.52 25.184 26.959999 31.552 33.776001 38.576 40.799999 44.799999 49.096001 53.391998 57.84 62.136002 64.800003 66.575996 71.167999 73.391998 75.167999 79.615997 83.615997 86.136002 88.800003 93.248001 97.543999 100.064 101.84 106.432 110.88" y="0">Scenario + scenario instructions</tspan></text></g></g></g><g transform="matrix(3.04 0 0 3.04 -463.64 155.19)"><g clip-path="url(#clipPath9107)"><g transform="matrix(1 0 0 -1 403.3 285.86)"><path d="m0 0h120.97v157.75h-120.97z" fill="none" stroke="#000"/></g></g></g><g transform="matrix(3.04 0 0 3.04 -463.64 155.19)"><g clip-path="url(#clipPath9119)"><g transform="translate(409.43 271.32)"><text transform="scale(1,-1)" fill="#000000" font-family="'Helvetica Neue'" font-size="10px" font-weight="bold"><tspan x="0 5.9299998 11.67 17.6 23.34 30.93 36.860001 39.439999 45.549999 51.290001 57.220001 62.959999 68.699997 75.370003 79.080002 85.190002 90.389999 92.970001 99.080002 104.82 108.71" y="0">LaneGuidanceProvider </tspan></text></g></g></g><g transform="matrix(3.04 0 0 -3.04 19.889 1030.8)"><path d="m0 0h120.97v157.75h-120.97z" fill="none" stroke="#000"/></g><g transform="matrix(3.04 0 0 3.04 -463.64 155.19)"><g clip-path="url(#clipPath9203)"><g transform="translate(170.19 273.49)"><text transform="scale(1,-1)" fill="#000000" font-family="'Helvetica Neue'" font-size="10px" font-weight="bold"><tspan x="0 5.1900001 9.0799999 11.66 17.77 21.84 27.950001 33.880001 39.990002 46.099998 51.84 55.549999 61.66 64.440002 69.809998 75.550003 79.440002 84.639999 87.220001 92.959999 98.699997" y="0">Trip-onboard service </tspan></text></g></g></g><g transform="matrix(3.04 0 0 3.04 -463.64 155.19)"><g clip-path="url(#clipPath9217)"><g transform="matrix(1 0 0 -1 280.94 262.34)"><path d="m0 0h116.11" fill="none" stroke="#000"/></g><path d="m396.55 259.34 6 3-6 3z"/></g></g><g transform="matrix(3.04 0 0 3.04 -463.64 155.19)"><g clip-path="url(#clipPath9231)"><g transform="translate(293.19 268.39)"><text transform="scale(1,-1)" fill="#000000" font-family="'Helvetica Neue'" font-size="8px"><tspan x="0 5.184 9.4799995 12 17.775999 22.52 26.816 31.408001 38.231998 40.007999 44.456001 49.048 51.119999 55.568001 59.568001 62.088001 64.751999 69.199997 73.496002 76.015999 77.792 82.384003 86.832001 90.832001 92.903999" y="0">SetUpcomingInstructions()</tspan></text></g></g></g><g transform="matrix(3.04 0 0 3.04 -463.64 155.19)"><g clip-path="url(#clipPath9245)"><g transform="matrix(1 0 0 -1 280.94 234.92)"><path d="m0 0h116.11" fill="none" stroke="#000"/></g><path d="m396.55 231.92 6 3-6 3z"/></g></g><g transform="matrix(3.04 0 0 3.04 -463.64 155.19)"><g clip-path="url(#clipPath9259)"><g transform="translate(318.16 240.97)"><text transform="scale(1,-1)" fill="#000000" font-family="'Helvetica Neue'" font-size="8px"><tspan x="0 5.184 9.4799995 12 17.184 21.775999 25.775999 27.552 30.072001 31.848 36.439999 40.888 42.959999" y="0">SetPosition()</tspan></text></g></g></g><g transform="matrix(3.04 0 0 3.04 -463.64 155.19)"><g clip-path="url(#clipPath9273)"><g transform="matrix(1 0 0 -1 279.87 205.63)"><path d="m0 0h116.11" fill="none" stroke="#000"/></g><path d="m395.48 202.63 6 3-6 3z"/></g></g><g transform="matrix(3.04 0 0 3.04 -463.64 155.19)"><g clip-path="url(#clipPath9287)"><g transform="translate(293.31 211.67)"><text transform="scale(1,-1)" fill="#000000" font-family="'Helvetica Neue'" font-size="8px"><tspan x="0 5.184 9.4799995 12 17.184 21.632 26.08 30.672001 35.119999 39.568001 43.863998 48.16 54.984001 59.279999 63.728001 66.248001 71.431999 75.879997 80.176003 84.176003 88.472 90.543999" y="0">SetAnnouncementPhase()</tspan></text></g></g></g><g transform="matrix(3.04 0 0 3.04 312.74 152.7)"><g clip-path="url(#clipPath9301)"><g transform="matrix(0 -1 -1 0 463.79 129.7)"><path d="m0 0h33.508" fill="none" stroke="#000"/></g><path d="m460.79 96.691 3-6 3 6z"/><g transform="matrix(1 0 0 -1 398.08 90.902)"><path d="m0 0h120.97v25.657h-120.97z" fill="none" stroke="#000"/></g></g></g><g transform="matrix(3.04 0 0 3.04 -463.64 155.19)"><g clip-path="url(#clipPath9319)"><g transform="translate(659.63 78.771)"><text transform="scale(1,-1)" fill="#000000" font-family="'Helvetica Neue'" font-size="7px"><tspan x="0 3.892 7.651 11.543 15.302 20.615 24.507 26.061001 30.212 33.971001 37.862999 41.622002 45.381001 50.435001 54.452999 56.658001" y="0">LaneGuidanceNoti</tspan></text></g><g transform="translate(659.63 78.771)"><text transform="matrix(1,0,0,-1,58.212,0)" fill="#000000" font-family="'Helvetica Neue'" font-size="7px"><tspan x="0" y="0">f</tspan></text></g><g transform="translate(659.63 78.771)" fill="#000000" font-family="'Helvetica Neue'" font-size="7px"><text transform="matrix(1,0,0,-1,61.838,0)"><tspan x="0 3.7590001 7.5180001 9.7229996 11.277 15.295 19.187 25.284 29.042999 32.935001 36.694 40.712002 44.471001" y="0">cationManager</tspan></text><text transform="matrix(1,0,0,-1,108.64,0)"><tspan x="0" y="0"/></text></g></g></g><g transform="matrix(3.04 0 0 3.04 312.74 152.7)"><g clip-path="url(#clipPath9349)"><g transform="translate(328.56 106.43)"><text transform="scale(1,-1)" fill="#000000" font-family="'Helvetica Neue'" font-size="8px"><tspan x="0 6.0799999 10.528 14.976 19.271999 23.719999 28.016001 34.088001 38.535999 40.312 45.056 49.352001 53.799999 58.096001 62.391998 67.575996 71.872002 76.167999 80.615997 84.912003 87.575996 89.351997 93.944 99.720001 104.168 108.464 112.912 117.504 121.8 126.544 128.616" y="0">OnLaneGuidanceScenarioChanged()</tspan></text></g></g></g></g></svg>
