<?xml version="1.0" encoding="UTF-8"?>
<svg width="2560" height="1440" version="1.1" viewBox="0 0 2560 1440" xml:space="preserve" xmlns="http://www.w3.org/2000/svg"><defs><clipPath id="clipPath26706"><path d="m738.17 419.73h66.147v212.04h-66.147z"/></clipPath><clipPath id="clipPath26720"><path d="m0 0h1920v1080h-1920z"/></clipPath><clipPath id="clipPath26734"><path d="m606.22 602.86h123.94v9h-123.94z"/></clipPath><clipPath id="clipPath26748"><path d="m0 0h1920v1080h-1920z"/></clipPath><clipPath id="clipPath26762"><path d="m624.88 570.87h79.564v9h-79.564z"/></clipPath><clipPath id="clipPath26776"><path d="m0 0h1920v1080h-1920z"/></clipPath><clipPath id="clipPath26790"><path d="m606.22 536.39h123.94v9h-123.94z"/></clipPath><clipPath id="clipPath26804"><path d="m0 0h1920v1080h-1920z"/></clipPath><clipPath id="clipPath26888"><path d="m1061 407.26h212.16v266.14h-212.16z"/></clipPath><clipPath id="clipPath26920"><path d="m0 0h1920v1080h-1920z"/></clipPath></defs><g transform="matrix(1.3333 0 0 -1.3333 0 1440)"><g transform="matrix(2.7171 0 0 2.7171 -1579.2 -805.42)"><g transform="matrix(1 0 0 -1 737.17 632.77)"><path d="m0 0h68.147v214.04h-68.147z" fill="none" stroke="#000"/></g><g clip-path="url(#clipPath26706)"><g transform="translate(742.36 619.7)"><text transform="scale(1,-1)" fill="#000000" font-family="'Helvetica Neue'" font-size="8px"><tspan x="0 5.184 9.4799995 13.776 18.224001 22.52 25.184 26.959999 31.552 35.408001 38.071999 42.368 46.664001 50.816002 55.112" y="0">ScenarioTracker</tspan></text></g></g><g clip-path="url(#clipPath26720)"><g transform="matrix(1 0 0 -1 604.55 600.74)"><path d="m0 0h126.62" fill="none" stroke="#45b53c"/></g><path d="m730.67 597.74 6 3-6 3z" fill="#45b53c"/></g><g clip-path="url(#clipPath26734)"><g transform="translate(627.81 603.79)"><text transform="scale(1,-1)" fill="#000000" font-family="'Helvetica Neue'" font-size="8px"><tspan x="0 5.776 10.52 14.816 19.408001 26.232 28.007999 32.456001 37.048 39.271999 41.048 45.495998 49.495998 52.015999 54.68 59.127998 63.424 65.944 67.720001 72.311996 76.760002" y="0">Upcoming instructions</tspan></text></g></g><g clip-path="url(#clipPath26748)"><g transform="matrix(1 0 0 -1 604.55 567.87)"><path d="m0 0h126.62" fill="none" stroke="#e22146"/></g><path d="m730.67 564.87 6 3-6 3z" fill="#e22146"/></g><g clip-path="url(#clipPath26762)"><g transform="translate(633.03 571.79)"><text transform="scale(1,-1)" fill="#000000" font-family="'Helvetica Neue'" font-size="8px"><tspan x="0 3.8559999 6.52 8.2959995 12.888 17.48 21.775999 24.440001 26.216 30.664 35.256001 37.48 42.223999 46.672001 50.967999 54.967999 59.264" y="0">Triggering phases</tspan></text></g></g><g clip-path="url(#clipPath26776)"><g transform="matrix(1 0 0 -1 604.55 534.27)"><path d="m0 0h126.62" fill="none" stroke="#e22146"/></g><path d="m730.67 531.27 6 3-6 3z" fill="#e22146"/></g><g clip-path="url(#clipPath26790)"><g transform="translate(636.41 537.31)"><text transform="scale(1,-1)" fill="#000000" font-family="'Helvetica Neue'" font-size="8px"><tspan x="0 5.184 7.704 12.296 16.888 19.408001 23.704 27.704 31.704 33.928001 38.52 42.967999 45.192001 47.712002 52.304001 56.751999 59.271999" y="0">Progress on route</tspan></text></g></g><g clip-path="url(#clipPath26804)"><g transform="matrix(1 0 0 -1 596.31 673.55)"><path d="m0 0h413.52v157.1h-413.52z" fill="none" stroke="#000" stroke-dasharray="6, 6"/></g><g transform="translate(600.31 658.45)"><text transform="scale(1,-1)" fill="#000000" font-family="CanelaText" font-size="10px" font-weight="bold"><tspan x="0 7.5999999 15.95 22.92 25.32 29.42 35.169998 39.810001 46.029999 48.43 54.709999 60.799999 66.150002 72.239998 77.589996 79.989998 84.089996 90.559998 95.099998 100.45 106.1" y="0">TOB task queue thread</tspan></text></g><g transform="matrix(1 0 0 -1 595.81 674.35)"><path d="m4.5 17.317h112.61" fill="none" stroke="#000" stroke-miterlimit="10" stroke-width=".4"/></g><g transform="matrix(1 0 0 -1 913.83 599.19)"><path d="m76.376 4.9792c17.472 6.6389 17.472 17.403 0 24.042-17.472 6.6389-45.8 6.6389-63.272 0-17.472-6.6389-17.472-17.403 0-24.042 17.472-6.6389 45.8-6.6389 63.272 0z" fill="none" stroke="#e22146"/></g><g transform="translate(921.43 577.74)"><text transform="scale(1,-1)" fill="#000000" font-family="CanelaText" font-size="10px"><tspan x="0 6.9000001 13.05 19.280001 24.540001 28.120001 33.259998 35.630001 40.130001 45.23 50.369999 56.290001 61.650002 65.510002 68.089996" y="0">Update scenario</tspan></text></g><g transform="matrix(1 0 0 -1 898.5 485.83)"><path d="m76.376 4.9792c17.472 6.6389 17.472 17.403 0 24.042-17.472 6.6389-45.8 6.6389-63.272 0-17.472-6.6389-17.472-17.403 0-24.042 17.472-6.6389 45.8-6.6389 63.272 0z" fill="none" stroke="#000"/></g><g transform="translate(900.76 464.52)"><text transform="scale(1,-1)" fill="#000000" font-family="CanelaText" font-size="9px"><tspan x="0 6.849 10.233 14.814 19.548 22.77 27.396 29.528999 34.856998 39.393002 46.305 48.438 52.487999 57.077999 61.703999 67.031998 71.856003 75.330002 77.652" y="0">Create new scenario</tspan></text></g><g transform="matrix(1 0 0 -1 597.28 505.28)"><path d="m0 0h413.52v96.259h-413.52z" fill="none" stroke="#000" stroke-dasharray="6, 6"/></g><g transform="translate(605.32 489.11)"><text transform="scale(1,-1)" fill="#000000" font-family="CanelaText" font-size="10px" font-weight="bold"><tspan x="0 10.12 16.42 21.059999 26.879999 32.279999 36.919998 39.32 43.419998 49.889999 54.43 59.779999 65.43" y="0">Worker thread</tspan></text></g><g transform="matrix(1 0 0 -1 600.82 505.01)"><path d="m4.5 17.317h71.94" fill="none" stroke="#000" stroke-miterlimit="10" stroke-width=".4"/></g><g transform="matrix(1 0 0 -1 805.27 583.06)"><path d="m0 0h103.7" fill="none" stroke="#e22146"/></g><path d="m908.47 580.06 6 3-6 3z" fill="#e22146"/><g transform="translate(815.19 592.16)"><text transform="scale(1,-1)" fill="#000000" font-family="'Helvetica Neue'" font-size="8px"><tspan x="0 6.9679999 11.264 15.712 17.936001 20.16 24.16 28.455999 33.048 35.271999 39.720001 44.464001 48.911999 53.208 57.208 61.504002 63.728001 65.952003 70.248001 74.695999 76.624001 78.848 81.071999 85.071999 89.367996 93.959999 96.183998" y="0">Man. seg, phase, cur. seg. </tspan></text></g><g transform="translate(916.24 412.1)"><text transform="scale(1,-1)" fill="#000000" font-family="CanelaText" font-size="10px"><tspan x="0" y="0">…</tspan></text></g><g transform="matrix(.79821 -.60238 -.60238 -.79821 805.44 562.08)"><path d="m0 0h129.13" fill="none" stroke="#45b53c"/></g><path d="m906.31 482.2 6.5963-1.2196-2.9821 6.0089z" fill="#45b53c"/><g transform="matrix(1 0 0 -1 1061 674.4)"><path d="m0 0h212.25v268.14h-212.25z" fill="none" stroke="#000"/></g></g><g clip-path="url(#clipPath26888)"><g transform="translate(1068.7 544.49)"><text transform="scale(1,-1)" fill="#000000" font-family="'Helvetica Neue'" font-size="17px"><tspan x="0 9.4519997 18.580999 28.033001 37.161999 50.064999 59.516998 63.291 73.372002 82.500999 91.953003 101.082 110.211 122.485 132.243 137.59801" y="0">LaneGuidanceNoti</tspan></text></g><g transform="translate(1068.7 544.49)"><text transform="matrix(1 0 0 -1 141.37 0)" fill="#000000" font-family="'Helvetica Neue'" font-size="17px"><tspan x="0" y="0">f</tspan></text></g><g transform="translate(1068.7 544.49)"><text transform="matrix(1 0 0 -1 150.18 0)" fill="#000000" font-family="'Helvetica Neue'" font-size="17px"><tspan x="0 9.1289997 18.257999 23.613001 27.386999 37.145" y="0">cation</tspan></text></g><g transform="translate(1133.6 524.49)"><text transform="scale(1,-1)" fill="#000000" font-family="'Helvetica Neue'" font-size="17px"><tspan x="0 14.807 23.936001 33.388 42.516998 52.275002 61.403999" y="0">Manager</tspan></text></g></g><g clip-path="url(#clipPath26920)"><g transform="matrix(1 0 0 -1 1002.3 583.63)"><path d="m0 0h53.206" fill="none" stroke="#e22146"/></g><path d="m1055 580.63 6 3-6 3z" fill="#e22146"/><g transform="translate(1017.3 586.99)"><text transform="scale(1,-1)" fill="#000000" font-family="'Helvetica Neue'" font-size="8px"><tspan x="0 5.184 9.4799995 13.776 18.224001 22.52 25.184 26.959999" y="0">Scenario</tspan></text></g><g transform="matrix(-1 0 0 1 901.91 462.62)"><path d="m0 0h90.9" fill="none" stroke="#ffbd16"/></g><path d="m811.51 465.62-6-3 6-3z" fill="#ffbd16"/><g transform="translate(824.12 485.77)" fill="#000000" font-family="'Helvetica Neue'" font-size="8px"><text transform="scale(1,-1)"><tspan x="0 5.184 9.4799995 13.776 18.224001 22.52 25.184 26.959999 31.552 36.352001 40.352001 44.647999 47.312 51.312 53.088001 57.68" y="0">Scenario+version</tspan></text><text transform="matrix(1,0,0,-1,62.128,0)"><tspan x="0" y="0"/></text></g><g transform="translate(817.03 475.77)" fill="#000000" font-family="'Helvetica Neue'" font-size="8px"><text transform="matrix(1,0,0,-1,2.224,0)"><tspan x="0 4 8.2959995 12.592 17.040001 21.336 24 25.775999 30.368 32.591999 34.368 38.816002 42.816002 45.335999 48 52.448002 56.743999 59.264 61.040001 65.632004 70.080002" y="0">scenario instructions</tspan></text><text transform="matrix(1,0,0,-1,76.304,0)"><tspan x="0" y="0"/></text></g><g transform="matrix(1 0 0 -1 805.26 427.63)"><path d="m0 0h251.12" fill="none" stroke="#ffbd16"/></g><path d="m1055.9 424.63 6 3-6 3z" fill="#ffbd16"/><g transform="translate(1016.7 430.86)"><text transform="scale(1,-1)" fill="#000000" font-family="'Helvetica Neue'" font-size="8px"><tspan x="0 5.184 9.4799995 13.776 18.224001 22.52 25.184 26.959999" y="0">Scenario</tspan></text></g><g transform="translate(840.88 571.19)"><text transform="scale(1,-1)" fill="#000000" font-family="'Helvetica Neue'" font-size="8px"><tspan x="0 4.8000002 7.0240002 11.024 15.32 17.983999 21.983999 23.76 28.351999" y="0">+ version</tspan></text></g><g><path d="m609.96 562.91c-3.7369 0-6.7757-3.0367-6.7757-6.7736v-5.5952c-1.3565-1.5735-2.1767-3.6157-2.1767-5.8538 0-4.9442 4.0082-8.9524 8.9524-8.9524 4.9441 0 8.9523 4.0082 8.9523 8.9524 0 2.2381-0.8202 4.2803-2.1766 5.8538v5.5952c0 3.7369-3.0388 6.7736-6.7757 6.7736zm0-3.3974c1.8651 0 3.3847-1.5196 3.3847-3.3847v-3.1537c-1.0445 0.4273-2.1843 0.6655-3.3847 0.6655s-2.3403-0.2382-3.3847-0.6655v3.1537c0 1.8651 1.5196 3.3847 3.3847 3.3847zm0-10.078c2.6247 0 4.7474-2.1228 4.7475-4.7474 0-2.6247-2.1228-4.7475-4.7475-4.7475s-4.7475 2.1228-4.7475 4.7475c0 2.6246 2.1228 4.7474 4.7475 4.7474zm0-0.7863c-1.0137 0-2.0264-0.388-2.7997-1.1614-1.5468-1.5468-1.5468-4.0527 0-5.5995 1.5467-1.5467 4.0527-1.5467 5.5994 0 1.5468 1.5468 1.5468 4.0527 0 5.5995-0.7734 0.7734-1.7861 1.1614-2.7997 1.1614z" fill="#e22146"/><path d="m609.96 633.16c-3.737 0-6.7758-3.0367-6.7758-6.7736v-5.5952c-1.3564-1.5735-2.1766-3.6157-2.1766-5.8538 0-4.9442 4.0082-8.9524 8.9524-8.9524 4.9441 0 8.9523 4.0082 8.9523 8.9524 0 2.2381-0.8202 4.2803-2.1766 5.8538v5.5952c0 3.7369-3.0388 6.7736-6.7757 6.7736zm0-3.3974c1.865 0 3.3847-1.5196 3.3847-3.3847v-3.1537c-1.0445 0.4273-2.1843 0.6655-3.3847 0.6655-1.2005 0-2.3403-0.2382-3.3847-0.6655v3.1537c0 1.8651 1.5196 3.3847 3.3847 3.3847zm0-10.078c2.6246 0 4.7474-2.1228 4.7474-4.7474 0-2.6247-2.1228-4.7475-4.7474-4.7475-2.6247 0-4.7475 2.1228-4.7475 4.7475 0 2.6246 2.1228 4.7474 4.7475 4.7474zm0-0.7863c-1.0137 0-2.0264-0.388-2.7998-1.1614-1.5467-1.5468-1.5467-4.0527 0-5.5995 1.5468-1.5467 4.0527-1.5467 5.5995 0 1.5468 1.5468 1.5468 4.0527 0 5.5995-0.7734 0.7734-1.7861 1.1614-2.7997 1.1614z" fill="#45b43b"/><path d="m892.53 460.45c-3.737 0-6.7758-3.0367-6.7758-6.7736v-5.5952c-1.3564-1.5735-2.1766-3.6157-2.1766-5.8538 0-4.9442 4.0082-8.9524 8.9524-8.9524 4.9441 0 8.9523 4.0082 8.9523 8.9524 0 2.2381-0.8202 4.2803-2.1766 5.8538v5.5952c0 3.7369-3.0388 6.7736-6.7757 6.7736zm0-3.3974c1.8651 0 3.3847-1.5196 3.3847-3.3847v-3.1537c-1.0445 0.4273-2.1843 0.6655-3.3847 0.6655-1.2005 0-2.3403-0.2382-3.3847-0.6655v3.1537c0 1.8651 1.5196 3.3847 3.3847 3.3847zm0-10.078c2.6246 0 4.7474-2.1228 4.7474-4.7474 0-2.6247-2.1228-4.7475-4.7474-4.7475-2.6247 0-4.7475 2.1228-4.7475 4.7475 0 2.6246 2.1228 4.7474 4.7475 4.7474zm0-0.7863c-1.0137 0-2.0264-0.388-2.7998-1.1614-1.5467-1.5468-1.5467-4.0527 0-5.5995 1.5468-1.5467 4.0527-1.5467 5.5995 0 1.5468 1.5468 1.5468 4.0527 0 5.5995-0.7734 0.7734-1.7861 1.1614-2.7997 1.1614z" fill="#ffbd16"/></g><g transform="translate(620.59 557.1)"><text transform="scale(1,-1)" fill="#e22146" font-family="'Helvetica Neue'" font-size="8px"><tspan x="0 6.8239999 11.272 13.792 18.087999 22.232 24.455999 28.752001 33.048 37.792 42.240002 44.015999 46.535999" y="0">mutex acquire</tspan></text></g><g transform="translate(622.56 624)"><text transform="scale(1,-1)" fill="#45b53c" font-family="'Helvetica Neue'" font-size="8px"><tspan x="0 6.8239999 11.272 13.792 18.087999 22.232 24.455999 28.752001 33.048 37.792 42.240002 44.015999 46.535999" y="0">mutex acquire</tspan></text></g><g transform="translate(904.56 444)"><text transform="scale(1,-1)" fill="#ffbd16" font-family="'Helvetica Neue'" font-size="8px"><tspan x="0 6.8239999 11.272 13.792 18.087999 22.232 24.455999 28.752001 33.048 37.792 42.240002 44.015999 46.535999" y="0">mutex acquire</tspan></text></g><g transform="translate(917.83 472.42)"><text transform="scale(1,-1)" fill="#000000" font-family="CanelaText" font-size="9px"><tspan x="0 6.8400002 11.511 14.733 19.403999 23.903999 27.306 29.628 35.199001" y="0">Detection</tspan></text></g><path d="m768.91 579.76c-3.7369 0-6.7757-3.0367-6.7757-6.7736v-5.5952c-1.3564-1.5735-2.1766-3.6157-2.1767-5.8538 0-4.9441 4.0083-8.9524 8.9524-8.9524 4.9442 0 8.9524 4.0083 8.9524 8.9524 0 2.2381-0.8202 4.2803-2.1767 5.8538v5.5952c0 3.737-3.0388 6.7736-6.7757 6.7736zm0-3.3974c1.8651 0 3.3847-1.5196 3.3847-3.3847v-3.1536c-1.0444 0.4272-2.1843 0.6655-3.3847 0.6655s-2.3402-0.2383-3.3847-0.6655v3.1536c0 1.8651 1.5196 3.3847 3.3847 3.3847zm0-10.078c2.6247 0 4.7475-2.1228 4.7475-4.7475s-2.1228-4.7475-4.7475-4.7475-4.7474 2.1228-4.7475 4.7475c0 2.6247 2.1228 4.7475 4.7475 4.7475zm0-0.7863c-1.0136 0-2.0263-0.3881-2.7997-1.1615-1.5468-1.5467-1.5468-4.0527 0-5.5994 1.5467-1.5468 4.0527-1.5468 5.5994 0 1.5468 1.5467 1.5468 4.0527 0 5.5994-0.7733 0.7734-1.786 1.1615-2.7997 1.1615z"/><g transform="translate(757.77 544.55)"><text transform="scale(1,-1)" fill="#000000" font-family="'Helvetica Neue'" font-size="8px"><tspan x="0 6.8239999 11.272 13.792 18.087999" y="0">mutex</tspan></text></g></g></g></g></svg>
