<svg width="971" height="378" viewBox="0 0 971 378" fill="none" xmlns="http://www.w3.org/2000/svg">
<rect x="240.167" y="80.1061" width="449.688" height="296.211" rx="11.8945" fill="#0060FF" stroke="#0060FF" stroke-width="2.30216"/>
<rect x="569.501" y="104.12" width="95.0307" height="30.6954" rx="4.98801" fill="white" stroke="#0060FF" stroke-width="2.30216"/>
<path d="M585.483 124.573H592.313V122.946H587.263V119.969H591.683V118.357H587.263V115.441H592.251V113.83H585.483V124.573ZM600.821 113.83L598.611 117.713L596.447 113.83H594.405L597.552 119.079L594.252 124.573H596.247L598.58 120.46L600.913 124.573H602.954L599.639 119.079L602.801 113.83H600.821ZM605.41 124.573H607.205V113.83H605.41V124.573ZM612.536 124.573H614.316V115.487H617.155V113.83H609.712V115.487H612.536V124.573ZM625.034 124.573H626.783V113.753H625.54L623.054 114.566L623.345 116.132L625.034 115.61V124.573ZM630.2 124.573H632.134L636.262 115.165V113.83H629.648V115.457H634.329L630.2 124.573ZM641.271 124.634H642.882L645.062 117.053L647.256 124.634H648.883L652.014 113.83H650.157L648.07 121.626L645.86 113.799H644.325L642.13 121.626L640.028 113.83H638.14L641.271 124.634Z" fill="#0060FF"/>
<path d="M285.515 262.227C281.92 262.227 279.236 261.012 277.21 258.986C274.628 256.404 273.109 252.555 273.109 245.263V244.908C273.109 232.957 278.071 225.564 286.832 225.564C290.529 225.564 293.213 226.779 295.897 228.856L293.01 233.514C291.238 232.046 289.263 230.982 286.68 230.982C281.616 230.982 279.236 236.249 279.084 242.225C280.907 240.25 283.287 238.984 286.528 238.984C292.301 238.984 297.314 242.782 297.314 250.023V250.124C297.314 257.265 292.149 262.227 285.515 262.227ZM285.414 257.011C289.263 257.011 291.491 254.277 291.491 250.428V250.327C291.491 246.478 289.161 243.946 285.363 243.946C281.667 243.946 279.236 246.529 279.236 250.327V250.378C279.236 254.277 281.565 257.011 285.414 257.011ZM316.031 262.227C307.827 262.227 302.662 254.935 302.662 244.199V243.642C302.662 232.907 307.929 225.564 316.132 225.564C324.184 225.564 329.501 232.856 329.501 243.592V244.149C329.501 254.885 324.184 262.227 316.031 262.227ZM316.132 256.859C320.589 256.859 323.475 252.049 323.475 244.149V243.744C323.475 235.844 320.487 230.932 316.031 230.932C311.575 230.932 308.688 235.743 308.688 243.642V244.048C308.688 251.947 311.625 256.859 316.132 256.859ZM348.205 262.227C340.002 262.227 334.836 254.935 334.836 244.199V243.642C334.836 232.907 340.103 225.564 348.307 225.564C356.358 225.564 361.676 232.856 361.676 243.592V244.149C361.676 254.885 356.358 262.227 348.205 262.227ZM348.307 256.859C352.763 256.859 355.65 252.049 355.65 244.149V243.744C355.65 235.844 352.662 230.932 348.205 230.932C343.749 230.932 340.863 235.743 340.863 243.642V244.048C340.863 251.947 343.8 256.859 348.307 256.859ZM375.744 261.62V242.2H379.885V245.022C381.021 243.3 382.523 241.834 385.088 241.834C387.469 241.834 389.191 243.043 390.107 244.948C391.426 243.19 393.148 241.834 395.787 241.834C399.414 241.834 401.722 244.179 401.722 248.576V261.62H397.619V249.822C397.619 247.037 396.373 245.571 394.321 245.571C392.269 245.571 390.803 247.074 390.803 249.858V261.62H386.663V249.785C386.663 247 385.454 245.571 383.402 245.571C381.314 245.571 379.885 247.22 379.885 249.858V261.62H375.744Z" fill="white"/>
<path d="M437.917 191.509L437.917 154.774C437.917 145.401 443.16 136.815 451.499 132.534L483.688 116.008" stroke="white" stroke-width="8" stroke-linecap="round"/>
<path d="M468.187 109.954L487.688 112.008L481.932 130.837" stroke="white" stroke-width="8" stroke-linecap="round" stroke-linejoin="round"/>
<path d="M495.917 191.509L495.917 154.774C495.917 145.401 501.16 136.815 509.499 132.534L541.688 116.008" stroke="white" stroke-width="8" stroke-linecap="round"/>
<path d="M526.187 109.954L545.688 112.008L539.932 130.837" stroke="white" stroke-width="8" stroke-linecap="round" stroke-linejoin="round"/>
<path d="M337.831 191.51L337.831 115.01" stroke="#4C8FFF" stroke-width="8" stroke-linecap="round"/>
<path d="M325.541 123.808L337.978 108.649L350.541 123.808" stroke="#4C8FFF" stroke-width="8" stroke-linecap="round" stroke-linejoin="round"/>
<path d="M388.831 191.51L388.831 115.01" stroke="#4C8FFF" stroke-width="8" stroke-linecap="round"/>
<path d="M376.541 123.808L388.978 108.649L401.541 123.808" stroke="#4C8FFF" stroke-width="8" stroke-linecap="round" stroke-linejoin="round"/>
<path d="M285.831 191.51L285.831 115.01" stroke="#4C8FFF" stroke-width="8" stroke-linecap="round"/>
<path d="M273.541 123.808L285.978 108.649L298.541 123.808" stroke="#4C8FFF" stroke-width="8" stroke-linecap="round" stroke-linejoin="round"/>
<path opacity="0.75" d="M278.795 302.62V287.579H284.167C285.821 287.579 287.175 288.03 288.013 288.868C288.679 289.534 289.023 290.394 289.023 291.404V291.468C289.023 293.316 287.948 294.261 286.809 294.841C288.464 295.422 289.667 296.431 289.667 298.43V298.516C289.667 301.159 287.519 302.62 284.317 302.62H278.795ZM286.552 291.855V291.812C286.552 290.523 285.628 289.792 283.995 289.792H281.223V293.96H283.844C285.477 293.96 286.552 293.251 286.552 291.855ZM287.196 298.258V298.215C287.196 296.904 286.186 296.109 284.274 296.109H281.223V300.407H284.381C286.1 300.407 287.196 299.633 287.196 298.258ZM292.287 302.62V287.106H294.715V296.238L298.604 291.232H301.483L297.702 295.873L301.591 302.62H298.798L296.026 297.742L294.715 299.354V302.62H292.287ZM303.71 302.62V287.106H306.16V302.62H303.71ZM313.74 299.526L316.233 291.232H318.725L314.857 302.792C314.084 305.091 313.139 305.929 311.484 305.929C310.689 305.929 309.916 305.735 309.206 305.327L309.894 303.458C310.302 303.715 310.753 303.844 311.226 303.844C311.849 303.844 312.236 303.565 312.601 302.641L308.519 291.232H311.097L313.74 299.526ZM321.01 302.62V291.232H323.438V292.886C324.104 291.876 325.007 291.017 326.554 291.017C328.767 291.017 330.056 292.521 330.056 294.992V302.62H327.606V295.701C327.606 294.068 326.876 293.208 325.587 293.208C324.319 293.208 323.438 294.154 323.438 295.722V302.62H321.01ZM332.802 297.248V294.841H338.797V297.248H332.802ZM354.928 301.373L353.402 303.049L351.834 301.588C350.738 302.426 349.449 302.878 347.988 302.878C344.034 302.878 341.327 299.697 341.327 295.228V295.013C341.327 290.523 344.099 287.321 348.009 287.321C351.941 287.321 354.649 290.501 354.649 294.97V295.185C354.649 297.055 354.154 298.666 353.316 299.955L354.928 301.373ZM348.052 300.578C348.804 300.578 349.492 300.385 350.115 299.977L347.859 297.979L349.384 296.303L351.49 298.279C351.855 297.441 352.07 296.431 352.07 295.207V295.013C352.07 291.812 350.351 289.642 347.988 289.642C345.603 289.642 343.905 291.726 343.905 294.992V295.185C343.905 298.516 345.646 300.578 348.052 300.578ZM357.518 302.62V291.232H359.946V292.886C360.612 291.876 361.514 291.017 363.061 291.017C365.275 291.017 366.564 292.521 366.564 294.992V302.62H364.114V295.701C364.114 294.068 363.384 293.208 362.095 293.208C360.827 293.208 359.946 294.154 359.946 295.722V302.62H357.518ZM372.877 302.835C371.502 302.835 369.954 302.34 368.665 301.245L369.783 299.504C370.814 300.342 371.91 300.836 372.941 300.836C373.951 300.836 374.51 300.299 374.51 299.59V299.547C374.51 298.752 373.629 298.387 372.254 297.807C370.578 297.055 369.159 296.303 369.159 294.433V294.39C369.159 292.327 370.792 291.06 372.92 291.06C374.209 291.06 375.52 291.511 376.615 292.285L375.584 294.068C374.725 293.488 373.758 293.058 372.877 293.058C371.953 293.058 371.437 293.552 371.437 294.175V294.218C371.437 294.97 372.318 295.357 373.672 295.959C375.434 296.754 376.766 297.57 376.766 299.354V299.397C376.766 301.61 375.047 302.835 372.877 302.835ZM384.883 302.62V287.579H394.359V289.835H387.375V293.918H393.564V296.174H387.375V300.342H394.445V302.62H384.883ZM399.112 291.232L401.325 295.056L403.517 291.232H406.074L402.657 296.797L406.224 302.62H403.603L401.282 298.559L398.94 302.62H396.362L399.928 296.818L396.512 291.232H399.112ZM408.495 305.864V291.232H410.923V293.058C411.632 291.941 412.664 291.017 414.254 291.017C416.531 291.017 418.68 292.908 418.68 296.775V297.055C418.68 300.922 416.574 302.835 414.254 302.835C412.599 302.835 411.632 301.889 410.923 300.901V305.864H408.495ZM413.587 300.686C415.07 300.686 416.23 299.332 416.23 297.033V296.84C416.23 294.562 415.049 293.165 413.587 293.165C412.126 293.165 410.88 294.584 410.88 296.818V297.033C410.88 299.268 412.126 300.686 413.587 300.686ZM423.371 302.706L420.191 291.232H422.684L424.617 298.902L426.702 291.21H428.786L430.891 298.924L432.847 291.232H435.296L432.095 302.706H429.86L427.733 295.099L425.584 302.706H423.371ZM441.678 299.526L444.17 291.232H446.663L442.795 302.792C442.022 305.091 441.076 305.929 439.422 305.929C438.627 305.929 437.853 305.735 437.144 305.327L437.832 303.458C438.24 303.715 438.691 303.844 439.164 303.844C439.787 303.844 440.174 303.565 440.539 302.641L436.457 291.232H439.035L441.678 299.526Z" fill="white"/>
<path opacity="0.75" d="M281.622 343.182C284.437 343.182 286.5 341.485 286.5 338.842V338.799C286.5 336.607 285.21 335.447 282.417 334.373C279.86 333.406 279.301 332.804 279.301 331.773V331.751C279.301 330.741 280.118 330.011 281.493 330.011C282.696 330.011 283.835 330.591 284.867 331.451L286.285 329.538C284.909 328.313 283.341 327.755 281.558 327.755C278.743 327.755 276.809 329.495 276.809 331.966V332.009C276.809 334.416 278.27 335.447 281.128 336.543C283.513 337.402 284.029 338.047 284.029 338.992V339.014C284.029 340.11 283.105 340.926 281.644 340.926C280.032 340.926 278.807 340.153 277.69 339.143L276.186 341.012C277.819 342.559 279.667 343.182 281.622 343.182ZM292.511 343.161C293.349 343.161 293.951 342.989 294.531 342.667V340.69C294.101 340.883 293.671 340.991 293.22 340.991C292.447 340.991 292.017 340.625 292.017 339.744V333.685H294.552V331.601H292.017V328.528H289.567V331.601H288.343V333.685H289.567V340.217C289.567 342.452 290.857 343.161 292.511 343.161ZM299.994 343.204C301.477 343.204 302.487 342.538 303.153 341.592V342.989H305.538V335.92C305.538 334.48 305.151 333.363 304.399 332.611C303.647 331.859 302.53 331.472 301.047 331.472C299.5 331.472 298.383 331.837 297.287 332.374L297.996 334.308C298.748 333.964 299.629 333.621 300.725 333.621C302.272 333.621 303.175 334.394 303.175 335.941V336.435C302.401 336.156 301.627 335.963 300.575 335.963C298.168 335.963 296.492 337.166 296.492 339.594V339.723C296.492 341.936 298.104 343.204 299.994 343.204ZM300.725 341.377C299.629 341.356 298.877 340.711 298.877 339.594V339.53C298.877 338.326 299.694 337.617 301.09 337.617C301.928 337.617 302.616 337.768 303.196 338.004V339.164C303.196 340.453 302.122 341.377 300.725 341.377ZM311.849 343.161C312.687 343.161 313.288 342.989 313.868 342.667V340.69C313.439 340.883 313.009 340.991 312.558 340.991C311.784 340.991 311.354 340.625 311.354 339.744V333.685H313.89V331.601H311.354V328.528H308.905V331.601H307.68V333.685H308.905V340.217C308.905 342.452 310.194 343.161 311.849 343.161ZM320.886 343.247C322.605 343.247 323.851 342.559 324.883 341.463L323.615 339.959C322.863 340.711 322.089 341.163 320.994 341.163C319.511 341.163 318.351 340.131 318.114 338.219H325.248C325.269 337.875 325.269 337.531 325.269 337.381C325.269 333.943 323.636 331.386 320.542 331.386C317.728 331.386 315.686 333.836 315.686 337.252V337.402C315.686 340.991 317.964 343.247 320.886 343.247ZM318.093 336.543C318.265 334.588 319.189 333.427 320.542 333.427C321.982 333.427 322.777 334.716 322.884 336.543H318.093ZM327.875 342.989H330.303V336.092C330.303 334.523 331.184 333.578 332.451 333.578C333.741 333.578 334.471 334.437 334.471 336.07V342.989H336.921V335.361C336.921 332.89 335.631 331.386 333.418 331.386C331.871 331.386 330.969 332.246 330.303 333.255V331.601H327.875V342.989ZM345.647 342.989H348.161V327.948H345.647V342.989ZM354.954 343.204C357.124 343.204 358.843 341.979 358.843 339.766V339.723C358.843 337.94 357.511 337.123 355.749 336.328C354.395 335.726 353.514 335.34 353.514 334.588V334.545C353.514 333.921 354.03 333.427 354.954 333.427C355.835 333.427 356.802 333.857 357.661 334.437L358.693 332.654C357.597 331.88 356.286 331.429 354.997 331.429C352.87 331.429 351.237 332.697 351.237 334.759V334.802C351.237 336.672 352.655 337.424 354.331 338.176C355.706 338.756 356.587 339.121 356.587 339.916V339.959C356.587 340.668 356.028 341.206 355.019 341.206C353.987 341.206 352.891 340.711 351.86 339.873L350.743 341.614C352.032 342.71 353.579 343.204 354.954 343.204ZM361.474 342.989H363.924V327.475H361.474V342.989ZM370.021 343.204C371.504 343.204 372.514 342.538 373.18 341.592V342.989H375.565V335.92C375.565 334.48 375.178 333.363 374.426 332.611C373.674 331.859 372.557 331.472 371.074 331.472C369.527 331.472 368.41 331.837 367.314 332.374L368.023 334.308C368.775 333.964 369.656 333.621 370.752 333.621C372.299 333.621 373.202 334.394 373.202 335.941V336.435C372.428 336.156 371.654 335.963 370.602 335.963C368.195 335.963 366.519 337.166 366.519 339.594V339.723C366.519 341.936 368.131 343.204 370.021 343.204ZM370.752 341.377C369.656 341.356 368.904 340.711 368.904 339.594V339.53C368.904 338.326 369.721 337.617 371.117 337.617C371.955 337.617 372.643 337.768 373.223 338.004V339.164C373.223 340.453 372.149 341.377 370.752 341.377ZM378.564 342.989H380.992V336.092C380.992 334.523 381.873 333.578 383.141 333.578C384.43 333.578 385.161 334.437 385.161 336.07V342.989H387.61V335.361C387.61 332.89 386.321 331.386 384.108 331.386C382.561 331.386 381.658 332.246 380.992 333.255V331.601H378.564V342.989ZM394.568 343.204C396.201 343.204 397.21 342.258 397.898 341.163V342.989H400.347V327.475H397.898V333.341C397.232 332.331 396.222 331.386 394.568 331.386C392.268 331.386 390.163 333.32 390.163 337.145V337.445C390.163 341.313 392.268 343.204 394.568 343.204ZM395.234 341.055C393.773 341.055 392.612 339.658 392.612 337.381V337.187C392.612 334.888 393.751 333.535 395.234 333.535C396.716 333.535 397.962 334.953 397.962 337.187V337.402C397.962 339.637 396.716 341.055 395.234 341.055ZM406.771 343.204C408.941 343.204 410.66 341.979 410.66 339.766V339.723C410.66 337.94 409.328 337.123 407.566 336.328C406.212 335.726 405.331 335.34 405.331 334.588V334.545C405.331 333.921 405.847 333.427 406.771 333.427C407.652 333.427 408.619 333.857 409.478 334.437L410.509 332.654C409.414 331.88 408.103 331.429 406.814 331.429C404.686 331.429 403.053 332.697 403.053 334.759V334.802C403.053 336.672 404.472 337.424 406.148 338.176C407.523 338.756 408.404 339.121 408.404 339.916V339.959C408.404 340.668 407.845 341.206 406.835 341.206C405.804 341.206 404.708 340.711 403.677 339.873L402.559 341.614C403.848 342.71 405.395 343.204 406.771 343.204Z" fill="white"/>
<path opacity="0.75" d="M524.953 338.991H534.515V336.714H527.446V332.545H533.634V330.289H527.446V326.207H534.429V323.951H524.953V338.991ZM540.128 339.206C541.61 339.206 542.62 338.54 543.286 337.595V338.991H545.671V331.922C545.671 330.483 545.284 329.365 544.532 328.613C543.78 327.861 542.663 327.474 541.181 327.474C539.633 327.474 538.516 327.84 537.42 328.377L538.129 330.311C538.881 329.967 539.762 329.623 540.858 329.623C542.405 329.623 543.308 330.397 543.308 331.944V332.438C542.534 332.159 541.761 331.965 540.708 331.965C538.301 331.965 536.625 333.168 536.625 335.596V335.725C536.625 337.938 538.237 339.206 540.128 339.206ZM540.858 337.38C539.762 337.358 539.01 336.714 539.01 335.596V335.532C539.01 334.329 539.827 333.62 541.223 333.62C542.061 333.62 542.749 333.77 543.329 334.006V335.167C543.329 336.456 542.255 337.38 540.858 337.38ZM551.958 339.206C554.128 339.206 555.847 337.981 555.847 335.768V335.725C555.847 333.942 554.515 333.125 552.753 332.33C551.399 331.729 550.518 331.342 550.518 330.59V330.547C550.518 329.924 551.034 329.43 551.958 329.43C552.839 329.43 553.806 329.859 554.665 330.44L555.696 328.656C554.601 327.883 553.29 327.431 552.001 327.431C549.874 327.431 548.241 328.699 548.241 330.762V330.805C548.241 332.674 549.659 333.426 551.335 334.178C552.71 334.758 553.591 335.124 553.591 335.919V335.962C553.591 336.671 553.032 337.208 552.022 337.208C550.991 337.208 549.895 336.714 548.864 335.876L547.746 337.616C549.036 338.712 550.583 339.206 551.958 339.206ZM561.598 339.163C562.436 339.163 563.038 338.991 563.618 338.669V336.692C563.188 336.886 562.758 336.993 562.307 336.993C561.534 336.993 561.104 336.628 561.104 335.747V329.688H563.639V327.603H561.104V324.531H558.654V327.603H557.43V329.688H558.654V336.22C558.654 338.454 559.944 339.163 561.598 339.163Z" fill="white"/>
<path fill-rule="evenodd" clip-rule="evenodd" d="M462.285 321.308C460.579 323.725 459.627 326.417 459.627 329.256C459.627 343.782 478.264 352.552 488.404 352.552C498.545 352.552 517.181 343.782 517.181 329.256C517.181 326.417 516.229 323.725 514.524 321.308H462.285Z" fill="white"/>
<path d="M470.316 310.62L464.286 318.294H513.618L508.685 310.62H470.316Z" fill="white" fill-opacity="0.48"/>
<path d="M474.336 342.049V340.061L475.64 338.543C476.053 338.058 476.495 337.538 476.965 336.983C477.435 336.412 477.863 335.828 478.248 335.23C478.647 334.631 478.974 334.032 479.231 333.434C479.487 332.821 479.616 332.244 479.616 331.702C479.616 331.018 479.438 330.491 479.081 330.12C478.725 329.75 478.219 329.565 477.563 329.565C477.079 329.565 476.623 329.65 476.195 329.821C475.768 329.978 475.319 330.177 474.849 330.42L474.72 328.368C475.091 328.211 475.561 328.04 476.131 327.854C476.701 327.669 477.435 327.577 478.333 327.577C478.96 327.577 479.516 327.676 480 327.876C480.485 328.075 480.891 328.346 481.219 328.688C481.547 329.03 481.796 329.443 481.967 329.928C482.138 330.398 482.224 330.911 482.224 331.467C482.224 332.194 482.081 332.914 481.796 333.626C481.525 334.339 481.198 335.002 480.813 335.614C480.442 336.227 480.057 336.776 479.658 337.26C479.259 337.731 478.939 338.094 478.696 338.351L477.136 340.061H482.352V342.049H474.336ZM485.822 342.049L490.311 329.778H484.817V327.79H492.812V329.885L488.558 342.049H485.822ZM497.993 339.355C498.121 339.64 498.299 339.883 498.527 340.082C498.755 340.267 499.047 340.36 499.404 340.36C499.76 340.36 500.059 340.267 500.301 340.082C500.544 339.897 500.736 339.662 500.879 339.377C501.021 339.092 501.121 338.785 501.178 338.458C501.249 338.116 501.285 337.802 501.285 337.517C501.285 337.218 501.256 336.918 501.199 336.619C501.142 336.306 501.043 336.028 500.9 335.785C500.758 335.529 500.565 335.322 500.323 335.165C500.095 334.994 499.803 334.909 499.446 334.909C499.104 334.909 498.819 334.994 498.591 335.165C498.363 335.336 498.178 335.55 498.035 335.807C497.907 336.063 497.807 336.348 497.736 336.662C497.679 336.961 497.651 337.246 497.651 337.517C497.651 337.802 497.672 338.108 497.715 338.436C497.772 338.764 497.864 339.07 497.993 339.355ZM503.038 330.142C502.653 329.957 502.275 329.814 501.905 329.714C501.534 329.615 501.142 329.565 500.729 329.565C500.073 329.565 499.539 329.721 499.126 330.035C498.712 330.348 498.385 330.748 498.142 331.232C497.914 331.717 497.75 332.251 497.651 332.835C497.551 333.42 497.487 333.983 497.458 334.524C497.729 334.068 498.085 333.698 498.527 333.413C498.983 333.127 499.482 332.985 500.024 332.985C500.679 332.985 501.242 333.113 501.712 333.37C502.197 333.612 502.589 333.947 502.888 334.374C503.187 334.788 503.408 335.265 503.551 335.807C503.693 336.348 503.765 336.904 503.765 337.474C503.765 338.173 503.658 338.814 503.444 339.398C503.244 339.982 502.959 340.488 502.589 340.916C502.218 341.343 501.762 341.678 501.221 341.921C500.693 342.163 500.102 342.284 499.446 342.284C498.52 342.284 497.772 342.077 497.202 341.664C496.632 341.251 496.19 340.724 495.876 340.082C495.563 339.427 495.349 338.707 495.235 337.923C495.135 337.125 495.085 336.355 495.085 335.614C495.085 334.774 495.164 333.883 495.321 332.942C495.477 331.987 495.748 331.118 496.133 330.334C496.532 329.536 497.074 328.881 497.758 328.368C498.442 327.84 499.318 327.577 500.387 327.577C500.872 327.577 501.342 327.619 501.798 327.705C502.254 327.79 502.71 327.911 503.166 328.068L503.038 330.142Z" fill="#0060FF"/>
<circle cx="417.678" cy="19.893" r="11.1271" fill="#E2A340"/>
<path d="M414.967 24.6029H420.406V23.3137H416.858L418.589 21.4474C419.829 20.2073 420.37 19.4952 420.37 18.3287V18.3042C420.37 16.8308 419.301 15.8854 417.791 15.8854C416.551 15.8854 415.716 16.4379 415.016 17.4324L415.949 18.2919C416.527 17.5552 416.981 17.1991 417.668 17.1991C418.393 17.1991 418.921 17.6411 418.921 18.427C418.921 19.1145 418.54 19.6425 417.595 20.6616L414.967 23.461V24.6029Z" fill="white"/>
<path d="M416.752 102.162C417.051 102.462 417.537 102.462 417.837 102.162L422.72 97.2787C423.02 96.979 423.02 96.4931 422.72 96.1934C422.421 95.8937 421.935 95.8937 421.635 96.1934L417.294 100.534L412.953 96.1934C412.654 95.8937 412.168 95.8937 411.868 96.1934C411.568 96.4931 411.568 96.979 411.868 97.2787L416.752 102.162ZM416.527 37.9266L416.527 101.62L418.062 101.62L418.062 37.9266L416.527 37.9266Z" fill="#C0C0C0"/>
<path opacity="0.75" d="M439.438 24.0369C438.111 24.0369 436.988 23.5849 435.895 22.5934L436.58 21.7623C437.455 22.5642 438.286 23.0308 439.453 23.0308C440.677 23.0308 441.508 22.3018 441.508 21.3249V21.2958C441.508 20.4647 441.086 19.9106 439.234 19.2545C437.12 18.4672 436.303 17.6944 436.303 16.2655V16.2364C436.303 14.7054 437.572 13.539 439.365 13.539C440.531 13.539 441.508 13.8889 442.427 14.6909L441.771 15.5511C441.013 14.8804 440.196 14.5451 439.321 14.5451C438.155 14.5451 437.397 15.2595 437.397 16.1343V16.1635C437.397 17.0529 437.849 17.5632 439.773 18.263C441.858 19.0358 442.587 19.8669 442.587 21.2229V21.252C442.587 22.885 441.261 24.0369 439.438 24.0369ZM444.821 14.7346V13.4953H446.002V14.7346H444.821ZM444.879 23.8911V16.2947H445.929V23.8911H444.879ZM448.564 23.8911V16.2947H449.614V17.5049C450.037 16.7758 450.649 16.1489 451.743 16.1489C452.749 16.1489 453.478 16.7029 453.842 17.534C454.309 16.7904 454.994 16.1489 456.175 16.1489C457.648 16.1489 458.595 17.1695 458.595 18.9337V23.8911H457.546V19.2108C457.546 17.8111 456.948 17.0966 455.898 17.0966C454.907 17.0966 454.105 17.8985 454.105 19.2545V23.8911H453.055V19.1962C453.055 17.8111 452.457 17.0966 451.407 17.0966C450.401 17.0966 449.614 17.986 449.614 19.2691V23.8911H448.564ZM461.036 26.0781V16.2947H462.086V17.7673C462.597 16.8925 463.355 16.1489 464.565 16.1489C466.096 16.1489 467.583 17.4903 467.583 20.0127V20.1585C467.583 22.6809 466.096 24.0514 464.565 24.0514C463.355 24.0514 462.553 23.2933 462.086 22.4768V26.0781H461.036ZM464.346 23.0891C465.556 23.0891 466.504 22.0248 466.504 20.1585V20.0418C466.504 18.2193 465.513 17.0966 464.346 17.0966C463.136 17.0966 462.043 18.2485 462.043 20.0273V20.1585C462.043 21.9519 463.136 23.0891 464.346 23.0891ZM469.837 23.8911V13.364H470.887V23.8911H469.837ZM476.482 24.0514C474.616 24.0514 473.114 22.5642 473.114 20.1585V20.071C473.114 17.7382 474.47 16.1489 476.263 16.1489C478.173 16.1489 479.296 17.7819 479.296 20.071V20.5084H474.178C474.295 22.1852 475.316 23.1183 476.526 23.1183C477.357 23.1183 477.969 22.7684 478.494 22.2435L479.092 22.9142C478.407 23.614 477.634 24.0514 476.482 24.0514ZM474.178 19.6919H478.232C478.159 18.2339 477.488 17.0675 476.249 17.0675C475.111 17.0675 474.295 18.1172 474.178 19.6919ZM485.271 23.8911V13.6848H486.379V22.885H491.089V23.8911H485.271ZM495.023 24.0514C493.74 24.0514 492.559 23.1912 492.559 21.6894V21.6311C492.559 20.0564 493.697 19.1816 495.373 19.1816C496.19 19.1816 496.758 19.3128 497.327 19.5024V19.0358C497.327 17.8111 496.627 17.1549 495.402 17.1549C494.63 17.1549 493.974 17.3882 493.449 17.6652L493.113 16.7904C493.828 16.4551 494.571 16.2072 495.505 16.2072C496.423 16.2072 497.138 16.4551 497.633 16.9508C498.114 17.4028 498.362 18.0881 498.362 19.0066V23.8911H497.327V22.7829C496.875 23.4828 496.131 24.0514 495.023 24.0514ZM495.242 23.1766C496.394 23.1766 497.342 22.3601 497.342 21.2666V20.2897C496.86 20.1293 496.248 19.9981 495.505 19.9981C494.28 19.9981 493.624 20.6105 493.624 21.5874V21.6457C493.624 22.5934 494.309 23.1766 495.242 23.1766ZM500.786 23.8911V16.2947H501.836V17.534C502.259 16.7758 502.929 16.1489 504.081 16.1489C505.641 16.1489 506.56 17.1987 506.56 18.9046V23.8911H505.51V19.2108C505.51 17.8548 504.869 17.0966 503.761 17.0966C502.652 17.0966 501.836 17.986 501.836 19.2691V23.8911H500.786ZM511.961 24.0514C510.095 24.0514 508.593 22.5642 508.593 20.1585V20.071C508.593 17.7382 509.949 16.1489 511.742 16.1489C513.652 16.1489 514.775 17.7819 514.775 20.071V20.5084H509.657C509.774 22.1852 510.794 23.1183 512.005 23.1183C512.836 23.1183 513.448 22.7684 513.973 22.2435L514.571 22.9142C513.886 23.614 513.113 24.0514 511.961 24.0514ZM509.657 19.6919H513.711C513.638 18.2339 512.967 17.0675 511.728 17.0675C510.59 17.0675 509.774 18.1172 509.657 19.6919ZM524.92 24.0369C522.15 24.0369 520.356 21.9227 520.356 18.8463V18.7442C520.356 15.7698 522.237 13.539 524.891 13.539C526.232 13.539 527.121 13.9181 527.996 14.6325L527.326 15.5074C526.699 14.9387 525.984 14.5596 524.876 14.5596C522.937 14.5596 521.493 16.3239 521.493 18.7296V18.8171C521.493 21.3832 522.879 23.0454 524.978 23.0454C525.853 23.0454 526.655 22.7246 527.18 22.3164V19.444H524.614V18.4526H528.244V22.8413C527.428 23.4828 526.305 24.0369 524.92 24.0369ZM533.089 24.0514C531.529 24.0514 530.611 22.9871 530.611 21.2812V16.2947H531.66V20.975C531.66 22.331 532.302 23.0891 533.41 23.0891C534.504 23.0891 535.32 22.2435 535.32 20.9167V16.2947H536.384V23.8911H535.32V22.6663C534.912 23.4099 534.241 24.0514 533.089 24.0514ZM538.957 14.7346V13.4953H540.138V14.7346H538.957ZM539.015 23.8911V16.2947H540.065V23.8911H539.015ZM545.339 24.0514C543.779 24.0514 542.306 22.71 542.306 20.1731V20.0273C542.306 17.5049 543.779 16.1489 545.339 16.1489C546.564 16.1489 547.293 16.8779 547.803 17.709V13.364H548.868V23.8911H547.803V22.433C547.293 23.2933 546.549 24.0514 545.339 24.0514ZM545.558 23.0891C546.753 23.0891 547.847 21.9519 547.847 20.1585V20.0127C547.847 18.2193 546.753 17.0966 545.558 17.0966C544.348 17.0966 543.4 18.161 543.4 20.0273V20.1439C543.4 22.0102 544.377 23.0891 545.558 23.0891ZM553.367 24.0514C552.084 24.0514 550.903 23.1912 550.903 21.6894V21.6311C550.903 20.0564 552.04 19.1816 553.717 19.1816C554.534 19.1816 555.102 19.3128 555.671 19.5024V19.0358C555.671 17.8111 554.971 17.1549 553.746 17.1549C552.974 17.1549 552.317 17.3882 551.793 17.6652L551.457 16.7904C552.172 16.4551 552.915 16.2072 553.848 16.2072C554.767 16.2072 555.481 16.4551 555.977 16.9508C556.458 17.4028 556.706 18.0881 556.706 19.0066V23.8911H555.671V22.7829C555.219 23.4828 554.475 24.0514 553.367 24.0514ZM553.586 23.1766C554.738 23.1766 555.685 22.3601 555.685 21.2666V20.2897C555.204 20.1293 554.592 19.9981 553.848 19.9981C552.624 19.9981 551.967 20.6105 551.967 21.5874V21.6457C551.967 22.5934 552.653 23.1766 553.586 23.1766ZM559.13 23.8911V16.2947H560.18V17.534C560.603 16.7758 561.273 16.1489 562.425 16.1489C563.985 16.1489 564.904 17.1987 564.904 18.9046V23.8911H563.854V19.2108C563.854 17.8548 563.213 17.0966 562.104 17.0966C560.996 17.0966 560.18 17.986 560.18 19.2691V23.8911H559.13ZM570.29 24.0514C568.38 24.0514 566.937 22.4622 566.937 20.1731V20.0564C566.937 17.7819 568.424 16.1489 570.319 16.1489C571.413 16.1489 572.113 16.6009 572.711 17.1841L572.098 17.9714C571.632 17.5194 571.107 17.1112 570.305 17.1112C569.036 17.1112 568.016 18.3068 568.016 20.071V20.1439C568.016 21.9519 569.065 23.0891 570.348 23.0891C571.092 23.0746 571.661 22.7246 572.127 22.2143L572.74 22.9142C572.171 23.5557 571.413 24.0514 570.29 24.0514ZM577.452 24.0514C575.585 24.0514 574.084 22.5642 574.084 20.1585V20.071C574.084 17.7382 575.44 16.1489 577.233 16.1489C579.143 16.1489 580.266 17.7819 580.266 20.071V20.5084H575.148C575.265 22.1852 576.285 23.1183 577.496 23.1183C578.327 23.1183 578.939 22.7684 579.464 22.2435L580.062 22.9142C579.376 23.614 578.604 24.0514 577.452 24.0514ZM575.148 19.6919H579.201C579.129 18.2339 578.458 17.0675 577.218 17.0675C576.081 17.0675 575.265 18.1172 575.148 19.6919Z" fill="#9C6003"/>
<circle cx="199.707" cy="292.961" r="11.1271" fill="#E2A340"/>
<path d="M199.599 297.818C201.232 297.818 202.411 296.713 202.411 295.104V295.068C202.411 293.557 201.318 292.87 200.115 292.673L202.3 290.193V289.076H197.278V290.365H200.52L198.433 292.845L198.617 293.742H199.046C200.262 293.742 200.999 294.22 200.999 295.117V295.141C200.999 295.976 200.385 296.504 199.587 296.504C198.752 296.504 198.212 296.148 197.733 295.62L196.849 296.627C197.487 297.327 198.371 297.818 199.599 297.818Z" fill="white"/>
<path d="M269.17 296.211C269.469 295.911 269.469 295.425 269.17 295.126L264.286 290.242C263.986 289.942 263.5 289.942 263.201 290.242C262.901 290.542 262.901 291.028 263.201 291.327L267.542 295.668L263.201 300.009C262.901 300.309 262.901 300.795 263.201 301.094C263.5 301.394 263.986 301.394 264.286 301.094L269.17 296.211ZM216.972 296.436H268.627V294.901H216.972V296.436Z" fill="#E2A340"/>
<path opacity="0.75" d="M64.3654 298.524V289.339H61.4931V288.318H68.3312V289.339H65.4589V298.524H64.3654ZM70.9055 298.685C69.6224 298.685 68.4414 297.824 68.4414 296.323V296.264C68.4414 294.69 69.5787 293.815 71.2554 293.815C72.0719 293.815 72.6406 293.946 73.2092 294.136V293.669C73.2092 292.444 72.5093 291.788 71.2846 291.788C70.5118 291.788 69.8557 292.022 69.3308 292.299L68.9955 291.424C69.7099 291.088 70.4535 290.841 71.3867 290.841C72.3052 290.841 73.0197 291.088 73.5154 291.584C73.9965 292.036 74.2444 292.721 74.2444 293.64V298.524H73.2092V297.416C72.7572 298.116 72.0136 298.685 70.9055 298.685ZM71.1242 297.81C72.2761 297.81 73.2238 296.993 73.2238 295.9V294.923C72.7426 294.763 72.1303 294.631 71.3867 294.631C70.1619 294.631 69.5058 295.244 69.5058 296.221V296.279C69.5058 297.227 70.1911 297.81 71.1242 297.81ZM76.6683 298.524V290.928H77.7181V292.605C78.1701 291.54 79.0887 290.768 80.328 290.826V291.963H80.2551C78.8554 291.963 77.7181 292.955 77.7181 294.908V298.524H76.6683ZM84.7072 300.741C83.7011 300.741 82.7388 300.464 81.8202 299.924L82.2431 299.064C82.9575 299.545 83.8178 299.822 84.6926 299.822C86.136 299.822 87.0108 299.064 87.0108 297.547V296.439C86.486 297.3 85.7132 297.999 84.503 297.999C82.9429 297.999 81.5141 296.716 81.5141 294.413V294.354C81.5141 292.08 82.9867 290.782 84.503 290.782C85.6986 290.782 86.5151 291.482 87.0108 292.284V290.928H88.0752V297.518C88.0752 298.568 87.769 299.312 87.2295 299.88C86.6318 300.449 85.8007 300.741 84.7072 300.741ZM84.7363 297.052C85.9319 297.052 87.0546 296.046 87.0546 294.413V294.369C87.0546 292.736 85.9319 291.73 84.7363 291.73C83.5553 291.73 82.593 292.707 82.593 294.369V294.398C82.593 296.046 83.5699 297.052 84.7363 297.052ZM93.5662 298.685C91.7 298.685 90.1982 297.198 90.1982 294.792V294.704C90.1982 292.371 91.5541 290.782 93.3475 290.782C95.2576 290.782 96.3802 292.415 96.3802 294.704V295.142H91.2625C91.3792 296.818 92.3998 297.752 93.61 297.752C94.4411 297.752 95.0534 297.402 95.5783 296.877L96.1761 297.547C95.4908 298.247 94.7181 298.685 93.5662 298.685ZM91.2625 294.325H95.3159C95.243 292.867 94.5723 291.701 93.3329 291.701C92.1957 291.701 91.3792 292.751 91.2625 294.325ZM100.668 298.641C99.5888 298.641 98.7723 298.116 98.7723 296.76V291.861H97.8537V290.928H98.7723V288.712H99.822V290.928H101.805V291.861H99.822V296.585C99.822 297.402 100.259 297.664 100.916 297.664C101.222 297.664 101.513 297.606 101.805 297.475V298.379C101.47 298.539 101.12 298.641 100.668 298.641ZM107.779 298.524V288.318H111.279C112.43 288.318 113.364 288.668 113.947 289.266C114.457 289.776 114.749 290.505 114.749 291.365V291.395C114.749 293.013 113.743 293.99 112.343 294.325L115.055 298.524H113.757L111.191 294.559H108.887V298.524H107.779ZM108.887 293.567H111.075C112.751 293.567 113.655 292.736 113.655 291.438V291.409C113.655 290.068 112.751 289.324 111.191 289.324H108.887V293.567ZM119.89 298.685C117.951 298.685 116.522 296.993 116.522 294.777V294.69C116.522 292.474 117.966 290.782 119.905 290.782C121.844 290.782 123.273 292.459 123.273 294.675V294.763C123.273 296.979 121.83 298.685 119.89 298.685ZM119.905 297.737C121.232 297.737 122.209 296.454 122.209 294.777V294.704C122.209 292.998 121.173 291.73 119.89 291.73C118.549 291.73 117.601 293.013 117.601 294.69V294.763C117.601 296.454 118.607 297.737 119.905 297.737ZM127.356 298.685C126.073 298.685 124.892 297.824 124.892 296.323V296.264C124.892 294.69 126.029 293.815 127.706 293.815C128.522 293.815 129.091 293.946 129.659 294.136V293.669C129.659 292.444 128.959 291.788 127.735 291.788C126.962 291.788 126.306 292.022 125.781 292.299L125.446 291.424C126.16 291.088 126.904 290.841 127.837 290.841C128.755 290.841 129.47 291.088 129.965 291.584C130.447 292.036 130.694 292.721 130.694 293.64V298.524H129.659V297.416C129.207 298.116 128.464 298.685 127.356 298.685ZM127.574 297.81C128.726 297.81 129.674 296.993 129.674 295.9V294.923C129.193 294.763 128.58 294.631 127.837 294.631C126.612 294.631 125.956 295.244 125.956 296.221V296.279C125.956 297.227 126.641 297.81 127.574 297.81ZM135.757 298.685C134.197 298.685 132.725 297.343 132.725 294.806V294.661C132.725 292.138 134.197 290.782 135.757 290.782C136.982 290.782 137.711 291.511 138.222 292.342V287.997H139.286V298.524H138.222V297.066C137.711 297.927 136.968 298.685 135.757 298.685ZM135.976 297.722C137.172 297.722 138.265 296.585 138.265 294.792V294.646C138.265 292.853 137.172 291.73 135.976 291.73C134.766 291.73 133.818 292.794 133.818 294.661V294.777C133.818 296.643 134.795 297.722 135.976 297.722ZM145.722 298.524V288.318H146.757L152.093 296.337V288.318H153.172V298.524H152.254L146.786 290.286V298.524H145.722ZM157.809 298.685C156.526 298.685 155.345 297.824 155.345 296.323V296.264C155.345 294.69 156.482 293.815 158.159 293.815C158.975 293.815 159.544 293.946 160.113 294.136V293.669C160.113 292.444 159.413 291.788 158.188 291.788C157.415 291.788 156.759 292.022 156.234 292.299L155.899 291.424C156.613 291.088 157.357 290.841 158.29 290.841C159.209 290.841 159.923 291.088 160.419 291.584C160.9 292.036 161.148 292.721 161.148 293.64V298.524H160.113V297.416C159.661 298.116 158.917 298.685 157.809 298.685ZM158.028 297.81C159.18 297.81 160.127 296.993 160.127 295.9V294.923C159.646 294.763 159.034 294.631 158.29 294.631C157.065 294.631 156.409 295.244 156.409 296.221V296.279C156.409 297.227 157.095 297.81 158.028 297.81ZM163.572 298.524V290.928H164.622V292.138C165.044 291.409 165.657 290.782 166.75 290.782C167.756 290.782 168.485 291.336 168.85 292.167C169.316 291.424 170.002 290.782 171.183 290.782C172.655 290.782 173.603 291.803 173.603 293.567V298.524H172.553V293.844C172.553 292.444 171.955 291.73 170.906 291.73C169.914 291.73 169.112 292.532 169.112 293.888V298.524H168.063V293.829C168.063 292.444 167.465 291.73 166.415 291.73C165.409 291.73 164.622 292.619 164.622 293.902V298.524H163.572ZM179.004 298.685C177.138 298.685 175.636 297.198 175.636 294.792V294.704C175.636 292.371 176.992 290.782 178.785 290.782C180.695 290.782 181.818 292.415 181.818 294.704V295.142H176.7C176.817 296.818 177.837 297.752 179.048 297.752C179.879 297.752 180.491 297.402 181.016 296.877L181.614 297.547C180.928 298.247 180.156 298.685 179.004 298.685ZM176.7 294.325H180.754C180.681 292.867 180.01 291.701 178.771 291.701C177.633 291.701 176.817 292.751 176.7 294.325Z" fill="#9C6003"/>
<circle cx="199.707" cy="242.605" r="11.1271" fill="#E2A340"/>
<path d="M196.996 247.315V246.173L199.624 243.374C200.569 242.355 200.95 241.827 200.95 241.139C200.95 240.353 200.422 239.911 199.697 239.911C199.01 239.911 198.556 240.267 197.979 241.004L197.045 240.145C197.745 239.15 198.58 238.598 199.82 238.598C201.33 238.598 202.399 239.543 202.399 241.016V241.041C202.399 242.207 201.858 242.92 200.618 244.16L198.887 246.026H202.435V247.315H196.996Z" fill="white"/>
<path d="M269.17 245.855C269.469 245.556 269.469 245.07 269.17 244.77L264.286 239.886C263.986 239.587 263.5 239.587 263.201 239.886C262.901 240.186 262.901 240.672 263.201 240.972L267.542 245.313L263.201 249.654C262.901 249.953 262.901 250.439 263.201 250.739C263.5 251.039 263.986 251.039 264.286 250.739L269.17 245.855ZM216.972 246.08H268.627V244.545H216.972V246.08Z" fill="#E2A340"/>
<path opacity="0.75" d="M15.439 248.169V237.963H18.3113C21.1691 237.963 23.1082 240.018 23.1082 243.007V243.109C23.1082 246.098 21.1691 248.169 18.3113 248.169H15.439ZM18.2967 238.969H16.5471V247.163H18.2967C20.5275 247.163 21.9856 245.53 21.9856 243.124V243.022C21.9856 240.602 20.5275 238.969 18.2967 238.969ZM25.431 239.012V237.773H26.612V239.012H25.431ZM25.4893 248.169V240.572H26.5391V248.169H25.4893ZM31.2302 248.3C30.297 248.3 29.3055 247.936 28.489 247.236L29.0431 246.463C29.7721 247.075 30.5157 247.381 31.2593 247.381C32.0904 247.381 32.6882 246.9 32.6882 246.2V246.171C32.6882 245.515 32.0612 245.18 31.0114 244.728C29.8013 244.218 28.8536 243.736 28.8536 242.555V242.526C28.8536 241.272 29.845 240.456 31.2156 240.456C32.0904 240.456 32.9652 240.791 33.6067 241.272L33.0964 242.074C32.5132 241.651 31.8717 241.36 31.1864 241.36C30.3845 241.36 29.8742 241.797 29.8742 242.424V242.453C29.8742 243.095 30.5157 243.401 31.5655 243.853C32.8194 244.436 33.6942 244.917 33.6942 246.098V246.113C33.6942 247.484 32.6007 248.3 31.2302 248.3ZM37.9114 248.285C36.8325 248.285 36.016 247.761 36.016 246.405V241.506H35.0974V240.572H36.016V238.356H37.0658V240.572H39.0487V241.506H37.0658V246.23C37.0658 247.046 37.5032 247.309 38.1593 247.309C38.4655 247.309 38.7571 247.25 39.0487 247.119V248.023C38.7133 248.183 38.3634 248.285 37.9114 248.285ZM43.087 248.329C41.804 248.329 40.6229 247.469 40.6229 245.967V245.909C40.6229 244.334 41.7602 243.459 43.437 243.459C44.2535 243.459 44.8221 243.591 45.3907 243.78V243.314C45.3907 242.089 44.6909 241.433 43.4661 241.433C42.6934 241.433 42.0372 241.666 41.5123 241.943L41.177 241.068C41.8914 240.733 42.635 240.485 43.5682 240.485C44.4867 240.485 45.2012 240.733 45.6969 241.229C46.1781 241.681 46.4259 242.366 46.4259 243.284V248.169H45.3907V247.061C44.9387 247.761 44.1951 248.329 43.087 248.329ZM43.3057 247.454C44.4576 247.454 45.4053 246.638 45.4053 245.544V244.567C44.9241 244.407 44.3118 244.276 43.5682 244.276C42.3434 244.276 41.6873 244.888 41.6873 245.865V245.923C41.6873 246.871 42.3726 247.454 43.3057 247.454ZM48.8498 248.169V240.572H49.8996V241.812C50.3224 241.054 50.9931 240.427 52.145 240.427C53.7051 240.427 54.6236 241.476 54.6236 243.182V248.169H53.5739V243.489C53.5739 242.133 52.9323 241.374 51.8242 241.374C50.7161 241.374 49.8996 242.264 49.8996 243.547V248.169H48.8498ZM60.01 248.329C58.1 248.329 56.6565 246.74 56.6565 244.451V244.334C56.6565 242.06 58.1437 240.427 60.0392 240.427C61.1327 240.427 61.8325 240.879 62.4303 241.462L61.818 242.249C61.3514 241.797 60.8265 241.389 60.0246 241.389C58.7561 241.389 57.7355 242.585 57.7355 244.349V244.422C57.7355 246.23 58.7852 247.367 60.0683 247.367C60.8119 247.352 61.3805 247.002 61.8471 246.492L62.4595 247.192C61.8909 247.833 61.1327 248.329 60.01 248.329ZM67.1716 248.329C65.3053 248.329 63.8035 246.842 63.8035 244.436V244.349C63.8035 242.016 65.1595 240.427 66.9529 240.427C68.8629 240.427 69.9856 242.06 69.9856 244.349V244.786H64.8679C64.9845 246.463 66.0052 247.396 67.2153 247.396C68.0464 247.396 68.6588 247.046 69.1837 246.521L69.7815 247.192C69.0962 247.892 68.3234 248.329 67.1716 248.329ZM64.8679 243.97H68.9212C68.8483 242.512 68.1776 241.345 66.9383 241.345C65.801 241.345 64.9845 242.395 64.8679 243.97ZM78.0456 248.285C76.9666 248.285 76.1501 247.761 76.1501 246.405V241.506H75.2315V240.572H76.1501V238.356H77.1999V240.572H79.1828V241.506H77.1999V246.23C77.1999 247.046 77.6373 247.309 78.2934 247.309C78.5996 247.309 78.8912 247.25 79.1828 247.119V248.023C78.8475 248.183 78.4975 248.285 78.0456 248.285ZM84.0421 248.329C82.1029 248.329 80.674 246.638 80.674 244.422V244.334C80.674 242.118 82.1175 240.427 84.0567 240.427C85.9959 240.427 87.4247 242.103 87.4247 244.32V244.407C87.4247 246.623 85.9813 248.329 84.0421 248.329ZM84.0567 247.381C85.3835 247.381 86.3604 246.098 86.3604 244.422V244.349C86.3604 242.643 85.3252 241.374 84.0421 241.374C82.7007 241.374 81.753 242.657 81.753 244.334V244.407C81.753 246.098 82.759 247.381 84.0567 247.381ZM95.5283 248.285C94.4494 248.285 93.6329 247.761 93.6329 246.405V241.506H92.7143V240.572H93.6329V238.356H94.6827V240.572H96.6656V241.506H94.6827V246.23C94.6827 247.046 95.1201 247.309 95.7762 247.309C96.0824 247.309 96.374 247.25 96.6656 247.119V248.023C96.3302 248.183 95.9803 248.285 95.5283 248.285ZM98.7502 248.169V237.642H99.7999V241.812C100.223 241.054 100.893 240.427 102.045 240.427C103.605 240.427 104.524 241.476 104.524 243.182V248.169H103.474V243.489C103.474 242.133 102.833 241.374 101.725 241.374C100.616 241.374 99.7999 242.264 99.7999 243.547V248.169H98.7502ZM109.925 248.329C108.059 248.329 106.557 246.842 106.557 244.436V244.349C106.557 242.016 107.913 240.427 109.706 240.427C111.616 240.427 112.739 242.06 112.739 244.349V244.786H107.621C107.738 246.463 108.758 247.396 109.969 247.396C110.8 247.396 111.412 247.046 111.937 246.521L112.535 247.192C111.85 247.892 111.077 248.329 109.925 248.329ZM107.621 243.97H111.675C111.602 242.512 110.931 241.345 109.692 241.345C108.554 241.345 107.738 242.395 107.621 243.97ZM118.568 248.169V240.572H119.618V241.783C120.041 241.054 120.653 240.427 121.747 240.427C122.753 240.427 123.482 240.981 123.846 241.812C124.313 241.068 124.998 240.427 126.179 240.427C127.652 240.427 128.599 241.447 128.599 243.212V248.169H127.55V243.489C127.55 242.089 126.952 241.374 125.902 241.374C124.911 241.374 124.109 242.176 124.109 243.532V248.169H123.059V243.474C123.059 242.089 122.461 241.374 121.411 241.374C120.405 241.374 119.618 242.264 119.618 243.547V248.169H118.568ZM132.994 248.329C131.711 248.329 130.53 247.469 130.53 245.967V245.909C130.53 244.334 131.667 243.459 133.344 243.459C134.161 243.459 134.729 243.591 135.298 243.78V243.314C135.298 242.089 134.598 241.433 133.373 241.433C132.6 241.433 131.944 241.666 131.419 241.943L131.084 241.068C131.799 240.733 132.542 240.485 133.475 240.485C134.394 240.485 135.108 240.733 135.604 241.229C136.085 241.681 136.333 242.366 136.333 243.284V248.169H135.298V247.061C134.846 247.761 134.102 248.329 132.994 248.329ZM133.213 247.454C134.365 247.454 135.312 246.638 135.312 245.544V244.567C134.831 244.407 134.219 244.276 133.475 244.276C132.251 244.276 131.594 244.888 131.594 245.865V245.923C131.594 246.871 132.28 247.454 133.213 247.454ZM138.757 248.169V240.572H139.807V241.812C140.23 241.054 140.9 240.427 142.052 240.427C143.612 240.427 144.531 241.476 144.531 243.182V248.169H143.481V243.489C143.481 242.133 142.839 241.374 141.731 241.374C140.623 241.374 139.807 242.264 139.807 243.547V248.169H138.757ZM149.932 248.329C148.065 248.329 146.564 246.842 146.564 244.436V244.349C146.564 242.016 147.92 240.427 149.713 240.427C151.623 240.427 152.746 242.06 152.746 244.349V244.786H147.628C147.745 246.463 148.765 247.396 149.975 247.396C150.806 247.396 151.419 247.046 151.944 246.521L152.542 247.192C151.856 247.892 151.083 248.329 149.932 248.329ZM147.628 243.97H151.681C151.608 242.512 150.938 241.345 149.698 241.345C148.561 241.345 147.745 242.395 147.628 243.97ZM157.207 248.329C155.647 248.329 154.729 247.265 154.729 245.559V240.572H155.779V245.253C155.779 246.609 156.42 247.367 157.528 247.367C158.622 247.367 159.438 246.521 159.438 245.194V240.572H160.503V248.169H159.438V246.944C159.03 247.688 158.359 248.329 157.207 248.329ZM165.218 248.227L162.419 240.572H163.571L165.699 246.827L167.843 240.572H168.951L166.166 248.227H165.218ZM170.862 248.169V240.572H171.912V242.249C172.364 241.185 173.282 240.412 174.522 240.47V241.608H174.449C173.049 241.608 171.912 242.599 171.912 244.553V248.169H170.862ZM179.004 248.329C177.138 248.329 175.636 246.842 175.636 244.436V244.349C175.636 242.016 176.992 240.427 178.785 240.427C180.695 240.427 181.818 242.06 181.818 244.349V244.786H176.7C176.817 246.463 177.837 247.396 179.048 247.396C179.879 247.396 180.491 247.046 181.016 246.521L181.614 247.192C180.928 247.892 180.156 248.329 179.004 248.329ZM176.7 243.97H180.754C180.681 242.512 180.01 241.345 178.771 241.345C177.633 241.345 176.817 242.395 176.7 243.97Z" fill="#9C6003"/>
<circle cx="199.707" cy="333.537" r="11.1271" fill="#E2A340"/>
<path d="M199.545 338.395C198.476 338.395 197.592 337.977 196.893 337.302L197.703 336.246C198.28 336.749 198.845 337.069 199.532 337.069C200.453 337.069 201.067 336.467 201.067 335.534V335.521C201.067 334.588 200.404 334.06 199.483 334.06C198.98 334.06 198.562 334.195 198.182 334.38L197.347 333.827L197.58 329.653H202.123V330.942H198.783L198.648 332.992C198.98 332.857 199.311 332.796 199.79 332.796C201.251 332.796 202.479 333.631 202.479 335.448V335.485C202.479 337.253 201.264 338.395 199.545 338.395Z" fill="white"/>
<path d="M269.17 336.787C269.469 336.488 269.469 336.002 269.17 335.702L264.286 330.819C263.986 330.519 263.5 330.519 263.201 330.819C262.901 331.118 262.901 331.604 263.201 331.904L267.542 336.245L263.201 340.586C262.901 340.886 262.901 341.371 263.201 341.671C263.5 341.971 263.986 341.971 264.286 341.671L269.17 336.787ZM216.972 337.012H268.627V335.477H216.972V337.012Z" fill="#E2A340"/>
<path opacity="0.75" d="M50.8694 339.101V329.915H47.9971V328.895H54.8353V329.915H51.963V339.101H50.8694ZM58.4156 339.261C56.4764 339.261 55.0476 337.57 55.0476 335.354V335.266C55.0476 333.05 56.491 331.359 58.4302 331.359C60.3694 331.359 61.7982 333.036 61.7982 335.252V335.339C61.7982 337.555 60.3548 339.261 58.4156 339.261ZM58.4302 338.314C59.757 338.314 60.7339 337.031 60.7339 335.354V335.281C60.7339 333.575 59.6987 332.307 58.4156 332.307C57.0742 332.307 56.1265 333.59 56.1265 335.266V335.339C56.1265 337.031 57.1325 338.314 58.4302 338.314ZM65.3204 339.159L63.0458 331.505H64.1539L65.8307 337.541L67.5657 331.49H68.4551L70.1902 337.555L71.8815 331.505H72.9459L70.6713 339.159H69.7236L68.0031 333.24L66.2681 339.159H65.3204ZM76.6444 339.261C75.3614 339.261 74.1804 338.401 74.1804 336.899V336.841C74.1804 335.266 75.3176 334.392 76.9944 334.392C77.8109 334.392 78.3795 334.523 78.9481 334.712V334.246C78.9481 333.021 78.2483 332.365 77.0235 332.365C76.2508 332.365 75.5946 332.598 75.0698 332.875L74.7344 332C75.4488 331.665 76.1924 331.417 77.1256 331.417C78.0441 331.417 78.7586 331.665 79.2543 332.161C79.7355 332.613 79.9833 333.298 79.9833 334.217V339.101H78.9481V337.993C78.4961 338.693 77.7525 339.261 76.6444 339.261ZM76.8631 338.387C78.015 338.387 78.9627 337.57 78.9627 336.476V335.5C78.4815 335.339 77.8692 335.208 77.1256 335.208C75.9008 335.208 75.2447 335.82 75.2447 336.797V336.856C75.2447 337.803 75.93 338.387 76.8631 338.387ZM82.4072 339.101V331.505H83.457V333.181C83.909 332.117 84.8276 331.344 86.0669 331.403V332.54H85.994C84.5943 332.54 83.457 333.531 83.457 335.485V339.101H82.4072ZM90.2711 339.261C88.711 339.261 87.2384 337.92 87.2384 335.383V335.237C87.2384 332.715 88.711 331.359 90.2711 331.359C91.4958 331.359 92.2249 332.088 92.7352 332.919V328.574H93.7995V339.101H92.7352V337.643C92.2249 338.503 91.4813 339.261 90.2711 339.261ZM90.4898 338.299C91.6854 338.299 92.7789 337.162 92.7789 335.368V335.223C92.7789 333.429 91.6854 332.307 90.4898 332.307C89.2796 332.307 88.3319 333.371 88.3319 335.237V335.354C88.3319 337.22 89.3088 338.299 90.4898 338.299ZM98.4012 339.232C97.468 339.232 96.4766 338.868 95.6601 338.168L96.2141 337.395C96.9431 338.007 97.6867 338.314 98.4303 338.314C99.2614 338.314 99.8592 337.832 99.8592 337.133V337.103C99.8592 336.447 99.2322 336.112 98.1825 335.66C96.9723 335.15 96.0246 334.669 96.0246 333.488V333.458C96.0246 332.204 97.016 331.388 98.3866 331.388C99.2614 331.388 100.136 331.723 100.778 332.204L100.267 333.006C99.6842 332.584 99.0427 332.292 98.3574 332.292C97.5555 332.292 97.0452 332.729 97.0452 333.356V333.385C97.0452 334.027 97.6867 334.333 98.7365 334.785C99.9904 335.368 100.865 335.85 100.865 337.031V337.045C100.865 338.416 99.7717 339.232 98.4012 339.232ZM106.943 339.101V328.895H108.051V339.101H106.943ZM110.824 339.101V331.505H111.874V332.744C112.296 331.986 112.967 331.359 114.119 331.359C115.679 331.359 116.598 332.409 116.598 334.114V339.101H115.548V334.421C115.548 333.065 114.906 332.307 113.798 332.307C112.69 332.307 111.874 333.196 111.874 334.479V339.101H110.824ZM119.375 339.101V332.438H118.442V331.519H119.375V330.819C119.375 330.032 119.564 329.449 119.958 329.055C120.322 328.691 120.804 328.516 121.431 328.516C121.839 328.516 122.145 328.559 122.437 328.661V329.595C122.13 329.493 121.868 329.463 121.576 329.463C120.804 329.463 120.424 329.945 120.424 330.892V331.519H122.407V332.438H120.424V339.101H119.375ZM126.867 339.261C124.928 339.261 123.499 337.57 123.499 335.354V335.266C123.499 333.05 124.943 331.359 126.882 331.359C128.821 331.359 130.25 333.036 130.25 335.252V335.339C130.25 337.555 128.807 339.261 126.867 339.261ZM126.882 338.314C128.209 338.314 129.186 337.031 129.186 335.354V335.281C129.186 333.575 128.15 332.307 126.867 332.307C125.526 332.307 124.578 333.59 124.578 335.266V335.339C124.578 337.031 125.584 338.314 126.882 338.314ZM132.379 339.101V331.505H133.429V333.181C133.881 332.117 134.799 331.344 136.038 331.403V332.54H135.966C134.566 332.54 133.429 333.531 133.429 335.485V339.101H132.379ZM137.874 339.101V331.505H138.924V332.715C139.347 331.986 139.959 331.359 141.053 331.359C142.059 331.359 142.788 331.913 143.152 332.744C143.619 332 144.304 331.359 145.485 331.359C146.958 331.359 147.905 332.379 147.905 334.144V339.101H146.856V334.421C146.856 333.021 146.258 332.307 145.208 332.307C144.217 332.307 143.415 333.108 143.415 334.464V339.101H142.365V334.406C142.365 333.021 141.767 332.307 140.717 332.307C139.711 332.307 138.924 333.196 138.924 334.479V339.101H137.874ZM152.3 339.261C151.017 339.261 149.836 338.401 149.836 336.899V336.841C149.836 335.266 150.973 334.392 152.65 334.392C153.467 334.392 154.035 334.523 154.604 334.712V334.246C154.604 333.021 153.904 332.365 152.679 332.365C151.906 332.365 151.25 332.598 150.725 332.875L150.39 332C151.105 331.665 151.848 331.417 152.781 331.417C153.7 331.417 154.414 331.665 154.91 332.161C155.391 332.613 155.639 333.298 155.639 334.217V339.101H154.604V337.993C154.152 338.693 153.408 339.261 152.3 339.261ZM152.519 338.387C153.671 338.387 154.618 337.57 154.618 336.476V335.5C154.137 335.339 153.525 335.208 152.781 335.208C151.557 335.208 150.9 335.82 150.9 336.797V336.856C150.9 337.803 151.586 338.387 152.519 338.387ZM160.223 339.218C159.144 339.218 158.327 338.693 158.327 337.337V332.438H157.409V331.505H158.327V329.288H159.377V331.505H161.36V332.438H159.377V337.162C159.377 337.978 159.814 338.241 160.47 338.241C160.777 338.241 161.068 338.182 161.36 338.051V338.955C161.024 339.116 160.675 339.218 160.223 339.218ZM163.474 329.945V328.705H164.655V329.945H163.474ZM163.532 339.101V331.505H164.582V339.101H163.532ZM170.177 339.261C168.238 339.261 166.809 337.57 166.809 335.354V335.266C166.809 333.05 168.252 331.359 170.191 331.359C172.13 331.359 173.559 333.036 173.559 335.252V335.339C173.559 337.555 172.116 339.261 170.177 339.261ZM170.191 338.314C171.518 338.314 172.495 337.031 172.495 335.354V335.281C172.495 333.575 171.46 332.307 170.177 332.307C168.835 332.307 167.888 333.59 167.888 335.266V335.339C167.888 337.031 168.894 338.314 170.191 338.314ZM175.688 339.101V331.505H176.738V332.744C177.161 331.986 177.831 331.359 178.983 331.359C180.543 331.359 181.462 332.409 181.462 334.114V339.101H180.412V334.421C180.412 333.065 179.771 332.307 178.662 332.307C177.554 332.307 176.738 333.196 176.738 334.479V339.101H175.688Z" fill="#9C6003"/>
<circle cx="771.999" cy="118.125" r="11.1271" fill="#E2A340"/>
<path d="M771.857 122.982C773.466 122.982 774.718 121.779 774.718 120.047V120.023C774.718 118.267 773.503 117.346 772.103 117.346C771.317 117.346 770.74 117.653 770.298 118.132C770.335 116.683 770.912 115.406 772.14 115.406C772.766 115.406 773.245 115.664 773.675 116.02L774.374 114.89C773.724 114.387 773.073 114.092 772.177 114.092C770.053 114.092 768.849 115.885 768.849 118.783V118.869C768.849 120.637 769.218 121.57 769.844 122.196C770.335 122.687 770.986 122.982 771.857 122.982ZM771.833 121.717C770.9 121.717 770.335 121.054 770.335 120.109V120.096C770.335 119.176 770.924 118.549 771.821 118.549C772.741 118.549 773.306 119.163 773.306 120.096V120.121C773.306 121.054 772.766 121.717 771.833 121.717Z" fill="white"/>
<path d="M676.685 117.966C676.385 118.265 676.385 118.751 676.685 119.051L681.568 123.935C681.868 124.234 682.354 124.234 682.654 123.935C682.953 123.635 682.953 123.149 682.654 122.849L678.313 118.508L682.654 114.167C682.953 113.868 682.953 113.382 682.654 113.082C682.354 112.782 681.868 112.782 681.568 113.082L676.685 117.966ZM754.733 117.741L677.227 117.741V119.276L754.733 119.276V117.741Z" fill="#E2A340"/>
<path opacity="0.75" d="M790.49 122.516H796.789V121.509H791.584V117.879H796.191V116.873H791.584V113.315H796.731V112.309H790.49V122.516ZM799.672 114.919H798.506L800.911 118.637L798.389 122.516H799.555L801.524 119.395L803.507 122.516H804.688L802.151 118.623L804.556 114.919H803.419L801.538 117.864L799.672 114.919ZM806.661 113.359H807.842V112.12H806.661V113.359ZM806.72 122.516H807.769V114.919H806.72V122.516ZM812.635 122.632C813.087 122.632 813.437 122.53 813.773 122.37V121.466C813.481 121.597 813.189 121.655 812.883 121.655C812.227 121.655 811.79 121.393 811.79 120.576V115.852H813.773V114.919H811.79V112.703H810.74V114.919H809.821V115.852H810.74V120.751C810.74 122.107 811.556 122.632 812.635 122.632ZM819.747 122.516H820.811V114.278L826.279 122.516H827.198V112.309H826.119V120.328L820.782 112.309H819.747V122.516ZM832.257 122.676C833.409 122.676 834.08 122.034 834.488 121.291V122.516H835.552V114.919H834.488V119.541C834.488 120.868 833.672 121.714 832.578 121.714C831.47 121.714 830.828 120.955 830.828 119.599V114.919H829.779V119.906C829.779 121.612 830.697 122.676 832.257 122.676ZM838.096 122.516H839.145V117.894C839.145 116.61 839.933 115.721 840.939 115.721C841.989 115.721 842.586 116.436 842.586 117.821V122.516H843.636V117.879C843.636 116.523 844.438 115.721 845.43 115.721C846.479 115.721 847.077 116.436 847.077 117.835V122.516H848.127V117.558C848.127 115.794 847.179 114.773 845.707 114.773C844.526 114.773 843.84 115.415 843.374 116.159C843.009 115.327 842.28 114.773 841.274 114.773C840.181 114.773 839.568 115.4 839.145 116.129V114.919H838.096V122.516ZM854.096 122.676C855.627 122.676 857.114 121.305 857.114 118.783V118.637C857.114 116.115 855.627 114.773 854.096 114.773C852.886 114.773 852.128 115.517 851.618 116.392V111.989H850.568V122.516H851.618V121.101C852.084 121.918 852.886 122.676 854.096 122.676ZM853.878 121.714C852.667 121.714 851.574 120.576 851.574 118.783V118.652C851.574 116.873 852.667 115.721 853.878 115.721C855.044 115.721 856.036 116.844 856.036 118.666V118.783C856.036 120.649 855.088 121.714 853.878 121.714ZM862.241 122.676C863.393 122.676 864.166 122.239 864.851 121.539L864.253 120.868C863.728 121.393 863.116 121.743 862.285 121.743C861.075 121.743 860.054 120.81 859.937 119.133H865.055V118.695C865.055 116.406 863.932 114.773 862.022 114.773C860.229 114.773 858.873 116.363 858.873 118.695V118.783C858.873 121.189 860.375 122.676 862.241 122.676ZM859.937 118.316C860.054 116.742 860.87 115.692 862.008 115.692C863.247 115.692 863.918 116.858 863.991 118.316H859.937ZM867.14 122.516H868.19V118.9C868.19 116.946 869.327 115.954 870.727 115.954H870.8V114.817C869.56 114.759 868.642 115.532 868.19 116.596V114.919H867.14V122.516Z" fill="#9C6003"/>
<circle cx="771.996" cy="331.109" r="11.1271" fill="#E2A340"/>
<path d="M772.496 335.819V333.965H768.702L768.505 332.921L772.594 327.175H773.846V332.762H774.939V333.965H773.846V335.819H772.496ZM770.077 332.762H772.496V329.311L770.077 332.762Z" fill="white"/>
<path d="M575.727 330.95C575.428 331.25 575.428 331.736 575.727 332.035L580.611 336.919C580.911 337.219 581.397 337.219 581.696 336.919C581.996 336.619 581.996 336.133 581.696 335.834L577.355 331.493L581.696 327.152C581.996 326.852 581.996 326.366 581.696 326.067C581.397 325.767 580.911 325.767 580.611 326.067L575.727 330.95ZM754.733 330.725L576.27 330.725L576.27 332.26L754.733 332.26L754.733 330.725Z" fill="#E2A340"/>
<path opacity="0.75" d="M790.487 335.5V325.294H793.987C795.139 325.294 796.072 325.644 796.655 326.241C797.165 326.752 797.457 327.481 797.457 328.341V328.37C797.457 329.989 796.451 330.966 795.051 331.301L797.763 335.5H796.465L793.899 331.534H791.596V335.5H790.487ZM791.596 330.543H793.783C795.459 330.543 796.363 329.712 796.363 328.414V328.385C796.363 327.043 795.459 326.3 793.899 326.3H791.596V330.543ZM802.599 335.66C800.659 335.66 799.23 333.969 799.23 331.753V331.665C799.23 329.449 800.674 327.758 802.613 327.758C804.552 327.758 805.981 329.435 805.981 331.651V331.738C805.981 333.954 804.538 335.66 802.599 335.66ZM802.613 334.713C803.94 334.713 804.917 333.43 804.917 331.753V331.68C804.917 329.974 803.882 328.706 802.599 328.706C801.257 328.706 800.309 329.989 800.309 331.665V331.738C800.309 333.43 801.315 334.713 802.613 334.713ZM810.064 335.66C808.781 335.66 807.6 334.8 807.6 333.298V333.24C807.6 331.665 808.737 330.791 810.414 330.791C811.23 330.791 811.799 330.922 812.367 331.111V330.645C812.367 329.42 811.668 328.764 810.443 328.764C809.67 328.764 809.014 328.997 808.489 329.274L808.154 328.399C808.868 328.064 809.612 327.816 810.545 327.816C811.463 327.816 812.178 328.064 812.674 328.56C813.155 329.012 813.403 329.697 813.403 330.616V335.5H812.367V334.392C811.915 335.092 811.172 335.66 810.064 335.66ZM810.282 334.786C811.434 334.786 812.382 333.969 812.382 332.876V331.899C811.901 331.738 811.288 331.607 810.545 331.607C809.32 331.607 808.664 332.219 808.664 333.196V333.255C808.664 334.202 809.349 334.786 810.282 334.786ZM818.466 335.66C816.905 335.66 815.433 334.319 815.433 331.782V331.636C815.433 329.114 816.905 327.758 818.466 327.758C819.69 327.758 820.419 328.487 820.93 329.318V324.973H821.994V335.5H820.93V334.042C820.419 334.902 819.676 335.66 818.466 335.66ZM818.684 334.698C819.88 334.698 820.973 333.561 820.973 331.767V331.622C820.973 329.828 819.88 328.706 818.684 328.706C817.474 328.706 816.526 329.77 816.526 331.636V331.753C816.526 333.619 817.503 334.698 818.684 334.698ZM828.43 335.5V325.294H829.465L834.801 333.313V325.294H835.88V335.5H834.962L829.494 327.262V335.5H828.43ZM840.94 335.66C839.38 335.66 838.461 334.596 838.461 332.89V327.904H839.511V332.584C839.511 333.94 840.153 334.698 841.261 334.698C842.354 334.698 843.171 333.852 843.171 332.526V327.904H844.235V335.5H843.171V334.275C842.762 335.019 842.092 335.66 840.94 335.66ZM846.778 335.5V327.904H847.828V329.114C848.251 328.385 848.863 327.758 849.957 327.758C850.963 327.758 851.692 328.312 852.056 329.143C852.523 328.399 853.208 327.758 854.389 327.758C855.862 327.758 856.81 328.778 856.81 330.543V335.5H855.76V330.82C855.76 329.42 855.162 328.706 854.112 328.706C853.121 328.706 852.319 329.507 852.319 330.863V335.5H851.269V330.805C851.269 329.42 850.671 328.706 849.621 328.706C848.615 328.706 847.828 329.595 847.828 330.878V335.5H846.778ZM862.779 335.66C861.569 335.66 860.767 334.902 860.3 334.086V335.5H859.251V324.973H860.3V329.376C860.811 328.501 861.569 327.758 862.779 327.758C864.31 327.758 865.797 329.099 865.797 331.622V331.767C865.797 334.29 864.31 335.66 862.779 335.66ZM862.56 334.698C863.77 334.698 864.718 333.634 864.718 331.767V331.651C864.718 329.828 863.727 328.706 862.56 328.706C861.35 328.706 860.257 329.857 860.257 331.636V331.767C860.257 333.561 861.35 334.698 862.56 334.698ZM870.924 335.66C869.057 335.66 867.556 334.173 867.556 331.767V331.68C867.556 329.347 868.912 327.758 870.705 327.758C872.615 327.758 873.738 329.391 873.738 331.68V332.117H868.62C868.737 333.794 869.757 334.727 870.967 334.727C871.798 334.727 872.411 334.377 872.936 333.852L873.533 334.523C872.848 335.223 872.075 335.66 870.924 335.66ZM868.62 331.301H872.673C872.6 329.843 871.93 328.676 870.69 328.676C869.553 328.676 868.737 329.726 868.62 331.301ZM875.823 335.5V327.904H876.873V329.58C877.325 328.516 878.243 327.743 879.482 327.802V328.939H879.41C878.01 328.939 876.873 329.93 876.873 331.884V335.5H875.823Z" fill="#9C6003"/>
</svg>
