<svg width="600" height="279" viewBox="0 0 600 279" fill="none" xmlns="http://www.w3.org/2000/svg">
<rect width="600" height="279" rx="16" fill="#11181E"/>
<g opacity="0.4">
<path d="M89.8187 56.8398L77.7878 35.0342C77.0273 33.6553 75.046 33.6553 74.2855 35.0342L62.2546 56.8398C61.4106 58.3691 62.7959 60.1699 64.4908 59.7461L69.1363 58.585C70.083 58.3483 71 59.0644 71 60.0402V116.86C71 118.518 72.3431 119.86 74 119.86H78C79.6569 119.86 81 118.518 81 116.86V60.0217C81 59.0459 81.9171 58.3298 82.8638 58.5665L87.5825 59.7461C89.2774 60.1699 90.6627 58.3691 89.8187 56.8398Z" fill="white"/>
</g>
<g opacity="0.4">
<path d="M177.819 56.8398L165.788 35.0342C165.027 33.6553 163.046 33.6553 162.285 35.0342L150.255 56.8398C149.411 58.3691 150.796 60.1699 152.491 59.7461L157.136 58.585C158.083 58.3483 159 59.0644 159 60.0402V116.86C159 118.518 160.343 119.86 162 119.86H166C167.657 119.86 169 118.518 169 116.86V60.0217C169 59.0459 169.917 58.3298 170.864 58.5665L175.583 59.7461C177.277 60.1699 178.663 58.3691 177.819 56.8398Z" fill="white"/>
</g>
<path d="M271.204 34.3199L247.277 41.2319C245.599 41.7168 245.305 43.9695 246.803 44.8683L250.942 47.3515C251.779 47.8536 251.921 49.0084 251.231 49.6984L235.979 64.9502C232.791 68.1383 231 72.4623 231 76.971V117C231 118.657 232.343 120 234 120H238C239.657 120 241 118.657 241 117L241 76.971C241 75.1145 241.737 73.334 243.05 72.0213L258.302 56.7696C258.992 56.0795 260.147 56.2217 260.649 57.0585L263.132 61.1966C264.031 62.6947 266.283 62.4011 266.768 60.7227L273.68 36.7964C274.117 35.2839 272.716 33.8829 271.204 34.3199Z" fill="white"/>
<path d="M359.204 34.3199L335.277 41.2319C333.599 41.7168 333.305 43.9695 334.803 44.8683L338.942 47.3515C339.779 47.8536 339.921 49.0084 339.231 49.6984L323.979 64.9502C320.791 68.1383 319 72.4623 319 76.971V117C319 118.657 320.343 120 322 120H326C327.657 120 329 118.657 329 117L329 76.971C329 75.1145 329.737 73.334 331.05 72.0213L346.302 56.7696C346.992 56.0795 348.147 56.2217 348.649 57.0585L351.132 61.1966C352.031 62.6947 354.283 62.4011 354.768 60.7227L361.68 36.7964C362.117 35.2839 360.716 33.8829 359.204 34.3199Z" fill="white"/>
<path d="M33.96 168.84C33.96 167.187 34.0667 165.56 34.28 163.96C34.52 162.36 34.92 160.853 35.48 159.44C36.0667 158 36.8667 156.733 37.88 155.64C38.8933 154.52 40.1733 153.653 41.72 153.04C43.2933 152.4 45.1867 152.08 47.4 152.08C47.96 152.08 48.5867 152.107 49.28 152.16C50 152.187 50.5867 152.267 51.04 152.4V155.96C50.5333 155.8 49.9733 155.68 49.36 155.6C48.7733 155.52 48.1867 155.48 47.6 155.48C45.76 155.48 44.24 155.76 43.04 156.32C41.84 156.88 40.8933 157.653 40.2 158.64C39.5067 159.627 39 160.773 38.68 162.08C38.36 163.36 38.16 164.76 38.08 166.28H38.32C38.72 165.64 39.2133 165.067 39.8 164.56C40.3867 164.053 41.1067 163.653 41.96 163.36C42.8133 163.067 43.8 162.92 44.92 162.92C46.5733 162.92 48.0133 163.267 49.24 163.96C50.4933 164.653 51.4533 165.653 52.12 166.96C52.8133 168.267 53.16 169.853 53.16 171.72C53.16 173.72 52.7733 175.453 52 176.92C51.2533 178.36 50.1867 179.467 48.8 180.24C47.44 181.013 45.8 181.4 43.88 181.4C42.4933 181.4 41.2 181.147 40 180.64C38.8 180.133 37.7467 179.36 36.84 178.32C35.9333 177.28 35.2267 175.973 34.72 174.4C34.2133 172.8 33.96 170.947 33.96 168.84ZM43.84 177.88C45.36 177.88 46.6 177.387 47.56 176.4C48.52 175.387 49 173.827 49 171.72C49 170.04 48.5733 168.707 47.72 167.72C46.8933 166.733 45.64 166.24 43.96 166.24C42.8133 166.24 41.8133 166.48 40.96 166.96C40.1067 167.44 39.44 168.053 38.96 168.8C38.48 169.547 38.24 170.307 38.24 171.08C38.24 171.907 38.36 172.72 38.6 173.52C38.84 174.32 39.1867 175.053 39.64 175.72C40.12 176.387 40.7067 176.92 41.4 177.32C42.0933 177.693 42.9067 177.88 43.84 177.88ZM76.4706 166.68C76.4706 169 76.284 171.067 75.9106 172.88C75.564 174.693 75.004 176.24 74.2306 177.52C73.484 178.773 72.484 179.733 71.2306 180.4C70.004 181.067 68.524 181.4 66.7906 181.4C64.604 181.4 62.804 180.813 61.3906 179.64C59.9773 178.467 58.924 176.787 58.2306 174.6C57.5373 172.387 57.1906 169.747 57.1906 166.68C57.1906 163.587 57.4973 160.947 58.1106 158.76C58.7506 156.573 59.7773 154.907 61.1906 153.76C62.604 152.587 64.4706 152 66.7906 152C68.9773 152 70.7773 152.587 72.1906 153.76C73.6306 154.907 74.6973 156.573 75.3906 158.76C76.1106 160.947 76.4706 163.587 76.4706 166.68ZM61.4306 166.68C61.4306 169.16 61.604 171.227 61.9506 172.88C62.2973 174.533 62.8573 175.773 63.6306 176.6C64.4306 177.427 65.484 177.84 66.7906 177.84C68.0973 177.84 69.1373 177.44 69.9106 176.64C70.7106 175.813 71.284 174.573 71.6306 172.92C72.004 171.24 72.1906 169.16 72.1906 166.68C72.1906 164.2 72.004 162.147 71.6306 160.52C71.284 158.867 70.7106 157.627 69.9106 156.8C69.1373 155.973 68.0973 155.56 66.7906 155.56C65.484 155.56 64.4306 155.973 63.6306 156.8C62.8573 157.627 62.2973 158.867 61.9506 160.52C61.604 162.147 61.4306 164.2 61.4306 166.68ZM99.8613 166.68C99.8613 169 99.6746 171.067 99.3013 172.88C98.9546 174.693 98.3946 176.24 97.6213 177.52C96.8746 178.773 95.8746 179.733 94.6213 180.4C93.3946 181.067 91.9146 181.4 90.1813 181.4C87.9946 181.4 86.1946 180.813 84.7813 179.64C83.3679 178.467 82.3146 176.787 81.6213 174.6C80.9279 172.387 80.5813 169.747 80.5813 166.68C80.5813 163.587 80.8879 160.947 81.5013 158.76C82.1413 156.573 83.1679 154.907 84.5813 153.76C85.9946 152.587 87.8613 152 90.1813 152C92.3679 152 94.1679 152.587 95.5813 153.76C97.0213 154.907 98.0879 156.573 98.7812 158.76C99.5013 160.947 99.8613 163.587 99.8613 166.68ZM84.8213 166.68C84.8213 169.16 84.9946 171.227 85.3413 172.88C85.6879 174.533 86.2479 175.773 87.0213 176.6C87.8213 177.427 88.8746 177.84 90.1813 177.84C91.4879 177.84 92.5279 177.44 93.3013 176.64C94.1013 175.813 94.6746 174.573 95.0213 172.92C95.3946 171.24 95.5813 169.16 95.5813 166.68C95.5813 164.2 95.3946 162.147 95.0213 160.52C94.6746 158.867 94.1013 157.627 93.3013 156.8C92.5279 155.973 91.4879 155.56 90.1813 155.56C88.8746 155.56 87.8213 155.973 87.0213 156.8C86.2479 157.627 85.6879 158.867 85.3413 160.52C84.9946 162.147 84.8213 164.2 84.8213 166.68ZM140.543 159.04C142.969 159.04 144.796 159.667 146.023 160.92C147.249 162.173 147.863 164.187 147.863 166.96V181H143.623V167.52C143.623 165.867 143.289 164.627 142.623 163.8C141.983 162.947 140.969 162.52 139.583 162.52C137.663 162.52 136.289 163.12 135.463 164.32C134.636 165.493 134.223 167.2 134.223 169.44V181H130.023V167.52C130.023 166.427 129.863 165.507 129.543 164.76C129.249 164.013 128.809 163.453 128.223 163.08C127.636 162.707 126.876 162.52 125.943 162.52C124.609 162.52 123.556 162.813 122.783 163.4C122.009 163.987 121.449 164.853 121.103 166C120.783 167.12 120.623 168.493 120.623 170.12V181H116.383V159.44H119.743L120.343 162.32H120.583C121.036 161.573 121.583 160.96 122.223 160.48C122.889 160 123.623 159.64 124.423 159.4C125.223 159.16 126.049 159.04 126.903 159.04C128.529 159.04 129.903 159.333 131.023 159.92C132.143 160.48 132.956 161.347 133.463 162.52H133.783C134.476 161.32 135.436 160.44 136.663 159.88C137.889 159.32 139.183 159.04 140.543 159.04Z" fill="white"/>
<mask id="mask0_6219_249" style="mask-type:alpha" maskUnits="userSpaceOnUse" x="426" y="148" width="62" height="43">
<path d="M445.811 148.149L443.202 190.851H428.004C427.222 190.851 426.735 190.229 426.921 189.468L436.796 149.532C436.987 148.771 437.782 148.149 438.562 148.149H445.811ZM457.928 148.149C458.71 148.149 459.504 148.771 459.689 149.532L463.633 165.481C465.884 160.458 468.935 156.218 473.622 153.205L466.532 148.15L487.883 148.149L477.779 167.128L476.718 158.475C472.114 161.498 469.39 166.026 467.953 171.388C467.015 174.883 466.95 178.47 467.694 181.909L467.935 182.884L469.416 188.873L469.562 189.468C469.753 190.229 469.268 190.851 468.479 190.851H453.287L450.673 148.149H457.928Z" fill="white"/>
</mask>
<g mask="url(#mask0_6219_249)">
<path d="M445.811 148.149L443.202 190.851H428.004C427.222 190.851 426.735 190.229 426.921 189.468L436.796 149.532C436.987 148.771 437.782 148.149 438.562 148.149H445.811ZM457.928 148.149C458.71 148.149 459.504 148.771 459.689 149.532L463.633 165.481C465.884 160.458 468.935 156.218 473.622 153.205L466.532 148.15L487.883 148.149L477.779 167.128L476.718 158.475C472.114 161.498 469.39 166.026 467.953 171.388C467.015 174.883 466.95 178.47 467.694 181.909L467.935 182.884L469.416 188.873L469.562 189.468C469.753 190.229 469.268 190.851 468.479 190.851H453.287L450.673 148.149H457.928Z" fill="white"/>
<path d="M487.885 148.149H426.882V190.851H487.885V148.149Z" fill="#F6F9FF"/>
</g>
<circle cx="534.5" cy="169.5" r="31.5" fill="#020202" stroke="white" stroke-width="4"/>
<path d="M524.937 184H529.041V158.62H526.125L520.293 160.528L520.977 164.2L524.937 162.976V184ZM535.756 184H540.292L549.976 161.932V158.8H534.46V162.616H545.44L535.756 184Z" fill="white"/>
<g filter="url(#filter0_d_6219_249)">
<rect x="32" y="215" width="75" height="36" rx="3" fill="#F7B817"/>
<rect x="33.5" y="216.5" width="72" height="33" rx="1.5" stroke="#F7B817" stroke-width="3"/>
<path d="M52.9137 242L51.3537 237.464H44.8977L43.3617 242H40.0977L46.3857 224.792H49.8897L56.1777 242H52.9137ZM49.0737 230.408C49.0097 230.184 48.9137 229.88 48.7857 229.496C48.6577 229.112 48.5297 228.72 48.4017 228.32C48.2897 227.904 48.2017 227.56 48.1377 227.288C48.0577 227.608 47.9537 227.976 47.8257 228.392C47.7137 228.808 47.6017 229.2 47.4897 229.568C47.3937 229.936 47.3137 230.216 47.2497 230.408L45.7377 234.824H50.5617L49.0737 230.408ZM66.0832 242H63.0592V231.32C63.0592 230.968 63.0592 230.608 63.0592 230.24C63.0752 229.872 63.0912 229.504 63.1072 229.136C63.1232 228.752 63.1392 228.4 63.1552 228.08C62.9952 228.24 62.7952 228.432 62.5552 228.656C62.3152 228.864 62.0672 229.08 61.8112 229.304L59.8912 230.84L58.3792 228.968L63.5632 224.864H66.0832V242ZM83.6536 233.408C83.6536 234.8 83.5496 236.04 83.3416 237.128C83.1336 238.216 82.7896 239.144 82.3096 239.912C81.8456 240.664 81.2376 241.24 80.4856 241.64C79.7496 242.04 78.8456 242.24 77.7736 242.24C76.4296 242.24 75.3256 241.888 74.4616 241.184C73.5976 240.48 72.9576 239.472 72.5416 238.16C72.1256 236.832 71.9176 235.248 71.9176 233.408C71.9176 231.568 72.1096 229.992 72.4936 228.68C72.8776 227.368 73.4936 226.36 74.3416 225.656C75.2056 224.952 76.3496 224.6 77.7736 224.6C79.1176 224.6 80.2216 224.952 81.0856 225.656C81.9496 226.344 82.5896 227.352 83.0056 228.68C83.4376 229.992 83.6536 231.568 83.6536 233.408ZM74.9656 233.432C74.9656 234.824 75.0536 235.992 75.2296 236.936C75.4056 237.864 75.6936 238.568 76.0936 239.048C76.5096 239.512 77.0696 239.744 77.7736 239.744C78.4776 239.744 79.0296 239.512 79.4296 239.048C79.8456 238.584 80.1416 237.88 80.3176 236.936C80.5096 235.992 80.6056 234.824 80.6056 233.432C80.6056 232.024 80.5096 230.856 80.3176 229.928C80.1416 228.984 79.8456 228.28 79.4296 227.816C79.0296 227.336 78.4776 227.096 77.7736 227.096C77.0696 227.096 76.5096 227.336 76.0936 227.816C75.6936 228.28 75.4056 228.976 75.2296 229.904C75.0536 230.832 74.9656 232.008 74.9656 233.432ZM97.888 233.408C97.888 234.8 97.784 236.04 97.576 237.128C97.368 238.216 97.024 239.144 96.544 239.912C96.08 240.664 95.472 241.24 94.72 241.64C93.984 242.04 93.08 242.24 92.008 242.24C90.664 242.24 89.56 241.888 88.696 241.184C87.832 240.48 87.192 239.472 86.776 238.16C86.36 236.832 86.152 235.248 86.152 233.408C86.152 231.568 86.344 229.992 86.728 228.68C87.112 227.368 87.728 226.36 88.576 225.656C89.44 224.952 90.584 224.6 92.008 224.6C93.352 224.6 94.456 224.952 95.32 225.656C96.184 226.344 96.824 227.352 97.24 228.68C97.672 229.992 97.888 231.568 97.888 233.408ZM89.2 233.432C89.2 234.824 89.288 235.992 89.464 236.936C89.64 237.864 89.928 238.568 90.328 239.048C90.744 239.512 91.304 239.744 92.008 239.744C92.712 239.744 93.264 239.512 93.664 239.048C94.08 238.584 94.376 237.88 94.552 236.936C94.744 235.992 94.84 234.824 94.84 233.432C94.84 232.024 94.744 230.856 94.552 229.928C94.376 228.984 94.08 228.28 93.664 227.816C93.264 227.336 92.712 227.096 92.008 227.096C91.304 227.096 90.744 227.336 90.328 227.816C89.928 228.28 89.64 228.976 89.464 229.904C89.288 230.832 89.2 232.008 89.2 233.432Z" fill="black"/>
</g>
<path d="M131.344 244H124.12V242.544L126.472 242.012V226.024L124.12 225.464V224.008H131.344V225.464L128.992 226.024V242.012L131.344 242.544V244ZM142.592 228.712C144.384 228.712 145.738 229.151 146.652 230.028C147.567 230.887 148.024 232.287 148.024 234.228V244H145.588V234.396C145.588 233.183 145.318 232.277 144.776 231.68C144.235 231.083 143.386 230.784 142.228 230.784C140.567 230.784 139.419 231.251 138.784 232.184C138.15 233.117 137.832 234.461 137.832 236.216V244H135.368V228.992H137.356L137.72 231.036H137.86C138.196 230.513 138.607 230.084 139.092 229.748C139.596 229.393 140.147 229.132 140.744 228.964C141.342 228.796 141.958 228.712 142.592 228.712ZM162.949 239.856C162.949 240.827 162.706 241.639 162.221 242.292C161.736 242.945 161.045 243.44 160.149 243.776C159.253 244.112 158.189 244.28 156.957 244.28C155.912 244.28 155.006 244.196 154.241 244.028C153.494 243.86 152.832 243.627 152.253 243.328V241.088C152.85 241.387 153.569 241.667 154.409 241.928C155.268 242.171 156.136 242.292 157.013 242.292C158.264 242.292 159.169 242.096 159.729 241.704C160.289 241.293 160.569 240.752 160.569 240.08C160.569 239.707 160.466 239.371 160.261 239.072C160.056 238.773 159.682 238.475 159.141 238.176C158.618 237.877 157.862 237.541 156.873 237.168C155.902 236.795 155.072 236.421 154.381 236.048C153.69 235.675 153.158 235.227 152.785 234.704C152.412 234.181 152.225 233.509 152.225 232.688C152.225 231.419 152.738 230.439 153.765 229.748C154.81 229.057 156.173 228.712 157.853 228.712C158.768 228.712 159.617 228.805 160.401 228.992C161.204 229.16 161.95 229.403 162.641 229.72L161.801 231.68C161.39 231.493 160.952 231.335 160.485 231.204C160.037 231.055 159.58 230.943 159.113 230.868C158.646 230.775 158.17 230.728 157.685 230.728C156.677 230.728 155.902 230.896 155.361 231.232C154.838 231.549 154.577 231.988 154.577 232.548C154.577 232.959 154.698 233.313 154.941 233.612C155.184 233.892 155.585 234.172 156.145 234.452C156.724 234.713 157.489 235.031 158.441 235.404C159.393 235.759 160.205 236.123 160.877 236.496C161.549 236.869 162.062 237.327 162.417 237.868C162.772 238.391 162.949 239.053 162.949 239.856ZM169.539 227.9C169.539 228.535 169.521 229.132 169.483 229.692C169.465 230.233 169.437 230.663 169.399 230.98H169.539C169.969 230.345 170.557 229.813 171.303 229.384C172.05 228.955 173.011 228.74 174.187 228.74C176.054 228.74 177.547 229.393 178.667 230.7C179.806 231.988 180.375 233.92 180.375 236.496C180.375 238.213 180.114 239.651 179.591 240.808C179.087 241.965 178.369 242.833 177.435 243.412C176.502 243.991 175.419 244.28 174.187 244.28C173.011 244.28 172.05 244.065 171.303 243.636C170.557 243.207 169.969 242.693 169.539 242.096H169.343L168.839 244H167.075V222.72H169.539V227.9ZM173.767 230.784C172.703 230.784 171.863 230.989 171.247 231.4C170.631 231.792 170.193 232.408 169.931 233.248C169.67 234.069 169.539 235.124 169.539 236.412V236.524C169.539 238.372 169.838 239.791 170.435 240.78C171.051 241.751 172.181 242.236 173.823 242.236C175.167 242.236 176.166 241.741 176.819 240.752C177.491 239.763 177.827 238.335 177.827 236.468C177.827 234.583 177.491 233.164 176.819 232.212C176.166 231.26 175.149 230.784 173.767 230.784ZM191.802 228.712C192.082 228.712 192.381 228.731 192.698 228.768C193.034 228.787 193.323 228.824 193.566 228.88L193.258 231.148C193.015 231.092 192.745 231.045 192.446 231.008C192.166 230.971 191.895 230.952 191.634 230.952C191.055 230.952 190.505 231.073 189.982 231.316C189.459 231.559 188.993 231.904 188.582 232.352C188.171 232.781 187.845 233.304 187.602 233.92C187.378 234.536 187.266 235.227 187.266 235.992V244H184.802V228.992H186.818L187.098 231.736H187.21C187.527 231.176 187.91 230.672 188.358 230.224C188.806 229.757 189.319 229.393 189.898 229.132C190.477 228.852 191.111 228.712 191.802 228.712ZM209.412 228.992V244H207.396L207.032 242.012H206.92C206.603 242.535 206.192 242.964 205.688 243.3C205.184 243.636 204.634 243.879 204.036 244.028C203.439 244.196 202.814 244.28 202.16 244.28C200.966 244.28 199.958 244.093 199.136 243.72C198.334 243.328 197.727 242.731 197.316 241.928C196.906 241.125 196.7 240.089 196.7 238.82V228.992H199.192V238.652C199.192 239.847 199.463 240.743 200.004 241.34C200.546 241.937 201.386 242.236 202.524 242.236C203.644 242.236 204.522 242.031 205.156 241.62C205.81 241.191 206.267 240.575 206.528 239.772C206.808 238.951 206.948 237.961 206.948 236.804V228.992H209.412ZM217.113 233.836C217.113 234.135 217.094 234.527 217.057 235.012C217.038 235.497 217.02 235.917 217.001 236.272H217.113C217.225 236.123 217.393 235.908 217.617 235.628C217.841 235.348 218.065 235.068 218.289 234.788C218.532 234.489 218.737 234.247 218.905 234.06L223.693 228.992H226.577L220.501 235.404L226.997 244H224.029L218.821 237L217.113 238.484V244H214.677V222.72H217.113V233.836ZM235.93 228.712C237.218 228.712 238.319 228.992 239.234 229.552C240.167 230.112 240.877 230.905 241.362 231.932C241.866 232.94 242.118 234.125 242.118 235.488V236.972H231.842C231.879 238.671 232.309 239.968 233.13 240.864C233.97 241.741 235.137 242.18 236.63 242.18C237.582 242.18 238.422 242.096 239.15 241.928C239.897 241.741 240.662 241.48 241.446 241.144V243.3C240.681 243.636 239.925 243.879 239.178 244.028C238.431 244.196 237.545 244.28 236.518 244.28C235.099 244.28 233.839 243.991 232.738 243.412C231.655 242.833 230.806 241.975 230.19 240.836C229.593 239.679 229.294 238.269 229.294 236.608C229.294 234.965 229.565 233.556 230.106 232.38C230.666 231.204 231.441 230.299 232.43 229.664C233.438 229.029 234.605 228.712 235.93 228.712ZM235.902 230.728C234.726 230.728 233.793 231.111 233.102 231.876C232.43 232.623 232.029 233.668 231.898 235.012H239.542C239.542 234.153 239.411 233.407 239.15 232.772C238.889 232.137 238.487 231.643 237.946 231.288C237.423 230.915 236.742 230.728 235.902 230.728ZM253.439 228.712C253.719 228.712 254.017 228.731 254.335 228.768C254.671 228.787 254.96 228.824 255.203 228.88L254.895 231.148C254.652 231.092 254.381 231.045 254.083 231.008C253.803 230.971 253.532 230.952 253.271 230.952C252.692 230.952 252.141 231.073 251.619 231.316C251.096 231.559 250.629 231.904 250.219 232.352C249.808 232.781 249.481 233.304 249.239 233.92C249.015 234.536 248.903 235.227 248.903 235.992V244H246.439V228.992H248.455L248.735 231.736H248.847C249.164 231.176 249.547 230.672 249.995 230.224C250.443 229.757 250.956 229.393 251.535 229.132C252.113 228.852 252.748 228.712 253.439 228.712ZM271.906 224.008C274.52 224.008 276.424 224.521 277.618 225.548C278.813 226.575 279.41 228.021 279.41 229.888C279.41 230.709 279.27 231.503 278.99 232.268C278.729 233.015 278.29 233.687 277.674 234.284C277.058 234.881 276.237 235.357 275.21 235.712C274.184 236.048 272.924 236.216 271.43 236.216H269.134V244H266.614V224.008H271.906ZM271.682 226.164H269.134V234.06H271.15C272.42 234.06 273.474 233.929 274.314 233.668C275.154 233.388 275.78 232.949 276.19 232.352C276.601 231.755 276.806 230.971 276.806 230C276.806 228.712 276.396 227.751 275.574 227.116C274.753 226.481 273.456 226.164 271.682 226.164ZM286.196 244H283.732V222.72H286.196V244ZM297.134 228.74C298.964 228.74 300.317 229.141 301.194 229.944C302.072 230.747 302.51 232.025 302.51 233.78V244H300.718L300.242 241.872H300.13C299.701 242.413 299.253 242.871 298.786 243.244C298.338 243.599 297.816 243.86 297.218 244.028C296.64 244.196 295.93 244.28 295.09 244.28C294.194 244.28 293.382 244.121 292.654 243.804C291.945 243.487 291.385 243.001 290.974 242.348C290.564 241.676 290.358 240.836 290.358 239.828C290.358 238.335 290.946 237.187 292.122 236.384C293.298 235.563 295.109 235.115 297.554 235.04L300.102 234.956V234.06C300.102 232.809 299.832 231.941 299.29 231.456C298.749 230.971 297.984 230.728 296.994 230.728C296.21 230.728 295.464 230.849 294.754 231.092C294.045 231.316 293.382 231.577 292.766 231.876L292.01 230.028C292.664 229.673 293.438 229.375 294.334 229.132C295.23 228.871 296.164 228.74 297.134 228.74ZM297.862 236.748C295.996 236.823 294.698 237.121 293.97 237.644C293.261 238.167 292.906 238.904 292.906 239.856C292.906 240.696 293.158 241.312 293.662 241.704C294.185 242.096 294.848 242.292 295.65 242.292C296.92 242.292 297.974 241.947 298.814 241.256C299.654 240.547 300.074 239.464 300.074 238.008V236.664L297.862 236.748ZM312.658 242.264C313.031 242.264 313.414 242.236 313.806 242.18C314.198 242.105 314.515 242.031 314.758 241.956V243.832C314.496 243.963 314.123 244.065 313.638 244.14C313.152 244.233 312.686 244.28 312.238 244.28C311.454 244.28 310.726 244.149 310.054 243.888C309.4 243.608 308.868 243.132 308.458 242.46C308.047 241.788 307.842 240.845 307.842 239.632V230.896H305.714V229.72L307.87 228.74L308.85 225.548H310.306V228.992H314.646V230.896H310.306V239.576C310.306 240.491 310.52 241.172 310.95 241.62C311.398 242.049 311.967 242.264 312.658 242.264ZM327.951 244H316.975V242.376L325.039 230.896H317.451V228.992H327.755V230.84L319.803 242.096H327.951V244Z" fill="white"/>
<defs>
<filter id="filter0_d_6219_249" x="32" y="215" width="75" height="38" filterUnits="userSpaceOnUse" color-interpolation-filters="sRGB">
<feFlood flood-opacity="0" result="BackgroundImageFix"/>
<feColorMatrix in="SourceAlpha" type="matrix" values="0 0 0 0 0 0 0 0 0 0 0 0 0 0 0 0 0 0 127 0" result="hardAlpha"/>
<feOffset dy="2"/>
<feColorMatrix type="matrix" values="0 0 0 0 0.113725 0 0 0 0 0.168627 0 0 0 0 0.184314 0 0 0 0.25 0"/>
<feBlend mode="normal" in2="BackgroundImageFix" result="effect1_dropShadow_6219_249"/>
<feBlend mode="normal" in="SourceGraphic" in2="effect1_dropShadow_6219_249" result="shape"/>
</filter>
</defs>
</svg>
