<svg width="453" height="256" viewBox="0 0 453 256" fill="none" xmlns="http://www.w3.org/2000/svg">
<rect x="1.96065" y="1.7878" width="449.688" height="252.48" rx="11.8945" fill="#0060FF" stroke="#0060FF" stroke-width="2.30216"/>
<path d="M37.9902 172.301V150.903L33.9598 152.149L33.2636 148.412L39.1993 146.47H42.1671V172.301H37.9902ZM57.0887 172.74C51.153 172.74 47.4157 167.464 47.4157 159.697V159.294C47.4157 151.526 51.2263 146.213 57.162 146.213C62.9877 146.213 66.8349 151.489 66.8349 159.257V159.66C66.8349 167.428 62.9877 172.74 57.0887 172.74ZM57.162 168.857C60.3863 168.857 62.4748 165.376 62.4748 159.66V159.367C62.4748 153.651 60.313 150.097 57.0887 150.097C53.8644 150.097 51.7759 153.578 51.7759 159.294V159.587C51.7759 165.303 53.901 168.857 57.162 168.857ZM80.4858 172.74C74.5501 172.74 70.8128 167.464 70.8128 159.697V159.294C70.8128 151.526 74.6234 146.213 80.5591 146.213C86.3848 146.213 90.232 151.489 90.232 159.257V159.66C90.232 167.428 86.3848 172.74 80.4858 172.74ZM80.5591 168.857C83.7834 168.857 85.8719 165.376 85.8719 159.66V159.367C85.8719 153.651 83.7101 150.097 80.4858 150.097C77.2615 150.097 75.173 153.578 75.173 159.294V159.587C75.173 165.303 77.2981 168.857 80.5591 168.857ZM103.629 172.301V152.882H107.77V155.703C108.906 153.981 110.408 152.515 112.973 152.515C115.354 152.515 117.076 153.724 117.992 155.63C119.311 153.871 121.033 152.515 123.672 152.515C127.299 152.515 129.607 154.86 129.607 159.257V172.301H125.504V160.503C125.504 157.718 124.258 156.252 122.206 156.252C120.154 156.252 118.689 157.755 118.689 160.539V172.301H114.548V160.466C114.548 157.681 113.339 156.252 111.287 156.252C109.199 156.252 107.77 157.901 107.77 160.539V172.301H103.629Z" fill="white"/>
<path d="M111.572 113.193L111.573 36.6934" stroke="#4C8FFF" stroke-width="8" stroke-linecap="round"/>
<path d="M99.2827 45.4915L111.72 30.332L124.283 45.4915" stroke="#4C8FFF" stroke-width="8" stroke-linecap="round" stroke-linejoin="round"/>
<path d="M54.2224 113.193L54.2227 36.6934" stroke="#4C8FFF" stroke-width="8" stroke-linecap="round"/>
<path d="M41.9326 45.4915L54.3697 30.332L66.9326 45.4915" stroke="#4C8FFF" stroke-width="8" stroke-linecap="round" stroke-linejoin="round"/>
<path d="M164.709 113.193L164.71 36.6934" stroke="#4C8FFF" stroke-width="8" stroke-linecap="round"/>
<path d="M152.419 45.4915L164.857 30.332L177.419 45.4915" stroke="#4C8FFF" stroke-width="8" stroke-linecap="round" stroke-linejoin="round"/>
<path d="M211.963 113.193L211.963 78.5125C211.962 69.1391 217.206 60.5532 225.544 56.2721L257.733 39.7463" stroke="white" stroke-width="8" stroke-linecap="round"/>
<path d="M247.076 31.9576L266.577 34.0117L260.821 52.8401" stroke="white" stroke-width="8" stroke-linecap="round" stroke-linejoin="round"/>
<path d="M36.4109 225.229V204.229H43.9109C46.2209 204.229 48.1109 204.859 49.2809 206.029C50.2109 206.959 50.6909 208.159 50.6909 209.569V209.659C50.6909 212.239 49.1909 213.559 47.6009 214.369C49.9109 215.179 51.5909 216.589 51.5909 219.379V219.499C51.5909 223.189 48.5909 225.229 44.1209 225.229H36.4109ZM47.2409 210.199V210.139C47.2409 208.339 45.9509 207.319 43.6709 207.319H39.8009V213.139H43.4609C45.7409 213.139 47.2409 212.149 47.2409 210.199ZM48.1409 219.139V219.079C48.1409 217.249 46.7309 216.139 44.0609 216.139H39.8009V222.139H44.2109C46.6109 222.139 48.1409 221.059 48.1409 219.139ZM59.1864 225.529C56.5464 225.529 54.2964 223.759 54.2964 220.669V220.489C54.2964 217.099 56.6364 215.419 59.9964 215.419C61.4664 215.419 62.5464 215.689 63.6264 216.079V215.389C63.6264 213.229 62.3664 212.149 60.2064 212.149C58.6764 212.149 57.4464 212.629 56.3964 213.109L55.4064 210.409C56.9364 209.659 58.4964 209.149 60.6564 209.149C62.7264 209.149 64.2864 209.689 65.3364 210.739C66.3864 211.789 66.9264 213.349 66.9264 215.359V225.229H63.5964V223.279C62.6664 224.599 61.2564 225.529 59.1864 225.529ZM60.2064 222.979C62.1564 222.979 63.6564 221.689 63.6564 219.889V218.269C62.8464 217.939 61.8864 217.729 60.7164 217.729C58.7664 217.729 57.6264 218.719 57.6264 220.399V220.489C57.6264 222.049 58.6764 222.949 60.2064 222.979ZM76.4935 225.529C73.2835 225.529 70.3435 222.889 70.3435 217.489V217.069C70.3435 211.729 73.2835 209.029 76.4935 209.029C78.8035 209.029 80.2135 210.349 81.1435 211.759V203.569H84.5635V225.229H81.1435V222.679C80.1835 224.209 78.7735 225.529 76.4935 225.529ZM77.4235 222.529C79.4935 222.529 81.2335 220.549 81.2335 217.429V217.129C81.2335 214.009 79.4935 212.029 77.4235 212.029C75.3535 212.029 73.7635 213.919 73.7635 217.129V217.399C73.7635 220.579 75.3835 222.529 77.4235 222.529ZM102.621 225.499C99.891 225.499 97.311 224.629 95.031 222.469L97.131 219.859C98.691 221.269 100.401 222.349 102.651 222.349C104.691 222.349 105.981 221.209 105.981 219.679V219.649C105.981 218.329 105.261 217.429 101.931 216.229C97.941 214.699 95.901 213.259 95.901 209.899V209.839C95.901 206.389 98.601 203.959 102.531 203.959C105.021 203.959 107.211 204.739 109.131 206.449L107.151 209.119C105.711 207.919 104.121 207.109 102.441 207.109C100.521 207.109 99.381 208.129 99.381 209.539V209.569C99.381 211.009 100.161 211.849 103.731 213.199C107.631 214.699 109.431 216.319 109.431 219.379V219.439C109.431 223.129 106.551 225.499 102.621 225.499ZM117.714 225.469C115.404 225.469 113.604 224.479 113.604 221.359V212.239H111.894V209.329H113.604V205.039H117.024V209.329H120.564V212.239H117.024V220.699C117.024 221.929 117.624 222.439 118.704 222.439C119.334 222.439 119.934 222.289 120.534 222.019V224.779C119.724 225.229 118.884 225.469 117.714 225.469ZM130.222 225.589C126.142 225.589 122.962 222.439 122.962 217.429V217.219C122.962 212.449 125.812 209.029 129.742 209.029C134.062 209.029 136.342 212.599 136.342 217.399C136.342 217.609 136.342 218.089 136.312 218.569H126.352C126.682 221.239 128.302 222.679 130.372 222.679C131.902 222.679 132.982 222.049 134.032 220.999L135.802 223.099C134.362 224.629 132.622 225.589 130.222 225.589ZM126.322 216.229H133.012C132.862 213.679 131.752 211.879 129.742 211.879C127.852 211.879 126.562 213.499 126.322 216.229ZM147.91 225.529C145.6 225.529 144.25 224.209 143.26 222.829V225.229H139.87V203.569H143.26V211.879C144.25 210.319 145.69 209.029 147.91 209.029C151.09 209.029 154.09 211.669 154.09 217.069V217.459C154.09 222.859 151.15 225.529 147.91 225.529ZM146.98 222.529C149.05 222.529 150.67 220.639 150.67 217.429V217.159C150.67 213.979 149.02 212.029 146.98 212.029C144.94 212.029 143.2 214.009 143.2 217.129V217.429C143.2 220.549 144.94 222.529 146.98 222.529ZM164.237 225.589C160.157 225.589 156.977 222.439 156.977 217.429V217.219C156.977 212.449 159.827 209.029 163.757 209.029C168.077 209.029 170.357 212.599 170.357 217.399C170.357 217.609 170.357 218.089 170.327 218.569H160.367C160.697 221.239 162.317 222.679 164.387 222.679C165.917 222.679 166.997 222.049 168.047 220.999L169.817 223.099C168.377 224.629 166.637 225.589 164.237 225.589ZM160.337 216.229H167.027C166.877 213.679 165.767 211.879 163.757 211.879C161.867 211.879 160.577 213.499 160.337 216.229ZM173.885 225.229V209.329H177.275V211.639C178.205 210.229 179.465 209.029 181.625 209.029C184.715 209.029 186.515 211.129 186.515 214.579V225.229H183.095V215.569C183.095 213.289 182.075 212.089 180.275 212.089C178.505 212.089 177.275 213.409 177.275 215.599V225.229H173.885Z" fill="white"/>
<rect x="357.134" y="187.104" width="71.0868" height="45.6807" rx="9" fill="#0060FF" stroke="white" stroke-width="4"/>
<path d="M377.073 220.223V203.871L373.993 204.823L373.461 201.967L377.997 200.483H380.265V220.223H377.073ZM385.599 220.223L393.131 203.591H384.591V200.623H396.659V203.059L389.127 220.223H385.599ZM405.101 220.559C402.301 220.559 400.285 219.439 398.829 217.843L400.845 215.547C401.937 216.751 403.169 217.563 405.073 217.563C406.893 217.563 408.293 216.359 408.293 214.455V214.399C408.293 212.355 406.613 211.263 403.841 211.263H402.861L402.441 209.219L407.201 203.563H399.809V200.623H411.261V203.171L406.277 208.827C409.021 209.275 411.513 210.843 411.513 214.287V214.371C411.513 218.039 408.825 220.559 405.101 220.559Z" fill="white"/>
</svg>
