<svg width="453" height="256" viewBox="0 0 453 256" fill="none" xmlns="http://www.w3.org/2000/svg">
<rect x="1.17696" y="1.7878" width="449.688" height="252.48" rx="11.8945" fill="#0060FF" stroke="#0060FF" stroke-width="2.30216"/>
<path d="M110.789 113.193L110.789 36.6934" stroke="#4C8FFF" stroke-width="8" stroke-linecap="round"/>
<path d="M98.499 45.4915L110.936 30.332L123.499 45.4915" stroke="#4C8FFF" stroke-width="8" stroke-linecap="round" stroke-linejoin="round"/>
<path d="M53.4387 113.193L53.439 36.6934" stroke="#4C8FFF" stroke-width="8" stroke-linecap="round"/>
<path d="M41.1489 45.4915L53.586 30.332L66.1489 45.4915" stroke="#4C8FFF" stroke-width="8" stroke-linecap="round" stroke-linejoin="round"/>
<path d="M163.926 113.193L163.926 36.6934" stroke="#4C8FFF" stroke-width="8" stroke-linecap="round"/>
<path d="M151.636 45.4915L164.073 30.332L176.636 45.4915" stroke="#4C8FFF" stroke-width="8" stroke-linecap="round" stroke-linejoin="round"/>
<path d="M211.179 113.193L211.179 78.5125C211.179 69.1391 216.422 60.5532 224.761 56.2721L256.95 39.7463" stroke="white" stroke-width="8" stroke-linecap="round"/>
<path d="M246.292 31.9576L265.793 34.0117L260.037 52.8401" stroke="white" stroke-width="8" stroke-linecap="round" stroke-linejoin="round"/>
<path d="M35.6272 225.229V204.229H43.1272C45.4372 204.229 47.3272 204.859 48.4972 206.029C49.4272 206.959 49.9072 208.159 49.9072 209.569V209.659C49.9072 212.239 48.4072 213.559 46.8172 214.369C49.1272 215.179 50.8072 216.589 50.8072 219.379V219.499C50.8072 223.189 47.8072 225.229 43.3372 225.229H35.6272ZM46.4572 210.199V210.139C46.4572 208.339 45.1672 207.319 42.8872 207.319H39.0172V213.139H42.6772C44.9572 213.139 46.4572 212.149 46.4572 210.199ZM47.3572 219.139V219.079C47.3572 217.249 45.9472 216.139 43.2772 216.139H39.0172V222.139H43.4272C45.8272 222.139 47.3572 221.059 47.3572 219.139ZM58.4027 225.529C55.7627 225.529 53.5127 223.759 53.5127 220.669V220.489C53.5127 217.099 55.8527 215.419 59.2127 215.419C60.6827 215.419 61.7627 215.689 62.8427 216.079V215.389C62.8427 213.229 61.5827 212.149 59.4227 212.149C57.8927 212.149 56.6627 212.629 55.6127 213.109L54.6227 210.409C56.1527 209.659 57.7127 209.149 59.8727 209.149C61.9427 209.149 63.5027 209.689 64.5527 210.739C65.6027 211.789 66.1427 213.349 66.1427 215.359V225.229H62.8127V223.279C61.8827 224.599 60.4727 225.529 58.4027 225.529ZM59.4227 222.979C61.3727 222.979 62.8727 221.689 62.8727 219.889V218.269C62.0627 217.939 61.1027 217.729 59.9327 217.729C57.9827 217.729 56.8427 218.719 56.8427 220.399V220.489C56.8427 222.049 57.8927 222.949 59.4227 222.979ZM75.7098 225.529C72.4998 225.529 69.5598 222.889 69.5598 217.489V217.069C69.5598 211.729 72.4998 209.029 75.7098 209.029C78.0198 209.029 79.4298 210.349 80.3598 211.759V203.569H83.7798V225.229H80.3598V222.679C79.3998 224.209 77.9898 225.529 75.7098 225.529ZM76.6398 222.529C78.7098 222.529 80.4498 220.549 80.4498 217.429V217.129C80.4498 214.009 78.7098 212.029 76.6398 212.029C74.5698 212.029 72.9798 213.919 72.9798 217.129V217.399C72.9798 220.579 74.5998 222.529 76.6398 222.529ZM101.837 225.499C99.1074 225.499 96.5274 224.629 94.2474 222.469L96.3474 219.859C97.9074 221.269 99.6174 222.349 101.867 222.349C103.907 222.349 105.197 221.209 105.197 219.679V219.649C105.197 218.329 104.477 217.429 101.147 216.229C97.1574 214.699 95.1174 213.259 95.1174 209.899V209.839C95.1174 206.389 97.8174 203.959 101.747 203.959C104.237 203.959 106.427 204.739 108.347 206.449L106.367 209.119C104.927 207.919 103.337 207.109 101.657 207.109C99.7374 207.109 98.5974 208.129 98.5974 209.539V209.569C98.5974 211.009 99.3774 211.849 102.947 213.199C106.847 214.699 108.647 216.319 108.647 219.379V219.439C108.647 223.129 105.767 225.499 101.837 225.499ZM116.931 225.469C114.621 225.469 112.821 224.479 112.821 221.359V212.239H111.111V209.329H112.821V205.039H116.241V209.329H119.781V212.239H116.241V220.699C116.241 221.929 116.841 222.439 117.921 222.439C118.551 222.439 119.151 222.289 119.751 222.019V224.779C118.941 225.229 118.101 225.469 116.931 225.469ZM129.439 225.589C125.359 225.589 122.179 222.439 122.179 217.429V217.219C122.179 212.449 125.029 209.029 128.959 209.029C133.279 209.029 135.559 212.599 135.559 217.399C135.559 217.609 135.559 218.089 135.529 218.569H125.569C125.899 221.239 127.519 222.679 129.589 222.679C131.119 222.679 132.199 222.049 133.249 220.999L135.019 223.099C133.579 224.629 131.839 225.589 129.439 225.589ZM125.539 216.229H132.229C132.079 213.679 130.969 211.879 128.959 211.879C127.069 211.879 125.779 213.499 125.539 216.229ZM147.126 225.529C144.816 225.529 143.466 224.209 142.476 222.829V225.229H139.086V203.569H142.476V211.879C143.466 210.319 144.906 209.029 147.126 209.029C150.306 209.029 153.306 211.669 153.306 217.069V217.459C153.306 222.859 150.366 225.529 147.126 225.529ZM146.196 222.529C148.266 222.529 149.886 220.639 149.886 217.429V217.159C149.886 213.979 148.236 212.029 146.196 212.029C144.156 212.029 142.416 214.009 142.416 217.129V217.429C142.416 220.549 144.156 222.529 146.196 222.529ZM163.454 225.589C159.374 225.589 156.194 222.439 156.194 217.429V217.219C156.194 212.449 159.044 209.029 162.974 209.029C167.294 209.029 169.574 212.599 169.574 217.399C169.574 217.609 169.574 218.089 169.544 218.569H159.584C159.914 221.239 161.534 222.679 163.604 222.679C165.134 222.679 166.214 222.049 167.264 220.999L169.034 223.099C167.594 224.629 165.854 225.589 163.454 225.589ZM159.554 216.229H166.244C166.094 213.679 164.984 211.879 162.974 211.879C161.084 211.879 159.794 213.499 159.554 216.229ZM173.101 225.229V209.329H176.491V211.639C177.421 210.229 178.681 209.029 180.841 209.029C183.931 209.029 185.731 211.129 185.731 214.579V225.229H182.311V215.569C182.311 213.289 181.291 212.089 179.491 212.089C177.721 212.089 176.491 213.409 176.491 215.599V225.229H173.101Z" fill="white"/>
<rect x="356.351" y="187.104" width="71.0868" height="45.6807" rx="9" fill="#0060FF" stroke="white" stroke-width="4"/>
<path d="M376.289 220.223V203.871L373.209 204.823L372.677 201.967L377.213 200.483H379.481V220.223H376.289ZM384.815 220.223L392.347 203.591H383.807V200.623H395.875V203.059L388.343 220.223H384.815ZM404.317 220.559C401.517 220.559 399.501 219.439 398.045 217.843L400.061 215.547C401.153 216.751 402.385 217.563 404.289 217.563C406.109 217.563 407.509 216.359 407.509 214.455V214.399C407.509 212.355 405.829 211.263 403.057 211.263H402.077L401.657 209.219L406.417 203.563H399.025V200.623H410.477V203.171L405.493 208.827C408.237 209.275 410.729 210.843 410.729 214.287V214.371C410.729 218.039 408.041 220.559 404.317 220.559Z" fill="white"/>
</svg>
