<svg width="502" height="273" viewBox="0 0 502 273" fill="none" xmlns="http://www.w3.org/2000/svg">
<rect x="2.19659" y="1.47369" width="498.447" height="269.447" rx="13.1922" fill="#0060FF" stroke="#0060FF" stroke-width="2.55333"/>
<path d="M53.7318 175.805C49.3262 175.805 45.6801 174.083 42.7936 171.298L46.1358 166.943C48.5159 169.019 50.8454 170.336 53.6812 170.336C57.4792 170.336 60.0112 167.854 60.0112 164.006V163.955C60.0112 160.106 57.2766 157.929 53.4786 157.929C51.4024 157.929 49.6806 158.486 48.1108 159.245L44.6673 156.967L45.6294 139.749H64.3662V145.066H50.5922L50.0351 153.523C51.4024 152.966 52.7697 152.713 54.7446 152.713C60.7708 152.713 65.8348 156.156 65.8348 163.651V163.803C65.8348 171.095 60.8214 175.805 53.7318 175.805ZM84.5434 175.805C76.3397 175.805 71.1744 168.513 71.1744 157.777V157.22C71.1744 146.484 76.441 139.141 84.6447 139.141C92.6964 139.141 98.0136 146.434 98.0136 157.169V157.726C98.0136 168.462 92.6964 175.805 84.5434 175.805ZM84.6447 170.437C89.101 170.437 91.9875 165.626 91.9875 157.726V157.321C91.9875 149.421 88.9997 144.509 84.5434 144.509C80.0871 144.509 77.2006 149.32 77.2006 157.22V157.625C77.2006 165.525 80.1377 170.437 84.6447 170.437ZM116.718 175.805C108.514 175.805 103.349 168.513 103.349 157.777V157.22C103.349 146.484 108.615 139.141 116.819 139.141C124.871 139.141 130.188 146.434 130.188 157.169V157.726C130.188 168.462 124.871 175.805 116.718 175.805ZM116.819 170.437C121.275 170.437 124.162 165.626 124.162 157.726V157.321C124.162 149.421 121.174 144.509 116.718 144.509C112.262 144.509 109.375 149.32 109.375 157.22V157.625C109.375 165.525 112.312 170.437 116.819 170.437ZM144.257 175.197V155.778H148.397V158.599C149.533 156.877 151.035 155.411 153.6 155.411C155.982 155.411 157.704 156.621 158.62 158.526C159.939 156.767 161.661 155.411 164.299 155.411C167.926 155.411 170.235 157.756 170.235 162.153V175.197H166.131V163.399C166.131 160.614 164.885 159.149 162.833 159.149C160.782 159.149 159.316 160.651 159.316 163.436V175.197H155.176V163.362C155.176 160.578 153.966 159.149 151.915 159.149C149.826 159.149 148.397 160.798 148.397 163.436V175.197H144.257Z" fill="white"/>
<path d="M46.1999 226.318V205.318H49.6799V215.638L57.8399 205.318H61.9799L54.6899 214.348L62.3399 226.318H58.1999L52.2899 217.108L49.6799 220.258V226.318H46.1999ZM68.7411 226.618C66.1011 226.618 63.8511 224.848 63.8511 221.758V221.578C63.8511 218.188 66.1911 216.508 69.5511 216.508C71.0211 216.508 72.1011 216.778 73.1811 217.168V216.478C73.1811 214.318 71.9211 213.238 69.7611 213.238C68.2311 213.238 67.0011 213.718 65.9511 214.198L64.9611 211.498C66.4911 210.748 68.0511 210.238 70.2111 210.238C72.2811 210.238 73.8411 210.778 74.8911 211.828C75.9411 212.878 76.4811 214.438 76.4811 216.448V226.318H73.1511V224.368C72.2211 225.688 70.8111 226.618 68.7411 226.618ZM69.7611 224.068C71.7111 224.068 73.2111 222.778 73.2111 220.978V219.358C72.4011 219.028 71.4411 218.818 70.2711 218.818C68.3211 218.818 67.1811 219.808 67.1811 221.488V221.578C67.1811 223.138 68.2311 224.038 69.7611 224.068ZM80.5582 226.318V210.418H83.9482V213.508C84.7882 211.468 86.3182 210.058 88.7182 210.178V213.868H88.5682C85.8382 213.868 83.9482 215.668 83.9482 219.268V226.318H80.5582ZM91.9443 226.318V204.658H95.3643V226.318H91.9443ZM99.4178 218.818V215.458H107.788V218.818H99.4178ZM111.99 226.318V205.318H115.62L121.02 214.948L126.36 205.318H130.05V226.318H126.6V211.468L121.02 221.188H120.93L115.38 211.498V226.318H111.99ZM138.603 226.618C135.963 226.618 133.713 224.848 133.713 221.758V221.578C133.713 218.188 136.053 216.508 139.413 216.508C140.883 216.508 141.963 216.778 143.043 217.168V216.478C143.043 214.318 141.783 213.238 139.623 213.238C138.093 213.238 136.863 213.718 135.813 214.198L134.823 211.498C136.353 210.748 137.913 210.238 140.073 210.238C142.143 210.238 143.703 210.778 144.753 211.828C145.803 212.878 146.343 214.438 146.343 216.448V226.318H143.013V224.368C142.083 225.688 140.673 226.618 138.603 226.618ZM139.623 224.068C141.573 224.068 143.073 222.778 143.073 220.978V219.358C142.263 219.028 141.303 218.818 140.133 218.818C138.183 218.818 137.043 219.808 137.043 221.488V221.578C137.043 223.138 138.093 224.038 139.623 224.068ZM150.42 226.318V210.418H153.81V213.508C154.65 211.468 156.18 210.058 158.58 210.178V213.868H158.43C155.7 213.868 153.81 215.668 153.81 219.268V226.318H150.42ZM164.238 210.418L167.328 215.758L170.388 210.418H173.958L169.188 218.188L174.168 226.318H170.508L167.268 220.648L163.998 226.318H160.398L165.378 218.218L160.608 210.418H164.238ZM183.368 226.318L191.078 205.198H194.438L202.148 226.318H198.518L196.778 221.368H188.618L186.878 226.318H183.368ZM189.698 218.278H195.668L192.698 209.848L189.698 218.278ZM205.359 226.318V204.658H208.779V226.318H205.359ZM213.372 226.318V204.658H216.792V226.318H213.372ZM227.775 226.678C223.695 226.678 220.515 223.528 220.515 218.518V218.308C220.515 213.538 223.365 210.118 227.295 210.118C231.615 210.118 233.895 213.688 233.895 218.488C233.895 218.698 233.895 219.178 233.865 219.658H223.905C224.235 222.328 225.855 223.768 227.925 223.768C229.455 223.768 230.535 223.138 231.585 222.088L233.355 224.188C231.915 225.718 230.175 226.678 227.775 226.678ZM223.875 217.318H230.565C230.415 214.768 229.305 212.968 227.295 212.968C225.405 212.968 224.115 214.588 223.875 217.318ZM243.963 226.678C239.883 226.678 236.703 223.528 236.703 218.518V218.308C236.703 213.538 239.553 210.118 243.483 210.118C247.803 210.118 250.083 213.688 250.083 218.488C250.083 218.698 250.083 219.178 250.053 219.658H240.093C240.423 222.328 242.043 223.768 244.113 223.768C245.643 223.768 246.723 223.138 247.773 222.088L249.543 224.188C248.103 225.718 246.363 226.678 243.963 226.678ZM240.063 217.318H246.753C246.603 214.768 245.493 212.968 243.483 212.968C241.593 212.968 240.303 214.588 240.063 217.318Z" fill="white"/>
<path d="M108.597 109.74L108.598 69.6268C108.598 55.8196 97.4048 44.6266 83.5976 44.6267L60.4207 44.6267" stroke="#4C8FFF" stroke-width="8" stroke-linecap="round"/>
<path d="M69.0794 31.7393L53.9199 44.1763L69.0794 56.7393" stroke="#4C8FFF" stroke-width="8" stroke-linecap="round" stroke-linejoin="round"/>
<path d="M315.998 109.74L315.998 69.6268C315.998 55.8196 327.191 44.6266 340.998 44.6267L364.175 44.6267" stroke="#4C8FFF" stroke-width="8" stroke-linecap="round"/>
<path d="M355.516 31.7393L370.676 44.1763L355.516 56.7393" stroke="#4C8FFF" stroke-width="8" stroke-linecap="round" stroke-linejoin="round"/>
<path d="M239.456 109.668L239.456 88.5991C239.456 74.7921 250.649 63.5994 264.456 63.5994L287.634 63.5994" stroke="#4C8FFF" stroke-width="8" stroke-linecap="round"/>
<path d="M278.975 50.7114L294.135 63.1485L278.975 75.7114" stroke="#4C8FFF" stroke-width="8" stroke-linecap="round" stroke-linejoin="round"/>
<path d="M238.927 111.058L238.927 34.5583" stroke="white" stroke-width="8" stroke-linecap="round"/>
<path d="M251.217 43.3565L238.78 28.197L226.217 43.3565" stroke="white" stroke-width="8" stroke-linecap="round" stroke-linejoin="round"/>
<path d="M181.047 110.671L181.047 89.6018C181.047 75.7948 169.854 64.6021 156.047 64.6021L132.869 64.6021" stroke="#4C8FFF" stroke-width="8" stroke-linecap="round"/>
<path d="M141.528 51.7141L126.368 64.1512L141.528 76.7141" stroke="#4C8FFF" stroke-width="8" stroke-linecap="round" stroke-linejoin="round"/>
<path d="M181.576 112.061L181.576 35.561" stroke="white" stroke-width="8" stroke-linecap="round"/>
<path d="M169.286 44.3592L181.723 29.1996L194.286 44.3592" stroke="white" stroke-width="8" stroke-linecap="round" stroke-linejoin="round"/>
</svg>
