<svg width="790" height="768" viewBox="0 0 790 768" fill="none" xmlns="http://www.w3.org/2000/svg">
<rect x="0.00976562" y="0.374512" width="789.655" height="767.339" fill="white"/>
<circle cx="238.276" cy="496.706" r="6.66631" fill="#C41515"/>
<circle cx="238.276" cy="513.734" r="6.66631" fill="#ECB800"/>
<circle cx="238.276" cy="530.76" r="6.66631" fill="#009900"/>
<rect x="226.196" y="483.422" width="24.162" height="60.6246" rx="12.081" stroke="#5E5E5E" stroke-width="3.14581"/>
<circle cx="540.95" cy="496.706" r="6.66631" fill="#C41515"/>
<circle cx="540.95" cy="513.734" r="6.66631" fill="#ECB800"/>
<circle cx="540.95" cy="530.76" r="6.66631" fill="#009900"/>
<rect x="528.87" y="483.422" width="24.162" height="60.6246" rx="12.081" stroke="#5E5E5E" stroke-width="3.14581"/>
<path d="M283.5 305.015H504.268C504.268 305.015 504.268 486.812 504.268 531.342C504.268 575.872 453.287 586.038 453.287 639.651C453.287 693.263 453.287 734.581 453.287 734.581H334.384C334.383 703.431 334.383 671.758 334.383 639.651C334.383 591.796 283.5 582.2 283.5 539.978C283.5 461.151 283.5 386.641 283.5 305.015Z" fill="#0060FF"/>
<path d="M436.562 361.875L53.3203 361.875" stroke="#0060FF" stroke-width="161.738"/>
<path d="M751.42 371.298H357.789" stroke="#0060FF" stroke-width="161.738"/>
<path d="M394.133 473.52L394.133 734.582" stroke="#0060FF" stroke-width="118.104"/>
<path d="M395.067 462.7V734.581M452.497 462.7V595.989M335.271 462.7V595.989" stroke="white" stroke-width="2.78858" stroke-dasharray="10.5 10.5"/>
<path d="M290.197 488.162L301.051 481.896L301.051 494.428L290.197 488.162ZM310.681 512.484V497.225H312.852V512.484H310.681ZM302.703 489.247H299.966V487.077H302.703L302.703 489.247ZM310.681 497.225C310.681 492.819 307.109 489.247 302.703 489.247L302.703 487.077C308.308 487.077 312.852 491.62 312.852 497.225H310.681Z" fill="white"/>
<path d="M342.994 488.162L353.848 481.896L353.848 494.428L342.994 488.162ZM363.478 512.484V497.225H365.649V512.484H363.478ZM355.5 489.247H352.762V487.077H355.5L355.5 489.247ZM363.478 497.225C363.478 492.819 359.906 489.247 355.5 489.247L355.5 487.077C361.105 487.077 365.649 491.62 365.649 497.225H363.478Z" fill="white"/>
<path d="M493.732 488.162L482.879 481.896L482.879 494.428L493.732 488.162ZM473.249 513.734V497.225H471.078V513.734H473.249ZM481.227 489.247H483.964V487.077H481.227V489.247ZM473.249 497.225C473.249 492.819 476.82 489.247 481.227 489.247V487.077C475.622 487.077 471.078 491.62 471.078 497.225H473.249Z" fill="white"/>
<path d="M446.799 488.162L435.945 481.896L435.945 494.428L446.799 488.162ZM426.315 513.734V497.225H424.144V513.734H426.315ZM434.293 489.247H437.03V487.077H434.293V489.247ZM426.315 497.225C426.315 492.819 429.887 489.247 434.293 489.247V487.077C428.688 487.077 424.144 491.62 424.144 497.225H426.315Z" fill="white"/>
<path d="M425.229 469.52L431.495 480.374L418.962 480.374L425.229 469.52ZM424.143 510.062L424.143 479.288L426.314 479.288L426.314 510.062L424.143 510.062Z" fill="white"/>
<path d="M364.562 469.52L370.829 480.374L358.296 480.374L364.562 469.52ZM363.477 510.062L363.477 479.288L365.648 479.288L365.648 510.062L363.477 510.062Z" fill="white"/>
<rect x="283.5" y="48.2988" width="159.301" height="296.089" fill="#0060FF"/>
<rect x="567.852" y="34.1812" width="72.8287" height="381.33" transform="rotate(29.9336 567.852 34.1812)" fill="#0060FF"/>
</svg>
