<svg width="601" height="262" viewBox="0 0 601 262" fill="none" xmlns="http://www.w3.org/2000/svg">
<rect x="0.554688" y="0.636047" width="600" height="261.002" rx="16" fill="#11181E"/>
<g opacity="0.4">
<path d="M68.5547 114.636C68.5547 112.979 67.2115 111.636 65.5547 111.636H61.5547C59.8978 111.636 58.5547 112.979 58.5547 114.636V117.636C58.5547 119.293 59.8978 120.636 61.5547 120.636H65.5547C67.2115 120.636 68.5547 119.293 68.5547 117.636V114.636Z" fill="white"/>
<path d="M68.5547 111.636C68.5547 109.979 67.2115 108.636 65.5547 108.636H61.5547C59.8978 108.636 58.5547 109.979 58.5547 111.636V117.636C58.5547 119.293 59.8978 120.636 61.5547 120.636H65.5547C67.2115 120.636 68.5547 119.293 68.5547 117.636V111.636Z" fill="white"/>
<path d="M63.5547 56.636V114.636" stroke="white" stroke-width="10" stroke-linejoin="round"/>
<path d="M61.8035 35.81L49.7726 57.6161C48.9286 59.1458 50.3139 60.9462 52.0088 60.5225L63.0696 57.7573C63.3881 57.6777 63.7213 57.6777 64.0398 57.7573L75.1005 60.5225C76.7954 60.9462 78.1807 59.1458 77.3368 57.6161L65.3058 35.81C64.5453 34.4316 62.5641 34.4316 61.8035 35.81Z" fill="white"/>
</g>
<path d="M166.555 114.636C166.555 112.979 165.212 111.636 163.555 111.636H159.555C157.898 111.636 156.555 112.979 156.555 114.636V117.636C156.555 119.293 157.898 120.636 159.555 120.636H163.555C165.212 120.636 166.555 119.293 166.555 117.636V114.636Z" fill="white"/>
<path d="M166.555 111.636C166.555 109.979 165.212 108.636 163.555 108.636H159.555C157.898 108.636 156.555 109.979 156.555 111.636V117.636C156.555 119.293 157.898 120.636 159.555 120.636H163.555C165.212 120.636 166.555 119.293 166.555 117.636V111.636Z" fill="white"/>
<path d="M161.555 56.636V114.636" stroke="white" stroke-width="10" stroke-linejoin="round"/>
<path d="M159.804 35.81L147.773 57.6161C146.929 59.1458 148.314 60.9462 150.009 60.5225L161.07 57.7573C161.388 57.6777 161.721 57.6777 162.04 57.7573L173.101 60.5225C174.795 60.9462 176.181 59.1458 175.337 57.6161L163.306 35.81C162.545 34.4316 160.564 34.4316 159.804 35.81Z" fill="white"/>
<g opacity="0.4">
<rect width="10" height="10" rx="3" transform="matrix(-1 0 0 1 242.555 110.638)" fill="white"/>
<path d="M239.555 120.636C241.212 120.636 242.555 119.293 242.555 117.636L242.555 116.636L232.555 116.636L232.555 117.636C232.555 119.293 233.898 120.636 235.555 120.636L239.555 120.636Z" fill="white"/>
<path d="M237.555 114.636C237.555 90.3355 257.254 70.636 281.555 70.636" stroke="white" stroke-width="10"/>
<path d="M286.572 56.8173L308.378 68.8482C309.757 69.6088 309.757 71.59 308.378 72.3506L286.572 84.3815C285.043 85.2254 283.242 83.8401 283.666 82.1453L284.827 77.4998C285.064 76.5531 284.348 75.636 283.372 75.636L281.552 75.636L281.552 65.636L283.39 65.636C284.366 65.636 285.082 64.719 284.846 63.7723L283.666 59.0535C283.242 57.3586 285.043 55.9733 286.572 56.8173Z" fill="white"/>
</g>
<path d="M54.6747 175.318H50.7147V181.638H46.5947V175.318H33.3547V171.958L46.5147 152.958H50.7147V171.718H54.6747V175.318ZM46.5947 163.958C46.5947 163.318 46.5947 162.704 46.5947 162.118C46.6214 161.531 46.648 160.971 46.6747 160.438C46.7014 159.878 46.7147 159.371 46.7147 158.918C46.7414 158.438 46.768 158.011 46.7947 157.638H46.6347C46.4214 158.171 46.1547 158.718 45.8347 159.278C45.5414 159.838 45.2347 160.331 44.9147 160.758L37.3547 171.718H46.5947V163.958ZM77.0253 167.318C77.0253 169.638 76.8386 171.704 76.4653 173.518C76.1186 175.331 75.5586 176.878 74.7853 178.158C74.0386 179.411 73.0386 180.371 71.7853 181.038C70.5586 181.704 69.0786 182.038 67.3453 182.038C65.1586 182.038 63.3586 181.451 61.9453 180.278C60.532 179.104 59.4786 177.424 58.7853 175.238C58.092 173.024 57.7453 170.384 57.7453 167.318C57.7453 164.224 58.052 161.584 58.6653 159.398C59.3053 157.211 60.332 155.544 61.7453 154.398C63.1586 153.224 65.0253 152.638 67.3453 152.638C69.532 152.638 71.332 153.224 72.7453 154.398C74.1853 155.544 75.252 157.211 75.9453 159.398C76.6653 161.584 77.0253 164.224 77.0253 167.318ZM61.9853 167.318C61.9853 169.798 62.1586 171.864 62.5053 173.518C62.852 175.171 63.412 176.411 64.1853 177.238C64.9853 178.064 66.0386 178.478 67.3453 178.478C68.652 178.478 69.692 178.078 70.4653 177.278C71.2653 176.451 71.8386 175.211 72.1853 173.558C72.5586 171.878 72.7453 169.798 72.7453 167.318C72.7453 164.838 72.5586 162.784 72.1853 161.158C71.8386 159.504 71.2653 158.264 70.4653 157.438C69.692 156.611 68.652 156.198 67.3453 156.198C66.0386 156.198 64.9853 156.611 64.1853 157.438C63.412 158.264 62.852 159.504 62.5053 161.158C62.1586 162.784 61.9853 164.838 61.9853 167.318ZM100.416 167.318C100.416 169.638 100.229 171.704 99.8559 173.518C99.5093 175.331 98.9493 176.878 98.1759 178.158C97.4293 179.411 96.4293 180.371 95.1759 181.038C93.9493 181.704 92.4693 182.038 90.7359 182.038C88.5493 182.038 86.7493 181.451 85.3359 180.278C83.9226 179.104 82.8693 177.424 82.1759 175.238C81.4826 173.024 81.1359 170.384 81.1359 167.318C81.1359 164.224 81.4426 161.584 82.0559 159.398C82.6959 157.211 83.7226 155.544 85.1359 154.398C86.5493 153.224 88.4159 152.638 90.7359 152.638C92.9226 152.638 94.7226 153.224 96.1359 154.398C97.5759 155.544 98.6426 157.211 99.3359 159.398C100.056 161.584 100.416 164.224 100.416 167.318ZM85.3759 167.318C85.3759 169.798 85.5493 171.864 85.8959 173.518C86.2426 175.171 86.8026 176.411 87.5759 177.238C88.3759 178.064 89.4293 178.478 90.7359 178.478C92.0426 178.478 93.0826 178.078 93.8559 177.278C94.6559 176.451 95.2293 175.211 95.5759 173.558C95.9493 171.878 96.1359 169.798 96.1359 167.318C96.1359 164.838 95.9493 162.784 95.5759 161.158C95.2293 159.504 94.6559 158.264 93.8559 157.438C93.0826 156.611 92.0426 156.198 90.7359 156.198C89.4293 156.198 88.3759 156.611 87.5759 157.438C86.8026 158.264 86.2426 159.504 85.8959 161.158C85.5493 162.784 85.3759 164.838 85.3759 167.318ZM141.097 159.678C143.524 159.678 145.351 160.304 146.577 161.558C147.804 162.811 148.417 164.824 148.417 167.598V181.638H144.177V168.158C144.177 166.504 143.844 165.264 143.177 164.438C142.537 163.584 141.524 163.158 140.137 163.158C138.217 163.158 136.844 163.758 136.017 164.958C135.191 166.131 134.777 167.838 134.777 170.078V181.638H130.577V168.158C130.577 167.064 130.417 166.144 130.097 165.398C129.804 164.651 129.364 164.091 128.777 163.718C128.191 163.344 127.431 163.158 126.497 163.158C125.164 163.158 124.111 163.451 123.337 164.038C122.564 164.624 122.004 165.491 121.657 166.638C121.337 167.758 121.177 169.131 121.177 170.758V181.638H116.937V160.078H120.297L120.897 162.958H121.137C121.591 162.211 122.137 161.598 122.777 161.118C123.444 160.638 124.177 160.278 124.977 160.038C125.777 159.798 126.604 159.678 127.457 159.678C129.084 159.678 130.457 159.971 131.577 160.558C132.697 161.118 133.511 161.984 134.017 163.158H134.337C135.031 161.958 135.991 161.078 137.217 160.518C138.444 159.958 139.737 159.678 141.097 159.678Z" fill="white"/>
<path d="M455.171 159.02C457.188 156.647 460.196 155.142 463.555 155.142C466.35 155.142 468.902 156.184 470.843 157.902M473.92 162.45C474.331 163.604 474.555 164.847 474.555 166.142C474.555 170.993 471.414 175.111 467.055 176.573M461.555 176.96C456.434 176.02 452.555 171.534 452.555 166.142C452.555 165.393 452.63 164.661 452.772 163.955" stroke="white" stroke-width="2" stroke-linecap="round"/>
<path d="M471.077 166.483L473.916 162.428L477.97 165.267" stroke="white" stroke-width="2" stroke-linecap="round" stroke-linejoin="round"/>
<path d="M460.017 159.861L455.143 159.001L456.002 154.127" stroke="white" stroke-width="2" stroke-linecap="round" stroke-linejoin="round"/>
<path d="M459.481 172.48L461.572 176.966L457.086 179.058" stroke="white" stroke-width="2" stroke-linecap="round" stroke-linejoin="round"/>
<path d="M500.092 175.138H490.516V158.002H500.092V159.898H492.676V165.25H499.66V167.122H492.676V173.242H500.092V175.138ZM515.991 175.138H513.543L509.007 167.698L504.399 175.138H502.119L507.807 166.21L502.479 158.002H504.879L509.079 164.722L513.303 158.002H515.583L510.279 166.162L515.991 175.138ZM523.738 175.138H517.546V173.89L519.562 173.434V159.73L517.546 159.25V158.002H523.738V159.25L521.722 159.73V173.434L523.738 173.89V175.138ZM532.971 175.138H530.811V159.898H525.459V158.002H538.299V159.898H532.971V175.138Z" fill="white"/>
<path d="M556.204 175.138H553.18V164.458C553.18 164.106 553.18 163.746 553.18 163.378C553.196 163.01 553.212 162.642 553.228 162.274C553.244 161.89 553.26 161.538 553.276 161.218C553.116 161.378 552.916 161.57 552.676 161.794C552.436 162.002 552.188 162.218 551.932 162.442L550.012 163.978L548.5 162.106L553.684 158.002H556.204V175.138Z" fill="white"/>
<path d="M49.3547 211.646L42.2147 231.638H39.6947L32.5547 211.646H35.1867L39.6947 224.47C39.9934 225.291 40.2454 226.066 40.4507 226.794C40.656 227.503 40.824 228.184 40.9547 228.838C41.0854 228.184 41.2534 227.494 41.4587 226.766C41.664 226.038 41.916 225.254 42.2147 224.414L46.6947 211.646H49.3547ZM57.4729 216.35C58.7609 216.35 59.8622 216.63 60.7769 217.19C61.7102 217.75 62.4195 218.543 62.9049 219.57C63.4089 220.578 63.6609 221.763 63.6609 223.126V224.61H53.3849C53.4222 226.308 53.8515 227.606 54.6729 228.502C55.5129 229.379 56.6795 229.818 58.1729 229.818C59.1249 229.818 59.9649 229.734 60.6929 229.566C61.4395 229.379 62.2049 229.118 62.9889 228.782V230.938C62.2235 231.274 61.4675 231.516 60.7209 231.666C59.9742 231.834 59.0875 231.918 58.0609 231.918C56.6422 231.918 55.3822 231.628 54.2809 231.05C53.1982 230.471 52.3489 229.612 51.7329 228.474C51.1355 227.316 50.8369 225.907 50.8369 224.246C50.8369 222.603 51.1075 221.194 51.6489 220.018C52.2089 218.842 52.9835 217.936 53.9729 217.302C54.9809 216.667 56.1475 216.35 57.4729 216.35ZM57.4449 218.366C56.2689 218.366 55.3355 218.748 54.6449 219.514C53.9729 220.26 53.5715 221.306 53.4409 222.65H61.0849C61.0662 221.38 60.7675 220.354 60.1889 219.57C59.6102 218.767 58.6955 218.366 57.4449 218.366ZM74.9816 216.35C75.2616 216.35 75.5602 216.368 75.8776 216.406C76.2136 216.424 76.5029 216.462 76.7456 216.518L76.4376 218.786C76.1949 218.73 75.9242 218.683 75.6256 218.646C75.3456 218.608 75.0749 218.59 74.8136 218.59C74.0482 218.59 73.3296 218.804 72.6576 219.234C71.9856 219.644 71.4442 220.232 71.0336 220.998C70.6416 221.744 70.4456 222.622 70.4456 223.63V231.638H67.9816V216.63H69.9976L70.2776 219.374H70.3896C70.8749 218.552 71.5002 217.843 72.2656 217.246C73.0309 216.648 73.9362 216.35 74.9816 216.35ZM82.484 221.474C82.484 221.772 82.4653 222.164 82.428 222.65C82.4093 223.135 82.3906 223.555 82.372 223.91H82.484C82.596 223.76 82.764 223.546 82.988 223.266C83.212 222.986 83.436 222.706 83.66 222.426C83.9026 222.127 84.108 221.884 84.276 221.698L89.064 216.63H91.948L85.872 223.042L92.368 231.638H89.4L84.192 224.638L82.484 226.122V231.638H80.048V210.358H82.484V221.474ZM101.301 216.35C102.589 216.35 103.69 216.63 104.605 217.19C105.538 217.75 106.248 218.543 106.733 219.57C107.237 220.578 107.489 221.763 107.489 223.126V224.61H97.213C97.2503 226.308 97.6797 227.606 98.501 228.502C99.341 229.379 100.508 229.818 102.001 229.818C102.953 229.818 103.793 229.734 104.521 229.566C105.268 229.379 106.033 229.118 106.817 228.782V230.938C106.052 231.274 105.296 231.516 104.549 231.666C103.802 231.834 102.916 231.918 101.889 231.918C100.47 231.918 99.2103 231.628 98.109 231.05C97.0263 230.471 96.177 229.612 95.561 228.474C94.9637 227.316 94.665 225.907 94.665 224.246C94.665 222.603 94.9357 221.194 95.477 220.018C96.037 218.842 96.8117 217.936 97.801 217.302C98.809 216.667 99.9757 216.35 101.301 216.35ZM101.273 218.366C100.097 218.366 99.1637 218.748 98.473 219.514C97.801 220.26 97.3997 221.306 97.269 222.65H104.913C104.894 221.38 104.596 220.354 104.017 219.57C103.438 218.767 102.524 218.366 101.273 218.366ZM117.606 216.35C118.894 216.35 119.995 216.63 120.91 217.19C121.843 217.75 122.552 218.543 123.038 219.57C123.542 220.578 123.794 221.763 123.794 223.126V224.61H113.518C113.555 226.308 113.984 227.606 114.806 228.502C115.646 229.379 116.812 229.818 118.306 229.818C119.258 229.818 120.098 229.734 120.826 229.566C121.572 229.379 122.338 229.118 123.122 228.782V230.938C122.356 231.274 121.6 231.516 120.854 231.666C120.107 231.834 119.22 231.918 118.194 231.918C116.775 231.918 115.515 231.628 114.414 231.05C113.331 230.471 112.482 229.612 111.866 228.474C111.268 227.316 110.97 225.907 110.97 224.246C110.97 222.603 111.24 221.194 111.782 220.018C112.342 218.842 113.116 217.936 114.106 217.302C115.114 216.667 116.28 216.35 117.606 216.35ZM117.578 218.366C116.402 218.366 115.468 218.748 114.778 219.514C114.106 220.26 113.704 221.306 113.574 222.65H121.218C121.199 221.38 120.9 220.354 120.322 219.57C119.743 218.767 118.828 218.366 117.578 218.366ZM135.114 216.35C135.394 216.35 135.693 216.368 136.01 216.406C136.346 216.424 136.636 216.462 136.878 216.518L136.57 218.786C136.328 218.73 136.057 218.683 135.758 218.646C135.478 218.608 135.208 218.59 134.946 218.59C134.181 218.59 133.462 218.804 132.79 219.234C132.118 219.644 131.577 220.232 131.166 220.998C130.774 221.744 130.578 222.622 130.578 223.63V231.638H128.114V216.63H130.13L130.41 219.374H130.522C131.008 218.552 131.633 217.843 132.398 217.246C133.164 216.648 134.069 216.35 135.114 216.35ZM149.953 227.494C149.953 228.95 149.411 230.051 148.329 230.798C147.246 231.544 145.79 231.918 143.961 231.918C142.915 231.918 142.01 231.834 141.245 231.666C140.498 231.498 139.835 231.264 139.257 230.966V228.726C139.854 229.024 140.573 229.304 141.413 229.566C142.271 229.808 143.139 229.93 144.017 229.93C145.267 229.93 146.173 229.734 146.733 229.342C147.293 228.931 147.573 228.39 147.573 227.718C147.573 227.344 147.47 227.008 147.265 226.71C147.059 226.411 146.686 226.112 146.145 225.814C145.622 225.515 144.866 225.179 143.877 224.806C142.906 224.432 142.075 224.059 141.385 223.686C140.694 223.312 140.162 222.864 139.789 222.342C139.415 221.819 139.229 221.147 139.229 220.326C139.229 219.056 139.742 218.076 140.769 217.386C141.814 216.695 143.177 216.35 144.857 216.35C145.771 216.35 146.621 216.443 147.405 216.63C148.207 216.798 148.954 217.04 149.645 217.358L148.805 219.318C148.17 219.056 147.507 218.832 146.817 218.646C146.126 218.459 145.417 218.366 144.689 218.366C143.681 218.366 142.906 218.534 142.365 218.87C141.842 219.187 141.581 219.626 141.581 220.186C141.581 220.596 141.702 220.951 141.945 221.25C142.187 221.53 142.589 221.81 143.149 222.09C143.727 222.351 144.493 222.668 145.445 223.042C146.397 223.396 147.209 223.76 147.881 224.134C148.553 224.507 149.066 224.964 149.421 225.506C149.775 226.028 149.953 226.691 149.953 227.494ZM161.219 216.35C163.067 216.35 164.551 216.994 165.671 218.282C166.81 219.57 167.379 221.511 167.379 224.106C167.379 226.663 166.81 228.604 165.671 229.93C164.551 231.255 163.058 231.918 161.191 231.918C160.034 231.918 159.073 231.703 158.307 231.274C157.561 230.826 156.973 230.312 156.543 229.734H156.375C156.413 230.051 156.45 230.452 156.487 230.938C156.525 231.423 156.543 231.843 156.543 232.198V238.358H154.079V216.63H156.095L156.431 218.674H156.543C156.991 218.02 157.579 217.47 158.307 217.022C159.035 216.574 160.006 216.35 161.219 216.35ZM160.771 218.422C159.241 218.422 158.158 218.851 157.523 219.71C156.907 220.568 156.581 221.875 156.543 223.63V224.106C156.543 225.954 156.842 227.382 157.439 228.39C158.055 229.379 159.185 229.874 160.827 229.874C161.742 229.874 162.489 229.622 163.067 229.118C163.665 228.614 164.103 227.932 164.383 227.074C164.682 226.196 164.831 225.198 164.831 224.078C164.831 222.36 164.495 220.988 163.823 219.962C163.17 218.935 162.153 218.422 160.771 218.422ZM174.27 231.638H171.806V210.358H174.27V231.638ZM185.321 216.35C186.609 216.35 187.71 216.63 188.625 217.19C189.558 217.75 190.267 218.543 190.753 219.57C191.257 220.578 191.509 221.763 191.509 223.126V224.61H181.233C181.27 226.308 181.699 227.606 182.521 228.502C183.361 229.379 184.527 229.818 186.021 229.818C186.973 229.818 187.813 229.734 188.541 229.566C189.287 229.379 190.053 229.118 190.837 228.782V230.938C190.071 231.274 189.315 231.516 188.569 231.666C187.822 231.834 186.935 231.918 185.909 231.918C184.49 231.918 183.23 231.628 182.129 231.05C181.046 230.471 180.197 229.612 179.581 228.474C178.983 227.316 178.685 225.907 178.685 224.246C178.685 222.603 178.955 221.194 179.497 220.018C180.057 218.842 180.831 217.936 181.821 217.302C182.829 216.667 183.995 216.35 185.321 216.35ZM185.293 218.366C184.117 218.366 183.183 218.748 182.493 219.514C181.821 220.26 181.419 221.306 181.289 222.65H188.933C188.914 221.38 188.615 220.354 188.037 219.57C187.458 218.767 186.543 218.366 185.293 218.366ZM197.089 211.002C197.463 211.002 197.789 211.132 198.069 211.394C198.368 211.636 198.517 212.028 198.517 212.57C198.517 213.092 198.368 213.484 198.069 213.746C197.789 214.007 197.463 214.138 197.089 214.138C196.679 214.138 196.333 214.007 196.053 213.746C195.773 213.484 195.633 213.092 195.633 212.57C195.633 212.028 195.773 211.636 196.053 211.394C196.333 211.132 196.679 211.002 197.089 211.002ZM198.293 216.63V231.638H195.829V216.63H198.293ZM210.772 216.35C212.564 216.35 213.917 216.788 214.832 217.666C215.747 218.524 216.204 219.924 216.204 221.866V231.638H213.768V222.034C213.768 219.626 212.648 218.422 210.408 218.422C208.747 218.422 207.599 218.888 206.964 219.822C206.329 220.755 206.012 222.099 206.012 223.854V231.638H203.548V216.63H205.536L205.9 218.674H206.04C206.525 217.89 207.197 217.311 208.056 216.938C208.915 216.546 209.82 216.35 210.772 216.35ZM244.082 231.638H241.114L234.03 222.09L231.986 223.882V231.638H229.466V211.646H231.986V221.502C232.546 220.867 233.115 220.232 233.694 219.598C234.273 218.963 234.851 218.328 235.43 217.694L240.834 211.646H243.774L235.85 220.354L244.082 231.638ZM260.014 224.106C260.014 226.588 259.379 228.511 258.11 229.874C256.859 231.236 255.161 231.918 253.014 231.918C251.689 231.918 250.503 231.619 249.458 231.022C248.431 230.406 247.619 229.519 247.022 228.362C246.425 227.186 246.126 225.767 246.126 224.106C246.126 221.623 246.751 219.71 248.002 218.366C249.253 217.022 250.951 216.35 253.098 216.35C254.461 216.35 255.655 216.658 256.682 217.274C257.727 217.871 258.539 218.748 259.118 219.906C259.715 221.044 260.014 222.444 260.014 224.106ZM248.674 224.106C248.674 225.879 249.019 227.288 249.71 228.334C250.419 229.36 251.539 229.874 253.07 229.874C254.582 229.874 255.693 229.36 256.402 228.334C257.111 227.288 257.466 225.879 257.466 224.106C257.466 222.332 257.111 220.942 256.402 219.934C255.693 218.926 254.573 218.422 253.042 218.422C251.511 218.422 250.401 218.926 249.71 219.934C249.019 220.942 248.674 222.332 248.674 224.106ZM277.467 224.106C277.467 226.588 276.832 228.511 275.563 229.874C274.312 231.236 272.614 231.918 270.467 231.918C269.142 231.918 267.956 231.619 266.911 231.022C265.884 230.406 265.072 229.519 264.475 228.362C263.878 227.186 263.579 225.767 263.579 224.106C263.579 221.623 264.204 219.71 265.455 218.366C266.706 217.022 268.404 216.35 270.551 216.35C271.914 216.35 273.108 216.658 274.135 217.274C275.18 217.871 275.992 218.748 276.571 219.906C277.168 221.044 277.467 222.444 277.467 224.106ZM266.127 224.106C266.127 225.879 266.472 227.288 267.163 228.334C267.872 229.36 268.992 229.874 270.523 229.874C272.035 229.874 273.146 229.36 273.855 228.334C274.564 227.288 274.919 225.879 274.919 224.106C274.919 222.332 274.564 220.942 273.855 219.934C273.146 218.926 272.026 218.422 270.495 218.422C268.964 218.422 267.854 218.926 267.163 219.934C266.472 220.942 266.127 222.332 266.127 224.106ZM283.132 211.002C283.506 211.002 283.832 211.132 284.112 211.394C284.411 211.636 284.56 212.028 284.56 212.57C284.56 213.092 284.411 213.484 284.112 213.746C283.832 214.007 283.506 214.138 283.132 214.138C282.722 214.138 282.376 214.007 282.096 213.746C281.816 213.484 281.676 213.092 281.676 212.57C281.676 212.028 281.816 211.636 282.096 211.394C282.376 211.132 282.722 211.002 283.132 211.002ZM284.336 216.63V231.638H281.872V216.63H284.336ZM306.055 216.35C307.754 216.35 309.023 216.788 309.863 217.666C310.703 218.524 311.123 219.924 311.123 221.866V231.638H308.687V221.978C308.687 219.607 307.67 218.422 305.635 218.422C304.179 218.422 303.134 218.842 302.499 219.682C301.883 220.522 301.575 221.744 301.575 223.35V231.638H299.139V221.978C299.139 219.607 298.112 218.422 296.059 218.422C294.547 218.422 293.502 218.888 292.923 219.822C292.344 220.755 292.055 222.099 292.055 223.854V231.638H289.591V216.63H291.579L291.943 218.674H292.083C292.55 217.89 293.175 217.311 293.959 216.938C294.762 216.546 295.611 216.35 296.507 216.35C298.859 216.35 300.39 217.19 301.099 218.87H301.239C301.743 218.011 302.424 217.376 303.283 216.966C304.16 216.555 305.084 216.35 306.055 216.35ZM322.055 216.35C323.343 216.35 324.444 216.63 325.359 217.19C326.292 217.75 327.002 218.543 327.487 219.57C327.991 220.578 328.243 221.763 328.243 223.126V224.61H317.967C318.004 226.308 318.434 227.606 319.255 228.502C320.095 229.379 321.262 229.818 322.755 229.818C323.707 229.818 324.547 229.734 325.275 229.566C326.022 229.379 326.787 229.118 327.571 228.782V230.938C326.806 231.274 326.05 231.516 325.303 231.666C324.556 231.834 323.67 231.918 322.643 231.918C321.224 231.918 319.964 231.628 318.863 231.05C317.78 230.471 316.931 229.612 316.315 228.474C315.718 227.316 315.419 225.907 315.419 224.246C315.419 222.603 315.69 221.194 316.231 220.018C316.791 218.842 317.566 217.936 318.555 217.302C319.563 216.667 320.73 216.35 322.055 216.35ZM322.027 218.366C320.851 218.366 319.918 218.748 319.227 219.514C318.555 220.26 318.154 221.306 318.023 222.65H325.667C325.648 221.38 325.35 220.354 324.771 219.57C324.192 218.767 323.278 218.366 322.027 218.366ZM338.36 216.35C339.648 216.35 340.749 216.63 341.664 217.19C342.597 217.75 343.306 218.543 343.792 219.57C344.296 220.578 344.548 221.763 344.548 223.126V224.61H334.272C334.309 226.308 334.738 227.606 335.56 228.502C336.4 229.379 337.566 229.818 339.06 229.818C340.012 229.818 340.852 229.734 341.58 229.566C342.326 229.379 343.092 229.118 343.876 228.782V230.938C343.11 231.274 342.354 231.516 341.608 231.666C340.861 231.834 339.974 231.918 338.948 231.918C337.529 231.918 336.269 231.628 335.168 231.05C334.085 230.471 333.236 229.612 332.62 228.474C332.022 227.316 331.724 225.907 331.724 224.246C331.724 222.603 331.994 221.194 332.536 220.018C333.096 218.842 333.87 217.936 334.86 217.302C335.868 216.667 337.034 216.35 338.36 216.35ZM338.332 218.366C337.156 218.366 336.222 218.748 335.532 219.514C334.86 220.26 334.458 221.306 334.328 222.65H341.972C341.953 221.38 341.654 220.354 341.076 219.57C340.497 218.767 339.582 218.366 338.332 218.366ZM355.868 216.35C356.148 216.35 356.447 216.368 356.764 216.406C357.1 216.424 357.39 216.462 357.632 216.518L357.324 218.786C357.082 218.73 356.811 218.683 356.512 218.646C356.232 218.608 355.962 218.59 355.7 218.59C354.935 218.59 354.216 218.804 353.544 219.234C352.872 219.644 352.331 220.232 351.92 220.998C351.528 221.744 351.332 222.622 351.332 223.63V231.638H348.868V216.63H350.884L351.164 219.374H351.276C351.762 218.552 352.387 217.843 353.152 217.246C353.918 216.648 354.823 216.35 355.868 216.35Z" fill="white"/>
</svg>
