<svg width="601" height="262" viewBox="0 0 601 262" fill="none" xmlns="http://www.w3.org/2000/svg">
<rect x="0.277344" y="0.636047" width="600" height="261.002" rx="16" fill="#11181E"/>
<path d="M68.2773 114.636C68.2773 112.979 66.9342 111.636 65.2773 111.636H61.2773C59.6205 111.636 58.2773 112.979 58.2773 114.636V117.636C58.2773 119.293 59.6205 120.636 61.2773 120.636H65.2773C66.9342 120.636 68.2773 119.293 68.2773 117.636V114.636Z" fill="white"/>
<path d="M68.2773 111.636C68.2773 109.979 66.9342 108.636 65.2773 108.636H61.2773C59.6205 108.636 58.2773 109.979 58.2773 111.636V117.636C58.2773 119.293 59.6205 120.636 61.2773 120.636H65.2773C66.9342 120.636 68.2773 119.293 68.2773 117.636V111.636Z" fill="white"/>
<path d="M63.2773 56.636V114.636" stroke="white" stroke-width="10" stroke-linejoin="round"/>
<path d="M61.5262 35.81L49.4953 57.6161C48.6513 59.1458 50.0366 60.9462 51.7315 60.5225L62.7923 57.7573C63.1108 57.6777 63.4439 57.6777 63.7624 57.7573L74.8232 60.5225C76.5181 60.9462 77.9034 59.1458 77.0594 57.6161L65.0285 35.81C64.268 34.4316 62.2867 34.4316 61.5262 35.81Z" fill="white"/>
<path d="M166.277 114.636C166.277 112.979 164.934 111.636 163.277 111.636H159.277C157.62 111.636 156.277 112.979 156.277 114.636V117.636C156.277 119.293 157.62 120.636 159.277 120.636H163.277C164.934 120.636 166.277 119.293 166.277 117.636V114.636Z" fill="white"/>
<path d="M166.277 111.636C166.277 109.979 164.934 108.636 163.277 108.636H159.277C157.62 108.636 156.277 109.979 156.277 111.636V117.636C156.277 119.293 157.62 120.636 159.277 120.636H163.277C164.934 120.636 166.277 119.293 166.277 117.636V111.636Z" fill="white"/>
<path d="M161.277 56.636V114.636" stroke="white" stroke-width="10" stroke-linejoin="round"/>
<path d="M159.526 35.81L147.495 57.6161C146.651 59.1458 148.037 60.9462 149.731 60.5225L160.792 57.7573C161.111 57.6777 161.444 57.6777 161.762 57.7573L172.823 60.5225C174.518 60.9462 175.903 59.1458 175.059 57.6161L163.028 35.81C162.268 34.4316 160.287 34.4316 159.526 35.81Z" fill="white"/>
<g opacity="0.4">
<rect width="10" height="10" rx="3" transform="matrix(-1 0 0 1 242.277 110.638)" fill="white"/>
<path d="M239.277 120.636C240.934 120.636 242.277 119.293 242.277 117.636L242.277 116.636L232.277 116.636L232.277 117.636C232.277 119.293 233.62 120.636 235.277 120.636L239.277 120.636Z" fill="white"/>
<path d="M237.277 114.636C237.277 90.3355 256.977 70.636 281.277 70.636" stroke="white" stroke-width="10"/>
<path d="M286.295 56.8173L308.101 68.8482C309.48 69.6088 309.48 71.59 308.101 72.3506L286.295 84.3815C284.766 85.2254 282.965 83.8401 283.389 82.1453L284.55 77.4998C284.786 76.5531 284.07 75.636 283.095 75.636L281.274 75.636L281.274 65.636L283.113 65.636C284.089 65.636 284.805 64.719 284.568 63.7723L283.389 59.0535C282.965 57.3586 284.766 55.9733 286.295 56.8173Z" fill="white"/>
</g>
<path d="M54.3973 175.318H50.4373V181.638H46.3173V175.318H33.0773V171.958L46.2373 152.958H50.4373V171.718H54.3973V175.318ZM46.3173 163.958C46.3173 163.318 46.3173 162.704 46.3173 162.118C46.344 161.531 46.3707 160.971 46.3973 160.438C46.424 159.878 46.4373 159.371 46.4373 158.918C46.464 158.438 46.4907 158.011 46.5173 157.638H46.3573C46.144 158.171 45.8773 158.718 45.5573 159.278C45.264 159.838 44.9573 160.331 44.6373 160.758L37.0773 171.718H46.3173V163.958ZM76.748 167.318C76.748 169.638 76.5613 171.704 76.188 173.518C75.8413 175.331 75.2813 176.878 74.508 178.158C73.7613 179.411 72.7613 180.371 71.508 181.038C70.2813 181.704 68.8013 182.038 67.068 182.038C64.8813 182.038 63.0813 181.451 61.668 180.278C60.2546 179.104 59.2013 177.424 58.508 175.238C57.8146 173.024 57.468 170.384 57.468 167.318C57.468 164.224 57.7746 161.584 58.388 159.398C59.028 157.211 60.0546 155.544 61.468 154.398C62.8813 153.224 64.748 152.638 67.068 152.638C69.2546 152.638 71.0546 153.224 72.468 154.398C73.908 155.544 74.9746 157.211 75.668 159.398C76.388 161.584 76.748 164.224 76.748 167.318ZM61.708 167.318C61.708 169.798 61.8813 171.864 62.228 173.518C62.5746 175.171 63.1346 176.411 63.908 177.238C64.708 178.064 65.7613 178.478 67.068 178.478C68.3746 178.478 69.4146 178.078 70.188 177.278C70.988 176.451 71.5613 175.211 71.908 173.558C72.2813 171.878 72.468 169.798 72.468 167.318C72.468 164.838 72.2813 162.784 71.908 161.158C71.5613 159.504 70.988 158.264 70.188 157.438C69.4146 156.611 68.3746 156.198 67.068 156.198C65.7613 156.198 64.708 156.611 63.908 157.438C63.1346 158.264 62.5746 159.504 62.228 161.158C61.8813 162.784 61.708 164.838 61.708 167.318ZM100.139 167.318C100.139 169.638 99.9519 171.704 99.5786 173.518C99.2319 175.331 98.6719 176.878 97.8986 178.158C97.1519 179.411 96.1519 180.371 94.8986 181.038C93.6719 181.704 92.1919 182.038 90.4586 182.038C88.2719 182.038 86.4719 181.451 85.0586 180.278C83.6453 179.104 82.5919 177.424 81.8986 175.238C81.2053 173.024 80.8586 170.384 80.8586 167.318C80.8586 164.224 81.1653 161.584 81.7786 159.398C82.4186 157.211 83.4453 155.544 84.8586 154.398C86.2719 153.224 88.1386 152.638 90.4586 152.638C92.6453 152.638 94.4453 153.224 95.8586 154.398C97.2986 155.544 98.3653 157.211 99.0586 159.398C99.7786 161.584 100.139 164.224 100.139 167.318ZM85.0986 167.318C85.0986 169.798 85.2719 171.864 85.6186 173.518C85.9653 175.171 86.5253 176.411 87.2986 177.238C88.0986 178.064 89.1519 178.478 90.4586 178.478C91.7653 178.478 92.8053 178.078 93.5786 177.278C94.3786 176.451 94.9519 175.211 95.2986 173.558C95.6719 171.878 95.8586 169.798 95.8586 167.318C95.8586 164.838 95.6719 162.784 95.2986 161.158C94.9519 159.504 94.3786 158.264 93.5786 157.438C92.8053 156.611 91.7653 156.198 90.4586 156.198C89.1519 156.198 88.0986 156.611 87.2986 157.438C86.5253 158.264 85.9653 159.504 85.6186 161.158C85.2719 162.784 85.0986 164.838 85.0986 167.318ZM140.82 159.678C143.247 159.678 145.073 160.304 146.3 161.558C147.527 162.811 148.14 164.824 148.14 167.598V181.638H143.9V168.158C143.9 166.504 143.567 165.264 142.9 164.438C142.26 163.584 141.247 163.158 139.86 163.158C137.94 163.158 136.567 163.758 135.74 164.958C134.913 166.131 134.5 167.838 134.5 170.078V181.638H130.3V168.158C130.3 167.064 130.14 166.144 129.82 165.398C129.527 164.651 129.087 164.091 128.5 163.718C127.913 163.344 127.153 163.158 126.22 163.158C124.887 163.158 123.833 163.451 123.06 164.038C122.287 164.624 121.727 165.491 121.38 166.638C121.06 167.758 120.9 169.131 120.9 170.758V181.638H116.66V160.078H120.02L120.62 162.958H120.86C121.313 162.211 121.86 161.598 122.5 161.118C123.167 160.638 123.9 160.278 124.7 160.038C125.5 159.798 126.327 159.678 127.18 159.678C128.807 159.678 130.18 159.971 131.3 160.558C132.42 161.118 133.233 161.984 133.74 163.158H134.06C134.753 161.958 135.713 161.078 136.94 160.518C138.167 159.958 139.46 159.678 140.82 159.678Z" fill="white"/>
<path d="M454.893 159.02C456.911 156.647 459.918 155.142 463.277 155.142C466.073 155.142 468.625 156.184 470.565 157.902M473.643 162.45C474.054 163.604 474.277 164.847 474.277 166.142C474.277 170.993 471.137 175.111 466.777 176.573M461.277 176.96C456.157 176.02 452.277 171.534 452.277 166.142C452.277 165.393 452.352 164.661 452.495 163.955" stroke="white" stroke-width="2" stroke-linecap="round"/>
<path d="M470.799 166.483L473.638 162.428L477.693 165.267" stroke="white" stroke-width="2" stroke-linecap="round" stroke-linejoin="round"/>
<path d="M459.74 159.861L454.866 159.001L455.725 154.127" stroke="white" stroke-width="2" stroke-linecap="round" stroke-linejoin="round"/>
<path d="M459.203 172.48L461.295 176.966L456.809 179.058" stroke="white" stroke-width="2" stroke-linecap="round" stroke-linejoin="round"/>
<path d="M499.814 175.138H490.238V158.002H499.814V159.898H492.398V165.25H499.382V167.122H492.398V173.242H499.814V175.138ZM515.714 175.138H513.266L508.73 167.698L504.122 175.138H501.842L507.53 166.21L502.202 158.002H504.602L508.802 164.722L513.026 158.002H515.306L510.002 166.162L515.714 175.138ZM523.461 175.138H517.269V173.89L519.285 173.434V159.73L517.269 159.25V158.002H523.461V159.25L521.445 159.73V173.434L523.461 173.89V175.138ZM532.693 175.138H530.533V159.898H525.181V158.002H538.021V159.898H532.693V175.138Z" fill="white"/>
<path d="M559.311 175.138H547.575V172.906L551.943 168.49C552.807 167.61 553.511 166.858 554.055 166.234C554.615 165.594 555.023 165.002 555.279 164.458C555.551 163.914 555.687 163.322 555.687 162.682C555.687 161.898 555.463 161.314 555.015 160.93C554.567 160.53 553.975 160.33 553.239 160.33C552.519 160.33 551.847 160.482 551.223 160.786C550.599 161.074 549.951 161.49 549.279 162.034L547.623 160.042C548.103 159.626 548.615 159.25 549.159 158.914C549.703 158.562 550.319 158.282 551.007 158.074C551.695 157.866 552.495 157.762 553.407 157.762C554.511 157.762 555.455 157.962 556.239 158.362C557.039 158.746 557.655 159.282 558.087 159.97C558.519 160.658 558.735 161.458 558.735 162.37C558.735 163.074 558.631 163.73 558.423 164.338C558.215 164.93 557.911 165.514 557.511 166.09C557.111 166.666 556.623 167.25 556.047 167.842C555.471 168.434 554.823 169.074 554.103 169.762L551.391 172.378V172.522H559.311V175.138Z" fill="white"/>
<path d="M49.0773 211.646L41.9373 231.638H39.4173L32.2773 211.646H34.9093L39.4173 224.47C39.716 225.291 39.968 226.066 40.1733 226.794C40.3787 227.503 40.5467 228.184 40.6773 228.838C40.808 228.184 40.976 227.494 41.1813 226.766C41.3867 226.038 41.6387 225.254 41.9373 224.414L46.4173 211.646H49.0773ZM57.1955 216.35C58.4835 216.35 59.5849 216.63 60.4995 217.19C61.4329 217.75 62.1422 218.543 62.6275 219.57C63.1315 220.578 63.3835 221.763 63.3835 223.126V224.61H53.1075C53.1449 226.308 53.5742 227.606 54.3955 228.502C55.2355 229.379 56.4022 229.818 57.8955 229.818C58.8475 229.818 59.6875 229.734 60.4155 229.566C61.1622 229.379 61.9275 229.118 62.7115 228.782V230.938C61.9462 231.274 61.1902 231.516 60.4435 231.666C59.6969 231.834 58.8102 231.918 57.7835 231.918C56.3649 231.918 55.1049 231.628 54.0035 231.05C52.9209 230.471 52.0715 229.612 51.4555 228.474C50.8582 227.316 50.5595 225.907 50.5595 224.246C50.5595 222.603 50.8302 221.194 51.3715 220.018C51.9315 218.842 52.7062 217.936 53.6955 217.302C54.7035 216.667 55.8702 216.35 57.1955 216.35ZM57.1675 218.366C55.9915 218.366 55.0582 218.748 54.3675 219.514C53.6955 220.26 53.2942 221.306 53.1635 222.65H60.8075C60.7889 221.38 60.4902 220.354 59.9115 219.57C59.3329 218.767 58.4182 218.366 57.1675 218.366ZM74.7042 216.35C74.9842 216.35 75.2829 216.368 75.6002 216.406C75.9362 216.424 76.2256 216.462 76.4682 216.518L76.1602 218.786C75.9176 218.73 75.6469 218.683 75.3482 218.646C75.0682 218.608 74.7976 218.59 74.5362 218.59C73.7709 218.59 73.0522 218.804 72.3802 219.234C71.7082 219.644 71.1669 220.232 70.7562 220.998C70.3642 221.744 70.1682 222.622 70.1682 223.63V231.638H67.7042V216.63H69.7202L70.0002 219.374H70.1122C70.5976 218.552 71.2229 217.843 71.9882 217.246C72.7536 216.648 73.6589 216.35 74.7042 216.35ZM82.2066 221.474C82.2066 221.772 82.188 222.164 82.1506 222.65C82.132 223.135 82.1133 223.555 82.0946 223.91H82.2066C82.3186 223.76 82.4866 223.546 82.7106 223.266C82.9346 222.986 83.1586 222.706 83.3826 222.426C83.6253 222.127 83.8306 221.884 83.9986 221.698L88.7866 216.63H91.6706L85.5946 223.042L92.0906 231.638H89.1226L83.9146 224.638L82.2066 226.122V231.638H79.7706V210.358H82.2066V221.474ZM101.024 216.35C102.312 216.35 103.413 216.63 104.328 217.19C105.261 217.75 105.97 218.543 106.456 219.57C106.96 220.578 107.212 221.763 107.212 223.126V224.61H96.9357C96.973 226.308 97.4023 227.606 98.2237 228.502C99.0637 229.379 100.23 229.818 101.724 229.818C102.676 229.818 103.516 229.734 104.244 229.566C104.99 229.379 105.756 229.118 106.54 228.782V230.938C105.774 231.274 105.018 231.516 104.272 231.666C103.525 231.834 102.638 231.918 101.612 231.918C100.193 231.918 98.933 231.628 97.8317 231.05C96.749 230.471 95.8997 229.612 95.2837 228.474C94.6863 227.316 94.3877 225.907 94.3877 224.246C94.3877 222.603 94.6583 221.194 95.1997 220.018C95.7597 218.842 96.5343 217.936 97.5237 217.302C98.5317 216.667 99.6983 216.35 101.024 216.35ZM100.996 218.366C99.8197 218.366 98.8863 218.748 98.1957 219.514C97.5237 220.26 97.1223 221.306 96.9917 222.65H104.636C104.617 221.38 104.318 220.354 103.74 219.57C103.161 218.767 102.246 218.366 100.996 218.366ZM117.328 216.35C118.616 216.35 119.718 216.63 120.632 217.19C121.566 217.75 122.275 218.543 122.76 219.57C123.264 220.578 123.516 221.763 123.516 223.126V224.61H113.24C113.278 226.308 113.707 227.606 114.528 228.502C115.368 229.379 116.535 229.818 118.028 229.818C118.98 229.818 119.82 229.734 120.548 229.566C121.295 229.379 122.06 229.118 122.844 228.782V230.938C122.079 231.274 121.323 231.516 120.576 231.666C119.83 231.834 118.943 231.918 117.916 231.918C116.498 231.918 115.238 231.628 114.136 231.05C113.054 230.471 112.204 229.612 111.588 228.474C110.991 227.316 110.692 225.907 110.692 224.246C110.692 222.603 110.963 221.194 111.504 220.018C112.064 218.842 112.839 217.936 113.828 217.302C114.836 216.667 116.003 216.35 117.328 216.35ZM117.3 218.366C116.124 218.366 115.191 218.748 114.5 219.514C113.828 220.26 113.427 221.306 113.296 222.65H120.94C120.922 221.38 120.623 220.354 120.044 219.57C119.466 218.767 118.551 218.366 117.3 218.366ZM134.837 216.35C135.117 216.35 135.416 216.368 135.733 216.406C136.069 216.424 136.358 216.462 136.601 216.518L136.293 218.786C136.05 218.73 135.78 218.683 135.481 218.646C135.201 218.608 134.93 218.59 134.669 218.59C133.904 218.59 133.185 218.804 132.513 219.234C131.841 219.644 131.3 220.232 130.889 220.998C130.497 221.744 130.301 222.622 130.301 223.63V231.638H127.837V216.63H129.853L130.133 219.374H130.245C130.73 218.552 131.356 217.843 132.121 217.246C132.886 216.648 133.792 216.35 134.837 216.35ZM149.675 227.494C149.675 228.95 149.134 230.051 148.051 230.798C146.969 231.544 145.513 231.918 143.683 231.918C142.638 231.918 141.733 231.834 140.967 231.666C140.221 231.498 139.558 231.264 138.979 230.966V228.726C139.577 229.024 140.295 229.304 141.135 229.566C141.994 229.808 142.862 229.93 143.739 229.93C144.99 229.93 145.895 229.734 146.455 229.342C147.015 228.931 147.295 228.39 147.295 227.718C147.295 227.344 147.193 227.008 146.987 226.71C146.782 226.411 146.409 226.112 145.867 225.814C145.345 225.515 144.589 225.179 143.599 224.806C142.629 224.432 141.798 224.059 141.107 223.686C140.417 223.312 139.885 222.864 139.511 222.342C139.138 221.819 138.951 221.147 138.951 220.326C138.951 219.056 139.465 218.076 140.491 217.386C141.537 216.695 142.899 216.35 144.579 216.35C145.494 216.35 146.343 216.443 147.127 216.63C147.93 216.798 148.677 217.04 149.367 217.358L148.527 219.318C147.893 219.056 147.23 218.832 146.539 218.646C145.849 218.459 145.139 218.366 144.411 218.366C143.403 218.366 142.629 218.534 142.087 218.87C141.565 219.187 141.303 219.626 141.303 220.186C141.303 220.596 141.425 220.951 141.667 221.25C141.91 221.53 142.311 221.81 142.871 222.09C143.45 222.351 144.215 222.668 145.167 223.042C146.119 223.396 146.931 223.76 147.603 224.134C148.275 224.507 148.789 224.964 149.143 225.506C149.498 226.028 149.675 226.691 149.675 227.494ZM160.942 216.35C162.79 216.35 164.274 216.994 165.394 218.282C166.533 219.57 167.102 221.511 167.102 224.106C167.102 226.663 166.533 228.604 165.394 229.93C164.274 231.255 162.781 231.918 160.914 231.918C159.757 231.918 158.795 231.703 158.03 231.274C157.283 230.826 156.695 230.312 156.266 229.734H156.098C156.135 230.051 156.173 230.452 156.21 230.938C156.247 231.423 156.266 231.843 156.266 232.198V238.358H153.802V216.63H155.818L156.154 218.674H156.266C156.714 218.02 157.302 217.47 158.03 217.022C158.758 216.574 159.729 216.35 160.942 216.35ZM160.494 218.422C158.963 218.422 157.881 218.851 157.246 219.71C156.63 220.568 156.303 221.875 156.266 223.63V224.106C156.266 225.954 156.565 227.382 157.162 228.39C157.778 229.379 158.907 229.874 160.55 229.874C161.465 229.874 162.211 229.622 162.79 229.118C163.387 228.614 163.826 227.932 164.106 227.074C164.405 226.196 164.554 225.198 164.554 224.078C164.554 222.36 164.218 220.988 163.546 219.962C162.893 218.935 161.875 218.422 160.494 218.422ZM173.992 231.638H171.528V210.358H173.992V231.638ZM185.043 216.35C186.331 216.35 187.433 216.63 188.347 217.19C189.281 217.75 189.99 218.543 190.475 219.57C190.979 220.578 191.231 221.763 191.231 223.126V224.61H180.955C180.993 226.308 181.422 227.606 182.243 228.502C183.083 229.379 184.25 229.818 185.743 229.818C186.695 229.818 187.535 229.734 188.263 229.566C189.01 229.379 189.775 229.118 190.559 228.782V230.938C189.794 231.274 189.038 231.516 188.291 231.666C187.545 231.834 186.658 231.918 185.631 231.918C184.213 231.918 182.953 231.628 181.851 231.05C180.769 230.471 179.919 229.612 179.303 228.474C178.706 227.316 178.407 225.907 178.407 224.246C178.407 222.603 178.678 221.194 179.219 220.018C179.779 218.842 180.554 217.936 181.543 217.302C182.551 216.667 183.718 216.35 185.043 216.35ZM185.015 218.366C183.839 218.366 182.906 218.748 182.215 219.514C181.543 220.26 181.142 221.306 181.011 222.65H188.655C188.637 221.38 188.338 220.354 187.759 219.57C187.181 218.767 186.266 218.366 185.015 218.366ZM196.812 211.002C197.185 211.002 197.512 211.132 197.792 211.394C198.091 211.636 198.24 212.028 198.24 212.57C198.24 213.092 198.091 213.484 197.792 213.746C197.512 214.007 197.185 214.138 196.812 214.138C196.401 214.138 196.056 214.007 195.776 213.746C195.496 213.484 195.356 213.092 195.356 212.57C195.356 212.028 195.496 211.636 195.776 211.394C196.056 211.132 196.401 211.002 196.812 211.002ZM198.016 216.63V231.638H195.552V216.63H198.016ZM210.495 216.35C212.287 216.35 213.64 216.788 214.555 217.666C215.469 218.524 215.927 219.924 215.927 221.866V231.638H213.491V222.034C213.491 219.626 212.371 218.422 210.131 218.422C208.469 218.422 207.321 218.888 206.687 219.822C206.052 220.755 205.735 222.099 205.735 223.854V231.638H203.271V216.63H205.259L205.623 218.674H205.763C206.248 217.89 206.92 217.311 207.779 216.938C208.637 216.546 209.543 216.35 210.495 216.35ZM243.805 231.638H240.837L233.753 222.09L231.709 223.882V231.638H229.189V211.646H231.709V221.502C232.269 220.867 232.838 220.232 233.417 219.598C233.995 218.963 234.574 218.328 235.153 217.694L240.557 211.646H243.497L235.573 220.354L243.805 231.638ZM259.737 224.106C259.737 226.588 259.102 228.511 257.833 229.874C256.582 231.236 254.883 231.918 252.737 231.918C251.411 231.918 250.226 231.619 249.181 231.022C248.154 230.406 247.342 229.519 246.745 228.362C246.147 227.186 245.849 225.767 245.849 224.106C245.849 221.623 246.474 219.71 247.725 218.366C248.975 217.022 250.674 216.35 252.821 216.35C254.183 216.35 255.378 216.658 256.405 217.274C257.45 217.871 258.262 218.748 258.841 219.906C259.438 221.044 259.737 222.444 259.737 224.106ZM248.397 224.106C248.397 225.879 248.742 227.288 249.433 228.334C250.142 229.36 251.262 229.874 252.793 229.874C254.305 229.874 255.415 229.36 256.125 228.334C256.834 227.288 257.189 225.879 257.189 224.106C257.189 222.332 256.834 220.942 256.125 219.934C255.415 218.926 254.295 218.422 252.765 218.422C251.234 218.422 250.123 218.926 249.433 219.934C248.742 220.942 248.397 222.332 248.397 224.106ZM277.19 224.106C277.19 226.588 276.555 228.511 275.286 229.874C274.035 231.236 272.336 231.918 270.19 231.918C268.864 231.918 267.679 231.619 266.634 231.022C265.607 230.406 264.795 229.519 264.198 228.362C263.6 227.186 263.302 225.767 263.302 224.106C263.302 221.623 263.927 219.71 265.178 218.366C266.428 217.022 268.127 216.35 270.274 216.35C271.636 216.35 272.831 216.658 273.858 217.274C274.903 217.871 275.715 218.748 276.294 219.906C276.891 221.044 277.19 222.444 277.19 224.106ZM265.85 224.106C265.85 225.879 266.195 227.288 266.886 228.334C267.595 229.36 268.715 229.874 270.246 229.874C271.758 229.874 272.868 229.36 273.578 228.334C274.287 227.288 274.642 225.879 274.642 224.106C274.642 222.332 274.287 220.942 273.578 219.934C272.868 218.926 271.748 218.422 270.218 218.422C268.687 218.422 267.576 218.926 266.886 219.934C266.195 220.942 265.85 222.332 265.85 224.106ZM282.855 211.002C283.228 211.002 283.555 211.132 283.835 211.394C284.134 211.636 284.283 212.028 284.283 212.57C284.283 213.092 284.134 213.484 283.835 213.746C283.555 214.007 283.228 214.138 282.855 214.138C282.444 214.138 282.099 214.007 281.819 213.746C281.539 213.484 281.399 213.092 281.399 212.57C281.399 212.028 281.539 211.636 281.819 211.394C282.099 211.132 282.444 211.002 282.855 211.002ZM284.059 216.63V231.638H281.595V216.63H284.059ZM305.778 216.35C307.476 216.35 308.746 216.788 309.586 217.666C310.426 218.524 310.846 219.924 310.846 221.866V231.638H308.41V221.978C308.41 219.607 307.392 218.422 305.358 218.422C303.902 218.422 302.856 218.842 302.222 219.682C301.606 220.522 301.298 221.744 301.298 223.35V231.638H298.862V221.978C298.862 219.607 297.835 218.422 295.782 218.422C294.27 218.422 293.224 218.888 292.646 219.822C292.067 220.755 291.778 222.099 291.778 223.854V231.638H289.314V216.63H291.302L291.666 218.674H291.806C292.272 217.89 292.898 217.311 293.682 216.938C294.484 216.546 295.334 216.35 296.23 216.35C298.582 216.35 300.112 217.19 300.822 218.87H300.962C301.466 218.011 302.147 217.376 303.006 216.966C303.883 216.555 304.807 216.35 305.778 216.35ZM321.778 216.35C323.066 216.35 324.167 216.63 325.082 217.19C326.015 217.75 326.724 218.543 327.21 219.57C327.714 220.578 327.966 221.763 327.966 223.126V224.61H317.69C317.727 226.308 318.156 227.606 318.978 228.502C319.818 229.379 320.984 229.818 322.478 229.818C323.43 229.818 324.27 229.734 324.998 229.566C325.744 229.379 326.51 229.118 327.294 228.782V230.938C326.528 231.274 325.772 231.516 325.026 231.666C324.279 231.834 323.392 231.918 322.366 231.918C320.947 231.918 319.687 231.628 318.586 231.05C317.503 230.471 316.654 229.612 316.038 228.474C315.44 227.316 315.142 225.907 315.142 224.246C315.142 222.603 315.412 221.194 315.954 220.018C316.514 218.842 317.288 217.936 318.278 217.302C319.286 216.667 320.452 216.35 321.778 216.35ZM321.75 218.366C320.574 218.366 319.64 218.748 318.95 219.514C318.278 220.26 317.876 221.306 317.746 222.65H325.39C325.371 221.38 325.072 220.354 324.494 219.57C323.915 218.767 323 218.366 321.75 218.366ZM338.082 216.35C339.37 216.35 340.472 216.63 341.386 217.19C342.32 217.75 343.029 218.543 343.514 219.57C344.018 220.578 344.27 221.763 344.27 223.126V224.61H333.994C334.032 226.308 334.461 227.606 335.282 228.502C336.122 229.379 337.289 229.818 338.782 229.818C339.734 229.818 340.574 229.734 341.302 229.566C342.049 229.379 342.814 229.118 343.598 228.782V230.938C342.833 231.274 342.077 231.516 341.33 231.666C340.584 231.834 339.697 231.918 338.67 231.918C337.252 231.918 335.992 231.628 334.89 231.05C333.808 230.471 332.958 229.612 332.342 228.474C331.745 227.316 331.446 225.907 331.446 224.246C331.446 222.603 331.717 221.194 332.258 220.018C332.818 218.842 333.593 217.936 334.582 217.302C335.59 216.667 336.757 216.35 338.082 216.35ZM338.054 218.366C336.878 218.366 335.945 218.748 335.254 219.514C334.582 220.26 334.181 221.306 334.05 222.65H341.694C341.676 221.38 341.377 220.354 340.798 219.57C340.22 218.767 339.305 218.366 338.054 218.366ZM355.591 216.35C355.871 216.35 356.17 216.368 356.487 216.406C356.823 216.424 357.112 216.462 357.355 216.518L357.047 218.786C356.804 218.73 356.534 218.683 356.235 218.646C355.955 218.608 355.684 218.59 355.423 218.59C354.658 218.59 353.939 218.804 353.267 219.234C352.595 219.644 352.054 220.232 351.643 220.998C351.251 221.744 351.055 222.622 351.055 223.63V231.638H348.591V216.63H350.607L350.887 219.374H350.999C351.484 218.552 352.11 217.843 352.875 217.246C353.64 216.648 354.546 216.35 355.591 216.35Z" fill="white"/>
</svg>
