<svg width="143" height="153" viewBox="0 0 143 153" fill="none" xmlns="http://www.w3.org/2000/svg">
<path d="M98.3857 82.1893L18.5273 82.1893" stroke="#E63902" stroke-width="26.3914"/>
<path d="M84.6891 89.1869V85.6553H83.5915V85.011H86.4847V85.6553H85.3811V89.1869H84.6891ZM86.4443 89.1869L87.9775 84.9872H88.6456L90.1787 89.1869H89.4569L89.1109 88.2026H87.4883L87.1423 89.1869H86.4443ZM87.703 87.5881H88.8902L88.2996 85.9118L87.703 87.5881ZM90.8377 89.1869V85.011H92.347C92.8242 85.011 93.206 85.1482 93.4625 85.4048C93.6833 85.6255 93.8085 85.9417 93.8085 86.3294V86.3473C93.8085 86.9916 93.4506 87.3853 92.9435 87.5702L93.9278 89.1869H93.1225L92.2396 87.7134H91.5297V89.1869H90.8377ZM91.5297 87.093H92.2754C92.8183 87.093 93.1106 86.8126 93.1106 86.3652V86.3592C93.1106 85.882 92.8063 85.6374 92.2814 85.6374H91.5297V87.093ZM96.3835 89.2465C95.256 89.2465 94.4745 88.4173 94.4745 87.1288V87.0811C94.4745 85.8581 95.2739 84.9514 96.3894 84.9514C96.9621 84.9514 97.332 85.1125 97.7138 85.4227L97.2962 85.9655C97.0635 85.7567 96.8011 85.5957 96.3775 85.5957C95.6915 85.5957 95.1904 86.2161 95.1904 87.0751V87.1109C95.1904 88.0534 95.6974 88.6142 96.4133 88.6142C96.7056 88.6142 96.9681 88.5307 97.153 88.3935V87.4748H96.2761V86.8663H97.8152V88.7395C97.4573 89.0199 96.98 89.2465 96.3835 89.2465ZM98.6895 89.1869V85.011H101.32V85.6374H99.3815V86.7709H101.1V87.3972H99.3815V88.5545H101.344V89.1869H98.6895ZM102.973 89.1869V85.6553H101.875V85.011H104.768V85.6553H103.665V89.1869H102.973Z" fill="white"/>
<path d="M128.917 6.70257L94.1787 78.3808L94.1787 152.62" stroke="#A1C5FF" stroke-width="26.3914"/>
<path d="M94.1787 152.621L94.1787 82.5069L48.9638 16.6969" stroke="#0060FF" stroke-width="26.3914"/>
<path d="M63.1634 37.3984C62.8048 37.3338 62.4617 37.5721 62.3972 37.9308L61.3447 43.7748C61.2802 44.1334 61.5185 44.4765 61.8771 44.5411C62.2358 44.6057 62.5788 44.3673 62.6434 44.0087L63.5789 38.814L68.7736 39.7495C69.1322 39.8141 69.4753 39.5757 69.5399 39.2171C69.6045 38.8584 69.3661 38.5154 69.0075 38.4508L63.1634 37.3984ZM94.1768 82.8528L94.8365 82.8528V82.6461L94.7186 82.4763L94.1768 82.8528ZM94.8365 152.178V151.312L93.517 151.312V152.178H94.8365ZM94.8365 149.579V147.845H93.517L93.517 149.579H94.8365ZM94.8365 146.112L94.8365 144.379H93.517L93.517 146.112H94.8365ZM94.8365 142.646L94.8365 140.913H93.517V142.646L94.8365 142.646ZM94.8365 139.18V137.447H93.517L93.517 139.18L94.8365 139.18ZM94.8365 135.713V133.98H93.517L93.517 135.713H94.8365ZM94.8365 132.247L94.8365 130.514H93.517L93.517 132.247L94.8365 132.247ZM94.8365 128.781L94.8365 127.048L93.517 127.048V128.781H94.8365ZM94.8365 125.315V123.581L93.517 123.581L93.517 125.315L94.8365 125.315ZM94.8365 121.848L94.8365 120.115L93.517 120.115L93.517 121.848H94.8365ZM94.8365 118.382L94.8365 116.649L93.517 116.649V118.382H94.8365ZM94.8365 114.916L94.8365 113.183L93.517 113.183V114.916H94.8365ZM94.8365 111.45V109.716L93.517 109.716L93.517 111.45H94.8365ZM94.8365 107.983L94.8365 106.25L93.517 106.25L93.517 107.983H94.8365ZM94.8365 104.517L94.8365 102.784L93.517 102.784V104.517L94.8365 104.517ZM94.8365 101.051L94.8365 99.3176L93.517 99.3176V101.051L94.8365 101.051ZM94.8365 97.5845V95.8513L93.517 95.8513L93.517 97.5845L94.8365 97.5845ZM94.8365 94.1182L94.8365 92.3851H93.517L93.517 94.1182L94.8365 94.1182ZM94.8365 90.6519L94.8365 88.9188H93.517V90.6519L94.8365 90.6519ZM94.8365 87.1856V85.4525L93.517 85.4525L93.517 87.1856L94.8365 87.1856ZM94.8365 83.7194V82.8528L93.517 82.8528V83.7194L94.8365 83.7194ZM94.7186 82.4763L94.2322 81.7763L93.1485 82.5292L93.6349 83.2293L94.7186 82.4763ZM93.2594 80.3761L92.2865 78.9759L91.2029 79.7289L92.1757 81.129L93.2594 80.3761ZM91.3137 77.5758L90.3409 76.1756L89.2572 76.9286L90.23 78.3287L91.3137 77.5758ZM89.3681 74.7755L88.3953 73.3753L87.3116 74.1282L88.2844 75.5284L89.3681 74.7755ZM87.4224 71.9751L86.4496 70.575L85.3659 71.3279L86.3388 72.7281L87.4224 71.9751ZM85.4768 69.1748L84.504 67.7747L83.4203 68.5276L84.3931 69.9278L85.4768 69.1748ZM83.5312 66.3745L82.5583 64.9744L81.4747 65.7273L82.4475 67.1274L83.5312 66.3745ZM81.5855 63.5742L80.6127 62.174L79.529 62.927L80.5018 64.3271L81.5855 63.5742ZM79.6399 60.7739L78.6671 59.3737L77.5834 60.1266L78.5562 61.5268L79.6399 60.7739ZM77.6942 57.9736L76.7214 56.5734L75.6377 57.3263L76.6106 58.7265L77.6942 57.9736ZM75.7486 55.1732L74.7758 53.7731L73.6921 54.526L74.6649 55.9262L75.7486 55.1732ZM73.803 52.3729L72.8301 50.9728L71.7465 51.7257L72.7193 53.1259L73.803 52.3729ZM71.8573 49.5726L70.8845 48.1724L69.8008 48.9254L70.7736 50.3255L71.8573 49.5726ZM69.9117 46.7723L68.9389 45.3721L67.8552 46.1251L68.828 47.5252L69.9117 46.7723ZM67.966 43.972L66.9932 42.5718L65.9095 43.3247L66.8824 44.7249L67.966 43.972ZM66.0204 41.1717L65.0476 39.7715L63.9639 40.5244L64.9367 41.9246L66.0204 41.1717ZM64.0748 38.3713L63.5883 37.6712L62.5047 38.4242L62.9911 39.1243L64.0748 38.3713Z" fill="white"/>
</svg>
