<svg width="157" height="154" viewBox="0 0 157 154" fill="none" xmlns="http://www.w3.org/2000/svg">
<path d="M65.6813 75.5908V72.0592H64.5837V71.415H67.4769V72.0592H66.3733V75.5908H65.6813ZM67.4365 75.5908L68.9696 71.3911H69.6378L71.1709 75.5908H70.4491L70.1031 74.6065H68.4805L68.1345 75.5908H67.4365ZM68.6952 73.9921H69.8824L69.2918 72.3158L68.6952 73.9921ZM71.8299 75.5908V71.415H73.3392C73.8164 71.415 74.1982 71.5522 74.4547 71.8087C74.6755 72.0294 74.8007 72.3456 74.8007 72.7333V72.7512C74.8007 73.3955 74.4428 73.7892 73.9357 73.9742L74.92 75.5908H74.1147L73.2318 74.1173H72.5219V75.5908H71.8299ZM72.5219 73.4969H73.2676C73.8105 73.4969 74.1028 73.2166 74.1028 72.7691V72.7632C74.1028 72.2859 73.7985 72.0413 73.2736 72.0413H72.5219V73.4969ZM77.3757 75.6505C76.2482 75.6505 75.4667 74.8213 75.4667 73.5327V73.485C75.4667 72.2621 76.2661 71.3553 77.3816 71.3553C77.9543 71.3553 78.3242 71.5164 78.706 71.8266L78.2884 72.3694C78.0557 72.1607 77.7933 71.9996 77.3697 71.9996C76.6837 71.9996 76.1826 72.62 76.1826 73.479V73.5148C76.1826 74.4574 76.6896 75.0181 77.4055 75.0181C77.6978 75.0181 77.9603 74.9346 78.1452 74.7974V73.8787H77.2683V73.2702H78.8074V75.1434C78.4495 75.4238 77.9722 75.6505 77.3757 75.6505ZM79.6817 75.5908V71.415H82.3125V72.0413H80.3737V73.1748H82.0918V73.8012H80.3737V74.9585H82.3363V75.5908H79.6817ZM83.965 75.5908V72.0592H82.8674V71.415H85.7607V72.0592H84.657V75.5908H83.965Z" fill="white"/>
<path d="M75.1719 0.925415L75.1719 139.024" stroke="#A2C5FF" stroke-width="26.3914"/>
<path d="M144.23 31.522L13.0258 117.201" stroke="#A2C5FF" stroke-width="26.3914"/>
<path d="M75.1715 139.024L75.1717 76.1679L11.3296 118.049" stroke="#0060FF" stroke-width="26.3914"/>
<path d="M31.3273 103.484C31.2478 103.84 31.4717 104.193 31.8274 104.272L37.6226 105.567C37.9782 105.646 38.3309 105.422 38.4103 105.067C38.4898 104.711 38.2659 104.358 37.9103 104.279L32.759 103.128L33.9097 97.9767C33.9891 97.6211 33.7653 97.2684 33.4096 97.189C33.054 97.1095 32.7013 97.3334 32.6219 97.6891L31.3273 103.484ZM75.1709 76.2049L75.8307 76.2049L75.8307 75.0045L74.8173 75.6478L75.1709 76.2049ZM75.8307 139.358L75.8307 138.481L74.5111 138.481L74.5111 139.358L75.8307 139.358ZM75.8307 136.727L75.8307 134.972L74.5111 134.972L74.5111 136.727L75.8307 136.727ZM75.8307 133.218L75.8307 131.464L74.5111 131.464L74.5111 133.218L75.8307 133.218ZM75.8307 129.71L75.8307 127.955L74.5111 127.955L74.5111 129.71L75.8307 129.71ZM75.8307 126.201L75.8307 124.447L74.5111 124.447L74.5111 126.201L75.8307 126.201ZM75.8307 122.693L75.8307 120.938L74.5111 120.938L74.5111 122.693L75.8307 122.693ZM75.8307 119.184L75.8307 117.43L74.5111 117.43L74.5111 119.184L75.8307 119.184ZM75.8307 115.676L75.8307 113.921L74.5111 113.921L74.5111 115.676L75.8307 115.676ZM75.8307 112.167L75.8307 110.413L74.5111 110.413L74.5111 112.167L75.8307 112.167ZM75.8307 108.659L75.8307 106.904L74.5111 106.904L74.5111 108.659L75.8307 108.659ZM75.8307 105.15L75.8307 103.396L74.5111 103.396L74.5111 105.15L75.8307 105.15ZM75.8307 101.642L75.8307 99.8873L74.5111 99.8873L74.5111 101.642L75.8307 101.642ZM75.8307 98.133L75.8307 96.3788L74.5111 96.3788L74.5111 98.133L75.8307 98.133ZM75.8307 94.6245L75.8307 92.8703L74.5111 92.8703L74.5111 94.6245L75.8307 94.6245ZM75.8307 91.116L75.8307 89.3618L74.5111 89.3618L74.5111 91.116L75.8307 91.116ZM75.8307 87.6075L75.8307 85.8533L74.5111 85.8533L74.5111 87.6075L75.8307 87.6075ZM75.8307 84.099L75.8307 82.3448L74.5111 82.3448L74.5111 84.099L75.8307 84.099ZM75.8307 80.5905L75.8307 78.8363L74.5111 78.8363L74.5111 80.5905L75.8307 80.5905ZM75.8307 77.082L75.8307 76.2049L74.5111 76.2049L74.5111 77.082L75.8307 77.082ZM74.8173 75.6478L74.0973 76.1049L74.8045 77.219L75.5245 76.7619L74.8173 75.6478ZM72.6573 77.019L71.2173 77.9331L71.9245 79.0472L73.3645 78.1331L72.6573 77.019ZM69.7773 78.8472L68.3373 79.7613L69.0445 80.8754L70.4845 79.9613L69.7773 78.8472ZM66.8974 80.6754L65.4574 81.5895L66.1646 82.7036L67.6046 81.7895L66.8974 80.6754ZM64.0174 82.5037L62.5774 83.4178L63.2846 84.5318L64.7246 83.6177L64.0174 82.5037ZM61.1374 84.3319L59.6974 85.246L60.4046 86.36L61.8446 85.4459L61.1374 84.3319ZM58.2574 86.1601L56.8174 87.0742L57.5246 88.1883L58.9646 87.2741L58.2574 86.1601ZM55.3774 87.9883L53.9374 88.9024L54.6446 90.0165L56.0846 89.1024L55.3774 87.9883ZM52.4975 89.8165L51.0575 90.7306L51.7647 91.8447L53.2047 90.9306L52.4975 89.8165ZM49.6175 91.6447L48.1775 92.5588L48.8847 93.6729L50.3247 92.7588L49.6175 91.6447ZM46.7375 93.473L45.2975 94.3871L46.0047 95.5011L47.4447 94.587L46.7375 93.473ZM43.8575 95.3012L42.4175 96.2153L43.1247 97.3293L44.5647 96.4152L43.8575 95.3012ZM40.9775 97.1294L39.5375 98.0435L40.2447 99.1576L41.6847 98.2434L40.9775 97.1294ZM38.0976 98.9576L36.6576 99.8717L37.3648 100.986L38.8048 100.072L38.0976 98.9576ZM35.2176 100.786L33.7776 101.7L34.4848 102.814L35.9248 101.9L35.2176 100.786ZM32.3376 102.614L31.6176 103.071L32.3248 104.185L33.0448 103.728L32.3376 102.614Z" fill="white"/>
</svg>
