<svg width="160" height="145" viewBox="0 0 160 145" fill="none" xmlns="http://www.w3.org/2000/svg">
<path d="M159.376 71.7202L73.2974 71.7202" stroke="#A2C5FF" stroke-width="26.3914"/>
<path d="M73.0221 81.4647V77.9331H71.9245V77.2889H74.8178V77.9331H73.7141V81.4647H73.0221ZM74.7773 81.4647L76.3105 77.265H76.9786L78.5117 81.4647H77.7899L77.4439 80.4804H75.8213L75.4753 81.4647H74.7773ZM76.0361 79.866H77.2232L76.6326 78.1897L76.0361 79.866ZM79.1707 81.4647V77.2889H80.68C81.1572 77.2889 81.539 77.4261 81.7955 77.6826C82.0163 77.9033 82.1415 78.2195 82.1415 78.6072V78.6251C82.1415 79.2694 81.7836 79.6631 81.2765 79.8481L82.2609 81.4647H81.4555L80.5726 79.9912H79.8627V81.4647H79.1707ZM79.8627 79.3708H80.6084C81.1513 79.3708 81.4436 79.0905 81.4436 78.643V78.6371C81.4436 78.1598 81.1393 77.9152 80.6144 77.9152H79.8627V79.3708ZM84.7165 81.5244C83.589 81.5244 82.8075 80.6952 82.8075 79.4066V79.3589C82.8075 78.136 83.6069 77.2292 84.7225 77.2292C85.2951 77.2292 85.665 77.3903 86.0468 77.7005L85.6292 78.2434C85.3966 78.0346 85.1341 77.8735 84.7105 77.8735C84.0245 77.8735 83.5234 78.4939 83.5234 79.3529V79.3887C83.5234 80.3313 84.0305 80.892 84.7463 80.892C85.0386 80.892 85.3011 80.8085 85.486 80.6713V79.7526H84.6091V79.1441H86.1482V81.0173C85.7903 81.2977 85.313 81.5244 84.7165 81.5244ZM87.0225 81.4647V77.2889H89.6533V77.9152H87.7145V79.0487H89.4326V79.6751H87.7145V80.8324H89.6772V81.4647H87.0225ZM91.3059 81.4647V77.9331H90.2082V77.2889H93.1015V77.9331H91.9979V81.4647H91.3059Z" fill="white"/>
<path d="M41.3389 8.69723L82.5122 63.0324L82.5122 144.898" stroke="#E63902" stroke-width="26.3914"/>
<path d="M82.5129 144.898L82.5119 70.4124L14.0129 70.4124" stroke="#0060FF" stroke-width="26.3914"/>
<path d="M33.4744 71.2536C33.2167 71.5113 33.2167 71.9291 33.4744 72.1867L37.6732 76.3856C37.9309 76.6432 38.3486 76.6432 38.6063 76.3856C38.864 76.1279 38.864 75.7102 38.6063 75.4525L34.874 71.7202L38.6063 67.9879C38.864 67.7302 38.864 67.3125 38.6063 67.0548C38.3486 66.7971 37.9309 66.7971 37.6732 67.0548L33.4744 71.2536ZM82.5127 71.7202L83.1725 71.7202V71.0604L82.5127 71.0604L82.5127 71.7202ZM83.1725 144.456V143.59H81.8529V144.456H83.1725ZM83.1725 141.858L83.1725 140.127H81.8529V141.858H83.1725ZM83.1725 138.395V136.663H81.8529L81.8529 138.395H83.1725ZM83.1725 134.931V133.199H81.8529V134.931L83.1725 134.931ZM83.1725 131.468V129.736H81.8529V131.468H83.1725ZM83.1725 128.004V126.272H81.8529V128.004L83.1725 128.004ZM83.1725 124.54L83.1725 122.808H81.8529V124.54H83.1725ZM83.1725 121.077V119.345L81.8529 119.345L81.8529 121.077H83.1725ZM83.1725 117.613V115.881L81.8529 115.881V117.613H83.1725ZM83.1725 114.149L83.1725 112.418H81.8529V114.149L83.1725 114.149ZM83.1725 110.686V108.954H81.8529L81.8529 110.686H83.1725ZM83.1725 107.222V105.49H81.8529V107.222H83.1725ZM83.1725 103.759V102.027H81.8529L81.8529 103.759H83.1725ZM83.1725 100.295V98.5632H81.8529V100.295L83.1725 100.295ZM83.1725 96.8314L83.1725 95.0996H81.8529V96.8314H83.1725ZM83.1725 93.3678V91.6359H81.8529L81.8529 93.3678H83.1725ZM83.1725 89.9041V88.1723H81.8529V89.9041H83.1725ZM83.1725 86.4405L83.1725 84.7087H81.8529V86.4405H83.1725ZM83.1725 82.9769V81.2451H81.8529L81.8529 82.9769H83.1725ZM83.1725 79.5133L83.1725 77.7815L81.8529 77.7815V79.5133L83.1725 79.5133ZM83.1725 76.0497V74.3179L81.8529 74.3179L81.8529 76.0497L83.1725 76.0497ZM83.1725 72.5861V71.7202L81.8529 71.7202V72.5861L83.1725 72.5861ZM82.5127 71.0604L81.6453 71.0604L81.6453 72.38L82.5127 72.38L82.5127 71.0604ZM79.9106 71.0604L78.1759 71.0604L78.1759 72.38L79.9106 72.38L79.9106 71.0604ZM76.4412 71.0604L74.7065 71.0604L74.7065 72.38L76.4412 72.38L76.4412 71.0604ZM72.9718 71.0604L71.2371 71.0604L71.2371 72.38L72.9718 72.38L72.9718 71.0604ZM69.5024 71.0604L67.7677 71.0604L67.7677 72.38L69.5024 72.38L69.5024 71.0604ZM66.033 71.0604L64.2983 71.0604L64.2983 72.38L66.033 72.38L66.033 71.0604ZM62.5636 71.0604L60.8289 71.0604L60.8289 72.38L62.5636 72.38L62.5636 71.0604ZM59.0942 71.0604L57.3595 71.0604L57.3595 72.38L59.0942 72.38L59.0942 71.0604ZM55.6247 71.0604L53.89 71.0604L53.89 72.38L55.6247 72.38L55.6247 71.0604ZM52.1553 71.0604L50.4206 71.0604L50.4206 72.38L52.1553 72.38L52.1553 71.0604ZM48.6859 71.0604L46.9512 71.0604L46.9512 72.38L48.6859 72.38L48.6859 71.0604ZM45.2165 71.0604L43.4818 71.0604L43.4818 72.38L45.2165 72.38L45.2165 71.0604ZM41.7471 71.0604L40.0124 71.0604L40.0124 72.38L41.7471 72.38L41.7471 71.0604ZM38.2777 71.0604L36.543 71.0604L36.543 72.38L38.2777 72.38L38.2777 71.0604ZM34.8083 71.0604L33.9409 71.0604L33.9409 72.38L34.8083 72.38L34.8083 71.0604Z" fill="white"/>
</svg>
