<svg width="791" height="768" viewBox="0 0 791 768" fill="none" xmlns="http://www.w3.org/2000/svg">
<rect x="0.646332" y="0.212402" width="789.655" height="767.339" fill="white"/>
<circle cx="238.912" cy="496.544" r="6.66631" fill="#C41515"/>
<circle cx="238.912" cy="513.572" r="6.66631" fill="#ECB800"/>
<circle cx="238.912" cy="530.598" r="6.66631" fill="#009900"/>
<rect x="226.832" y="483.259" width="24.162" height="60.6246" rx="12.081" stroke="#5E5E5E" stroke-width="3.14581"/>
<circle cx="541.588" cy="496.544" r="6.66631" fill="#C41515"/>
<circle cx="541.588" cy="513.572" r="6.66631" fill="#ECB800"/>
<circle cx="541.588" cy="530.598" r="6.66631" fill="#009900"/>
<rect x="529.507" y="483.259" width="24.162" height="60.6246" rx="12.081" stroke="#5E5E5E" stroke-width="3.14581"/>
<path d="M284.137 304.853H504.904C504.904 304.853 504.904 486.65 504.904 531.18C504.904 575.71 453.923 585.876 453.923 639.489C453.923 693.101 453.923 734.419 453.923 734.419H335.02C335.02 703.269 335.02 671.596 335.02 639.489C335.02 591.634 284.136 582.038 284.136 539.816C284.136 460.989 284.137 386.479 284.137 304.853Z" fill="#0060FF"/>
<path d="M739.31 383.882L50.2279 383.882" stroke="#0060FF" stroke-width="161.738"/>
<path d="M394.769 473.358L394.769 734.42" stroke="#0060FF" stroke-width="118.104"/>
<path d="M395.704 462.538V734.419M453.134 462.538V595.827M335.908 462.538V595.827" stroke="white" stroke-width="2.78858" stroke-dasharray="10.5 10.5"/>
<path d="M290.834 488L301.688 481.733L301.688 494.266L290.834 488ZM311.318 512.322V497.063H313.489V512.322H311.318ZM303.34 489.085H300.603V486.914H303.34L303.34 489.085ZM311.318 497.063C311.318 492.657 307.746 489.085 303.34 489.085L303.34 486.914C308.945 486.914 313.489 491.458 313.489 497.063H311.318Z" fill="white"/>
<path d="M343.63 488L354.484 481.733L354.484 494.266L343.63 488ZM364.114 512.322V497.063H366.285V512.322H364.114ZM356.136 489.085H353.398V486.914H356.136L356.136 489.085ZM364.114 497.063C364.114 492.657 360.542 489.085 356.136 489.085L356.136 486.914C361.741 486.914 366.285 491.458 366.285 497.063H364.114Z" fill="white"/>
<path d="M494.37 488L483.516 481.733L483.516 494.266L494.37 488ZM473.886 513.572V497.063H471.715V513.572H473.886ZM481.864 489.085H484.601V486.914H481.864V489.085ZM473.886 497.063C473.886 492.657 477.458 489.085 481.864 489.085V486.914C476.259 486.914 471.715 491.458 471.715 497.063H473.886Z" fill="white"/>
<path d="M447.434 488L436.581 481.733L436.581 494.266L447.434 488ZM426.951 513.572V497.063H424.78V513.572H426.951ZM434.929 489.085H437.666V486.914H434.929V489.085ZM426.951 497.063C426.951 492.657 430.522 489.085 434.929 489.085V486.914C429.324 486.914 424.78 491.458 424.78 497.063H426.951Z" fill="white"/>
<path d="M425.865 469.358L432.132 480.211L419.599 480.211L425.865 469.358ZM424.78 509.9L424.78 479.126L426.951 479.126L426.951 509.9L424.78 509.9Z" fill="white"/>
<path d="M365.199 469.358L371.466 480.211L358.933 480.211L365.199 469.358ZM364.114 509.9L364.114 479.126L366.285 479.126L366.285 509.9L364.114 509.9Z" fill="white"/>
<rect x="301.619" y="56.0793" width="171.182" height="248.773" fill="#0060FF"/>
</svg>
