<svg width="1029" height="486" viewBox="0 0 1029 486" fill="none" xmlns="http://www.w3.org/2000/svg">
<g clip-path="url(#clip0_6235_375)">
<rect width="1029" height="486" fill="white"/>
<line x1="690.747" y1="353.077" x2="508.895" y2="353.077" stroke="white" stroke-width="2.16888" stroke-dasharray="5.06 5.06"/>
<path d="M1006.19 431.709C1038.97 431.709 1062.58 477.338 1156.84 477.338C1251.1 477.338 1258.57 477.338 1258.57 477.338L1247.73 513.292C1247.73 513.292 1246.6 513.292 1129.98 513.292C1013.36 513.292 1015.16 431.708 850.159 431.708C685.158 431.708 973.404 431.709 1006.19 431.709Z" fill="#C4C4C4"/>
<path d="M1055.45 284.592L1036.1 351.994L-34.4952 351.994L-8.55208 284.592L1055.45 284.592Z" fill="#C4C4C4"/>
<path d="M1044.61 319.212L-33.1598 319.212" stroke="white" stroke-width="2.16888" stroke-dasharray="5.06 5.06"/>
<path d="M690.605 350.661C723.388 350.661 746.996 396.291 841.259 396.291C935.521 396.291 1194.88 396.291 1194.88 396.291L1184.04 432.244C1184.04 432.244 931.017 432.244 814.398 432.244C697.779 432.244 699.578 350.661 534.576 350.661C369.575 350.661 657.821 350.661 690.605 350.661Z" fill="#C4C4C4"/>
<path d="M-34.4944 335C210.946 335 359.383 335.729 615.566 335.729C672.624 335.729 735.772 414.726 801.088 414.726C847.151 414.726 827.157 414.726 896.481 414.726C965.804 414.726 1034.17 476.055 1102.2 492.286C1154.7 500.786 1251.24 496.469 1278.9 496.469" stroke="#F22EC7" stroke-width="9.00918"/>
<path d="M425.184 335.473L411.098 343.606C410.574 343.908 409.951 343.414 410.126 342.835L412.381 335.378C412.476 335.063 412.476 334.727 412.381 334.412L410.126 326.956C409.951 326.377 410.574 325.883 411.098 326.185L425.184 334.317C425.629 334.574 425.629 335.216 425.184 335.473Z" fill="#F22EC7" stroke="white" stroke-width="1.00102" stroke-linejoin="round"/>
<path d="M837.145 415.105L822.87 422.901C822.339 423.19 821.728 422.681 821.916 422.107L824.348 414.706C824.451 414.393 824.459 414.057 824.371 413.74L822.294 406.233C822.132 405.65 822.768 405.17 823.284 405.485L837.173 413.949C837.611 414.217 837.596 414.859 837.145 415.105Z" fill="#F22EC7" stroke="white" stroke-width="1.00102" stroke-linejoin="round"/>
<path d="M-36.8931 168.622L474.232 168.622V203.324H-48.5342L-36.8931 168.622Z" fill="#79A3EA"/>
<rect x="713.562" y="168.622" width="167.471" height="34.702" fill="#0060FF"/>
<rect x="331.158" y="168.622" width="382.403" height="34.702" fill="#5A8DE1"/>
<path d="M744.959 189.076C742.952 189.076 741.619 187.536 741.619 185.227V185.129C741.619 182.83 743.05 181.268 745.056 181.268C746.184 181.268 746.9 181.67 747.496 182.277L746.553 183.491C746.087 183.025 745.62 182.732 745.002 182.732C743.983 182.732 743.234 183.676 743.234 185.151V185.183C743.234 186.691 744.015 187.612 745.024 187.612C745.631 187.612 746.076 187.33 746.585 186.821L747.529 187.938C746.846 188.643 746.119 189.076 744.959 189.076ZM751.61 189.098C749.582 189.098 748.183 187.515 748.183 185.248V185.118C748.183 182.841 749.615 181.247 751.621 181.247C753.649 181.247 755.048 182.83 755.048 185.096V185.227C755.048 187.493 753.616 189.098 751.61 189.098ZM751.621 187.645C752.662 187.645 753.421 186.723 753.421 185.216V185.14C753.421 183.643 752.662 182.7 751.61 182.7C750.547 182.7 749.799 183.622 749.799 185.129V185.205C749.799 186.712 750.569 187.645 751.621 187.645ZM756.375 188.968V181.377H757.817L760.723 185.801V181.377H762.263V188.968H760.918L757.914 184.381V188.968H756.375ZM763.861 188.968V181.377H768.751V182.819H765.433V184.522H768.35V185.964H765.433V188.968H763.861ZM770.003 188.968V181.377H771.575V188.968H770.003ZM773.23 188.968V181.377H776.082C776.972 181.377 777.655 181.615 778.143 182.103C778.566 182.526 778.783 183.112 778.783 183.86V183.904C778.783 185.064 778.208 185.769 777.373 186.148L778.989 188.968H777.188L775.79 186.474H774.803V188.968H773.23ZM774.803 185.086H775.963C776.776 185.086 777.199 184.641 777.199 183.947V183.936C777.199 183.166 776.744 182.797 775.931 182.797H774.803V185.086ZM780.113 188.968V181.377H781.761L783.453 184.457L785.123 181.377H786.782V188.968H785.242V184.12L783.453 187.254H783.42L781.642 184.142V188.968H780.113ZM787.808 188.968L790.529 181.333H792.026L794.748 188.968H793.121L792.557 187.32H789.944L789.391 188.968H787.808ZM790.421 185.931H792.08L791.256 183.459L790.421 185.931ZM796.442 188.968V182.83H794.534V181.377H799.913V182.83H798.004V188.968H796.442ZM801.11 188.968V181.377H802.683V188.968H801.11ZM807.494 189.098C805.466 189.098 804.067 187.515 804.067 185.248V185.118C804.067 182.841 805.498 181.247 807.504 181.247C809.532 181.247 810.931 182.83 810.931 185.096V185.227C810.931 187.493 809.5 189.098 807.494 189.098ZM807.504 187.645C808.545 187.645 809.305 186.723 809.305 185.216V185.14C809.305 183.643 808.545 182.7 807.494 182.7C806.431 182.7 805.683 183.622 805.683 185.129V185.205C805.683 186.712 806.452 187.645 807.504 187.645ZM812.258 188.968V181.377H813.7L816.607 185.801V181.377H818.147V188.968H816.802L813.798 184.381V188.968H812.258ZM822.327 188.968V181.377H824.853C826.556 181.377 827.63 182.364 827.63 183.979V184.001C827.63 185.736 826.383 186.626 824.788 186.658H823.899V188.968H822.327ZM823.899 185.248H824.778C825.602 185.248 826.046 184.739 826.046 184.034V184.023C826.046 183.231 825.591 182.797 824.756 182.797H823.899V185.248ZM828.743 188.968V181.377H830.316V184.424H832.81V181.377H834.382V188.968H832.81V185.877H830.316V188.968H828.743ZM835.411 188.968L838.133 181.333H839.629L842.351 188.968H840.724L840.161 187.32H837.547L836.994 188.968H835.411ZM838.024 185.931H839.683L838.859 183.459L838.024 185.931ZM845.558 189.065C844.593 189.065 843.584 188.729 842.749 187.949L843.682 186.788C844.191 187.233 844.799 187.645 845.569 187.645C846.176 187.645 846.545 187.341 846.545 186.897V186.886C846.545 186.517 846.328 186.268 845.243 185.856C843.898 185.335 843.063 184.825 843.063 183.524V183.502C843.063 182.179 844.083 181.279 845.547 181.279C846.447 181.279 847.304 181.572 847.998 182.212L847.119 183.405C846.642 183.014 846.1 182.7 845.503 182.7C844.95 182.7 844.625 182.971 844.625 183.361V183.372C844.625 183.817 844.885 184.012 846.067 184.5C847.401 185.021 848.106 185.584 848.106 186.766V186.788C848.106 188.209 847.032 189.065 845.558 189.065ZM849.348 188.968V181.377H854.239V182.797H850.909V184.435H853.837V185.856H850.909V187.547H854.282V188.968H849.348Z" fill="white"/>
<path d="M497.958 190.305V182.714H499.606L501.298 185.793L502.968 182.714H504.627V190.305H503.087V185.457L501.298 188.591H501.266L499.487 185.479V190.305H497.958ZM505.653 190.305L508.375 182.67H509.871L512.593 190.305H510.967L510.403 188.656H507.789L507.236 190.305H505.653ZM508.266 187.268H509.926L509.101 184.796L508.266 187.268ZM513.673 190.305V182.714H515.245V190.305H513.673ZM516.9 190.305V182.714H518.342L521.249 187.138V182.714H522.789V190.305H521.444L518.44 185.718V190.305H516.9ZM526.969 190.305V182.714H529.495C531.198 182.714 532.272 183.7 532.272 185.316V185.338C532.272 187.073 531.025 187.962 529.43 187.995H528.541V190.305H526.969ZM528.541 186.585H529.42C530.244 186.585 530.688 186.075 530.688 185.37V185.36C530.688 184.568 530.233 184.134 529.398 184.134H528.541V186.585ZM533.385 190.305V182.714H534.958V185.761H537.452V182.714H539.024V190.305H537.452V187.214H534.958V190.305H533.385ZM540.053 190.305L542.775 182.67H544.271L546.993 190.305H545.367L544.803 188.656H542.189L541.636 190.305H540.053ZM542.666 187.268H544.325L543.501 184.796L542.666 187.268ZM550.2 190.402C549.235 190.402 548.226 190.066 547.391 189.285L548.324 188.125C548.833 188.57 549.441 188.982 550.211 188.982C550.818 188.982 551.187 188.678 551.187 188.233V188.223C551.187 187.854 550.97 187.604 549.885 187.192C548.541 186.672 547.705 186.162 547.705 184.861V184.839C547.705 183.516 548.725 182.616 550.189 182.616C551.089 182.616 551.946 182.909 552.64 183.549L551.761 184.742C551.284 184.351 550.742 184.037 550.145 184.037C549.592 184.037 549.267 184.308 549.267 184.698V184.709C549.267 185.154 549.527 185.349 550.709 185.837C552.043 186.357 552.748 186.921 552.748 188.103V188.125C552.748 189.546 551.675 190.402 550.2 190.402ZM553.99 190.305V182.714H558.881V184.134H555.551V185.772H558.479V187.192H555.551V188.884H558.924V190.305H553.99Z" fill="white"/>
<circle cx="881.03" cy="233.102" r="12.0957" fill="#0060FF"/>
<path d="M878.522 237.513V229.794H881.279C882.128 229.794 882.823 230.025 883.253 230.455C883.595 230.797 883.771 231.238 883.771 231.757V231.79C883.771 232.738 883.22 233.223 882.635 233.521C883.484 233.819 884.102 234.337 884.102 235.363V235.407C884.102 236.763 882.999 237.513 881.356 237.513H878.522ZM882.503 231.988V231.966C882.503 231.304 882.029 230.93 881.191 230.93H879.768V233.069H881.113C881.951 233.069 882.503 232.705 882.503 231.988ZM882.834 235.275V235.252C882.834 234.58 882.315 234.172 881.334 234.172H879.768V236.377H881.389C882.271 236.377 882.834 235.98 882.834 235.275Z" fill="white"/>
<path d="M881.197 168.5L881.197 221" stroke="#0060FF" stroke-width="0.50051" stroke-dasharray="1.67 1.67"/>
<path d="M714.065 168.622L714.065 246" stroke="#0060FF" stroke-width="0.50051" stroke-dasharray="1.67 1.67"/>
<path d="M331.408 168.622L331.408 245.5" stroke="#0060FF" stroke-width="0.50051" stroke-dasharray="1.67 1.67"/>
<path d="M-22.626 89.0164L434.551 89.0164V123.718H-35.1516L-22.626 89.0164Z" fill="#34E246"/>
<rect x="435.92" y="89.0164" width="161.156" height="34.702" fill="#0DC820"/>
<path d="M465.99 109.47C463.983 109.47 462.65 107.931 462.65 105.621V105.523C462.65 103.224 464.081 101.662 466.087 101.662C467.215 101.662 467.931 102.064 468.527 102.671L467.584 103.886C467.117 103.419 466.651 103.126 466.033 103.126C465.014 103.126 464.265 104.07 464.265 105.545V105.577C464.265 107.085 465.046 108.006 466.055 108.006C466.662 108.006 467.107 107.724 467.616 107.215L468.56 108.332C467.877 109.037 467.15 109.47 465.99 109.47ZM472.641 109.492C470.613 109.492 469.214 107.909 469.214 105.642V105.512C469.214 103.235 470.646 101.641 472.652 101.641C474.68 101.641 476.079 103.224 476.079 105.491V105.621C476.079 107.887 474.647 109.492 472.641 109.492ZM472.652 108.039C473.693 108.039 474.452 107.117 474.452 105.61V105.534C474.452 104.037 473.693 103.094 472.641 103.094C471.578 103.094 470.83 104.016 470.83 105.523V105.599C470.83 107.106 471.6 108.039 472.652 108.039ZM477.406 109.362V101.771H478.848L481.754 106.195V101.771H483.294V109.362H481.949L478.945 104.775V109.362H477.406ZM484.892 109.362V101.771H489.782V103.213H486.464V104.916H489.381V106.358H486.464V109.362H484.892ZM491.034 109.362V101.771H492.606V109.362H491.034ZM494.261 109.362V101.771H497.113C498.003 101.771 498.686 102.01 499.174 102.498C499.597 102.92 499.814 103.506 499.814 104.254V104.298C499.814 105.458 499.239 106.163 498.404 106.542L500.02 109.362H498.219L496.821 106.868H495.834V109.362H494.261ZM495.834 105.48H496.994C497.807 105.48 498.23 105.035 498.23 104.341V104.33C498.23 103.56 497.775 103.192 496.961 103.192H495.834V105.48ZM501.144 109.362V101.771H502.792L504.484 104.851L506.154 101.771H507.813V109.362H506.273V104.515L504.484 107.649H504.451L502.673 104.536V109.362H501.144ZM508.838 109.362L511.56 101.728H513.057L515.779 109.362H514.152L513.588 107.714H510.975L510.422 109.362H508.838ZM511.452 106.326H513.111L512.287 103.853L511.452 106.326ZM517.473 109.362V103.224H515.565V101.771H520.944V103.224H519.035V109.362H517.473ZM522.141 109.362V101.771H523.714V109.362H522.141ZM528.525 109.492C526.497 109.492 525.098 107.909 525.098 105.642V105.512C525.098 103.235 526.529 101.641 528.535 101.641C530.563 101.641 531.962 103.224 531.962 105.491V105.621C531.962 107.887 530.531 109.492 528.525 109.492ZM528.535 108.039C529.576 108.039 530.336 107.117 530.336 105.61V105.534C530.336 104.037 529.576 103.094 528.525 103.094C527.462 103.094 526.714 104.016 526.714 105.523V105.599C526.714 107.106 527.483 108.039 528.535 108.039ZM533.289 109.362V101.771H534.731L537.638 106.195V101.771H539.177V109.362H537.833L534.829 104.775V109.362H533.289ZM543.358 109.362V101.771H545.884C547.587 101.771 548.661 102.758 548.661 104.374V104.395C548.661 106.13 547.413 107.02 545.819 107.052H544.93V109.362H543.358ZM544.93 105.642H545.809C546.633 105.642 547.077 105.133 547.077 104.428V104.417C547.077 103.625 546.622 103.192 545.787 103.192H544.93V105.642ZM549.774 109.362V101.771H551.346V104.818H553.841V101.771H555.413V109.362H553.841V106.271H551.346V109.362H549.774ZM556.442 109.362L559.164 101.728H560.66L563.382 109.362H561.755L561.192 107.714H558.578L558.025 109.362H556.442ZM559.055 106.326H560.714L559.89 103.853L559.055 106.326ZM566.589 109.46C565.623 109.46 564.615 109.123 563.78 108.343L564.713 107.182C565.222 107.627 565.83 108.039 566.599 108.039C567.207 108.039 567.575 107.735 567.575 107.291V107.28C567.575 106.911 567.359 106.662 566.274 106.25C564.929 105.729 564.094 105.219 564.094 103.918V103.896C564.094 102.573 565.114 101.673 566.578 101.673C567.478 101.673 568.335 101.966 569.029 102.606L568.15 103.799C567.673 103.408 567.131 103.094 566.534 103.094C565.981 103.094 565.656 103.365 565.656 103.755V103.766C565.656 104.211 565.916 104.406 567.098 104.894C568.432 105.415 569.137 105.979 569.137 107.161V107.182C569.137 108.603 568.063 109.46 566.589 109.46ZM570.379 109.362V101.771H575.27V103.192H571.94V104.829H574.868V106.25H571.94V107.941H575.313V109.362H570.379Z" fill="white"/>
<path d="M247.797 110.699V103.108H249.446L251.137 106.187L252.807 103.108H254.466V110.699H252.927V105.851L251.137 108.985H251.105L249.326 105.873V110.699H247.797ZM255.492 110.699L258.214 103.064H259.711L262.433 110.699H260.806L260.242 109.05H257.628L257.075 110.699H255.492ZM258.106 107.662H259.765L258.941 105.19L258.106 107.662ZM263.512 110.699V103.108H265.084V110.699H263.512ZM266.739 110.699V103.108H268.181L271.088 107.532V103.108H272.628V110.699H271.283L268.279 106.112V110.699H266.739ZM276.808 110.699V103.108H279.335C281.037 103.108 282.111 104.094 282.111 105.71V105.732C282.111 107.467 280.864 108.356 279.27 108.389H278.38V110.699H276.808ZM278.38 106.979H279.259C280.083 106.979 280.528 106.469 280.528 105.765V105.754C280.528 104.962 280.072 104.528 279.237 104.528H278.38V106.979ZM283.224 110.699V103.108H284.797V106.155H287.291V103.108H288.863V110.699H287.291V107.608H284.797V110.699H283.224ZM289.892 110.699L292.614 103.064H294.11L296.832 110.699H295.206L294.642 109.05H292.028L291.475 110.699H289.892ZM292.505 107.662H294.165L293.34 105.19L292.505 107.662ZM300.039 110.796C299.074 110.796 298.065 110.46 297.23 109.679L298.163 108.519C298.672 108.964 299.28 109.376 300.05 109.376C300.657 109.376 301.026 109.072 301.026 108.627V108.617C301.026 108.248 300.809 107.998 299.724 107.586C298.38 107.066 297.545 106.556 297.545 105.255V105.233C297.545 103.91 298.564 103.01 300.028 103.01C300.928 103.01 301.785 103.303 302.479 103.943L301.6 105.136C301.123 104.745 300.581 104.431 299.985 104.431C299.432 104.431 299.106 104.702 299.106 105.092V105.103C299.106 105.548 299.366 105.743 300.549 106.231C301.882 106.751 302.587 107.315 302.587 108.497V108.519C302.587 109.94 301.514 110.796 300.039 110.796ZM303.829 110.699V103.108H308.72V104.528H305.391V106.166H308.319V107.586H305.391V109.278H308.763V110.699H303.829Z" fill="white"/>
<circle cx="597.734" cy="60.6973" r="12.0957" fill="#0DC820"/>
<path d="M594.367 65.1083L597.201 57.3447H598.436L601.271 65.1083H599.936L599.297 63.2887H596.297L595.657 65.1083H594.367ZM596.694 62.1529H598.889L597.797 59.054L596.694 62.1529Z" fill="white"/>
<path d="M597.076 73L597.326 123.718" stroke="#0DC820" stroke-width="0.50051" stroke-dasharray="1.67 1.67"/>
<path d="M435.365 72.6342L435.365 123.718" stroke="#0DC820" stroke-width="0.50051" stroke-dasharray="1.67 1.67"/>
<line x1="103.171" y1="92.2239" x2="103.171" y2="123.718" stroke="#0DC820" stroke-width="0.50051" stroke-dasharray="1.67 1.67"/>
<path d="M-354.256 89.0164L102.921 89.0164V123.718H-366.782L-354.256 89.0164Z" fill="#87EB91"/>
<rect x="331.158" y="221.324" width="125.654" height="24.1757" fill="#0060FF"/>
<path d="M335.727 237.815L335.727 230.096L338.484 230.096C339.333 230.096 340.028 230.327 340.458 230.757C340.8 231.099 340.976 231.54 340.976 232.059L340.976 232.092C340.976 233.04 340.425 233.525 339.84 233.823C340.689 234.121 341.307 234.639 341.307 235.665L341.307 235.709C341.307 237.065 340.204 237.815 338.561 237.815L335.727 237.815ZM339.708 232.29L339.708 232.268C339.708 231.607 339.234 231.232 338.396 231.232L336.973 231.232L336.973 233.371L338.318 233.371C339.156 233.371 339.708 233.007 339.708 232.29ZM340.039 235.577L340.039 235.555C340.039 234.882 339.52 234.474 338.539 234.474L336.973 234.474L336.973 236.679L338.594 236.679C339.476 236.679 340.039 236.282 340.039 235.577ZM344.604 237.948C343.501 237.948 342.707 237.507 342.134 236.878L342.928 235.974C343.358 236.448 343.843 236.768 344.593 236.768C345.31 236.768 345.861 236.293 345.861 235.544L345.861 235.522C345.861 234.716 345.199 234.286 344.108 234.286L343.722 234.286L343.556 233.481L345.431 231.254L342.52 231.254L342.52 230.096L347.03 230.096L347.03 231.099L345.067 233.327C346.148 233.503 347.129 234.121 347.129 235.477L347.129 235.51C347.129 236.955 346.071 237.948 344.604 237.948ZM351.038 237.815L351.038 231.971L352.284 231.971L352.284 232.82C352.626 232.301 353.078 231.86 353.85 231.86C354.567 231.86 355.085 232.224 355.361 232.798C355.758 232.268 356.276 231.86 357.07 231.86C358.162 231.86 358.857 232.566 358.857 233.889L358.857 237.815L357.622 237.815L357.622 234.264C357.622 233.426 357.247 232.985 356.629 232.985C356.012 232.985 355.571 233.437 355.571 234.275L355.571 237.815L354.324 237.815L354.324 234.253C354.324 233.415 353.96 232.985 353.343 232.985C352.714 232.985 352.284 233.481 352.284 234.275L352.284 237.815L351.038 237.815ZM361.723 237.926C360.753 237.926 359.926 237.275 359.926 236.139L359.926 236.073C359.926 234.827 360.786 234.209 362.021 234.209C362.561 234.209 362.958 234.308 363.355 234.452L363.355 234.198C363.355 233.404 362.892 233.007 362.098 233.007C361.536 233.007 361.084 233.184 360.698 233.36L360.334 232.368C360.896 232.092 361.47 231.904 362.264 231.904C363.025 231.904 363.598 232.103 363.984 232.489C364.37 232.875 364.568 233.448 364.568 234.187L364.568 237.815L363.344 237.815L363.344 237.098C363.002 237.584 362.484 237.926 361.723 237.926ZM362.098 236.988C362.815 236.988 363.366 236.514 363.366 235.852L363.366 235.257C363.069 235.136 362.716 235.058 362.286 235.058C361.569 235.058 361.15 235.422 361.15 236.04L361.15 236.073C361.15 236.646 361.536 236.977 362.098 236.988ZM365.987 231.121L365.987 229.897L367.31 229.897L367.31 231.121L365.987 231.121ZM366.02 237.815L366.02 231.971L367.277 231.971L367.277 237.815L366.02 237.815ZM368.808 237.815L368.808 231.971L370.054 231.971L370.054 232.82C370.396 232.301 370.859 231.86 371.653 231.86C372.789 231.86 373.451 232.632 373.451 233.9L373.451 237.815L372.193 237.815L372.193 234.264C372.193 233.426 371.819 232.985 371.157 232.985C370.506 232.985 370.054 233.47 370.054 234.275L370.054 237.815L368.808 237.815ZM378.912 237.926C377.941 237.926 377.114 237.275 377.114 236.139L377.114 236.073C377.114 234.827 377.974 234.209 379.209 234.209C379.75 234.209 380.147 234.308 380.544 234.452L380.544 234.198C380.544 233.404 380.081 233.007 379.287 233.007C378.724 233.007 378.272 233.184 377.886 233.36L377.522 232.368C378.085 232.092 378.658 231.904 379.452 231.904C380.213 231.904 380.786 232.103 381.172 232.489C381.558 232.875 381.757 233.448 381.757 234.187L381.757 237.815L380.533 237.815L380.533 237.099C380.191 237.584 379.673 237.926 378.912 237.926ZM379.287 236.988C380.003 236.988 380.555 236.514 380.555 235.852L380.555 235.257C380.257 235.136 379.904 235.058 379.474 235.058C378.757 235.058 378.338 235.422 378.338 236.04L378.338 236.073C378.338 236.646 378.724 236.977 379.287 236.988ZM383.153 237.815L383.153 231.971L384.399 231.971L384.399 232.82C384.741 232.301 385.204 231.86 385.998 231.86C387.134 231.86 387.796 232.632 387.796 233.9L387.796 237.815L386.539 237.815L386.539 234.264C386.539 233.426 386.164 232.985 385.502 232.985C384.851 232.985 384.399 233.47 384.399 234.275L384.399 237.815L383.153 237.815ZM389.206 237.815L389.206 231.971L390.452 231.971L390.452 232.82C390.794 232.301 391.257 231.86 392.051 231.86C393.187 231.86 393.848 232.632 393.848 233.9L393.848 237.815L392.591 237.815L392.591 234.264C392.591 233.426 392.216 232.985 391.554 232.985C390.904 232.985 390.452 233.47 390.452 234.275L390.452 237.815L389.206 237.815ZM397.684 237.948C396.14 237.948 394.993 236.679 394.993 234.959L394.993 234.86C394.993 233.139 396.14 231.86 397.695 231.86C399.239 231.86 400.364 233.128 400.364 234.849L400.364 234.948C400.364 236.668 399.228 237.948 397.684 237.948ZM397.695 236.845C398.577 236.845 399.129 236.029 399.129 234.937L399.129 234.871C399.129 233.779 398.522 232.952 397.684 232.952C396.802 232.952 396.24 233.779 396.24 234.86L396.24 234.926C396.24 236.018 396.857 236.845 397.695 236.845ZM403.322 237.926C402.175 237.926 401.525 237.143 401.525 235.896L401.525 231.971L402.76 231.971L402.76 235.522C402.76 236.36 403.146 236.801 403.807 236.801C404.469 236.801 404.899 236.338 404.899 235.51L404.899 231.971L406.156 231.971L406.156 237.815L404.899 237.815L404.899 236.966C404.579 237.484 404.105 237.926 403.322 237.926ZM407.622 237.815L407.622 231.971L408.868 231.971L408.868 232.82C409.21 232.301 409.673 231.86 410.467 231.86C411.603 231.86 412.264 232.632 412.264 233.9L412.264 237.815L411.007 237.815L411.007 234.264C411.007 233.426 410.632 232.985 409.97 232.985C409.32 232.985 408.868 233.47 408.868 234.275L408.868 237.815L407.622 237.815ZM416.034 237.948C414.512 237.948 413.409 236.702 413.409 234.97L413.409 234.86C413.409 233.095 414.545 231.86 416.078 231.86C416.916 231.86 417.468 232.169 417.953 232.654L417.258 233.57C416.949 233.25 416.607 232.985 416.078 232.985C415.251 232.985 414.667 233.757 414.667 234.871L414.667 234.926C414.667 236.062 415.262 236.823 416.111 236.823C416.63 236.812 416.96 236.569 417.302 236.227L417.975 237.054C417.501 237.573 416.927 237.948 416.034 237.948ZM421.291 237.948C419.791 237.948 418.622 236.79 418.622 234.948L418.622 234.871C418.622 233.117 419.669 231.86 421.114 231.86C422.702 231.86 423.54 233.173 423.54 234.937C423.54 235.014 423.54 235.191 423.529 235.367L419.868 235.367C419.989 236.349 420.585 236.878 421.346 236.878C421.908 236.878 422.305 236.646 422.691 236.26L423.342 237.032C422.812 237.595 422.173 237.948 421.291 237.948ZM419.857 234.507L422.316 234.507C422.261 233.57 421.853 232.908 421.114 232.908C420.419 232.908 419.945 233.503 419.857 234.507ZM424.734 237.815L424.734 231.971L425.981 231.971L425.981 232.82C426.322 232.301 426.775 231.86 427.547 231.86C428.263 231.86 428.782 232.224 429.057 232.798C429.454 232.268 429.973 231.86 430.767 231.86C431.858 231.86 432.553 232.566 432.553 233.889L432.553 237.815L431.318 237.815L431.318 234.264C431.318 233.426 430.943 232.985 430.326 232.985C429.708 232.985 429.267 233.437 429.267 234.275L429.267 237.815L428.021 237.815L428.021 234.253C428.021 233.415 427.657 232.985 427.039 232.985C426.411 232.985 425.981 233.481 425.981 234.275L425.981 237.815L424.734 237.815ZM436.368 237.948C434.868 237.948 433.699 236.79 433.699 234.948L433.699 234.871C433.699 233.117 434.747 231.86 436.192 231.86C437.78 231.86 438.618 233.173 438.618 234.937C438.618 235.014 438.618 235.191 438.607 235.367L434.945 235.367C435.067 236.349 435.662 236.878 436.423 236.878C436.986 236.878 437.383 236.646 437.769 236.26L438.419 237.032C437.89 237.595 437.25 237.948 436.368 237.948ZM434.934 234.507L437.394 234.507C437.338 233.57 436.93 232.908 436.192 232.908C435.497 232.908 435.023 233.503 434.934 234.507ZM439.812 237.815L439.812 231.971L441.058 231.971L441.058 232.82C441.4 232.301 441.863 231.86 442.657 231.86C443.793 231.86 444.455 232.632 444.455 233.9L444.455 237.815L443.197 237.815L443.197 234.264C443.197 233.426 442.822 232.985 442.161 232.985C441.51 232.985 441.058 233.47 441.058 234.275L441.058 237.815L439.812 237.815ZM447.607 237.904C446.758 237.904 446.096 237.54 446.096 236.393L446.096 233.04L445.468 233.04L445.468 231.971L446.096 231.971L446.096 230.394L447.353 230.394L447.353 231.971L448.655 231.971L448.655 233.04L447.353 233.04L447.353 236.15C447.353 236.602 447.574 236.79 447.971 236.79C448.202 236.79 448.423 236.735 448.644 236.635L448.644 237.65C448.346 237.815 448.037 237.904 447.607 237.904Z" fill="white"/>
<rect x="713.759" y="221.522" width="125.654" height="24.1757" fill="#0060FF"/>
<path d="M718.327 238.013L718.327 230.293L721.084 230.293C721.933 230.293 722.628 230.525 723.058 230.955C723.4 231.297 723.576 231.738 723.576 232.256L723.576 232.289C723.576 233.238 723.025 233.723 722.441 234.021C723.29 234.318 723.907 234.837 723.907 235.862L723.907 235.906C723.907 237.263 722.804 238.013 721.161 238.013L718.327 238.013ZM722.308 232.488L722.308 232.466C722.308 231.804 721.834 231.429 720.996 231.429L719.573 231.429L719.573 233.569L720.919 233.569C721.757 233.569 722.308 233.205 722.308 232.488ZM722.639 235.774L722.639 235.752C722.639 235.079 722.121 234.671 721.139 234.671L719.573 234.671L719.573 236.877L721.194 236.877C722.077 236.877 722.639 236.48 722.639 235.774ZM728.318 238.013L728.318 236.348L724.91 236.348L724.734 235.41L728.406 230.249L729.531 230.249L729.531 235.267L730.513 235.267L730.513 236.348L729.531 236.348L729.531 238.013L728.318 238.013ZM726.145 235.267L728.318 235.267L728.318 232.168L726.145 235.267ZM736.655 238.145C735.133 238.145 734.031 236.899 734.031 235.168L734.031 235.057C734.031 233.293 735.167 232.058 736.699 232.058C737.538 232.058 738.089 232.367 738.574 232.852L737.879 233.767C737.571 233.447 737.229 233.183 736.699 233.183C735.872 233.183 735.288 233.955 735.288 235.068L735.288 235.124C735.288 236.259 735.883 237.02 736.733 237.02C737.251 237.009 737.582 236.767 737.924 236.425L738.596 237.252C738.122 237.77 737.549 238.145 736.655 238.145ZM741.934 238.145C740.39 238.145 739.243 236.877 739.243 235.157L739.243 235.057C739.243 233.337 740.39 232.058 741.945 232.058C743.489 232.058 744.614 233.326 744.614 235.046L744.614 235.146C744.614 236.866 743.478 238.145 741.934 238.145ZM741.945 237.042C742.827 237.042 743.379 236.226 743.379 235.135L743.379 235.068C743.379 233.977 742.772 233.15 741.934 233.15C741.052 233.15 740.489 233.977 740.489 235.057L740.489 235.124C740.489 236.215 741.107 237.042 741.945 237.042ZM745.83 238.013L745.83 232.168L747.076 232.168L747.076 233.017C747.418 232.499 747.881 232.058 748.675 232.058C749.811 232.058 750.472 232.83 750.472 234.098L750.472 238.013L749.215 238.013L749.215 234.462C749.215 233.624 748.84 233.183 748.179 233.183C747.528 233.183 747.076 233.668 747.076 234.473L747.076 238.013L745.83 238.013ZM752.125 238.013L752.125 233.238L751.485 233.238L751.485 232.201L752.125 232.201L752.125 231.749C752.125 231.153 752.268 230.712 752.566 230.415C752.864 230.139 753.272 229.996 753.79 229.996C754.176 229.996 754.419 230.04 754.672 230.117L754.672 231.164C754.463 231.109 754.286 231.065 754.066 231.065C753.603 231.065 753.371 231.33 753.371 231.87L753.371 232.201L754.661 232.201L754.661 233.238L753.382 233.238L753.382 238.013L752.125 238.013ZM755.048 238.013L755.048 236.546L756.459 236.546L756.459 238.013L755.048 238.013ZM761.932 238.123C760.962 238.123 760.134 237.472 760.134 236.337L760.134 236.27C760.134 235.024 760.995 234.407 762.23 234.407C762.77 234.407 763.167 234.506 763.564 234.649L763.564 234.396C763.564 233.602 763.101 233.205 762.307 233.205C761.745 233.205 761.292 233.381 760.906 233.558L760.543 232.565C761.105 232.289 761.678 232.102 762.472 232.102C763.233 232.102 763.807 232.3 764.193 232.686C764.579 233.072 764.777 233.646 764.777 234.385L764.777 238.013L763.553 238.013L763.553 237.296C763.211 237.781 762.693 238.123 761.932 238.123ZM762.307 237.186C763.024 237.186 763.575 236.712 763.575 236.05L763.575 235.454C763.277 235.333 762.925 235.256 762.494 235.256C761.778 235.256 761.359 235.62 761.359 236.237L761.359 236.27C761.359 236.844 761.745 237.175 762.307 237.186ZM766.173 238.013L766.173 232.168L767.42 232.168L767.42 233.017C767.761 232.499 768.225 232.058 769.019 232.058C770.155 232.058 770.816 232.83 770.816 234.098L770.816 238.013L769.559 238.013L769.559 234.462C769.559 233.624 769.184 233.183 768.522 233.183C767.872 233.183 767.42 233.668 767.42 234.473L767.42 238.013L766.173 238.013ZM772.226 238.013L772.226 232.168L773.472 232.168L773.472 233.017C773.814 232.499 774.277 232.058 775.071 232.058C776.207 232.058 776.869 232.83 776.869 234.098L776.869 238.013L775.612 238.013L775.612 234.462C775.612 233.624 775.237 233.183 774.575 233.183C773.924 233.183 773.472 233.668 773.472 234.473L773.472 238.013L772.226 238.013ZM780.705 238.145C779.161 238.145 778.014 236.877 778.014 235.157L778.014 235.057C778.014 233.337 779.161 232.058 780.716 232.058C782.26 232.058 783.384 233.326 783.384 235.046L783.384 235.146C783.384 236.866 782.249 238.145 780.705 238.145ZM780.716 237.042C781.598 237.042 782.149 236.226 782.149 235.135L782.149 235.068C782.149 233.977 781.543 233.15 780.705 233.15C779.822 233.15 779.26 233.977 779.26 235.057L779.26 235.124C779.26 236.215 779.878 237.042 780.716 237.042ZM786.343 238.123C785.196 238.123 784.545 237.34 784.545 236.094L784.545 232.168L785.78 232.168L785.78 235.719C785.78 236.557 786.166 236.998 786.828 236.998C787.49 236.998 787.92 236.535 787.92 235.708L787.92 232.168L789.177 232.168L789.177 238.013L787.92 238.013L787.92 237.164C787.6 237.682 787.126 238.123 786.343 238.123ZM790.642 238.013L790.642 232.168L791.888 232.168L791.888 233.017C792.23 232.499 792.693 232.058 793.487 232.058C794.623 232.058 795.285 232.83 795.285 234.098L795.285 238.013L794.028 238.013L794.028 234.462C794.028 233.624 793.653 233.183 792.991 233.183C792.34 233.183 791.888 233.668 791.888 234.473L791.888 238.013L790.642 238.013ZM799.054 238.145C797.533 238.145 796.43 236.899 796.43 235.168L796.43 235.057C796.43 233.293 797.566 232.058 799.099 232.058C799.937 232.058 800.488 232.367 800.973 232.852L800.279 233.767C799.97 233.447 799.628 233.183 799.099 233.183C798.271 233.183 797.687 233.955 797.687 235.068L797.687 235.124C797.687 236.259 798.282 237.02 799.132 237.02C799.65 237.009 799.981 236.767 800.323 236.425L800.995 237.252C800.521 237.77 799.948 238.145 799.054 238.145ZM804.311 238.145C802.811 238.145 801.642 236.987 801.642 235.146L801.642 235.068C801.642 233.315 802.69 232.058 804.135 232.058C805.723 232.058 806.561 233.37 806.561 235.135C806.561 235.212 806.561 235.388 806.55 235.565L802.888 235.565C803.01 236.546 803.605 237.075 804.366 237.075C804.929 237.075 805.326 236.844 805.712 236.458L806.362 237.23C805.833 237.792 805.193 238.145 804.311 238.145ZM802.877 234.704L805.337 234.704C805.281 233.767 804.873 233.105 804.135 233.105C803.44 233.105 802.966 233.701 802.877 234.704ZM807.755 238.013L807.755 232.168L809.001 232.168L809.001 233.017C809.343 232.499 809.795 232.058 810.567 232.058C811.284 232.058 811.802 232.422 812.078 232.995C812.475 232.466 812.993 232.058 813.787 232.058C814.879 232.058 815.574 232.764 815.574 234.087L815.574 238.013L814.338 238.013L814.338 234.462C814.338 233.624 813.964 233.183 813.346 233.183C812.728 233.183 812.287 233.635 812.287 234.473L812.287 238.013L811.041 238.013L811.041 234.451C811.041 233.613 810.677 233.183 810.06 233.183C809.431 233.183 809.001 233.679 809.001 234.473L809.001 238.013L807.755 238.013ZM819.388 238.145C817.889 238.145 816.72 236.987 816.72 235.146L816.72 235.068C816.72 233.315 817.767 232.058 819.212 232.058C820.8 232.058 821.638 233.37 821.638 235.135C821.638 235.212 821.638 235.388 821.627 235.565L817.966 235.565C818.087 236.546 818.683 237.075 819.444 237.075C820.006 237.075 820.403 236.844 820.789 236.458L821.44 237.23C820.91 237.792 820.271 238.145 819.388 238.145ZM817.955 234.704L820.414 234.704C820.359 233.767 819.951 233.105 819.212 233.105C818.517 233.105 818.043 233.701 817.955 234.704ZM822.832 238.013L822.832 232.168L824.078 232.168L824.078 233.017C824.42 232.499 824.883 232.058 825.677 232.058C826.813 232.058 827.475 232.83 827.475 234.098L827.475 238.013L826.218 238.013L826.218 234.462C826.218 233.624 825.843 233.183 825.181 233.183C824.531 233.183 824.078 233.668 824.078 234.473L824.078 238.013L822.832 238.013ZM830.627 238.101C829.778 238.101 829.117 237.737 829.117 236.59L829.117 233.238L828.488 233.238L828.488 232.168L829.117 232.168L829.117 230.591L830.374 230.591L830.374 232.168L831.675 232.168L831.675 233.238L830.374 233.238L830.374 236.348C830.374 236.8 830.594 236.987 830.991 236.987C831.223 236.987 831.443 236.932 831.664 236.833L831.664 237.847C831.366 238.013 831.057 238.101 830.627 238.101Z" fill="white"/>
<rect x="435.115" y="48.8243" width="126.544" height="24.1757" fill="#0DC820"/>
<path d="M439.11 65.3153L441.944 57.5517L443.179 57.5517L446.013 65.3153L444.679 65.3153L444.039 63.4957L441.04 63.4957L440.4 65.3153L439.11 65.3153ZM441.437 62.3598L443.631 62.3598L442.539 59.261L441.437 62.3598ZM450.245 65.3153L450.245 63.6501L446.837 63.6501L446.661 62.7127L450.333 57.5517L451.458 57.5517L451.458 62.5694L452.439 62.5694L452.439 63.6501L451.458 63.6501L451.458 65.3153L450.245 65.3153ZM448.072 62.5694L450.245 62.5694L450.245 59.4705L448.072 62.5694ZM458.582 65.4476C457.06 65.4476 455.957 64.2015 455.957 62.4701L455.957 62.3598C455.957 60.5954 457.093 59.3602 458.626 59.3602C459.464 59.3602 460.016 59.669 460.501 60.1543L459.806 61.0696C459.497 60.7498 459.156 60.4851 458.626 60.4851C457.799 60.4851 457.215 61.257 457.215 62.3709L457.215 62.426C457.215 63.5619 457.81 64.3228 458.659 64.3228C459.178 64.3118 459.508 64.0692 459.85 63.7273L460.523 64.5544C460.049 65.0727 459.475 65.4476 458.582 65.4476ZM463.861 65.4476C462.317 65.4476 461.17 64.1794 461.17 62.4591L461.17 62.3598C461.17 60.6395 462.317 59.3602 463.872 59.3602C465.416 59.3602 466.541 60.6285 466.541 62.3488L466.541 62.4481C466.541 64.1684 465.405 65.4476 463.861 65.4476ZM463.872 64.3449C464.754 64.3449 465.305 63.5288 465.305 62.437L465.305 62.3709C465.305 61.2791 464.699 60.452 463.861 60.452C462.978 60.452 462.416 61.2791 462.416 62.3598L462.416 62.426C462.416 63.5178 463.034 64.3449 463.872 64.3449ZM467.756 65.3153L467.756 59.4705L469.002 59.4705L469.002 60.3197C469.344 59.8014 469.808 59.3602 470.602 59.3602C471.737 59.3602 472.399 60.1322 472.399 61.4004L472.399 65.3153L471.142 65.3153L471.142 61.7643C471.142 60.9262 470.767 60.4851 470.105 60.4851C469.455 60.4851 469.002 60.9703 469.002 61.7754L469.002 65.3153L467.756 65.3153ZM474.052 65.3153L474.052 60.5402L473.412 60.5402L473.412 59.5036L474.052 59.5036L474.052 59.0515C474.052 58.456 474.195 58.0148 474.493 57.7171C474.791 57.4414 475.199 57.298 475.717 57.298C476.103 57.298 476.346 57.3421 476.599 57.4193L476.599 58.467C476.39 58.4118 476.213 58.3677 475.993 58.3677C475.529 58.3677 475.298 58.6324 475.298 59.1728L475.298 59.5036L476.588 59.5036L476.588 60.5402L475.309 60.5402L475.309 65.3153L474.052 65.3153ZM476.974 65.3153L476.974 63.8486L478.386 63.8486L478.386 65.3153L476.974 65.3153ZM483.859 65.4256C482.888 65.4256 482.061 64.7749 482.061 63.6391L482.061 63.5729C482.061 62.3268 482.921 61.7092 484.157 61.7092C484.697 61.7092 485.094 61.8084 485.491 61.9518L485.491 61.6982C485.491 60.9042 485.028 60.5071 484.234 60.5071C483.671 60.5071 483.219 60.6836 482.833 60.86L482.469 59.8675C483.032 59.5918 483.605 59.4044 484.399 59.4044C485.16 59.4044 485.734 59.6029 486.119 59.9888C486.505 60.3748 486.704 60.9483 486.704 61.6871L486.704 65.3153L485.48 65.3153L485.48 64.5985C485.138 65.0837 484.62 65.4256 483.859 65.4256ZM484.234 64.4882C484.951 64.4882 485.502 64.014 485.502 63.3523L485.502 62.7568C485.204 62.6355 484.851 62.5583 484.421 62.5583C483.704 62.5583 483.285 62.9223 483.285 63.5398L483.285 63.5729C483.285 64.1464 483.671 64.4772 484.234 64.4882ZM488.1 65.3153L488.1 59.4705L489.346 59.4705L489.346 60.3197C489.688 59.8014 490.151 59.3602 490.945 59.3602C492.081 59.3602 492.743 60.1322 492.743 61.4004L492.743 65.3153L491.486 65.3153L491.486 61.7643C491.486 60.9262 491.111 60.4851 490.449 60.4851C489.798 60.4851 489.346 60.9703 489.346 61.7754L489.346 65.3153L488.1 65.3153ZM494.153 65.3153L494.153 59.4705L495.399 59.4705L495.399 60.3197C495.741 59.8014 496.204 59.3602 496.998 59.3602C498.134 59.3602 498.795 60.1322 498.795 61.4004L498.795 65.3153L497.538 65.3153L497.538 61.7643C497.538 60.9262 497.163 60.4851 496.502 60.4851C495.851 60.4851 495.399 60.9703 495.399 61.7754L495.399 65.3153L494.153 65.3153ZM502.631 65.4477C501.087 65.4477 499.941 64.1794 499.941 62.4591L499.941 62.3598C499.941 60.6395 501.087 59.3602 502.642 59.3602C504.186 59.3602 505.311 60.6285 505.311 62.3488L505.311 62.4481C505.311 64.1684 504.175 65.4477 502.631 65.4477ZM502.642 64.3449C503.525 64.3449 504.076 63.5288 504.076 62.437L504.076 62.3709C504.076 61.2791 503.469 60.452 502.631 60.452C501.749 60.452 501.187 61.2791 501.187 62.3598L501.187 62.426C501.187 63.5178 501.804 64.3449 502.642 64.3449ZM508.269 65.4256C507.122 65.4256 506.472 64.6426 506.472 63.3965L506.472 59.4705L507.707 59.4705L507.707 63.0215C507.707 63.8596 508.093 64.3008 508.755 64.3008C509.416 64.3008 509.846 63.8376 509.846 63.0105L509.846 59.4705L511.104 59.4705L511.104 65.3153L509.846 65.3153L509.846 64.4662C509.527 64.9845 509.052 65.4256 508.269 65.4256ZM512.569 65.3153L512.569 59.4705L513.815 59.4705L513.815 60.3197C514.157 59.8014 514.62 59.3603 515.414 59.3603C516.55 59.3603 517.211 60.1322 517.211 61.4004L517.211 65.3153L515.954 65.3153L515.954 61.7643C515.954 60.9262 515.579 60.4851 514.918 60.4851C514.267 60.4851 513.815 60.9703 513.815 61.7754L513.815 65.3153L512.569 65.3153ZM520.981 65.4477C519.459 65.4477 518.357 64.2015 518.357 62.4701L518.357 62.3598C518.357 60.5954 519.492 59.3603 521.025 59.3603C521.863 59.3603 522.415 59.669 522.9 60.1543L522.205 61.0696C521.896 60.7498 521.555 60.4851 521.025 60.4851C520.198 60.4851 519.614 61.2571 519.614 62.3709L519.614 62.426C519.614 63.5619 520.209 64.3228 521.058 64.3228C521.577 64.3118 521.908 64.0692 522.249 63.7273L522.922 64.5544C522.448 65.0727 521.874 65.4477 520.981 65.4477ZM526.238 65.4477C524.738 65.4477 523.569 64.2897 523.569 62.4481L523.569 62.3709C523.569 60.6174 524.617 59.3603 526.061 59.3603C527.649 59.3603 528.487 60.6726 528.487 62.437C528.487 62.5142 528.487 62.6907 528.476 62.8671L524.815 62.8671C524.936 63.8486 525.532 64.378 526.293 64.378C526.855 64.378 527.252 64.1464 527.638 63.7604L528.289 64.5323C527.76 65.0948 527.12 65.4477 526.238 65.4477ZM524.804 62.007L527.263 62.007C527.208 61.0696 526.8 60.4079 526.061 60.4079C525.367 60.4079 524.892 61.0034 524.804 62.007ZM529.682 65.3153L529.682 59.4705L530.928 59.4705L530.928 60.3197C531.27 59.8014 531.722 59.3603 532.494 59.3603C533.211 59.3603 533.729 59.7242 534.005 60.2976C534.402 59.7683 534.92 59.3603 535.714 59.3603C536.806 59.3603 537.5 60.066 537.5 61.3894L537.5 65.3153L536.265 65.3153L536.265 61.7643C536.265 60.9262 535.89 60.4851 535.273 60.4851C534.655 60.4851 534.214 60.9372 534.214 61.7754L534.214 65.3153L532.968 65.3153L532.968 61.7533C532.968 60.9152 532.604 60.4851 531.986 60.4851C531.358 60.4851 530.928 60.9814 530.928 61.7754L530.928 65.3153L529.682 65.3153ZM541.315 65.4477C539.815 65.4477 538.646 64.2897 538.646 62.4481L538.646 62.3709C538.646 60.6174 539.694 59.3603 541.139 59.3603C542.727 59.3603 543.565 60.6726 543.565 62.437C543.565 62.5142 543.565 62.6907 543.554 62.8671L539.893 62.8671C540.014 63.8486 540.609 64.378 541.37 64.378C541.933 64.378 542.33 64.1464 542.716 63.7604L543.366 64.5323C542.837 65.0948 542.197 65.4477 541.315 65.4477ZM539.882 62.007L542.341 62.007C542.286 61.0696 541.878 60.4079 541.139 60.4079C540.444 60.4079 539.97 61.0034 539.882 62.007ZM544.759 65.3153L544.759 59.4705L546.005 59.4705L546.005 60.3197C546.347 59.8014 546.81 59.3603 547.604 59.3603C548.74 59.3603 549.402 60.1322 549.402 61.4004L549.402 65.3153L548.145 65.3153L548.145 61.7643C548.145 60.9262 547.77 60.4851 547.108 60.4851C546.457 60.4851 546.005 60.9703 546.005 61.7754L546.005 65.3153L544.759 65.3153ZM552.554 65.4036C551.705 65.4036 551.043 65.0396 551.043 63.8927L551.043 60.5402L550.415 60.5402L550.415 59.4705L551.043 59.4705L551.043 57.8935L552.3 57.8935L552.3 59.4705L553.602 59.4705L553.602 60.5402L552.3 60.5402L552.3 63.6501C552.3 64.1023 552.521 64.2897 552.918 64.2897C553.15 64.2897 553.37 64.2346 553.591 64.1353L553.591 65.1499C553.293 65.3153 552.984 65.4036 552.554 65.4036Z" fill="white"/>
<rect x="102.921" y="48.8243" width="126.544" height="24.1757" fill="#0DC820"/>
<rect x="229.465" y="48.8243" width="37.6138" height="24.1757" fill="#0060FF"/>
<path d="M106.916 65.3153L109.75 57.5517L110.985 57.5517L113.82 65.3153L112.485 65.3153L111.846 63.4957L108.846 63.4957L108.206 65.3153L106.916 65.3153ZM109.243 62.3598L111.437 62.3598L110.346 59.261L109.243 62.3598ZM116.937 65.4476C115.835 65.4476 115.04 65.0065 114.467 64.3779L115.261 63.4736C115.691 63.9478 116.176 64.2677 116.926 64.2677C117.643 64.2677 118.194 63.7935 118.194 63.0436L118.194 63.0215C118.194 62.2165 117.533 61.7864 116.441 61.7864L116.055 61.7864L115.89 60.9813L117.764 58.7537L114.853 58.7537L114.853 57.5958L119.363 57.5958L119.363 58.5993L117.4 60.827C118.481 61.0034 119.463 61.621 119.463 62.9774L119.463 63.0105C119.463 64.4551 118.404 65.4476 116.937 65.4476ZM123.372 65.3153L123.372 59.4705L124.618 59.4705L124.618 60.3197C124.96 59.8014 125.412 59.3602 126.184 59.3602C126.9 59.3602 127.419 59.7242 127.694 60.2976C128.091 59.7683 128.61 59.3602 129.404 59.3602C130.496 59.3602 131.19 60.066 131.19 61.3894L131.19 65.3153L129.955 65.3153L129.955 61.7643C129.955 60.9262 129.58 60.4851 128.963 60.4851C128.345 60.4851 127.904 60.9372 127.904 61.7754L127.904 65.3153L126.658 65.3153L126.658 61.7533C126.658 60.9152 126.294 60.4851 125.676 60.4851C125.048 60.4851 124.618 60.9813 124.618 61.7754L124.618 65.3153L123.372 65.3153ZM134.057 65.4256C133.086 65.4256 132.259 64.7749 132.259 63.6391L132.259 63.5729C132.259 62.3267 133.119 61.7092 134.354 61.7092C134.895 61.7092 135.292 61.8084 135.689 61.9518L135.689 61.6982C135.689 60.9041 135.226 60.5071 134.432 60.5071C133.869 60.5071 133.417 60.6836 133.031 60.86L132.667 59.8675C133.23 59.5918 133.803 59.4044 134.597 59.4044C135.358 59.4044 135.931 59.6029 136.317 59.9888C136.703 60.3748 136.902 60.9483 136.902 61.6871L136.902 65.3153L135.678 65.3153L135.678 64.5985C135.336 65.0837 134.818 65.4256 134.057 65.4256ZM134.432 64.4882C135.148 64.4882 135.7 64.014 135.7 63.3523L135.7 62.7568C135.402 62.6355 135.049 62.5583 134.619 62.5583C133.902 62.5583 133.483 62.9223 133.483 63.5398L133.483 63.5729C133.483 64.1464 133.869 64.4772 134.432 64.4882ZM138.32 58.6214L138.32 57.3973L139.644 57.3973L139.644 58.6214L138.32 58.6214ZM138.353 65.3153L138.353 59.4705L139.61 59.4705L139.61 65.3153L138.353 65.3153ZM141.141 65.3153L141.141 59.4705L142.388 59.4705L142.388 60.3197C142.729 59.8014 143.193 59.3602 143.987 59.3602C145.122 59.3602 145.784 60.1322 145.784 61.4004L145.784 65.3153L144.527 65.3153L144.527 61.7643C144.527 60.9262 144.152 60.4851 143.49 60.4851C142.84 60.4851 142.388 60.9703 142.388 61.7754L142.388 65.3153L141.141 65.3153ZM151.245 65.4256C150.275 65.4256 149.448 64.7749 149.448 63.6391L149.448 63.5729C149.448 62.3268 150.308 61.7092 151.543 61.7092C152.083 61.7092 152.48 61.8084 152.877 61.9518L152.877 61.6982C152.877 60.9042 152.414 60.5071 151.62 60.5071C151.058 60.5071 150.605 60.6836 150.219 60.86L149.856 59.8675C150.418 59.5918 150.991 59.4044 151.785 59.4044C152.546 59.4044 153.12 59.6029 153.506 59.9888C153.892 60.3748 154.09 60.9483 154.09 61.6871L154.09 65.3153L152.866 65.3153L152.866 64.5985C152.524 65.0837 152.006 65.4256 151.245 65.4256ZM151.62 64.4882C152.337 64.4882 152.888 64.014 152.888 63.3523L152.888 62.7568C152.59 62.6355 152.238 62.5583 151.807 62.5583C151.091 62.5583 150.672 62.9223 150.672 63.5398L150.672 63.5729C150.672 64.1464 151.058 64.4772 151.62 64.4882ZM155.487 65.3153L155.487 59.4705L156.733 59.4705L156.733 60.3197C157.075 59.8014 157.538 59.3602 158.332 59.3602C159.468 59.3602 160.129 60.1322 160.129 61.4004L160.129 65.3153L158.872 65.3153L158.872 61.7643C158.872 60.9262 158.497 60.4851 157.835 60.4851C157.185 60.4851 156.733 60.9703 156.733 61.7754L156.733 65.3153L155.487 65.3153ZM161.539 65.3153L161.539 59.4705L162.785 59.4705L162.785 60.3197C163.127 59.8014 163.59 59.3602 164.384 59.3602C165.52 59.3602 166.182 60.1322 166.182 61.4004L166.182 65.3153L164.925 65.3153L164.925 61.7643C164.925 60.9262 164.55 60.4851 163.888 60.4851C163.237 60.4851 162.785 60.9703 162.785 61.7754L162.785 65.3153L161.539 65.3153ZM170.018 65.4477C168.474 65.4477 167.327 64.1794 167.327 62.4591L167.327 62.3598C167.327 60.6395 168.474 59.3602 170.029 59.3602C171.573 59.3602 172.697 60.6285 172.697 62.3488L172.697 62.4481C172.697 64.1684 171.562 65.4477 170.018 65.4477ZM170.029 64.3449C170.911 64.3449 171.462 63.5288 171.462 62.437L171.462 62.3709C171.462 61.2791 170.856 60.452 170.018 60.452C169.135 60.452 168.573 61.2791 168.573 62.3598L168.573 62.426C168.573 63.5178 169.191 64.3449 170.029 64.3449ZM175.656 65.4256C174.509 65.4256 173.858 64.6426 173.858 63.3965L173.858 59.4705L175.093 59.4705L175.093 63.0215C175.093 63.8596 175.479 64.3008 176.141 64.3008C176.803 64.3008 177.233 63.8376 177.233 63.0105L177.233 59.4705L178.49 59.4705L178.49 65.3153L177.233 65.3153L177.233 64.4662C176.913 64.9845 176.439 65.4256 175.656 65.4256ZM179.955 65.3153L179.955 59.4705L181.201 59.4705L181.201 60.3197C181.543 59.8014 182.006 59.3603 182.8 59.3603C183.936 59.3603 184.598 60.1322 184.598 61.4004L184.598 65.3153L183.341 65.3153L183.341 61.7643C183.341 60.9262 182.966 60.4851 182.304 60.4851C181.653 60.4851 181.201 60.9703 181.201 61.7754L181.201 65.3153L179.955 65.3153ZM188.367 65.4477C186.846 65.4477 185.743 64.2015 185.743 62.4701L185.743 62.3598C185.743 60.5954 186.879 59.3603 188.412 59.3603C189.25 59.3603 189.801 59.669 190.286 60.1543L189.592 61.0696C189.283 60.7498 188.941 60.4851 188.412 60.4851C187.584 60.4851 187 61.2571 187 62.3709L187 62.426C187 63.5619 187.596 64.3228 188.445 64.3228C188.963 64.3118 189.294 64.0692 189.636 63.7273L190.308 64.5544C189.834 65.0727 189.261 65.4477 188.367 65.4477ZM193.624 65.4477C192.124 65.4477 190.955 64.2897 190.955 62.4481L190.955 62.3709C190.955 60.6174 192.003 59.3603 193.448 59.3603C195.036 59.3603 195.874 60.6726 195.874 62.437C195.874 62.5142 195.874 62.6907 195.863 62.8671L192.201 62.8671C192.323 63.8486 192.918 64.378 193.679 64.378C194.242 64.378 194.639 64.1464 195.025 63.7604L195.675 64.5323C195.146 65.0948 194.506 65.4477 193.624 65.4477ZM192.19 62.0069L194.65 62.007C194.595 61.0696 194.186 60.4079 193.448 60.4079C192.753 60.4079 192.279 61.0034 192.19 62.0069ZM197.068 65.3153L197.068 59.4705L198.314 59.4705L198.314 60.3197C198.656 59.8014 199.108 59.3603 199.88 59.3603C200.597 59.3603 201.115 59.7242 201.391 60.2976C201.788 59.7683 202.306 59.3603 203.1 59.3603C204.192 59.3603 204.887 60.066 204.887 61.3894L204.887 65.3153L203.652 65.3153L203.652 61.7643C203.652 60.9262 203.277 60.4851 202.659 60.4851C202.041 60.4851 201.6 60.9372 201.6 61.7754L201.6 65.3153L200.354 65.3153L200.354 61.7533C200.354 60.9152 199.99 60.4851 199.373 60.4851C198.744 60.4851 198.314 60.9814 198.314 61.7754L198.314 65.3153L197.068 65.3153ZM208.701 65.4477C207.202 65.4477 206.033 64.2897 206.033 62.4481L206.033 62.3709C206.033 60.6174 207.08 59.3603 208.525 59.3603C210.113 59.3603 210.951 60.6726 210.951 62.437C210.951 62.5142 210.951 62.6907 210.94 62.8671L207.279 62.8671C207.4 63.8486 207.996 64.378 208.757 64.378C209.319 64.378 209.716 64.1464 210.102 63.7604L210.753 64.5323C210.223 65.0948 209.584 65.4477 208.701 65.4477ZM207.268 62.007L209.727 62.007C209.672 61.0696 209.264 60.4079 208.525 60.4079C207.83 60.4079 207.356 61.0034 207.268 62.007ZM212.145 65.3153L212.145 59.4705L213.391 59.4705L213.391 60.3197C213.733 59.8014 214.196 59.3603 214.99 59.3603C216.126 59.3603 216.788 60.1322 216.788 61.4004L216.788 65.3153L215.531 65.3153L215.531 61.7643C215.531 60.9262 215.156 60.4851 214.494 60.4851C213.844 60.4851 213.391 60.9703 213.391 61.7754L213.391 65.3153L212.145 65.3153ZM219.94 65.4036C219.091 65.4036 218.43 65.0396 218.43 63.8927L218.43 60.5402L217.801 60.5402L217.801 59.4705L218.43 59.4705L218.43 57.8935L219.687 57.8935L219.687 59.4705L220.988 59.4705L220.988 60.5402L219.687 60.5402L219.687 63.6501C219.687 64.1023 219.907 64.2897 220.304 64.2897C220.536 64.2897 220.756 64.2346 220.977 64.1353L220.977 65.1499C220.679 65.3153 220.371 65.4036 219.94 65.4036Z" fill="white"/>
<path d="M236.408 63.8927L236.408 62.0069L234.544 62.0069L234.544 60.86L236.408 60.86L236.408 58.9743L237.588 58.9743L237.588 60.86L239.452 60.86L239.452 62.0069L237.588 62.0069L237.588 63.8927L236.408 63.8927ZM243.532 65.3153L243.532 57.5958L246.289 57.5958C247.138 57.5958 247.832 57.8274 248.263 58.2574C248.604 58.5993 248.781 59.0404 248.781 59.5587L248.781 59.5918C248.781 60.5402 248.229 61.0255 247.645 61.3232C248.494 61.621 249.112 62.1393 249.112 63.1649L249.112 63.209C249.112 64.5654 248.009 65.3153 246.366 65.3153L243.532 65.3153ZM247.513 59.7903L247.513 59.7683C247.513 59.1066 247.038 58.7316 246.2 58.7316L244.778 58.7316L244.778 60.8711L246.123 60.8711C246.961 60.8711 247.513 60.5071 247.513 59.7903ZM247.843 63.0766L247.843 63.0546C247.843 62.3819 247.325 61.9739 246.344 61.9739L244.778 61.9739L244.778 64.1794L246.399 64.1794C247.281 64.1794 247.843 63.7824 247.843 63.0766ZM252.409 65.4476C251.306 65.4476 250.512 65.0065 249.938 64.3779L250.732 63.4736C251.162 63.9478 251.648 64.2677 252.398 64.2677C253.114 64.2677 253.666 63.7935 253.666 63.0436L253.666 63.0215C253.666 62.2165 253.004 61.7864 251.912 61.7864L251.526 61.7864L251.361 60.9813L253.236 58.7537L250.324 58.7537L250.324 57.5958L254.835 57.5958L254.835 58.5993L252.872 60.827C253.953 61.0034 254.934 61.621 254.934 62.9774L254.934 63.0105C254.934 64.4551 253.875 65.4476 252.409 65.4476Z" fill="white"/>
<path d="M103.365 70.6342L103.364 121.718" stroke="#0DC820" stroke-width="0.50051" stroke-dasharray="1.67 1.67"/>
<line x1="331.857" y1="263.549" x2="456.616" y2="210.275" stroke="black"/>
<line x1="330.026" y1="208.791" x2="458.627" y2="265.782" stroke="black"/>
</g>
<defs>
<clipPath id="clip0_6235_375">
<rect width="1029" height="486" fill="white"/>
</clipPath>
</defs>
</svg>
