<svg width="158" height="139" viewBox="0 0 158 139" fill="none" xmlns="http://www.w3.org/2000/svg">
<path d="M89.6517 75.4645V71.9329H90.7493V71.2886H87.8561V71.9329H88.9597V75.4645H89.6517ZM87.8965 75.4645L86.3634 71.2648H85.6952L84.1621 75.4645H84.8839L85.2299 74.4802H86.8525L87.1985 75.4645H87.8965ZM86.6378 73.8657H85.4506L86.0412 72.1894L86.6378 73.8657ZM83.5031 75.4645V71.2886H81.9938C81.5166 71.2886 81.1348 71.4258 80.8783 71.6823C80.6576 71.9031 80.5323 72.2192 80.5323 72.607V72.6249C80.5323 73.2692 80.8902 73.6629 81.3973 73.8478L80.413 75.4645H81.2183L82.1012 73.991H82.8111V75.4645H83.5031ZM82.8111 73.3706H82.0654C81.5226 73.3706 81.2302 73.0902 81.2302 72.6428V72.6368C81.2302 72.1596 81.5345 71.915 82.0595 71.915H82.8111V73.3706ZM77.9573 75.5241C79.0848 75.5241 79.8663 74.6949 79.8663 73.4064V73.3587C79.8663 72.1357 79.0669 71.229 77.9514 71.229C77.3787 71.229 77.0088 71.39 76.627 71.7002L77.0446 72.2431C77.2773 72.0343 77.5398 71.8732 77.9633 71.8732C78.6493 71.8732 79.1504 72.4937 79.1504 73.3527V73.3885C79.1504 74.331 78.6434 74.8918 77.9275 74.8918C77.6352 74.8918 77.3727 74.8083 77.1878 74.6711V73.7524H78.0647V73.1439H76.5256V75.0171C76.8836 75.2974 77.3608 75.5241 77.9573 75.5241ZM75.6513 75.4645V71.2886H73.0205V71.915H74.9593V73.0484H73.2413V73.6748H74.9593V74.8321H72.9967V75.4645H75.6513ZM71.368 75.4645V71.9329H72.4656V71.2886H69.5723V71.9329H70.676V75.4645H71.368Z" fill="white"/>
<path d="M80.1621 0.799194L80.1621 138.898" stroke="#A2C5FF" stroke-width="26.3914"/>
<path d="M0.0625 75.9135L138.161 75.9134" stroke="#A2C5FF" stroke-width="26.3914"/>
<path d="M80.1615 138.898L80.1613 76.0418L149.353 76.0418" stroke="#0060FF" stroke-width="26.3914"/>
<path d="M132.072 76.2802C132.33 76.5379 132.33 76.9556 132.072 77.2133L127.873 81.4122C127.616 81.6698 127.198 81.6698 126.94 81.4122C126.683 81.1545 126.683 80.7367 126.94 80.4791L130.673 76.7468L126.94 73.0145C126.683 72.7568 126.683 72.3391 126.94 72.0814C127.198 71.8237 127.616 71.8237 127.873 72.0814L132.072 76.2802ZM80.1621 76.7468L79.5024 76.7468L79.5024 76.087L80.1621 76.087L80.1621 76.7468ZM79.5023 138.563L79.5023 137.705L80.8219 137.705L80.8219 138.563L79.5023 138.563ZM79.5023 135.988L79.5023 134.271L80.8219 134.271L80.8219 135.988L79.5023 135.988ZM79.5023 132.553L79.5023 130.836L80.8219 130.836L80.8219 132.553L79.5023 132.553ZM79.5023 129.119L79.5023 127.402L80.8219 127.402L80.8219 129.119L79.5023 129.119ZM79.5023 125.685L79.5023 123.968L80.8219 123.968L80.8219 125.685L79.5023 125.685ZM79.5023 122.251L79.5023 120.534L80.8219 120.534L80.8219 122.251L79.5023 122.251ZM79.5023 118.816L79.5023 117.099L80.8219 117.099L80.8219 118.816L79.5023 118.816ZM79.5023 115.382L79.5023 113.665L80.8219 113.665L80.8219 115.382L79.5023 115.382ZM79.5023 111.948L79.5023 110.231L80.8219 110.231L80.8219 111.948L79.5023 111.948ZM79.5023 108.514L79.5023 106.797L80.8219 106.797L80.8219 108.514L79.5023 108.514ZM79.5023 105.079L79.5023 103.362L80.8219 103.362L80.8219 105.079L79.5023 105.079ZM79.5023 101.645L79.5023 99.928L80.8219 99.928L80.8219 101.645L79.5023 101.645ZM79.5023 98.2109L79.5023 96.4937L80.8219 96.4937L80.8219 98.2109L79.5023 98.2109ZM79.5023 94.7766L79.5024 93.0595L80.8219 93.0595L80.8219 94.7766L79.5023 94.7766ZM79.5024 91.3423L79.5024 89.6252L80.8219 89.6252L80.8219 91.3423L79.5024 91.3423ZM79.5024 87.9081L79.5024 86.191L80.8219 86.191L80.8219 87.9081L79.5024 87.9081ZM79.5024 84.4738L79.5024 82.7567L80.8219 82.7567L80.8219 84.4738L79.5024 84.4738ZM79.5024 81.0396L79.5024 79.3224L80.8219 79.3224L80.8219 81.0396L79.5024 81.0396ZM79.5024 77.6053L79.5024 76.7468L80.8219 76.7468L80.8219 77.6053L79.5024 77.6053ZM80.1621 76.087L81.0195 76.087L81.0195 77.4066L80.1621 77.4066L80.1621 76.087ZM82.7343 76.087L84.4491 76.087L84.4491 77.4066L82.7343 77.4066L82.7343 76.087ZM86.1639 76.087L87.8787 76.087L87.8787 77.4066L86.1639 77.4066L86.1639 76.087ZM89.5934 76.087L91.3082 76.087L91.3082 77.4066L89.5934 77.4066L89.5934 76.087ZM93.023 76.087L94.7378 76.087L94.7378 77.4066L93.023 77.4066L93.023 76.087ZM96.4526 76.087L98.1674 76.087L98.1674 77.4066L96.4526 77.4066L96.4526 76.087ZM99.8821 76.087L101.597 76.087L101.597 77.4066L99.8821 77.4066L99.8821 76.087ZM103.312 76.087L105.026 76.087L105.026 77.4066L103.312 77.4066L103.312 76.087ZM106.741 76.087L108.456 76.087L108.456 77.4066L106.741 77.4066L106.741 76.087ZM110.171 76.087L111.886 76.087L111.886 77.4066L110.171 77.4066L110.171 76.087ZM113.6 76.087L115.315 76.087L115.315 77.4066L113.6 77.4066L113.6 76.087ZM117.03 76.087L118.745 76.087L118.745 77.4066L117.03 77.4066L117.03 76.087ZM120.46 76.087L122.174 76.087L122.174 77.4066L120.46 77.4066L120.46 76.087ZM123.889 76.087L125.604 76.087L125.604 77.4066L123.889 77.4066L123.889 76.087ZM127.319 76.087L129.033 76.087L129.033 77.4066L127.319 77.4066L127.319 76.087ZM130.748 76.087L131.606 76.087L131.606 77.4066L130.748 77.4066L130.748 76.087Z" fill="white"/>
</svg>
