<svg width="118" height="139" viewBox="0 0 118 139" fill="none" xmlns="http://www.w3.org/2000/svg">
<path d="M79.6823 75.5065V71.9749H78.5846V71.3306H81.4779V71.9749H80.3743V75.5065H79.6823ZM81.4375 75.5065L82.9706 71.3068H83.6388L85.1719 75.5065H84.4501L84.1041 74.5222H82.4815L82.1355 75.5065H81.4375ZM82.6962 73.9077H83.8833L83.2928 72.2314L82.6962 73.9077ZM85.8309 75.5065V71.3306H87.3402C87.8174 71.3306 88.1992 71.4678 88.4557 71.7243C88.6764 71.9451 88.8017 72.2612 88.8017 72.649V72.6669C88.8017 73.3112 88.4438 73.7049 87.9367 73.8898L88.921 75.5065H88.1157L87.2328 74.033H86.5229V75.5065H85.8309ZM86.5229 73.4126H87.2686C87.8114 73.4126 88.1037 73.1322 88.1037 72.6848V72.6788C88.1037 72.2016 87.7995 71.957 87.2745 71.957H86.5229V73.4126ZM91.3766 75.5661C90.2492 75.5661 89.4677 74.7369 89.4677 73.4484V73.4006C89.4677 72.1777 90.2671 71.271 91.3826 71.271C91.9553 71.271 92.3252 71.432 92.7069 71.7422L92.2894 72.2851C92.0567 72.0763 91.7942 71.9152 91.3707 71.9152C90.6846 71.9152 90.1835 72.5356 90.1835 73.3947V73.4305C90.1835 74.373 90.6906 74.9338 91.4065 74.9338C91.6988 74.9338 91.9613 74.8503 92.1462 74.7131V73.7944H91.2693V73.1859H92.8084V75.0591C92.4504 75.3394 91.9732 75.5661 91.3766 75.5661ZM93.6827 75.5065V71.3306H96.3135V71.957H94.3747V73.0904H96.0927V73.7168H94.3747V74.8741H96.3373V75.5065H93.6827ZM97.966 75.5065V71.9749H96.8684V71.3306H99.7616V71.9749H98.658V75.5065H97.966Z" fill="white"/>
<path d="M89.1719 0.841187L89.1719 138.94" stroke="#A2C5FF" stroke-width="26.3914"/>
<path d="M89.1715 138.94L89.1717 76.0838L27.4565 40.9347" stroke="#0060FF" stroke-width="26.3914"/>
<path d="M59.15 59.5841C58.7959 59.6701 58.5785 60.0269 58.6645 60.381L60.0655 66.1514C60.1515 66.5055 60.5082 66.7228 60.8623 66.6368C61.2164 66.5509 61.4338 66.1941 61.3478 65.84L60.1025 60.7108L65.2317 59.4654C65.5858 59.3794 65.8032 59.0227 65.7172 58.6686C65.6312 58.3145 65.2745 58.0971 64.9204 58.1831L59.15 59.5841ZM88.9208 78.269L89.5806 78.269L89.5806 77.8984L89.2641 77.7056L88.9208 78.269ZM89.5807 138.605L89.5807 137.718L88.2611 137.718L88.2611 138.605L89.5807 138.605ZM89.5807 135.943L89.5807 134.169L88.2611 134.169L88.2611 135.943L89.5807 135.943ZM89.5807 132.394L89.5807 130.62L88.2611 130.62L88.2611 132.394L89.5807 132.394ZM89.5807 128.845L89.5807 127.07L88.2611 127.07L88.2611 128.845L89.5807 128.845ZM89.5807 125.296L89.5807 123.521L88.2611 123.521L88.2611 125.296L89.5807 125.296ZM89.5807 121.747L89.5807 119.972L88.2611 119.972L88.2611 121.747L89.5807 121.747ZM89.5807 118.197L89.5807 116.423L88.2611 116.423L88.2611 118.197L89.5807 118.197ZM89.5807 114.648L89.5807 112.874L88.2611 112.874L88.2611 114.648L89.5807 114.648ZM89.5807 111.099L89.5807 109.324L88.2611 109.324L88.2611 111.099L89.5807 111.099ZM89.5807 107.55L89.5807 105.775L88.2611 105.775L88.2611 107.55L89.5807 107.55ZM89.5807 104.001L89.5807 102.226L88.2611 102.226L88.2611 104.001L89.5807 104.001ZM89.5806 100.452L89.5806 98.6769L88.2611 98.6769L88.2611 100.452L89.5806 100.452ZM89.5806 96.9023L89.5806 95.1277L88.2611 95.1277L88.2611 96.9023L89.5806 96.9023ZM89.5806 93.3531L89.5806 91.5785L88.2611 91.5785L88.2611 93.3531L89.5806 93.3531ZM89.5806 89.8039L89.5806 88.0293L88.2611 88.0293L88.2611 89.8039L89.5806 89.8039ZM89.5806 86.2547L89.5806 84.4801L88.2611 84.4801L88.2611 86.2547L89.5806 86.2547ZM89.5806 82.7055L89.5806 80.9309L88.2611 80.9309L88.2611 82.7055L89.5806 82.7055ZM89.5806 79.1563L89.5806 78.269L88.2611 78.269L88.2611 79.1563L89.5806 79.1563ZM89.2641 77.7056L88.5238 77.2545L87.8372 78.3814L88.5776 78.8325L89.2641 77.7056ZM87.043 76.3523L85.5622 75.4501L84.8757 76.577L86.3564 77.4792L87.043 76.3523ZM84.0815 74.5479L82.6007 73.6457L81.9141 74.7726L83.3949 75.6748L84.0815 74.5479ZM81.12 72.7436L79.6392 71.8414L78.9526 72.9683L80.4334 73.8704L81.12 72.7436ZM78.1584 70.9392L76.6777 70.037L75.9911 71.1639L77.4718 72.0661L78.1584 70.9392ZM75.1969 69.1348L73.7161 68.2326L73.0296 69.3595L74.5103 70.2617L75.1969 69.1348ZM72.2354 67.3304L70.7546 66.4282L70.068 67.5551L71.5488 68.4573L72.2354 67.3304ZM69.2739 65.5261L67.7931 64.6239L67.1065 65.7508L68.5873 66.6529L69.2739 65.5261ZM66.3123 63.7217L64.8316 62.8195L64.145 63.9464L65.6258 64.8486L66.3123 63.7217ZM63.3508 61.9173L61.8701 61.0151L61.1835 62.142L62.6642 63.0442L63.3508 61.9173ZM60.3893 60.1129L59.6489 59.6618L58.9623 60.7887L59.7027 61.2398L60.3893 60.1129Z" fill="white"/>
</svg>
