<svg width="120" height="143" viewBox="0 0 120 143" fill="none" xmlns="http://www.w3.org/2000/svg">
<path d="M109.757 8.87012L62.6177 65.1713" stroke="#A2C5FF" stroke-width="26.3914"/>
<path d="M50.5993 76.4863V72.9548H49.5016V72.3105H52.3949V72.9548H51.2913V76.4863H50.5993ZM52.3545 76.4863L53.8876 72.2866H54.5558L56.0889 76.4863H55.3671L55.0211 75.502H53.3984L53.0524 76.4863H52.3545ZM53.6132 74.8876H54.8003L54.2098 73.2113L53.6132 74.8876ZM56.7479 76.4863V72.3105H58.2571C58.7344 72.3105 59.1162 72.4477 59.3727 72.7042C59.5934 72.9249 59.7187 73.2411 59.7187 73.6289V73.6467C59.7187 74.291 59.3608 74.6847 58.8537 74.8697L59.838 76.4863H59.0327L58.1498 75.0128H57.4399V76.4863H56.7479ZM57.4399 74.3924H58.1856C58.7284 74.3924 59.0207 74.1121 59.0207 73.6646V73.6587C59.0207 73.1814 58.7165 72.9369 58.1915 72.9369H57.4399V74.3924ZM62.2936 76.546C61.1662 76.546 60.3847 75.7168 60.3847 74.4282V74.3805C60.3847 73.1576 61.1841 72.2508 62.2996 72.2508C62.8723 72.2508 63.2421 72.4119 63.6239 72.7221L63.2064 73.265C62.9737 73.0562 62.7112 72.8951 62.2877 72.8951C61.6016 72.8951 61.1005 73.5155 61.1005 74.3745V74.4103C61.1005 75.3529 61.6076 75.9136 62.3235 75.9136C62.6158 75.9136 62.8783 75.8301 63.0632 75.6929V74.7742H62.1863V74.1657H63.7254V76.0389C63.3674 76.3193 62.8902 76.546 62.2936 76.546ZM64.5997 76.4863V72.3105H67.2304V72.9369H65.2917V74.0703H67.0097V74.6967H65.2917V75.854H67.2543V76.4863H64.5997ZM68.883 76.4863V72.9548H67.7854V72.3105H70.6786V72.9548H69.575V76.4863H68.883Z" fill="white"/>
<path d="M12.8866 8.86997L60.0883 66.0945L60.0883 139.919" stroke="#E63902" stroke-width="26.3914"/>
<path d="M60.0891 139.919L60.0881 66.4083C60.0881 66.0296 59.6414 65.8279 59.3574 66.0783L8.89498 110.568" stroke="#0060FF" stroke-width="26.3914"/>
<path d="M21.104 99.7671C21.0737 100.13 21.3434 100.449 21.7065 100.48L27.6239 100.974C27.9871 101.005 28.3061 100.735 28.3364 100.372C28.3668 100.009 28.097 99.6898 27.7339 99.6594L22.474 99.2196L22.9138 93.9597C22.9442 93.5966 22.6745 93.2776 22.3113 93.2472C21.9482 93.2168 21.6292 93.4866 21.5989 93.8497L21.104 99.7671ZM60.0889 67.4102L60.7487 67.4102L60.7487 65.9882L59.6628 66.9064L60.0889 67.4102ZM60.7487 139.478L60.7487 138.577H59.4291V139.478H60.7487ZM60.7487 136.775L60.7487 134.974H59.4291L59.4291 136.775H60.7487ZM60.7487 133.172L60.7487 131.37H59.4291L59.4291 133.172H60.7487ZM60.7487 129.568L60.7487 127.767H59.4291L59.4291 129.568H60.7487ZM60.7487 125.965L60.7487 124.163H59.4291L59.4291 125.965H60.7487ZM60.7487 122.362L60.7487 120.56H59.4291L59.4291 122.362L60.7487 122.362ZM60.7487 118.758L60.7487 116.957H59.4291L59.4291 118.758H60.7487ZM60.7487 115.155L60.7487 113.353H59.4291L59.4291 115.155H60.7487ZM60.7487 111.552L60.7487 109.75H59.4291L59.4291 111.552L60.7487 111.552ZM60.7487 107.948L60.7487 106.147H59.4291L59.4291 107.948L60.7487 107.948ZM60.7487 104.345L60.7487 102.543H59.4291L59.4291 104.345H60.7487ZM60.7487 100.741L60.7487 98.9398H59.4291L59.4291 100.741H60.7487ZM60.7487 97.1381L60.7487 95.3364L59.4291 95.3364L59.4291 97.1381H60.7487ZM60.7487 93.5347L60.7487 91.733H59.4291L59.4291 93.5347H60.7487ZM60.7487 89.9313L60.7487 88.1296H59.4291L59.4291 89.9313H60.7487ZM60.7487 86.3279L60.7487 84.5263H59.4291L59.4291 86.3279H60.7487ZM60.7487 82.7246L60.7487 80.9229H59.4291L59.4291 82.7246H60.7487ZM60.7487 79.1212L60.7487 77.3195H59.4291L59.4291 79.1212H60.7487ZM60.7487 75.5178L60.7487 73.7161L59.4291 73.7161L59.4291 75.5178H60.7487ZM60.7487 71.9144L60.7487 70.1127L59.4291 70.1127L59.4291 71.9144L60.7487 71.9144ZM60.7487 68.3111L60.7487 67.4102L59.4291 67.4102L59.4291 68.3111L60.7487 68.3111ZM59.6628 66.9064L58.9784 67.4852L59.8305 68.4928L60.5149 67.914L59.6628 66.9064ZM57.6096 68.6428L56.2407 69.8003L57.0928 70.8079L58.4617 69.6503L57.6096 68.6428ZM54.8719 70.9579L53.5031 72.1155L54.3552 73.123L55.724 71.9655L54.8719 70.9579ZM52.1342 73.273L50.7654 74.4306L51.6175 75.4382L52.9863 74.2806L52.1342 73.273ZM49.3966 75.5882L48.0277 76.7457L48.8798 77.7533L50.2487 76.5957L49.3966 75.5882ZM46.6589 77.9033L45.2901 79.0609L46.1422 80.0685L47.511 78.9109L46.6589 77.9033ZM43.9212 80.2184L42.5524 81.376L43.4045 82.3836L44.7733 81.226L43.9212 80.2184ZM41.1836 82.5336L39.8147 83.6911L40.6668 84.6987L42.0356 83.5412L41.1836 82.5336ZM38.4459 84.8487L37.0771 86.0063L37.9291 87.0139L39.298 85.8563L38.4459 84.8487ZM35.7082 87.1638L34.3394 88.3214L35.1915 89.329L36.5603 88.1714L35.7082 87.1638ZM32.9706 89.479L31.6017 90.6366L32.4538 91.6441L33.8226 90.4866L32.9706 89.479ZM30.2329 91.7941L28.8641 92.9517L29.7161 93.9593L31.085 92.8017L30.2329 91.7941ZM27.4952 94.1093L26.1264 95.2668L26.9785 96.2744L28.3473 95.1168L27.4952 94.1093ZM24.7576 96.4244L23.3887 97.582L24.2408 98.5895L25.6096 97.432L24.7576 96.4244ZM22.0199 98.7395L21.3355 99.3183L22.1876 100.326L22.872 99.7471L22.0199 98.7395Z" fill="white"/>
</svg>
