<svg width="171" height="145" viewBox="0 0 171 145" fill="none" xmlns="http://www.w3.org/2000/svg">
<path d="M170.338 73.8387L84.2593 73.8387" stroke="#A2C5FF" stroke-width="26.3914"/>
<path d="M83.5026 80.8364V77.3048H82.405V76.6606H85.2982V77.3048H84.1946V80.8364H83.5026ZM85.2578 80.8364L86.7909 76.6367H87.4591L88.9922 80.8364H88.2704L87.9244 79.8521H86.3018L85.9558 80.8364H85.2578ZM86.5165 79.2377H87.7037L87.1131 77.5614L86.5165 79.2377ZM89.6512 80.8364V76.6606H91.1605C91.6377 76.6606 92.0195 76.7978 92.276 77.0543C92.4967 77.275 92.622 77.5912 92.622 77.979V77.9968C92.622 78.6411 92.2641 79.0348 91.757 79.2198L92.7413 80.8364H91.936L91.0531 79.3629H90.3432V80.8364H89.6512ZM90.3432 78.7425H91.0889C91.6317 78.7425 91.9241 78.4622 91.9241 78.0147V78.0088C91.9241 77.5315 91.6198 77.287 91.0948 77.287H90.3432V78.7425ZM95.197 80.8961C94.0695 80.8961 93.288 80.0669 93.288 78.7783V78.7306C93.288 77.5077 94.0874 76.6009 95.2029 76.6009C95.7756 76.6009 96.1455 76.762 96.5273 77.0722L96.1097 77.6151C95.877 77.4063 95.6145 77.2452 95.191 77.2452C94.505 77.2452 94.0039 77.8656 94.0039 78.7246V78.7604C94.0039 79.703 94.5109 80.2637 95.2268 80.2637C95.5191 80.2637 95.7816 80.1802 95.9665 80.043V79.1243H95.0896V78.5158H96.6287V80.389C96.2707 80.6694 95.7935 80.8961 95.197 80.8961ZM97.503 80.8364V76.6606H100.134V77.287H98.195V78.4204H99.913V79.0468H98.195V80.2041H100.158V80.8364H97.503ZM101.786 80.8364V77.3048H100.689V76.6606H103.582V77.3048H102.478V80.8364H101.786Z" fill="white"/>
<path d="M76.8281 3.40791L92.9925 70.03L92.9925 144.27" stroke="#E63902" stroke-width="26.3914"/>
<path d="M92.9926 144.27L92.9926 74.1554L30.0101 38.0885" stroke="#0060FF" stroke-width="26.3914"/>
<path d="M49.9449 49.9382C49.5943 50.0376 49.3907 50.4023 49.4901 50.7529L51.1097 56.4658C51.2091 56.8164 51.5738 57.02 51.9244 56.9206C52.275 56.8213 52.4786 56.4565 52.3792 56.1059L50.9396 51.0278L56.0177 49.5881C56.3683 49.4887 56.5719 49.124 56.4725 48.7734C56.3731 48.4228 56.0084 48.2192 55.6578 48.3186L49.9449 49.9382ZM92.9902 74.5022H93.65V74.1149L93.3118 73.9261L92.9902 74.5022ZM93.65 143.828V142.961H92.3305V143.828H93.65ZM93.65 141.228V139.495H92.3305V141.228H93.65ZM93.65 137.762L93.65 136.029H92.3305V137.762H93.65ZM93.65 134.295V132.562L92.3305 132.562V134.295H93.65ZM93.65 130.829V129.096H92.3305L92.3305 130.829H93.65ZM93.65 127.363V125.63H92.3305V127.363H93.65ZM93.65 123.897V122.163H92.3305V123.897H93.65ZM93.65 120.43V118.697H92.3305V120.43H93.65ZM93.65 116.964L93.65 115.231H92.3305V116.964H93.65ZM93.65 113.498V111.765L92.3305 111.765V113.498H93.65ZM93.65 110.031V108.298H92.3305L92.3305 110.031H93.65ZM93.65 106.565V104.832H92.3305V106.565H93.65ZM93.65 103.099V101.366H92.3305V103.099H93.65ZM93.65 99.6327V97.8995H92.3305V99.6327H93.65ZM93.65 96.1664L93.65 94.4333H92.3305V96.1664H93.65ZM93.65 92.7001V90.967H92.3305V92.7001H93.65ZM93.65 89.2339V87.5007H92.3305L92.3305 89.2339H93.65ZM93.65 85.7676V84.0345H92.3305V85.7676H93.65ZM93.65 82.3013V80.5682H92.3305V82.3013H93.65ZM93.65 78.8351V77.1019L92.3305 77.1019V78.8351L93.65 78.8351ZM93.65 75.3688V74.5022L92.3305 74.5022V75.3688L93.65 75.3688ZM93.3118 73.9261L92.5464 73.4988L91.9032 74.651L92.6686 75.0783L93.3118 73.9261ZM91.0155 72.6442L89.4846 71.7896L88.8414 72.9418L90.3723 73.7964L91.0155 72.6442ZM87.9537 70.935L86.4228 70.0803L85.7796 71.2325L87.3105 72.0872L87.9537 70.935ZM84.8918 69.2257L83.3609 68.3711L82.7177 69.5233L84.2486 70.3779L84.8918 69.2257ZM81.83 67.5165L80.2991 66.6619L79.6559 67.8141L81.1868 68.6687L81.83 67.5165ZM78.7682 65.8073L77.2373 64.9526L76.5941 66.1048L78.125 66.9595L78.7682 65.8073ZM75.7064 64.098L74.1755 63.2434L73.5323 64.3956L75.0632 65.2502L75.7064 64.098ZM72.6446 62.3888L71.1137 61.5342L70.4705 62.6864L72.0014 63.541L72.6446 62.3888ZM69.5828 60.6796L68.0519 59.8249L67.4087 60.9771L68.9396 61.8318L69.5828 60.6796ZM66.521 58.9703L64.9901 58.1157L64.3469 59.2679L65.8778 60.1225L66.521 58.9703ZM63.4591 57.2611L61.9282 56.4065L61.285 57.5587L62.8159 58.4133L63.4591 57.2611ZM60.3973 55.5519L58.8664 54.6973L58.2232 55.8494L59.7541 56.7041L60.3973 55.5519ZM57.3355 53.8426L55.8046 52.988L55.1614 54.1402L56.6923 54.9948L57.3355 53.8426ZM54.2737 52.1334L52.7428 51.2788L52.0996 52.431L53.6305 53.2856L54.2737 52.1334ZM51.2119 50.4242L50.4464 49.9969L49.8032 51.1491L50.5687 51.5764L51.2119 50.4242Z" fill="white"/>
</svg>
