<svg width="166" height="139" viewBox="0 0 166 139" fill="none" xmlns="http://www.w3.org/2000/svg">
<path d="M75.1999 75.5485V72.0169H74.1022V71.3726H76.9955V72.0169H75.8919V75.5485H75.1999ZM76.9551 75.5485L78.4882 71.3487H79.1563L80.6895 75.5485H79.9676L79.6216 74.5642H77.999L77.653 75.5485H76.9551ZM78.2138 73.9497H79.4009L78.8103 72.2734L78.2138 73.9497ZM81.3485 75.5485V71.3726H82.8577C83.335 71.3726 83.7168 71.5098 83.9733 71.7663C84.194 71.9871 84.3193 72.3032 84.3193 72.691V72.7089C84.3193 73.3532 83.9614 73.7469 83.4543 73.9318L84.4386 75.5485H83.6332L82.7504 74.075H82.0405V75.5485H81.3485ZM82.0405 73.4546H82.7861C83.329 73.4546 83.6213 73.1742 83.6213 72.7268V72.7208C83.6213 72.2436 83.3171 71.999 82.7921 71.999H82.0405V73.4546ZM86.8942 75.6081C85.7667 75.6081 84.9853 74.7789 84.9853 73.4904V73.4426C84.9853 72.2197 85.7846 71.313 86.9002 71.313C87.4729 71.313 87.8427 71.474 88.2245 71.7842L87.8069 72.3271C87.5743 72.1183 87.3118 71.9572 86.8883 71.9572C86.2022 71.9572 85.7011 72.5776 85.7011 73.4367V73.4725C85.7011 74.415 86.2082 74.9758 86.924 74.9758C87.2164 74.9758 87.4788 74.8923 87.6638 74.7551V73.8364H86.7868V73.2279H88.3259V75.101C87.968 75.3814 87.4908 75.6081 86.8942 75.6081ZM89.2002 75.5485V71.3726H91.831V71.999H89.8922V73.1324H91.6103V73.7588H89.8922V74.9161H91.8549V75.5485H89.2002ZM93.4836 75.5485V72.0169H92.3859V71.3726H95.2792V72.0169H94.1756V75.5485H93.4836Z" fill="white"/>
<path d="M84.6895 0.883179L84.6895 138.982" stroke="#A1C5FF" stroke-width="26.3914"/>
<path d="M165.693 79.6879L79.6147 79.6879" stroke="#A2C5FF" stroke-width="26.3914"/>
<path d="M84.6902 138.981L84.6904 76.1255L41.3201 21.2092" stroke="#0060FF" stroke-width="26.3914"/>
<path d="M51.5189 34.0528C51.1569 34.0118 50.8301 34.2721 50.7891 34.6342L50.1211 40.5345C50.0801 40.8966 50.3404 41.2234 50.7024 41.2644C51.0645 41.3054 51.3913 41.0451 51.4323 40.683L52.0261 35.4382L57.2708 36.0321C57.6329 36.0731 57.9597 35.8128 58.0007 35.4507C58.0417 35.0886 57.7814 34.7619 57.4193 34.7209L51.5189 34.0528ZM84.4384 76.1273L85.0982 76.1273L85.0982 75.8966L84.9545 75.7162L84.4384 76.1273ZM85.0983 138.647L85.0983 137.779L83.7787 137.779L83.7787 138.647L85.0983 138.647ZM85.0983 136.042L85.0983 134.306L83.7787 134.306L83.7787 136.042L85.0983 136.042ZM85.0983 132.569L85.0983 130.832L83.7787 130.832L83.7787 132.569L85.0983 132.569ZM85.0983 129.096L85.0983 127.359L83.7787 127.359L83.7787 129.096L85.0983 129.096ZM85.0982 125.622L85.0982 123.886L83.7787 123.886L83.7787 125.622L85.0982 125.622ZM85.0982 122.149L85.0982 120.412L83.7787 120.412L83.7787 122.149L85.0982 122.149ZM85.0982 118.676L85.0982 116.939L83.7787 116.939L83.7787 118.676L85.0982 118.676ZM85.0982 115.202L85.0982 113.466L83.7787 113.466L83.7787 115.202L85.0982 115.202ZM85.0982 111.729L85.0982 109.992L83.7787 109.992L83.7787 111.729L85.0982 111.729ZM85.0982 108.256L85.0982 106.519L83.7787 106.519L83.7787 108.256L85.0982 108.256ZM85.0982 104.782L85.0982 103.046L83.7787 103.046L83.7787 104.782L85.0982 104.782ZM85.0982 101.309L85.0982 99.5723L83.7787 99.5723L83.7787 101.309L85.0982 101.309ZM85.0982 97.8357L85.0982 96.099L83.7787 96.099L83.7787 97.8357L85.0982 97.8357ZM85.0982 94.3623L85.0982 92.6256L83.7787 92.6257L83.7787 94.3623L85.0982 94.3623ZM85.0982 90.889L85.0982 89.1523L83.7786 89.1523L83.7787 90.889L85.0982 90.889ZM85.0982 87.4156L85.0982 85.679L83.7786 85.679L83.7786 87.4156L85.0982 87.4156ZM85.0982 83.9423L85.0982 82.2056L83.7786 82.2056L83.7786 83.9423L85.0982 83.9423ZM85.0982 80.469L85.0982 78.7323L83.7786 78.7323L83.7786 80.469L85.0982 80.469ZM85.0982 76.9956L85.0982 76.1273L83.7786 76.1273L83.7786 76.9956L85.0982 76.9956ZM84.9545 75.7162L84.4046 75.0259L83.3725 75.8481L83.9224 76.5384L84.9545 75.7162ZM83.3048 73.6453L82.205 72.2646L81.1729 73.0868L82.2727 74.4675L83.3048 73.6453ZM81.1052 70.884L80.0054 69.5034L78.9733 70.3256L80.0731 71.7062L81.1052 70.884ZM78.9056 68.1228L77.8058 66.7421L76.7737 67.5643L77.8735 68.9449L78.9056 68.1228ZM76.7061 65.3615L75.6063 63.9809L74.5741 64.803L75.6739 66.1837L76.7061 65.3615ZM74.5065 62.6002L73.4067 61.2196L72.3746 62.0418L73.4744 63.4224L74.5065 62.6002ZM72.3069 59.839L71.2071 58.4583L70.175 59.2805L71.2748 60.6612L72.3069 59.839ZM70.1073 57.0777L69.0075 55.6971L67.9754 56.5193L69.0752 57.8999L70.1073 57.0777ZM67.9077 54.3165L66.808 52.9358L65.7758 53.758L66.8756 55.1386L67.9077 54.3165ZM65.7082 51.5552L64.6084 50.1746L63.5762 50.9967L64.676 52.3774L65.7082 51.5552ZM63.5086 48.7939L62.4088 47.4133L61.3767 48.2355L62.4765 49.6161L63.5086 48.7939ZM61.309 46.0327L60.2092 44.652L59.1771 45.4742L60.2769 46.8549L61.309 46.0327ZM59.1094 43.2714L58.0096 41.8908L56.9775 42.713L58.0773 44.0936L59.1094 43.2714ZM56.9098 40.5102L55.81 39.1295L54.7779 39.9517L55.8777 41.3323L56.9098 40.5102ZM54.7103 37.7489L53.6105 36.3683L52.5783 37.1904L53.6781 38.5711L54.7103 37.7489ZM52.5107 34.9876L51.9608 34.2973L50.9287 35.1195L51.4785 35.8098L52.5107 34.9876Z" fill="white"/>
</svg>
