<svg width="601" height="279" viewBox="0 0 601 279" fill="none" xmlns="http://www.w3.org/2000/svg">
<rect x="0.711914" width="600" height="279" rx="16" fill="#11181E"/>
<g opacity="0.4">
<path d="M57.5078 34.3194L81.4341 41.2314C83.1126 41.7163 83.4062 43.969 81.9081 44.8678L77.7694 47.351C76.9326 47.8531 76.7905 49.0079 77.4805 49.6979L92.7323 64.9497C95.9204 68.1378 97.7115 72.4618 97.7115 76.9705V117C97.7115 118.656 96.3683 120 94.7115 120H90.7115C89.0546 120 87.7115 118.656 87.7115 117L87.7115 76.9705C87.7115 75.114 86.974 73.3335 85.6612 72.0208L70.4095 56.7691C69.7195 56.079 68.5647 56.2212 68.0626 57.058L65.5798 61.1961C64.6809 62.6942 62.4282 62.4007 61.9433 60.7222L55.0313 36.7959C54.5943 35.2834 55.9953 33.8824 57.5078 34.3194Z" fill="white"/>
</g>
<g opacity="0.4">
<path d="M178.531 56.8398L166.5 35.0342C165.739 33.6553 163.758 33.6553 162.997 35.0342L150.966 56.8398C150.123 58.3691 151.508 60.1699 153.203 59.7461L157.848 58.585C158.795 58.3483 159.712 59.0644 159.712 60.0402V116.86C159.712 118.518 161.055 119.86 162.712 119.86H166.712C168.369 119.86 169.712 118.518 169.712 116.86V60.0217C169.712 59.0459 170.629 58.3298 171.576 58.5665L176.294 59.7461C177.989 60.1699 179.375 58.3691 178.531 56.8398Z" fill="white"/>
</g>
<g opacity="0.4">
<path d="M266.531 56.8398L254.5 35.0342C253.739 33.6553 251.758 33.6553 250.997 35.0342L238.966 56.8398C238.123 58.3691 239.508 60.1699 241.203 59.7461L245.848 58.585C246.795 58.3483 247.712 59.0644 247.712 60.0402V116.86C247.712 118.518 249.055 119.86 250.712 119.86H254.712C256.369 119.86 257.712 118.518 257.712 116.86V60.0217C257.712 59.0459 258.629 58.3298 259.576 58.5665L264.294 59.7461C265.989 60.1699 267.375 58.3691 266.531 56.8398Z" fill="white"/>
</g>
<path d="M359.916 34.3194L335.99 41.2314C334.311 41.7163 334.018 43.969 335.516 44.8678L339.654 47.351C340.491 47.8531 340.633 49.0079 339.943 49.6979L324.692 64.9497C321.503 68.1378 319.712 72.4618 319.712 76.9705V117C319.712 118.656 321.055 120 322.712 120H326.712C328.369 120 329.712 118.656 329.712 117L329.712 76.9705C329.712 75.114 330.45 73.3335 331.763 72.0208L347.014 56.7691C347.704 56.079 348.859 56.2212 349.361 57.058L351.844 61.1961C352.743 62.6942 354.996 62.4007 355.48 60.7222L362.393 36.7959C362.829 35.2834 361.429 33.8824 359.916 34.3194Z" fill="white"/>
<path d="M34.6719 168.84C34.6719 167.187 34.7786 165.56 34.9919 163.96C35.2319 162.36 35.6319 160.853 36.1919 159.44C36.7786 158 37.5786 156.733 38.5919 155.64C39.6052 154.52 40.8852 153.653 42.4319 153.04C44.0052 152.4 45.8986 152.08 48.1119 152.08C48.6719 152.08 49.2986 152.107 49.9919 152.16C50.7119 152.187 51.2986 152.267 51.7519 152.4V155.96C51.2452 155.8 50.6852 155.68 50.0719 155.6C49.4852 155.52 48.8986 155.48 48.3119 155.48C46.4719 155.48 44.9519 155.76 43.7519 156.32C42.5519 156.88 41.6052 157.653 40.9119 158.64C40.2186 159.627 39.7119 160.773 39.3919 162.08C39.0719 163.36 38.8719 164.76 38.7919 166.28H39.0319C39.4319 165.64 39.9252 165.067 40.5119 164.56C41.0986 164.053 41.8186 163.653 42.6719 163.36C43.5252 163.067 44.5119 162.92 45.6319 162.92C47.2852 162.92 48.7252 163.267 49.9519 163.96C51.2052 164.653 52.1652 165.653 52.8319 166.96C53.5252 168.267 53.8719 169.853 53.8719 171.72C53.8719 173.72 53.4852 175.453 52.7119 176.92C51.9652 178.36 50.8986 179.467 49.5119 180.24C48.1519 181.013 46.5119 181.4 44.5919 181.4C43.2052 181.4 41.9119 181.147 40.7119 180.64C39.5119 180.133 38.4586 179.36 37.5519 178.32C36.6452 177.28 35.9386 175.973 35.4319 174.4C34.9252 172.8 34.6719 170.947 34.6719 168.84ZM44.5519 177.88C46.0719 177.88 47.3119 177.387 48.2719 176.4C49.2319 175.387 49.7119 173.827 49.7119 171.72C49.7119 170.04 49.2852 168.707 48.4319 167.72C47.6052 166.733 46.3519 166.24 44.6719 166.24C43.5252 166.24 42.5252 166.48 41.6719 166.96C40.8186 167.44 40.1519 168.053 39.6719 168.8C39.1919 169.547 38.9519 170.307 38.9519 171.08C38.9519 171.907 39.0719 172.72 39.3119 173.52C39.5519 174.32 39.8986 175.053 40.3519 175.72C40.8319 176.387 41.4186 176.92 42.1119 177.32C42.8052 177.693 43.6186 177.88 44.5519 177.88ZM77.1825 166.68C77.1825 169 76.9959 171.067 76.6225 172.88C76.2759 174.693 75.7159 176.24 74.9425 177.52C74.1959 178.773 73.1959 179.733 71.9425 180.4C70.7159 181.067 69.2359 181.4 67.5025 181.4C65.3159 181.4 63.5159 180.813 62.1025 179.64C60.6892 178.467 59.6359 176.787 58.9425 174.6C58.2492 172.387 57.9025 169.747 57.9025 166.68C57.9025 163.587 58.2092 160.947 58.8225 158.76C59.4625 156.573 60.4892 154.907 61.9025 153.76C63.3159 152.587 65.1825 152 67.5025 152C69.6892 152 71.4892 152.587 72.9025 153.76C74.3425 154.907 75.4092 156.573 76.1025 158.76C76.8225 160.947 77.1825 163.587 77.1825 166.68ZM62.1425 166.68C62.1425 169.16 62.3159 171.227 62.6625 172.88C63.0092 174.533 63.5692 175.773 64.3425 176.6C65.1425 177.427 66.1959 177.84 67.5025 177.84C68.8092 177.84 69.8492 177.44 70.6225 176.64C71.4225 175.813 71.9959 174.573 72.3425 172.92C72.7159 171.24 72.9025 169.16 72.9025 166.68C72.9025 164.2 72.7159 162.147 72.3425 160.52C71.9959 158.867 71.4225 157.627 70.6225 156.8C69.8492 155.973 68.8092 155.56 67.5025 155.56C66.1959 155.56 65.1425 155.973 64.3425 156.8C63.5692 157.627 63.0092 158.867 62.6625 160.52C62.3159 162.147 62.1425 164.2 62.1425 166.68ZM100.573 166.68C100.573 169 100.386 171.067 100.013 172.88C99.6665 174.693 99.1065 176.24 98.3332 177.52C97.5865 178.773 96.5865 179.733 95.3332 180.4C94.1065 181.067 92.6265 181.4 90.8932 181.4C88.7065 181.4 86.9065 180.813 85.4932 179.64C84.0798 178.467 83.0265 176.787 82.3332 174.6C81.6398 172.387 81.2932 169.747 81.2932 166.68C81.2932 163.587 81.5998 160.947 82.2132 158.76C82.8532 156.573 83.8798 154.907 85.2932 153.76C86.7065 152.587 88.5732 152 90.8932 152C93.0798 152 94.8798 152.587 96.2932 153.76C97.7332 154.907 98.7998 156.573 99.4932 158.76C100.213 160.947 100.573 163.587 100.573 166.68ZM85.5332 166.68C85.5332 169.16 85.7065 171.227 86.0532 172.88C86.3998 174.533 86.9598 175.773 87.7332 176.6C88.5332 177.427 89.5865 177.84 90.8932 177.84C92.1998 177.84 93.2398 177.44 94.0132 176.64C94.8132 175.813 95.3865 174.573 95.7332 172.92C96.1065 171.24 96.2932 169.16 96.2932 166.68C96.2932 164.2 96.1065 162.147 95.7332 160.52C95.3865 158.867 94.8132 157.627 94.0132 156.8C93.2398 155.973 92.1998 155.56 90.8932 155.56C89.5865 155.56 88.5332 155.973 87.7332 156.8C86.9598 157.627 86.3998 158.867 86.0532 160.52C85.7065 162.147 85.5332 164.2 85.5332 166.68ZM141.254 159.04C143.681 159.04 145.508 159.667 146.734 160.92C147.961 162.173 148.574 164.187 148.574 166.96V181H144.334V167.52C144.334 165.867 144.001 164.627 143.334 163.8C142.694 162.947 141.681 162.52 140.294 162.52C138.374 162.52 137.001 163.12 136.174 164.32C135.348 165.493 134.934 167.2 134.934 169.44V181H130.734V167.52C130.734 166.427 130.574 165.507 130.254 164.76C129.961 164.013 129.521 163.453 128.934 163.08C128.348 162.707 127.588 162.52 126.654 162.52C125.321 162.52 124.268 162.813 123.494 163.4C122.721 163.987 122.161 164.853 121.814 166C121.494 167.12 121.334 168.493 121.334 170.12V181H117.094V159.44H120.454L121.054 162.32H121.294C121.748 161.573 122.294 160.96 122.934 160.48C123.601 160 124.334 159.64 125.134 159.4C125.934 159.16 126.761 159.04 127.614 159.04C129.241 159.04 130.614 159.333 131.734 159.92C132.854 160.48 133.668 161.347 134.174 162.52H134.494C135.188 161.32 136.148 160.44 137.374 159.88C138.601 159.32 139.894 159.04 141.254 159.04Z" fill="white"/>
<mask id="mask0_6993_987" style="mask-type:alpha" maskUnits="userSpaceOnUse" x="427" y="148" width="62" height="43">
<path d="M446.523 148.148L443.914 190.85H428.716C427.934 190.85 427.447 190.228 427.633 189.467L437.508 149.532C437.699 148.771 438.493 148.148 439.274 148.148H446.523ZM458.639 148.148C459.422 148.148 460.216 148.771 460.401 149.532L464.345 165.481C466.596 160.457 469.647 156.218 474.334 153.204L467.244 148.15L488.595 148.148L478.491 167.128L477.43 158.475C472.826 161.497 470.102 166.025 468.665 171.387C467.727 174.883 467.662 178.47 468.406 181.909L468.647 182.883L470.128 188.872L470.274 189.467C470.465 190.228 469.98 190.85 469.191 190.85H453.999L451.385 148.148H458.639Z" fill="white"/>
</mask>
<g mask="url(#mask0_6993_987)">
<path d="M446.523 148.148L443.914 190.85H428.716C427.934 190.85 427.447 190.228 427.633 189.467L437.508 149.532C437.699 148.771 438.493 148.148 439.274 148.148H446.523ZM458.639 148.148C459.422 148.148 460.216 148.771 460.401 149.532L464.345 165.481C466.596 160.457 469.647 156.218 474.334 153.204L467.244 148.15L488.595 148.148L478.491 167.128L477.43 158.475C472.826 161.497 470.102 166.025 468.665 171.387C467.727 174.883 467.662 178.47 468.406 181.909L468.647 182.883L470.128 188.872L470.274 189.467C470.465 190.228 469.98 190.85 469.191 190.85H453.999L451.385 148.148H458.639Z" fill="white"/>
<path d="M488.596 148.148H427.594V190.85H488.596V148.148Z" fill="#F6F9FF"/>
</g>
<circle cx="535.212" cy="169.5" r="31.5" fill="#020202" stroke="white" stroke-width="4"/>
<path d="M535.409 184V162.976L531.449 164.2L530.765 160.528L536.597 158.62H539.513V184H535.409Z" fill="white"/>
<g filter="url(#filter0_d_6993_987)">
<rect x="32.7119" y="215" width="72" height="36" rx="3" fill="#F7B817"/>
<rect x="34.2119" y="216.5" width="69" height="33" rx="1.5" stroke="#F7B817" stroke-width="3"/>
<path d="M52.9547 237.32C52.9547 238.328 52.7067 239.2 52.2107 239.936C51.7147 240.672 50.9947 241.24 50.0507 241.64C49.1227 242.04 48.0107 242.24 46.7147 242.24C46.0907 242.24 45.4907 242.2 44.9147 242.12C44.3547 242.056 43.8187 241.952 43.3067 241.808C42.8107 241.664 42.3467 241.488 41.9147 241.28V238.4C42.6347 238.72 43.4267 239.016 44.2907 239.288C45.1547 239.544 46.0347 239.672 46.9307 239.672C47.6187 239.672 48.1787 239.584 48.6107 239.408C49.0587 239.216 49.3867 238.96 49.5947 238.64C49.8027 238.304 49.9067 237.92 49.9067 237.488C49.9067 237.008 49.7707 236.6 49.4987 236.264C49.2267 235.928 48.8267 235.616 48.2987 235.328C47.7707 235.04 47.1147 234.736 46.3307 234.416C45.8027 234.192 45.2827 233.944 44.7707 233.672C44.2747 233.384 43.8267 233.04 43.4267 232.64C43.0267 232.24 42.7067 231.768 42.4667 231.224C42.2267 230.68 42.1067 230.04 42.1067 229.304C42.1067 228.328 42.3387 227.488 42.8027 226.784C43.2827 226.08 43.9467 225.544 44.7947 225.176C45.6587 224.808 46.6587 224.624 47.7947 224.624C48.7067 224.624 49.5627 224.72 50.3627 224.912C51.1627 225.104 51.9547 225.376 52.7387 225.728L51.7547 228.2C51.0507 227.896 50.3707 227.656 49.7147 227.48C49.0587 227.304 48.3867 227.216 47.6987 227.216C47.1547 227.216 46.6907 227.304 46.3067 227.48C45.9227 227.64 45.6347 227.872 45.4427 228.176C45.2507 228.48 45.1547 228.832 45.1547 229.232C45.1547 229.696 45.2747 230.088 45.5147 230.408C45.7547 230.728 46.1227 231.032 46.6187 231.32C47.1307 231.592 47.7867 231.904 48.5867 232.256C49.5147 232.656 50.2987 233.072 50.9387 233.504C51.5787 233.936 52.0747 234.456 52.4267 235.064C52.7787 235.672 52.9547 236.424 52.9547 237.32ZM63.842 242H60.818V231.32C60.818 230.968 60.818 230.608 60.818 230.24C60.834 229.872 60.85 229.504 60.866 229.136C60.882 228.752 60.898 228.4 60.914 228.08C60.754 228.24 60.554 228.432 60.314 228.656C60.074 228.864 59.826 229.08 59.57 229.304L57.65 230.84L56.138 228.968L61.322 224.864H63.842V242ZM78.0764 242H75.0524V231.32C75.0524 230.968 75.0524 230.608 75.0524 230.24C75.0684 229.872 75.0844 229.504 75.1004 229.136C75.1164 228.752 75.1324 228.4 75.1484 228.08C74.9884 228.24 74.7884 228.432 74.5484 228.656C74.3084 228.864 74.0604 229.08 73.8044 229.304L71.8844 230.84L70.3724 228.968L75.5564 224.864H78.0764V242ZM95.0228 228.776C95.0228 229.544 94.8628 230.216 94.5428 230.792C94.2388 231.368 93.8148 231.84 93.2708 232.208C92.7268 232.56 92.0948 232.816 91.3748 232.976V233.048C92.7508 233.208 93.7908 233.632 94.4948 234.32C95.1988 235.008 95.5508 235.92 95.5508 237.056C95.5508 238.048 95.3108 238.936 94.8308 239.72C94.3508 240.504 93.6068 241.12 92.5988 241.568C91.6068 242.016 90.3268 242.24 88.7588 242.24C87.8308 242.24 86.9668 242.16 86.1668 242C85.3668 241.856 84.6148 241.624 83.9108 241.304V238.64C84.6308 239.008 85.3988 239.288 86.2148 239.48C87.0308 239.672 87.7988 239.768 88.5188 239.768C89.9108 239.768 90.8948 239.52 91.4708 239.024C92.0468 238.512 92.3348 237.808 92.3348 236.912C92.3348 236.336 92.1908 235.864 91.9028 235.496C91.6148 235.128 91.1428 234.856 90.4868 234.68C89.8468 234.488 89.0068 234.392 87.9668 234.392H86.5268V231.968H87.9908C88.9988 231.968 89.7908 231.856 90.3668 231.632C90.9588 231.408 91.3748 231.096 91.6148 230.696C91.8708 230.296 91.9988 229.832 91.9988 229.304C91.9988 228.616 91.7748 228.08 91.3268 227.696C90.8788 227.312 90.2068 227.12 89.3108 227.12C88.7348 227.12 88.2148 227.184 87.7508 227.312C87.2868 227.44 86.8628 227.608 86.4788 227.816C86.0948 228.008 85.7348 228.216 85.3988 228.44L83.9588 226.352C84.3908 226.032 84.8788 225.744 85.4228 225.488C85.9668 225.216 86.5748 225.008 87.2468 224.864C87.9188 224.704 88.6548 224.624 89.4548 224.624C91.2308 224.624 92.5988 225 93.5588 225.752C94.5348 226.488 95.0228 227.496 95.0228 228.776Z" fill="black"/>
</g>
<path d="M129.14 224.008C130.801 224.008 132.192 224.167 133.312 224.484C134.451 224.801 135.3 225.324 135.86 226.052C136.439 226.78 136.728 227.751 136.728 228.964C136.728 229.748 136.579 230.448 136.28 231.064C136 231.661 135.571 232.165 134.992 232.576C134.432 232.968 133.741 233.239 132.92 233.388V233.528C133.76 233.659 134.516 233.901 135.188 234.256C135.879 234.611 136.42 235.115 136.812 235.768C137.204 236.421 137.4 237.271 137.4 238.316C137.4 239.529 137.12 240.565 136.56 241.424C136 242.264 135.197 242.908 134.152 243.356C133.125 243.785 131.893 244 130.456 244H123.428V224.008H129.14ZM129.644 232.52C131.361 232.52 132.537 232.249 133.172 231.708C133.807 231.148 134.124 230.327 134.124 229.244C134.124 228.143 133.732 227.359 132.948 226.892C132.183 226.407 130.951 226.164 129.252 226.164H125.948V232.52H129.644ZM125.948 234.62V241.872H129.98C131.753 241.872 132.985 241.527 133.676 240.836C134.367 240.145 134.712 239.24 134.712 238.12C134.712 237.411 134.553 236.795 134.236 236.272C133.937 235.749 133.424 235.348 132.696 235.068C131.987 234.769 131.016 234.62 129.784 234.62H125.948ZM144.267 228.992V244H141.803V228.992H144.267ZM143.063 223.364C143.436 223.364 143.763 223.495 144.043 223.756C144.342 223.999 144.491 224.391 144.491 224.932C144.491 225.455 144.342 225.847 144.043 226.108C143.763 226.369 143.436 226.5 143.063 226.5C142.652 226.5 142.307 226.369 142.027 226.108C141.747 225.847 141.607 225.455 141.607 224.932C141.607 224.391 141.747 223.999 142.027 223.756C142.307 223.495 142.652 223.364 143.063 223.364ZM147.758 250.72C147.291 250.72 146.88 250.683 146.526 250.608C146.171 250.552 145.863 250.477 145.602 250.384V248.396C145.882 248.471 146.171 248.536 146.47 248.592C146.768 248.648 147.095 248.676 147.45 248.676C148.047 248.676 148.542 248.508 148.934 248.172C149.326 247.855 149.522 247.239 149.522 246.324V228.992H151.986V246.24C151.986 247.173 151.836 247.976 151.538 248.648C151.239 249.32 150.782 249.833 150.166 250.188C149.55 250.543 148.747 250.72 147.758 250.72ZM149.326 224.932C149.326 224.391 149.466 223.999 149.746 223.756C150.026 223.495 150.371 223.364 150.782 223.364C151.155 223.364 151.482 223.495 151.762 223.756C152.06 223.999 152.21 224.391 152.21 224.932C152.21 225.455 152.06 225.847 151.762 226.108C151.482 226.369 151.155 226.5 150.782 226.5C150.371 226.5 150.026 226.369 149.746 226.108C149.466 225.847 149.326 225.455 149.326 224.932ZM159.704 228.992V244H157.24V228.992H159.704ZM158.5 223.364C158.874 223.364 159.2 223.495 159.48 223.756C159.779 223.999 159.928 224.391 159.928 224.932C159.928 225.455 159.779 225.847 159.48 226.108C159.2 226.369 158.874 226.5 158.5 226.5C158.09 226.5 157.744 226.369 157.464 226.108C157.184 225.847 157.044 225.455 157.044 224.932C157.044 224.391 157.184 223.999 157.464 223.756C157.744 223.495 158.09 223.364 158.5 223.364ZM181.423 228.712C183.122 228.712 184.391 229.151 185.231 230.028C186.071 230.887 186.491 232.287 186.491 234.228V244H184.055V234.34C184.055 233.164 183.803 232.277 183.299 231.68C182.814 231.083 182.048 230.784 181.003 230.784C179.547 230.784 178.502 231.204 177.867 232.044C177.251 232.884 176.943 234.107 176.943 235.712V244H174.507V234.34C174.507 233.556 174.395 232.903 174.171 232.38C173.947 231.839 173.611 231.437 173.163 231.176C172.715 230.915 172.136 230.784 171.427 230.784C170.419 230.784 169.626 230.999 169.047 231.428C168.468 231.839 168.048 232.445 167.787 233.248C167.544 234.051 167.423 235.04 167.423 236.216V244H164.959V228.992H166.947L167.311 231.036H167.451C167.768 230.513 168.151 230.084 168.599 229.748C169.066 229.393 169.579 229.132 170.139 228.964C170.699 228.796 171.278 228.712 171.875 228.712C173.032 228.712 173.994 228.917 174.759 229.328C175.543 229.739 176.112 230.373 176.467 231.232H176.607C177.111 230.373 177.792 229.739 178.651 229.328C179.528 228.917 180.452 228.712 181.423 228.712ZM197.423 228.712C198.711 228.712 199.812 228.992 200.727 229.552C201.66 230.112 202.37 230.905 202.855 231.932C203.359 232.94 203.611 234.125 203.611 235.488V236.972H193.335C193.372 238.671 193.802 239.968 194.623 240.864C195.463 241.741 196.63 242.18 198.123 242.18C199.075 242.18 199.915 242.096 200.643 241.928C201.39 241.741 202.155 241.48 202.939 241.144V243.3C202.174 243.636 201.418 243.879 200.671 244.028C199.924 244.196 199.038 244.28 198.011 244.28C196.592 244.28 195.332 243.991 194.231 243.412C193.148 242.833 192.299 241.975 191.683 240.836C191.086 239.679 190.787 238.269 190.787 236.608C190.787 234.965 191.058 233.556 191.599 232.38C192.159 231.204 192.934 230.299 193.923 229.664C194.931 229.029 196.098 228.712 197.423 228.712ZM197.395 230.728C196.219 230.728 195.286 231.111 194.595 231.876C193.923 232.623 193.522 233.668 193.391 235.012H201.035C201.035 234.153 200.904 233.407 200.643 232.772C200.382 232.137 199.98 231.643 199.439 231.288C198.916 230.915 198.235 230.728 197.395 230.728ZM214.932 228.712C215.212 228.712 215.51 228.731 215.828 228.768C216.164 228.787 216.453 228.824 216.696 228.88L216.388 231.148C216.145 231.092 215.874 231.045 215.576 231.008C215.296 230.971 215.025 230.952 214.764 230.952C214.185 230.952 213.634 231.073 213.112 231.316C212.589 231.559 212.122 231.904 211.712 232.352C211.301 232.781 210.974 233.304 210.732 233.92C210.508 234.536 210.396 235.227 210.396 235.992V244H207.932V228.992H209.948L210.228 231.736H210.34C210.657 231.176 211.04 230.672 211.488 230.224C211.936 229.757 212.449 229.393 213.028 229.132C213.606 228.852 214.241 228.712 214.932 228.712ZM236.462 228.712C238.161 228.712 239.43 229.151 240.27 230.028C241.11 230.887 241.53 232.287 241.53 234.228V244H239.094V234.34C239.094 233.164 238.842 232.277 238.338 231.68C237.853 231.083 237.087 230.784 236.042 230.784C234.586 230.784 233.541 231.204 232.906 232.044C232.29 232.884 231.982 234.107 231.982 235.712V244H229.546V234.34C229.546 233.556 229.434 232.903 229.21 232.38C228.986 231.839 228.65 231.437 228.202 231.176C227.754 230.915 227.175 230.784 226.466 230.784C225.458 230.784 224.665 230.999 224.086 231.428C223.507 231.839 223.087 232.445 222.826 233.248C222.583 234.051 222.462 235.04 222.462 236.216V244H219.998V228.992H221.986L222.35 231.036H222.49C222.807 230.513 223.19 230.084 223.638 229.748C224.105 229.393 224.618 229.132 225.178 228.964C225.738 228.796 226.317 228.712 226.914 228.712C228.071 228.712 229.033 228.917 229.798 229.328C230.582 229.739 231.151 230.373 231.506 231.232H231.646C232.15 230.373 232.831 229.739 233.69 229.328C234.567 228.917 235.491 228.712 236.462 228.712ZM252.462 228.712C253.75 228.712 254.851 228.992 255.766 229.552C256.699 230.112 257.409 230.905 257.894 231.932C258.398 232.94 258.65 234.125 258.65 235.488V236.972H248.374C248.411 238.671 248.841 239.968 249.662 240.864C250.502 241.741 251.669 242.18 253.162 242.18C254.114 242.18 254.954 242.096 255.682 241.928C256.429 241.741 257.194 241.48 257.978 241.144V243.3C257.213 243.636 256.457 243.879 255.71 244.028C254.963 244.196 254.077 244.28 253.05 244.28C251.631 244.28 250.371 243.991 249.27 243.412C248.187 242.833 247.338 241.975 246.722 240.836C246.125 239.679 245.826 238.269 245.826 236.608C245.826 234.965 246.097 233.556 246.638 232.38C247.198 231.204 247.973 230.299 248.962 229.664C249.97 229.029 251.137 228.712 252.462 228.712ZM252.434 230.728C251.258 230.728 250.325 231.111 249.634 231.876C248.962 232.623 248.561 233.668 248.43 235.012H256.074C256.074 234.153 255.943 233.407 255.682 232.772C255.421 232.137 255.019 231.643 254.478 231.288C253.955 230.915 253.274 230.728 252.434 230.728ZM268.767 228.712C270.055 228.712 271.156 228.992 272.071 229.552C273.004 230.112 273.713 230.905 274.199 231.932C274.703 232.94 274.955 234.125 274.955 235.488V236.972H264.679C264.716 238.671 265.145 239.968 265.967 240.864C266.807 241.741 267.973 242.18 269.467 242.18C270.419 242.18 271.259 242.096 271.987 241.928C272.733 241.741 273.499 241.48 274.283 241.144V243.3C273.517 243.636 272.761 243.879 272.015 244.028C271.268 244.196 270.381 244.28 269.355 244.28C267.936 244.28 266.676 243.991 265.575 243.412C264.492 242.833 263.643 241.975 263.027 240.836C262.429 239.679 262.131 238.269 262.131 236.608C262.131 234.965 262.401 233.556 262.943 232.38C263.503 231.204 264.277 230.299 265.267 229.664C266.275 229.029 267.441 228.712 268.767 228.712ZM268.739 230.728C267.563 230.728 266.629 231.111 265.939 231.876C265.267 232.623 264.865 233.668 264.735 235.012H272.379C272.379 234.153 272.248 233.407 271.987 232.772C271.725 232.137 271.324 231.643 270.783 231.288C270.26 230.915 269.579 230.728 268.739 230.728ZM286.276 228.712C286.556 228.712 286.854 228.731 287.172 228.768C287.508 228.787 287.797 228.824 288.04 228.88L287.732 231.148C287.489 231.092 287.218 231.045 286.92 231.008C286.64 230.971 286.369 230.952 286.108 230.952C285.529 230.952 284.978 231.073 284.456 231.316C283.933 231.559 283.466 231.904 283.056 232.352C282.645 232.781 282.318 233.304 282.076 233.92C281.852 234.536 281.74 235.227 281.74 235.992V244H279.276V228.992H281.292L281.572 231.736H281.684C282.001 231.176 282.384 230.672 282.832 230.224C283.28 229.757 283.793 229.393 284.372 229.132C284.95 228.852 285.585 228.712 286.276 228.712Z" fill="white"/>
<defs>
<filter id="filter0_d_6993_987" x="32.7119" y="215" width="72" height="38" filterUnits="userSpaceOnUse" color-interpolation-filters="sRGB">
<feFlood flood-opacity="0" result="BackgroundImageFix"/>
<feColorMatrix in="SourceAlpha" type="matrix" values="0 0 0 0 0 0 0 0 0 0 0 0 0 0 0 0 0 0 127 0" result="hardAlpha"/>
<feOffset dy="2"/>
<feColorMatrix type="matrix" values="0 0 0 0 0.113725 0 0 0 0 0.168627 0 0 0 0 0.184314 0 0 0 0.25 0"/>
<feBlend mode="normal" in2="BackgroundImageFix" result="effect1_dropShadow_6993_987"/>
<feBlend mode="normal" in="SourceGraphic" in2="effect1_dropShadow_6993_987" result="shape"/>
</filter>
</defs>
</svg>
