<svg width="601" height="280" viewBox="0 0 601 280" fill="none" xmlns="http://www.w3.org/2000/svg">
<rect x="0.303711" y="0.100586" width="600" height="279" rx="16" fill="#11181E"/>
<g opacity="0.4">
<path d="M57.0996 34.4204L81.0259 41.3325C82.7044 41.8174 82.9979 44.0701 81.4999 44.9689L77.3612 47.4521C76.5244 47.9542 76.3823 49.1089 77.0723 49.799L92.3241 65.0508C95.5122 68.2389 97.3033 72.5629 97.3033 77.0716V117.101C97.3033 118.757 95.9601 120.101 94.3033 120.101H90.3033C88.6464 120.101 87.3033 118.757 87.3033 117.101L87.3033 77.0716C87.3033 75.2151 86.5658 73.4346 85.253 72.1218L70.0013 56.8701C69.3113 56.1801 68.1565 56.3223 67.6544 57.1591L65.1716 61.2972C64.2727 62.7953 62.02 62.5017 61.5351 60.8233L54.6231 36.8969C54.1861 35.3845 55.5871 33.9835 57.0996 34.4204Z" fill="white"/>
</g>
<path d="M178.122 56.9404L166.092 35.1348C165.331 33.7559 163.35 33.7559 162.589 35.1348L150.558 56.9404C149.714 58.4697 151.1 60.2705 152.795 59.8467L157.44 58.6856C158.387 58.4489 159.304 59.165 159.304 60.1408V116.961C159.304 118.618 160.647 119.961 162.304 119.961H166.304C167.961 119.961 169.304 118.618 169.304 116.961V60.1223C169.304 59.1465 170.221 58.4304 171.167 58.6671L175.886 59.8467C177.581 60.2705 178.966 58.4697 178.122 56.9404Z" fill="white"/>
<path d="M266.122 56.9404L254.092 35.1348C253.331 33.7559 251.35 33.7559 250.589 35.1348L238.558 56.9404C237.714 58.4697 239.1 60.2705 240.795 59.8467L245.44 58.6856C246.387 58.4489 247.304 59.165 247.304 60.1408V116.961C247.304 118.618 248.647 119.961 250.304 119.961H254.304C255.961 119.961 257.304 118.618 257.304 116.961V60.1223C257.304 59.1465 258.221 58.4304 259.167 58.6671L263.886 59.8467C265.581 60.2705 266.966 58.4697 266.122 56.9404Z" fill="white"/>
<path d="M359.508 34.4204L335.581 41.3325C333.903 41.8174 333.609 44.0701 335.108 44.9689L339.246 47.4521C340.083 47.9542 340.225 49.1089 339.535 49.799L324.283 65.0508C321.095 68.2389 319.304 72.5629 319.304 77.0716V117.101C319.304 118.757 320.647 120.101 322.304 120.101H326.304C327.961 120.101 329.304 118.757 329.304 117.101L329.304 77.0716C329.304 75.2151 330.042 73.4346 331.354 72.1218L346.606 56.8701C347.296 56.1801 348.451 56.3223 348.953 57.1591L351.436 61.2972C352.335 62.7953 354.587 62.5017 355.072 60.8233L361.984 36.8969C362.421 35.3845 361.02 33.9835 359.508 34.4204Z" fill="#707478"/>
<path d="M34.2637 168.941C34.2637 167.287 34.3704 165.661 34.5837 164.061C34.8237 162.461 35.2237 160.954 35.7837 159.541C36.3704 158.101 37.1704 156.834 38.1837 155.741C39.197 154.621 40.477 153.754 42.0237 153.141C43.597 152.501 45.4904 152.181 47.7037 152.181C48.2637 152.181 48.8904 152.207 49.5837 152.261C50.3037 152.287 50.8904 152.367 51.3437 152.501V156.061C50.837 155.901 50.277 155.781 49.6637 155.701C49.077 155.621 48.4904 155.581 47.9037 155.581C46.0637 155.581 44.5437 155.861 43.3437 156.421C42.1437 156.981 41.197 157.754 40.5037 158.741C39.8104 159.727 39.3037 160.874 38.9837 162.181C38.6637 163.461 38.4637 164.861 38.3837 166.381H38.6237C39.0237 165.741 39.517 165.167 40.1037 164.661C40.6904 164.154 41.4104 163.754 42.2637 163.461C43.117 163.167 44.1037 163.021 45.2237 163.021C46.877 163.021 48.317 163.367 49.5437 164.061C50.797 164.754 51.757 165.754 52.4237 167.061C53.117 168.367 53.4637 169.954 53.4637 171.821C53.4637 173.821 53.077 175.554 52.3037 177.021C51.557 178.461 50.4904 179.567 49.1037 180.341C47.7437 181.114 46.1037 181.501 44.1837 181.501C42.797 181.501 41.5037 181.247 40.3037 180.741C39.1037 180.234 38.0504 179.461 37.1437 178.421C36.237 177.381 35.5304 176.074 35.0237 174.501C34.517 172.901 34.2637 171.047 34.2637 168.941ZM44.1437 177.981C45.6637 177.981 46.9037 177.487 47.8637 176.501C48.8237 175.487 49.3037 173.927 49.3037 171.821C49.3037 170.141 48.877 168.807 48.0237 167.821C47.197 166.834 45.9437 166.341 44.2637 166.341C43.117 166.341 42.117 166.581 41.2637 167.061C40.4104 167.541 39.7437 168.154 39.2637 168.901C38.7837 169.647 38.5437 170.407 38.5437 171.181C38.5437 172.007 38.6637 172.821 38.9037 173.621C39.1437 174.421 39.4904 175.154 39.9437 175.821C40.4237 176.487 41.0104 177.021 41.7037 177.421C42.397 177.794 43.2104 177.981 44.1437 177.981ZM76.7743 166.781C76.7743 169.101 76.5877 171.167 76.2143 172.981C75.8677 174.794 75.3077 176.341 74.5343 177.621C73.7877 178.874 72.7877 179.834 71.5343 180.501C70.3077 181.167 68.8277 181.501 67.0943 181.501C64.9077 181.501 63.1077 180.914 61.6943 179.741C60.281 178.567 59.2277 176.887 58.5343 174.701C57.841 172.487 57.4943 169.847 57.4943 166.781C57.4943 163.687 57.801 161.047 58.4143 158.861C59.0543 156.674 60.081 155.007 61.4943 153.861C62.9077 152.687 64.7743 152.101 67.0943 152.101C69.281 152.101 71.081 152.687 72.4943 153.861C73.9343 155.007 75.001 156.674 75.6943 158.861C76.4143 161.047 76.7743 163.687 76.7743 166.781ZM61.7343 166.781C61.7343 169.261 61.9077 171.327 62.2543 172.981C62.601 174.634 63.161 175.874 63.9343 176.701C64.7343 177.527 65.7877 177.941 67.0943 177.941C68.401 177.941 69.441 177.541 70.2143 176.741C71.0143 175.914 71.5877 174.674 71.9343 173.021C72.3077 171.341 72.4943 169.261 72.4943 166.781C72.4943 164.301 72.3077 162.247 71.9343 160.621C71.5877 158.967 71.0143 157.727 70.2143 156.901C69.441 156.074 68.401 155.661 67.0943 155.661C65.7877 155.661 64.7343 156.074 63.9343 156.901C63.161 157.727 62.601 158.967 62.2543 160.621C61.9077 162.247 61.7343 164.301 61.7343 166.781ZM100.165 166.781C100.165 169.101 99.9783 171.167 99.605 172.981C99.2583 174.794 98.6983 176.341 97.925 177.621C97.1783 178.874 96.1783 179.834 94.925 180.501C93.6983 181.167 92.2183 181.501 90.485 181.501C88.2983 181.501 86.4983 180.914 85.085 179.741C83.6716 178.567 82.6183 176.887 81.925 174.701C81.2316 172.487 80.885 169.847 80.885 166.781C80.885 163.687 81.1916 161.047 81.805 158.861C82.445 156.674 83.4716 155.007 84.885 153.861C86.2983 152.687 88.165 152.101 90.485 152.101C92.6716 152.101 94.4716 152.687 95.885 153.861C97.325 155.007 98.3916 156.674 99.085 158.861C99.805 161.047 100.165 163.687 100.165 166.781ZM85.125 166.781C85.125 169.261 85.2983 171.327 85.645 172.981C85.9916 174.634 86.5516 175.874 87.325 176.701C88.125 177.527 89.1783 177.941 90.485 177.941C91.7916 177.941 92.8316 177.541 93.605 176.741C94.405 175.914 94.9783 174.674 95.325 173.021C95.6983 171.341 95.885 169.261 95.885 166.781C95.885 164.301 95.6983 162.247 95.325 160.621C94.9783 158.967 94.405 157.727 93.605 156.901C92.8316 156.074 91.7916 155.661 90.485 155.661C89.1783 155.661 88.125 156.074 87.325 156.901C86.5516 157.727 85.9916 158.967 85.645 160.621C85.2983 162.247 85.125 164.301 85.125 166.781ZM140.846 159.141C143.273 159.141 145.1 159.767 146.326 161.021C147.553 162.274 148.166 164.287 148.166 167.061V181.101H143.926V167.621C143.926 165.967 143.593 164.727 142.926 163.901C142.286 163.047 141.273 162.621 139.886 162.621C137.966 162.621 136.593 163.221 135.766 164.421C134.94 165.594 134.526 167.301 134.526 169.541V181.101H130.326V167.621C130.326 166.527 130.166 165.607 129.846 164.861C129.553 164.114 129.113 163.554 128.526 163.181C127.94 162.807 127.18 162.621 126.246 162.621C124.913 162.621 123.86 162.914 123.086 163.501C122.313 164.087 121.753 164.954 121.406 166.101C121.086 167.221 120.926 168.594 120.926 170.221V181.101H116.686V159.541H120.046L120.646 162.421H120.886C121.34 161.674 121.886 161.061 122.526 160.581C123.193 160.101 123.926 159.741 124.726 159.501C125.526 159.261 126.353 159.141 127.206 159.141C128.833 159.141 130.206 159.434 131.326 160.021C132.446 160.581 133.26 161.447 133.766 162.621H134.086C134.78 161.421 135.74 160.541 136.966 159.981C138.193 159.421 139.486 159.141 140.846 159.141Z" fill="white"/>
<mask id="mask0_6993_949" style="mask-type:alpha" maskUnits="userSpaceOnUse" x="427" y="148" width="62" height="43">
<path d="M446.115 148.25L443.505 190.951H428.308C427.526 190.951 427.039 190.329 427.225 189.568L437.1 149.633C437.291 148.872 438.085 148.25 438.866 148.25H446.115ZM458.231 148.25C459.014 148.25 459.808 148.872 459.993 149.633L463.936 165.582C466.187 160.558 469.239 156.319 473.926 153.305L466.836 148.251L488.187 148.25L478.083 167.229L477.022 158.576C472.417 161.598 469.694 166.126 468.257 171.488C467.319 174.984 467.254 178.571 467.998 182.01L468.239 182.984L469.72 188.973L469.866 189.568C470.057 190.329 469.572 190.951 468.783 190.951H453.59L450.976 148.25H458.231Z" fill="white"/>
</mask>
<g mask="url(#mask0_6993_949)">
<path d="M446.115 148.25L443.505 190.951H428.308C427.526 190.951 427.039 190.329 427.225 189.568L437.1 149.633C437.291 148.872 438.085 148.25 438.866 148.25H446.115ZM458.231 148.25C459.014 148.25 459.808 148.872 459.993 149.633L463.936 165.582C466.187 160.558 469.239 156.319 473.926 153.305L466.836 148.251L488.187 148.25L478.083 167.229L477.022 158.576C472.417 161.598 469.694 166.126 468.257 171.488C467.319 174.984 467.254 178.571 467.998 182.01L468.239 182.984L469.72 188.973L469.866 189.568C470.057 190.329 469.572 190.951 468.783 190.951H453.59L450.976 148.25H458.231Z" fill="white"/>
<path d="M488.188 148.25H427.186V190.951H488.188V148.25Z" fill="#F6F9FF"/>
</g>
<circle cx="534.804" cy="169.601" r="31.5" fill="#020202" stroke="white" stroke-width="4"/>
<path d="M534.85 184.533C531.25 184.533 528.658 183.093 526.786 181.041L529.378 178.089C530.782 179.637 532.366 180.681 534.814 180.681C537.154 180.681 538.954 179.133 538.954 176.685V176.613C538.954 173.985 536.794 172.581 533.23 172.581H531.97L531.43 169.953L537.55 162.681H528.046V158.901H542.77V162.177L536.362 169.449C539.89 170.025 543.094 172.041 543.094 176.469V176.577C543.094 181.293 539.638 184.533 534.85 184.533Z" fill="white"/>
<g filter="url(#filter0_d_6993_949)">
<rect x="32.3037" y="215.101" width="72" height="36" rx="3" fill="#F7B817"/>
<rect x="33.8037" y="216.601" width="69" height="33" rx="1.5" stroke="#F7B817" stroke-width="3"/>
<path d="M52.5465 237.421C52.5465 238.429 52.2985 239.301 51.8025 240.037C51.3065 240.773 50.5865 241.341 49.6425 241.741C48.7145 242.141 47.6025 242.341 46.3065 242.341C45.6825 242.341 45.0825 242.301 44.5065 242.221C43.9465 242.157 43.4105 242.053 42.8985 241.909C42.4025 241.765 41.9385 241.589 41.5065 241.381V238.501C42.2265 238.821 43.0185 239.117 43.8825 239.389C44.7465 239.645 45.6265 239.773 46.5225 239.773C47.2105 239.773 47.7705 239.685 48.2025 239.509C48.6505 239.317 48.9785 239.061 49.1865 238.741C49.3945 238.405 49.4985 238.021 49.4985 237.589C49.4985 237.109 49.3625 236.701 49.0905 236.365C48.8185 236.029 48.4185 235.717 47.8905 235.429C47.3625 235.141 46.7065 234.837 45.9225 234.517C45.3945 234.293 44.8745 234.045 44.3625 233.773C43.8665 233.485 43.4185 233.141 43.0185 232.741C42.6185 232.341 42.2985 231.869 42.0585 231.325C41.8185 230.781 41.6985 230.141 41.6985 229.405C41.6985 228.429 41.9305 227.589 42.3945 226.885C42.8745 226.181 43.5385 225.645 44.3865 225.277C45.2505 224.909 46.2505 224.725 47.3865 224.725C48.2985 224.725 49.1545 224.821 49.9545 225.013C50.7545 225.205 51.5465 225.477 52.3305 225.829L51.3465 228.301C50.6425 227.997 49.9625 227.757 49.3065 227.581C48.6505 227.405 47.9785 227.317 47.2905 227.317C46.7465 227.317 46.2825 227.405 45.8985 227.581C45.5145 227.741 45.2265 227.973 45.0345 228.277C44.8425 228.581 44.7465 228.933 44.7465 229.333C44.7465 229.797 44.8665 230.189 45.1065 230.509C45.3465 230.829 45.7145 231.133 46.2105 231.421C46.7225 231.693 47.3785 232.005 48.1785 232.357C49.1065 232.757 49.8905 233.173 50.5305 233.605C51.1705 234.037 51.6665 234.557 52.0185 235.165C52.3705 235.773 52.5465 236.525 52.5465 237.421ZM63.4338 242.101H60.4098V231.421C60.4098 231.069 60.4098 230.709 60.4098 230.341C60.4258 229.973 60.4418 229.605 60.4578 229.237C60.4738 228.853 60.4898 228.501 60.5058 228.181C60.3458 228.341 60.1458 228.533 59.9058 228.757C59.6658 228.965 59.4178 229.181 59.1618 229.405L57.2418 230.941L55.7298 229.069L60.9138 224.965H63.4338V242.101ZM77.6682 242.101H74.6442V231.421C74.6442 231.069 74.6442 230.709 74.6442 230.341C74.6602 229.973 74.6762 229.605 74.6922 229.237C74.7082 228.853 74.7242 228.501 74.7402 228.181C74.5802 228.341 74.3802 228.533 74.1402 228.757C73.9002 228.965 73.6522 229.181 73.3962 229.405L71.4762 230.941L69.9642 229.069L75.1482 224.965H77.6682V242.101ZM95.2866 242.101H83.5506V239.869L87.9186 235.453C88.7826 234.573 89.4866 233.821 90.0306 233.197C90.5906 232.557 90.9986 231.965 91.2546 231.421C91.5266 230.877 91.6626 230.285 91.6626 229.645C91.6626 228.861 91.4386 228.277 90.9906 227.893C90.5426 227.493 89.9506 227.293 89.2146 227.293C88.4946 227.293 87.8226 227.445 87.1986 227.749C86.5746 228.037 85.9266 228.453 85.2546 228.997L83.5986 227.005C84.0786 226.589 84.5906 226.213 85.1346 225.877C85.6786 225.525 86.2946 225.245 86.9826 225.037C87.6706 224.829 88.4706 224.725 89.3826 224.725C90.4866 224.725 91.4306 224.925 92.2146 225.325C93.0146 225.709 93.6306 226.245 94.0626 226.933C94.4946 227.621 94.7106 228.421 94.7106 229.333C94.7106 230.037 94.6066 230.693 94.3986 231.301C94.1906 231.893 93.8866 232.477 93.4866 233.053C93.0866 233.629 92.5986 234.213 92.0226 234.805C91.4466 235.397 90.7986 236.037 90.0786 236.725L87.3666 239.341V239.485H95.2866V242.101Z" fill="black"/>
</g>
<path d="M135.228 244.101H121.368V242.197L131.896 226.349H121.704V224.109H134.948V226.013L124.42 241.861H135.228V244.101ZM151.751 229.093V244.101H149.735L149.371 242.113H149.259C148.942 242.635 148.531 243.065 148.027 243.401C147.523 243.737 146.972 243.979 146.375 244.129C145.778 244.297 145.152 244.381 144.499 244.381C143.304 244.381 142.296 244.194 141.475 243.821C140.672 243.429 140.066 242.831 139.655 242.029C139.244 241.226 139.039 240.19 139.039 238.921V229.093H141.531V238.753C141.531 239.947 141.802 240.843 142.343 241.441C142.884 242.038 143.724 242.337 144.863 242.337C145.983 242.337 146.86 242.131 147.495 241.721C148.148 241.291 148.606 240.675 148.867 239.873C149.147 239.051 149.287 238.062 149.287 236.905V229.093H151.751ZM159.48 229.093V244.101H157.016V229.093H159.48ZM158.276 223.465C158.649 223.465 158.976 223.595 159.256 223.857C159.554 224.099 159.704 224.491 159.704 225.033C159.704 225.555 159.554 225.947 159.256 226.209C158.976 226.47 158.649 226.601 158.276 226.601C157.865 226.601 157.52 226.47 157.24 226.209C156.96 225.947 156.82 225.555 156.82 225.033C156.82 224.491 156.96 224.099 157.24 223.857C157.52 223.595 157.865 223.465 158.276 223.465ZM170.054 244.381C168.188 244.381 166.694 243.737 165.574 242.449C164.454 241.142 163.894 239.201 163.894 236.625C163.894 234.049 164.454 232.107 165.574 230.801C166.713 229.475 168.216 228.813 170.082 228.813C170.866 228.813 171.548 228.915 172.126 229.121C172.705 229.307 173.209 229.569 173.638 229.905C174.068 230.241 174.432 230.614 174.73 231.025H174.898C174.88 230.782 174.842 230.427 174.786 229.961C174.749 229.475 174.73 229.093 174.73 228.813V222.821H177.194V244.101H175.206L174.842 242.085H174.73C174.432 242.514 174.068 242.906 173.638 243.261C173.209 243.597 172.696 243.867 172.098 244.073C171.52 244.278 170.838 244.381 170.054 244.381ZM170.446 242.337C172.033 242.337 173.144 241.907 173.778 241.049C174.432 240.171 174.758 238.855 174.758 237.101V236.653C174.758 234.786 174.45 233.358 173.834 232.369C173.218 231.361 172.08 230.857 170.418 230.857C169.093 230.857 168.094 231.389 167.422 232.453C166.769 233.498 166.442 234.907 166.442 236.681C166.442 238.473 166.769 239.863 167.422 240.853C168.094 241.842 169.102 242.337 170.446 242.337ZM195.509 236.569C195.509 237.819 195.341 238.93 195.005 239.901C194.688 240.853 194.221 241.665 193.605 242.337C193.008 243.009 192.27 243.522 191.393 243.877C190.534 244.213 189.573 244.381 188.509 244.381C187.52 244.381 186.605 244.213 185.765 243.877C184.925 243.522 184.197 243.009 183.581 242.337C182.965 241.665 182.48 240.853 182.125 239.901C181.789 238.93 181.621 237.819 181.621 236.569C181.621 234.907 181.901 233.507 182.461 232.369C183.021 231.211 183.824 230.334 184.869 229.737C185.914 229.121 187.156 228.813 188.593 228.813C189.956 228.813 191.15 229.121 192.177 229.737C193.222 230.334 194.034 231.211 194.613 232.369C195.21 233.507 195.509 234.907 195.509 236.569ZM184.169 236.569C184.169 237.745 184.318 238.771 184.617 239.649C184.934 240.507 185.42 241.17 186.073 241.637C186.726 242.103 187.557 242.337 188.565 242.337C189.573 242.337 190.404 242.103 191.057 241.637C191.71 241.17 192.186 240.507 192.485 239.649C192.802 238.771 192.961 237.745 192.961 236.569C192.961 235.374 192.802 234.357 192.485 233.517C192.168 232.677 191.682 232.033 191.029 231.585C190.394 231.118 189.564 230.885 188.537 230.885C187.006 230.885 185.896 231.389 185.205 232.397C184.514 233.405 184.169 234.795 184.169 236.569ZM209.686 239.957C209.686 240.927 209.444 241.739 208.958 242.393C208.473 243.046 207.782 243.541 206.886 243.877C205.99 244.213 204.926 244.381 203.694 244.381C202.649 244.381 201.744 244.297 200.978 244.129C200.232 243.961 199.569 243.727 198.99 243.429V241.189C199.588 241.487 200.306 241.767 201.146 242.029C202.005 242.271 202.873 242.393 203.75 242.393C205.001 242.393 205.906 242.197 206.466 241.805C207.026 241.394 207.306 240.853 207.306 240.181C207.306 239.807 207.204 239.471 206.998 239.173C206.793 238.874 206.42 238.575 205.878 238.277C205.356 237.978 204.6 237.642 203.61 237.269C202.64 236.895 201.809 236.522 201.118 236.149C200.428 235.775 199.896 235.327 199.522 234.805C199.149 234.282 198.962 233.61 198.962 232.789C198.962 231.519 199.476 230.539 200.502 229.849C201.548 229.158 202.91 228.813 204.59 228.813C205.505 228.813 206.354 228.906 207.138 229.093C207.941 229.261 208.688 229.503 209.378 229.821L208.538 231.781C208.128 231.594 207.689 231.435 207.222 231.305C206.774 231.155 206.317 231.043 205.85 230.969C205.384 230.875 204.908 230.829 204.422 230.829C203.414 230.829 202.64 230.997 202.098 231.333C201.576 231.65 201.314 232.089 201.314 232.649C201.314 233.059 201.436 233.414 201.678 233.713C201.921 233.993 202.322 234.273 202.882 234.553C203.461 234.814 204.226 235.131 205.178 235.505C206.13 235.859 206.942 236.223 207.614 236.597C208.286 236.97 208.8 237.427 209.154 237.969C209.509 238.491 209.686 239.154 209.686 239.957ZM218.825 242.365C219.198 242.365 219.581 242.337 219.973 242.281C220.365 242.206 220.682 242.131 220.925 242.057V243.933C220.663 244.063 220.29 244.166 219.805 244.241C219.319 244.334 218.853 244.381 218.405 244.381C217.621 244.381 216.893 244.25 216.221 243.989C215.567 243.709 215.035 243.233 214.625 242.561C214.214 241.889 214.009 240.946 214.009 239.733V230.997H211.881V229.821L214.037 228.841L215.017 225.649H216.473V229.093H220.813V230.997H216.473V239.677C216.473 240.591 216.687 241.273 217.117 241.721C217.565 242.15 218.134 242.365 218.825 242.365Z" fill="white"/>
<defs>
<filter id="filter0_d_6993_949" x="32.3037" y="215.101" width="72" height="38" filterUnits="userSpaceOnUse" color-interpolation-filters="sRGB">
<feFlood flood-opacity="0" result="BackgroundImageFix"/>
<feColorMatrix in="SourceAlpha" type="matrix" values="0 0 0 0 0 0 0 0 0 0 0 0 0 0 0 0 0 0 127 0" result="hardAlpha"/>
<feOffset dy="2"/>
<feColorMatrix type="matrix" values="0 0 0 0 0.113725 0 0 0 0 0.168627 0 0 0 0 0.184314 0 0 0 0.25 0"/>
<feBlend mode="normal" in2="BackgroundImageFix" result="effect1_dropShadow_6993_949"/>
<feBlend mode="normal" in="SourceGraphic" in2="effect1_dropShadow_6993_949" result="shape"/>
</filter>
</defs>
</svg>
