<svg width="601" height="270" viewBox="0 0 601 270" fill="none" xmlns="http://www.w3.org/2000/svg">
<rect x="0.660645" y="0.631836" width="600" height="269" rx="16" fill="#11181E"/>
<g opacity="0.4">
<path d="M57.457 34.9512L81.3834 41.8633C83.0618 42.3481 83.3554 44.6008 81.8573 45.4997L77.7187 47.9828C76.8819 48.4849 76.7397 49.6397 77.4297 50.3297L92.6815 65.5815C95.8696 68.7697 97.6607 73.0937 97.6607 77.6023V117.631C97.6607 119.288 96.3176 120.631 94.6607 120.631H90.6607C89.0039 120.631 87.6607 119.288 87.6607 117.631L87.6607 77.6023C87.6607 75.7458 86.9232 73.9654 85.6105 72.6526L70.3588 57.4009C69.6687 56.7109 68.5139 56.853 68.0119 57.6898L65.529 61.828C64.6301 63.3261 62.3774 63.0325 61.8926 61.3541L54.9805 37.4277C54.5436 35.9152 55.9445 34.5143 57.457 34.9512Z" fill="white"/>
</g>
<g opacity="0.4">
<path d="M178.479 57.4717L166.448 35.666C165.688 34.2871 163.707 34.2871 162.946 35.666L150.915 57.4717C150.071 59.001 151.457 60.8018 153.151 60.3779L157.797 59.2168C158.744 58.9802 159.661 59.6962 159.661 60.672V117.492C159.661 119.149 161.004 120.492 162.661 120.492H166.661C168.317 120.492 169.661 119.149 169.661 117.492V60.6536C169.661 59.6777 170.578 58.9617 171.524 59.1983L176.243 60.3779C177.938 60.8018 179.323 59.001 178.479 57.4717Z" fill="white"/>
</g>
<path d="M271.864 34.9512L247.938 41.8633C246.26 42.3481 245.966 44.6008 247.464 45.4997L251.603 47.9828C252.439 48.4849 252.582 49.6397 251.892 50.3297L236.64 65.5815C233.452 68.7697 231.661 73.0937 231.661 77.6023V117.631C231.661 119.288 233.004 120.631 234.661 120.631H238.661C240.317 120.631 241.661 119.288 241.661 117.631L241.661 77.6023C241.661 75.7458 242.398 73.9654 243.711 72.6526L258.963 57.4009C259.653 56.7109 260.807 56.853 261.309 57.6898L263.792 61.828C264.691 63.3261 266.944 63.0325 267.429 61.3541L274.341 37.4277C274.778 35.9152 273.377 34.5143 271.864 34.9512Z" fill="white"/>
<path d="M34.6206 169.472C34.6206 167.819 34.7273 166.192 34.9406 164.592C35.1806 162.992 35.5806 161.485 36.1406 160.072C36.7273 158.632 37.5273 157.365 38.5406 156.272C39.554 155.152 40.834 154.285 42.3806 153.672C43.954 153.032 45.8473 152.712 48.0606 152.712C48.6206 152.712 49.2473 152.739 49.9406 152.792C50.6606 152.819 51.2473 152.899 51.7006 153.032V156.592C51.194 156.432 50.634 156.312 50.0206 156.232C49.434 156.152 48.8473 156.112 48.2606 156.112C46.4206 156.112 44.9006 156.392 43.7006 156.952C42.5006 157.512 41.554 158.285 40.8606 159.272C40.1673 160.259 39.6606 161.405 39.3406 162.712C39.0206 163.992 38.8206 165.392 38.7406 166.912H38.9806C39.3806 166.272 39.874 165.699 40.4606 165.192C41.0473 164.685 41.7673 164.285 42.6206 163.992C43.474 163.699 44.4606 163.552 45.5806 163.552C47.234 163.552 48.674 163.899 49.9006 164.592C51.154 165.285 52.114 166.285 52.7806 167.592C53.474 168.899 53.8206 170.485 53.8206 172.352C53.8206 174.352 53.434 176.085 52.6606 177.552C51.914 178.992 50.8473 180.099 49.4606 180.872C48.1006 181.645 46.4606 182.032 44.5406 182.032C43.154 182.032 41.8606 181.779 40.6606 181.272C39.4606 180.765 38.4073 179.992 37.5006 178.952C36.594 177.912 35.8873 176.605 35.3806 175.032C34.874 173.432 34.6206 171.579 34.6206 169.472ZM44.5006 178.512C46.0206 178.512 47.2606 178.019 48.2206 177.032C49.1806 176.019 49.6606 174.459 49.6606 172.352C49.6606 170.672 49.234 169.339 48.3806 168.352C47.554 167.365 46.3006 166.872 44.6206 166.872C43.474 166.872 42.474 167.112 41.6206 167.592C40.7673 168.072 40.1006 168.685 39.6206 169.432C39.1406 170.179 38.9006 170.939 38.9006 171.712C38.9006 172.539 39.0206 173.352 39.2606 174.152C39.5006 174.952 39.8473 175.685 40.3006 176.352C40.7806 177.019 41.3673 177.552 42.0606 177.952C42.754 178.325 43.5673 178.512 44.5006 178.512ZM77.1313 167.312C77.1313 169.632 76.9446 171.699 76.5713 173.512C76.2246 175.325 75.6646 176.872 74.8913 178.152C74.1446 179.405 73.1446 180.365 71.8913 181.032C70.6646 181.699 69.1846 182.032 67.4513 182.032C65.2646 182.032 63.4646 181.445 62.0513 180.272C60.6379 179.099 59.5846 177.419 58.8913 175.232C58.1979 173.019 57.8513 170.379 57.8513 167.312C57.8513 164.219 58.1579 161.579 58.7713 159.392C59.4113 157.205 60.4379 155.539 61.8513 154.392C63.2646 153.219 65.1313 152.632 67.4513 152.632C69.6379 152.632 71.4379 153.219 72.8513 154.392C74.2913 155.539 75.3579 157.205 76.0513 159.392C76.7713 161.579 77.1313 164.219 77.1313 167.312ZM62.0913 167.312C62.0913 169.792 62.2646 171.859 62.6113 173.512C62.9579 175.165 63.5179 176.405 64.2913 177.232C65.0913 178.059 66.1446 178.472 67.4513 178.472C68.7579 178.472 69.7979 178.072 70.5713 177.272C71.3713 176.445 71.9446 175.205 72.2913 173.552C72.6646 171.872 72.8513 169.792 72.8513 167.312C72.8513 164.832 72.6646 162.779 72.2913 161.152C71.9446 159.499 71.3713 158.259 70.5713 157.432C69.7979 156.605 68.7579 156.192 67.4513 156.192C66.1446 156.192 65.0913 156.605 64.2913 157.432C63.5179 158.259 62.9579 159.499 62.6113 161.152C62.2646 162.779 62.0913 164.832 62.0913 167.312ZM100.522 167.312C100.522 169.632 100.335 171.699 99.9619 173.512C99.6152 175.325 99.0552 176.872 98.2819 178.152C97.5352 179.405 96.5352 180.365 95.2819 181.032C94.0552 181.699 92.5752 182.032 90.8419 182.032C88.6552 182.032 86.8552 181.445 85.4419 180.272C84.0286 179.099 82.9752 177.419 82.2819 175.232C81.5886 173.019 81.2419 170.379 81.2419 167.312C81.2419 164.219 81.5486 161.579 82.1619 159.392C82.8019 157.205 83.8286 155.539 85.2419 154.392C86.6552 153.219 88.5219 152.632 90.8419 152.632C93.0286 152.632 94.8286 153.219 96.2419 154.392C97.6819 155.539 98.7486 157.205 99.4419 159.392C100.162 161.579 100.522 164.219 100.522 167.312ZM85.4819 167.312C85.4819 169.792 85.6552 171.859 86.0019 173.512C86.3486 175.165 86.9086 176.405 87.6819 177.232C88.4819 178.059 89.5352 178.472 90.8419 178.472C92.1486 178.472 93.1886 178.072 93.9619 177.272C94.7619 176.445 95.3352 175.205 95.6819 173.552C96.0552 171.872 96.2419 169.792 96.2419 167.312C96.2419 164.832 96.0552 162.779 95.6819 161.152C95.3352 159.499 94.7619 158.259 93.9619 157.432C93.1886 156.605 92.1486 156.192 90.8419 156.192C89.5352 156.192 88.4819 156.605 87.6819 157.432C86.9086 158.259 86.3486 159.499 86.0019 161.152C85.6552 162.779 85.4819 164.832 85.4819 167.312ZM141.203 159.672C143.63 159.672 145.456 160.299 146.683 161.552C147.91 162.805 148.523 164.819 148.523 167.592V181.632H144.283V168.152C144.283 166.499 143.95 165.259 143.283 164.432C142.643 163.579 141.63 163.152 140.243 163.152C138.323 163.152 136.95 163.752 136.123 164.952C135.296 166.125 134.883 167.832 134.883 170.072V181.632H130.683V168.152C130.683 167.059 130.523 166.139 130.203 165.392C129.91 164.645 129.47 164.085 128.883 163.712C128.296 163.339 127.536 163.152 126.603 163.152C125.27 163.152 124.216 163.445 123.443 164.032C122.67 164.619 122.11 165.485 121.763 166.632C121.443 167.752 121.283 169.125 121.283 170.752V181.632H117.043V160.072H120.403L121.003 162.952H121.243C121.696 162.205 122.243 161.592 122.883 161.112C123.55 160.632 124.283 160.272 125.083 160.032C125.883 159.792 126.71 159.672 127.563 159.672C129.19 159.672 130.563 159.965 131.683 160.552C132.803 161.112 133.616 161.979 134.123 163.152H134.443C135.136 161.952 136.096 161.072 137.323 160.512C138.55 159.952 139.843 159.672 141.203 159.672Z" fill="white"/>
<path d="M40.8926 219.64C42.554 219.64 43.9166 219.855 44.9806 220.284C46.0633 220.695 46.866 221.32 47.3886 222.16C47.9113 223 48.1726 224.055 48.1726 225.324C48.1726 226.388 47.9766 227.275 47.5846 227.984C47.1926 228.693 46.6886 229.263 46.0726 229.692C45.4753 230.103 44.8406 230.429 44.1686 230.672L49.6566 239.632H46.7166L41.8726 231.372H37.8966V239.632H35.3766V219.64H40.8926ZM40.7526 221.824H37.8966V229.244H40.8926C41.9753 229.244 42.862 229.104 43.5526 228.824C44.2433 228.525 44.7473 228.096 45.0646 227.536C45.4006 226.976 45.5686 226.276 45.5686 225.436C45.5686 224.559 45.3913 223.859 45.0366 223.336C44.7006 222.813 44.178 222.431 43.4686 222.188C42.7593 221.945 41.854 221.824 40.7526 221.824ZM65.5026 224.624V239.632H63.4866L63.1226 237.644H63.0106C62.6933 238.167 62.2826 238.596 61.7786 238.932C61.2746 239.268 60.7239 239.511 60.1266 239.66C59.5293 239.828 58.9039 239.912 58.2506 239.912C57.0559 239.912 56.0479 239.725 55.2266 239.352C54.4239 238.96 53.8173 238.363 53.4066 237.56C52.9959 236.757 52.7906 235.721 52.7906 234.452V224.624H55.2826V234.284C55.2826 235.479 55.5533 236.375 56.0946 236.972C56.6359 237.569 57.4759 237.868 58.6146 237.868C59.7346 237.868 60.6119 237.663 61.2466 237.252C61.8999 236.823 62.3573 236.207 62.6186 235.404C62.8986 234.583 63.0386 233.593 63.0386 232.436V224.624H65.5026ZM87.2312 224.344C88.9299 224.344 90.1992 224.783 91.0392 225.66C91.8792 226.519 92.2992 227.919 92.2992 229.86V239.632H89.8632V229.972C89.8632 228.796 89.6112 227.909 89.1072 227.312C88.6219 226.715 87.8565 226.416 86.8112 226.416C85.3552 226.416 84.3099 226.836 83.6752 227.676C83.0592 228.516 82.7512 229.739 82.7512 231.344V239.632H80.3152V229.972C80.3152 229.188 80.2032 228.535 79.9792 228.012C79.7552 227.471 79.4192 227.069 78.9712 226.808C78.5232 226.547 77.9445 226.416 77.2352 226.416C76.2272 226.416 75.4339 226.631 74.8552 227.06C74.2765 227.471 73.8565 228.077 73.5952 228.88C73.3525 229.683 73.2312 230.672 73.2312 231.848V239.632H70.7672V224.624H72.7552L73.1192 226.668H73.2592C73.5765 226.145 73.9592 225.716 74.4072 225.38C74.8739 225.025 75.3872 224.764 75.9472 224.596C76.5072 224.428 77.0859 224.344 77.6832 224.344C78.8405 224.344 79.8019 224.549 80.5672 224.96C81.3512 225.371 81.9205 226.005 82.2752 226.864H82.4152C82.9192 226.005 83.6005 225.371 84.4592 224.96C85.3365 224.549 86.2605 224.344 87.2312 224.344ZM113.899 224.344C115.598 224.344 116.867 224.783 117.707 225.66C118.547 226.519 118.967 227.919 118.967 229.86V239.632H116.531V229.972C116.531 228.796 116.279 227.909 115.775 227.312C115.29 226.715 114.525 226.416 113.479 226.416C112.023 226.416 110.978 226.836 110.343 227.676C109.727 228.516 109.419 229.739 109.419 231.344V239.632H106.983V229.972C106.983 229.188 106.871 228.535 106.647 228.012C106.423 227.471 106.087 227.069 105.639 226.808C105.191 226.547 104.613 226.416 103.903 226.416C102.895 226.416 102.102 226.631 101.523 227.06C100.945 227.471 100.525 228.077 100.263 228.88C100.021 229.683 99.8992 230.672 99.8992 231.848V239.632H97.4352V224.624H99.4232L99.7872 226.668H99.9272C100.245 226.145 100.627 225.716 101.075 225.38C101.542 225.025 102.055 224.764 102.615 224.596C103.175 224.428 103.754 224.344 104.351 224.344C105.509 224.344 106.47 224.549 107.235 224.96C108.019 225.371 108.589 226.005 108.943 226.864H109.083C109.587 226.005 110.269 225.371 111.127 224.96C112.005 224.549 112.929 224.344 113.899 224.344ZM126.567 239.632H124.103V218.352H126.567V239.632ZM137.506 224.372C139.335 224.372 140.689 224.773 141.566 225.576C142.443 226.379 142.882 227.657 142.882 229.412V239.632H141.09L140.614 237.504H140.502C140.073 238.045 139.625 238.503 139.158 238.876C138.71 239.231 138.187 239.492 137.59 239.66C137.011 239.828 136.302 239.912 135.462 239.912C134.566 239.912 133.754 239.753 133.026 239.436C132.317 239.119 131.757 238.633 131.346 237.98C130.935 237.308 130.73 236.468 130.73 235.46C130.73 233.967 131.318 232.819 132.494 232.016C133.67 231.195 135.481 230.747 137.926 230.672L140.474 230.588V229.692C140.474 228.441 140.203 227.573 139.662 227.088C139.121 226.603 138.355 226.36 137.366 226.36C136.582 226.36 135.835 226.481 135.126 226.724C134.417 226.948 133.754 227.209 133.138 227.508L132.382 225.66C133.035 225.305 133.81 225.007 134.706 224.764C135.602 224.503 136.535 224.372 137.506 224.372ZM138.234 232.38C136.367 232.455 135.07 232.753 134.342 233.276C133.633 233.799 133.278 234.536 133.278 235.488C133.278 236.328 133.53 236.944 134.034 237.336C134.557 237.728 135.219 237.924 136.022 237.924C137.291 237.924 138.346 237.579 139.186 236.888C140.026 236.179 140.446 235.096 140.446 233.64V232.296L138.234 232.38ZM155.241 224.344C157.033 224.344 158.387 224.783 159.301 225.66C160.216 226.519 160.673 227.919 160.673 229.86V239.632H158.237V230.028C158.237 228.815 157.967 227.909 157.425 227.312C156.884 226.715 156.035 226.416 154.877 226.416C153.216 226.416 152.068 226.883 151.433 227.816C150.799 228.749 150.481 230.093 150.481 231.848V239.632H148.017V224.624H150.005L150.369 226.668H150.509C150.845 226.145 151.256 225.716 151.741 225.38C152.245 225.025 152.796 224.764 153.393 224.596C153.991 224.428 154.607 224.344 155.241 224.344ZM171.146 239.912C169.279 239.912 167.786 239.268 166.666 237.98C165.546 236.673 164.986 234.732 164.986 232.156C164.986 229.58 165.546 227.639 166.666 226.332C167.804 225.007 169.307 224.344 171.174 224.344C171.958 224.344 172.639 224.447 173.218 224.652C173.796 224.839 174.3 225.1 174.73 225.436C175.159 225.772 175.523 226.145 175.822 226.556H175.99C175.971 226.313 175.934 225.959 175.878 225.492C175.84 225.007 175.822 224.624 175.822 224.344V218.352H178.286V239.632H176.298L175.934 237.616H175.822C175.523 238.045 175.159 238.437 174.73 238.792C174.3 239.128 173.787 239.399 173.19 239.604C172.611 239.809 171.93 239.912 171.146 239.912ZM171.538 237.868C173.124 237.868 174.235 237.439 174.87 236.58C175.523 235.703 175.85 234.387 175.85 232.632V232.184C175.85 230.317 175.542 228.889 174.926 227.9C174.31 226.892 173.171 226.388 171.51 226.388C170.184 226.388 169.186 226.92 168.514 227.984C167.86 229.029 167.534 230.439 167.534 232.212C167.534 234.004 167.86 235.395 168.514 236.384C169.186 237.373 170.194 237.868 171.538 237.868Z" fill="white"/>
</svg>
