<svg width="601" height="280" viewBox="0 0 601 280" fill="none" xmlns="http://www.w3.org/2000/svg">
<rect x="0.660645" y="0.43457" width="600" height="279" rx="16" fill="#11181E"/>
<g opacity="0.4">
<path d="M57.457 34.7544L81.3834 41.6665C83.0618 42.1514 83.3554 44.404 81.8573 45.3029L77.7187 47.7861C76.8819 48.2881 76.7397 49.4429 77.4297 50.133L92.6815 65.3848C95.8696 68.5729 97.6607 72.8969 97.6607 77.4056V117.435C97.6607 119.091 96.3176 120.435 94.6607 120.435H90.6607C89.0039 120.435 87.6607 119.091 87.6607 117.435L87.6607 77.4056C87.6607 75.5491 86.9232 73.7686 85.6105 72.4558L70.3588 57.2041C69.6687 56.5141 68.5139 56.6563 68.0119 57.493L65.529 61.6312C64.6301 63.1293 62.3774 62.8357 61.8926 61.1573L54.9805 37.2309C54.5436 35.7184 55.9445 34.3175 57.457 34.7544Z" fill="white"/>
</g>
<path d="M178.479 57.2744L166.448 35.4688C165.688 34.0898 163.707 34.0898 162.946 35.4688L150.915 57.2744C150.071 58.8037 151.457 60.6045 153.151 60.1807L157.797 59.0195C158.744 58.7829 159.661 59.499 159.661 60.4748V117.295C159.661 118.952 161.004 120.295 162.661 120.295H166.661C168.317 120.295 169.661 118.952 169.661 117.295V60.4563C169.661 59.4804 170.578 58.7644 171.524 59.0011L176.243 60.1807C177.938 60.6045 179.323 58.8037 178.479 57.2744Z" fill="white"/>
<path d="M271.864 34.7544L247.938 41.6665C246.26 42.1514 245.966 44.404 247.464 45.3029L251.603 47.7861C252.439 48.2881 252.582 49.4429 251.892 50.133L236.64 65.3848C233.452 68.5729 231.661 72.8969 231.661 77.4056V117.435C231.661 119.091 233.004 120.435 234.661 120.435H238.661C240.317 120.435 241.661 119.091 241.661 117.435L241.661 77.4056C241.661 75.5491 242.398 73.7686 243.711 72.4558L258.963 57.2041C259.653 56.5141 260.807 56.6563 261.309 57.493L263.792 61.6312C264.691 63.1293 266.944 62.8357 267.429 61.1573L274.341 37.2309C274.778 35.7184 273.377 34.3175 271.864 34.7544Z" fill="#707478"/>
<path d="M34.6206 169.275C34.6206 167.621 34.7273 165.995 34.9406 164.395C35.1806 162.795 35.5806 161.288 36.1406 159.875C36.7273 158.435 37.5273 157.168 38.5406 156.075C39.554 154.955 40.834 154.088 42.3806 153.475C43.954 152.835 45.8473 152.515 48.0606 152.515C48.6206 152.515 49.2473 152.541 49.9406 152.595C50.6606 152.621 51.2473 152.701 51.7006 152.835V156.395C51.194 156.235 50.634 156.115 50.0206 156.035C49.434 155.955 48.8473 155.915 48.2606 155.915C46.4206 155.915 44.9006 156.195 43.7006 156.755C42.5006 157.315 41.554 158.088 40.8606 159.075C40.1673 160.061 39.6606 161.208 39.3406 162.515C39.0206 163.795 38.8206 165.195 38.7406 166.715H38.9806C39.3806 166.075 39.874 165.501 40.4606 164.995C41.0473 164.488 41.7673 164.088 42.6206 163.795C43.474 163.501 44.4606 163.355 45.5806 163.355C47.234 163.355 48.674 163.701 49.9006 164.395C51.154 165.088 52.114 166.088 52.7806 167.395C53.474 168.701 53.8206 170.288 53.8206 172.155C53.8206 174.155 53.434 175.888 52.6606 177.355C51.914 178.795 50.8473 179.901 49.4606 180.675C48.1006 181.448 46.4606 181.835 44.5406 181.835C43.154 181.835 41.8606 181.581 40.6606 181.075C39.4606 180.568 38.4073 179.795 37.5006 178.755C36.594 177.715 35.8873 176.408 35.3806 174.835C34.874 173.235 34.6206 171.381 34.6206 169.275ZM44.5006 178.315C46.0206 178.315 47.2606 177.821 48.2206 176.835C49.1806 175.821 49.6606 174.261 49.6606 172.155C49.6606 170.475 49.234 169.141 48.3806 168.155C47.554 167.168 46.3006 166.675 44.6206 166.675C43.474 166.675 42.474 166.915 41.6206 167.395C40.7673 167.875 40.1006 168.488 39.6206 169.235C39.1406 169.981 38.9006 170.741 38.9006 171.515C38.9006 172.341 39.0206 173.155 39.2606 173.955C39.5006 174.755 39.8473 175.488 40.3006 176.155C40.7806 176.821 41.3673 177.355 42.0606 177.755C42.754 178.128 43.5673 178.315 44.5006 178.315ZM77.1313 167.115C77.1313 169.435 76.9446 171.501 76.5713 173.315C76.2246 175.128 75.6646 176.675 74.8913 177.955C74.1446 179.208 73.1446 180.168 71.8913 180.835C70.6646 181.501 69.1846 181.835 67.4513 181.835C65.2646 181.835 63.4646 181.248 62.0513 180.075C60.6379 178.901 59.5846 177.221 58.8913 175.035C58.1979 172.821 57.8513 170.181 57.8513 167.115C57.8513 164.021 58.1579 161.381 58.7713 159.195C59.4113 157.008 60.4379 155.341 61.8513 154.195C63.2646 153.021 65.1313 152.435 67.4513 152.435C69.6379 152.435 71.4379 153.021 72.8513 154.195C74.2913 155.341 75.3579 157.008 76.0513 159.195C76.7713 161.381 77.1313 164.021 77.1313 167.115ZM62.0913 167.115C62.0913 169.595 62.2646 171.661 62.6113 173.315C62.9579 174.968 63.5179 176.208 64.2913 177.035C65.0913 177.861 66.1446 178.275 67.4513 178.275C68.7579 178.275 69.7979 177.875 70.5713 177.075C71.3713 176.248 71.9446 175.008 72.2913 173.355C72.6646 171.675 72.8513 169.595 72.8513 167.115C72.8513 164.635 72.6646 162.581 72.2913 160.955C71.9446 159.301 71.3713 158.061 70.5713 157.235C69.7979 156.408 68.7579 155.995 67.4513 155.995C66.1446 155.995 65.0913 156.408 64.2913 157.235C63.5179 158.061 62.9579 159.301 62.6113 160.955C62.2646 162.581 62.0913 164.635 62.0913 167.115ZM100.522 167.115C100.522 169.435 100.335 171.501 99.9619 173.315C99.6152 175.128 99.0552 176.675 98.2819 177.955C97.5352 179.208 96.5352 180.168 95.2819 180.835C94.0552 181.501 92.5752 181.835 90.8419 181.835C88.6552 181.835 86.8552 181.248 85.4419 180.075C84.0286 178.901 82.9752 177.221 82.2819 175.035C81.5886 172.821 81.2419 170.181 81.2419 167.115C81.2419 164.021 81.5486 161.381 82.1619 159.195C82.8019 157.008 83.8286 155.341 85.2419 154.195C86.6552 153.021 88.5219 152.435 90.8419 152.435C93.0286 152.435 94.8286 153.021 96.2419 154.195C97.6819 155.341 98.7486 157.008 99.4419 159.195C100.162 161.381 100.522 164.021 100.522 167.115ZM85.4819 167.115C85.4819 169.595 85.6552 171.661 86.0019 173.315C86.3486 174.968 86.9086 176.208 87.6819 177.035C88.4819 177.861 89.5352 178.275 90.8419 178.275C92.1486 178.275 93.1886 177.875 93.9619 177.075C94.7619 176.248 95.3352 175.008 95.6819 173.355C96.0552 171.675 96.2419 169.595 96.2419 167.115C96.2419 164.635 96.0552 162.581 95.6819 160.955C95.3352 159.301 94.7619 158.061 93.9619 157.235C93.1886 156.408 92.1486 155.995 90.8419 155.995C89.5352 155.995 88.4819 156.408 87.6819 157.235C86.9086 158.061 86.3486 159.301 86.0019 160.955C85.6552 162.581 85.4819 164.635 85.4819 167.115ZM141.203 159.475C143.63 159.475 145.456 160.101 146.683 161.355C147.91 162.608 148.523 164.621 148.523 167.395V181.435H144.283V167.955C144.283 166.301 143.95 165.061 143.283 164.235C142.643 163.381 141.63 162.955 140.243 162.955C138.323 162.955 136.95 163.555 136.123 164.755C135.296 165.928 134.883 167.635 134.883 169.875V181.435H130.683V167.955C130.683 166.861 130.523 165.941 130.203 165.195C129.91 164.448 129.47 163.888 128.883 163.515C128.296 163.141 127.536 162.955 126.603 162.955C125.27 162.955 124.216 163.248 123.443 163.835C122.67 164.421 122.11 165.288 121.763 166.435C121.443 167.555 121.283 168.928 121.283 170.555V181.435H117.043V159.875H120.403L121.003 162.755H121.243C121.696 162.008 122.243 161.395 122.883 160.915C123.55 160.435 124.283 160.075 125.083 159.835C125.883 159.595 126.71 159.475 127.563 159.475C129.19 159.475 130.563 159.768 131.683 160.355C132.803 160.915 133.616 161.781 134.123 162.955H134.443C135.136 161.755 136.096 160.875 137.323 160.315C138.55 159.755 139.843 159.475 141.203 159.475Z" fill="white"/>
<g filter="url(#filter0_d_6993_1063)">
<rect x="32.6606" y="215.435" width="30" height="36" rx="3" fill="#EA573D"/>
<rect x="34.1606" y="216.935" width="27" height="33" rx="1.5" stroke="#EA573D" stroke-width="3"/>
<path d="M50.1775 242.435H47.1535V231.755C47.1535 231.403 47.1535 231.043 47.1535 230.675C47.1695 230.307 47.1855 229.939 47.2015 229.571C47.2175 229.187 47.2335 228.835 47.2495 228.515C47.0895 228.675 46.8895 228.867 46.6495 229.091C46.4095 229.299 46.1615 229.515 45.9055 229.739L43.9855 231.275L42.4735 229.403L47.6575 225.299H50.1775V242.435Z" fill="black"/>
</g>
<g filter="url(#filter1_d_6993_1063)">
<rect x="78.6606" y="215.435" width="44" height="36" rx="3" fill="#EA573D"/>
<path d="M93.6603 231.659C94.7483 231.659 95.7083 231.859 96.5403 232.259C97.3723 232.659 98.0203 233.243 98.4843 234.011C98.9643 234.763 99.2043 235.691 99.2043 236.795C99.2043 238.011 98.9483 239.059 98.4363 239.939C97.9243 240.819 97.1723 241.499 96.1803 241.979C95.1883 242.443 93.9723 242.675 92.5323 242.675C91.6363 242.675 90.7963 242.595 90.0123 242.435C89.2283 242.275 88.5483 242.043 87.9723 241.739V239.051C88.5643 239.371 89.2763 239.635 90.1083 239.843C90.9403 240.051 91.7243 240.155 92.4603 240.155C93.2283 240.155 93.8843 240.051 94.4283 239.843C94.9723 239.619 95.3883 239.283 95.6763 238.835C95.9643 238.371 96.1083 237.787 96.1083 237.083C96.1083 236.123 95.8043 235.395 95.1963 234.899C94.5883 234.403 93.6443 234.155 92.3643 234.155C91.9163 234.155 91.4283 234.195 90.9003 234.275C90.3883 234.355 89.9643 234.435 89.6283 234.515L88.3323 233.795L88.9803 225.299H98.0043V227.939H91.6443L91.2843 231.899C91.5563 231.851 91.8763 231.803 92.2443 231.755C92.6283 231.691 93.1003 231.659 93.6603 231.659ZM110.295 242.435H107.271V231.755C107.271 231.403 107.271 231.043 107.271 230.675C107.287 230.307 107.303 229.939 107.319 229.571C107.335 229.187 107.351 228.835 107.367 228.515C107.207 228.675 107.007 228.867 106.767 229.091C106.527 229.299 106.279 229.515 106.023 229.739L104.103 231.275L102.591 229.403L107.775 225.299H110.295V242.435Z" fill="black"/>
</g>
<path d="M153.585 244.435H139.725V242.531L150.253 226.683H140.061V224.443H153.305V226.347L142.777 242.195H153.585V244.435ZM170.108 229.427V244.435H168.092L167.728 242.447H167.616C167.299 242.969 166.888 243.399 166.384 243.735C165.88 244.071 165.329 244.313 164.732 244.463C164.135 244.631 163.509 244.715 162.856 244.715C161.661 244.715 160.653 244.528 159.832 244.155C159.029 243.763 158.423 243.165 158.012 242.363C157.601 241.56 157.396 240.524 157.396 239.255V229.427H159.888V239.087C159.888 240.281 160.159 241.177 160.7 241.775C161.241 242.372 162.081 242.671 163.22 242.671C164.34 242.671 165.217 242.465 165.852 242.055C166.505 241.625 166.963 241.009 167.224 240.207C167.504 239.385 167.644 238.396 167.644 237.239V229.427H170.108ZM182.373 229.147C182.653 229.147 182.951 229.165 183.269 229.203C183.605 229.221 183.894 229.259 184.137 229.315L183.829 231.583C183.586 231.527 183.315 231.48 183.017 231.443C182.737 231.405 182.466 231.387 182.205 231.387C181.626 231.387 181.075 231.508 180.553 231.751C180.03 231.993 179.563 232.339 179.153 232.787C178.742 233.216 178.415 233.739 178.173 234.355C177.949 234.971 177.837 235.661 177.837 236.427V244.435H175.373V229.427H177.389L177.669 232.171H177.781C178.098 231.611 178.481 231.107 178.929 230.659C179.377 230.192 179.89 229.828 180.469 229.567C181.047 229.287 181.682 229.147 182.373 229.147ZM189.903 229.427V244.435H187.439V229.427H189.903ZM188.699 223.799C189.072 223.799 189.399 223.929 189.679 224.191C189.978 224.433 190.127 224.825 190.127 225.367C190.127 225.889 189.978 226.281 189.679 226.543C189.399 226.804 189.072 226.935 188.699 226.935C188.288 226.935 187.943 226.804 187.663 226.543C187.383 226.281 187.243 225.889 187.243 225.367C187.243 224.825 187.383 224.433 187.663 224.191C187.943 223.929 188.288 223.799 188.699 223.799ZM201.178 244.715C199.852 244.715 198.667 244.444 197.622 243.903C196.595 243.361 195.783 242.521 195.186 241.383C194.607 240.244 194.318 238.788 194.318 237.015C194.318 235.167 194.626 233.664 195.242 232.507C195.858 231.349 196.688 230.5 197.734 229.959C198.798 229.417 200.002 229.147 201.346 229.147C202.111 229.147 202.848 229.231 203.558 229.399C204.267 229.548 204.846 229.735 205.294 229.959L204.538 232.003C204.09 231.835 203.567 231.676 202.97 231.527C202.372 231.377 201.812 231.303 201.29 231.303C200.282 231.303 199.451 231.517 198.798 231.947C198.144 232.376 197.659 233.011 197.342 233.851C197.024 234.691 196.866 235.736 196.866 236.987C196.866 238.181 197.024 239.199 197.342 240.039C197.659 240.879 198.135 241.513 198.77 241.943C199.404 242.372 200.198 242.587 201.15 242.587C201.971 242.587 202.69 242.503 203.306 242.335C203.94 242.167 204.519 241.961 205.042 241.719V243.903C204.538 244.164 203.978 244.36 203.362 244.491C202.764 244.64 202.036 244.715 201.178 244.715ZM211.575 229.399C211.575 229.753 211.556 230.117 211.519 230.491C211.5 230.864 211.472 231.2 211.435 231.499H211.603C211.92 230.976 212.322 230.547 212.807 230.211C213.292 229.875 213.834 229.623 214.431 229.455C215.028 229.268 215.644 229.175 216.279 229.175C217.492 229.175 218.5 229.371 219.303 229.763C220.124 230.136 220.74 230.724 221.151 231.527C221.562 232.329 221.767 233.375 221.767 234.663V244.435H219.331V234.831C219.331 233.617 219.06 232.712 218.519 232.115C217.978 231.517 217.128 231.219 215.971 231.219C214.851 231.219 213.974 231.433 213.339 231.863C212.704 232.273 212.247 232.889 211.967 233.711C211.706 234.513 211.575 235.503 211.575 236.679V244.435H209.111V223.155H211.575V229.399Z" fill="white"/>
<defs>
<filter id="filter0_d_6993_1063" x="32.6606" y="215.435" width="30" height="38" filterUnits="userSpaceOnUse" color-interpolation-filters="sRGB">
<feFlood flood-opacity="0" result="BackgroundImageFix"/>
<feColorMatrix in="SourceAlpha" type="matrix" values="0 0 0 0 0 0 0 0 0 0 0 0 0 0 0 0 0 0 127 0" result="hardAlpha"/>
<feOffset dy="2"/>
<feColorMatrix type="matrix" values="0 0 0 0 0.113725 0 0 0 0 0.168627 0 0 0 0 0.184314 0 0 0 0.25 0"/>
<feBlend mode="normal" in2="BackgroundImageFix" result="effect1_dropShadow_6993_1063"/>
<feBlend mode="normal" in="SourceGraphic" in2="effect1_dropShadow_6993_1063" result="shape"/>
</filter>
<filter id="filter1_d_6993_1063" x="78.6606" y="215.435" width="44" height="38" filterUnits="userSpaceOnUse" color-interpolation-filters="sRGB">
<feFlood flood-opacity="0" result="BackgroundImageFix"/>
<feColorMatrix in="SourceAlpha" type="matrix" values="0 0 0 0 0 0 0 0 0 0 0 0 0 0 0 0 0 0 127 0" result="hardAlpha"/>
<feOffset dy="2"/>
<feColorMatrix type="matrix" values="0 0 0 0 0.113725 0 0 0 0 0.168627 0 0 0 0 0.184314 0 0 0 0.25 0"/>
<feBlend mode="normal" in2="BackgroundImageFix" result="effect1_dropShadow_6993_1063"/>
<feBlend mode="normal" in="SourceGraphic" in2="effect1_dropShadow_6993_1063" result="shape"/>
</filter>
</defs>
</svg>
