<svg width="601" height="280" viewBox="0 0 601 280" fill="none" xmlns="http://www.w3.org/2000/svg">
<rect x="0.303711" y="0.144531" width="600" height="279" rx="16" fill="#11181E"/>
<path d="M57.0996 34.4644L81.0259 41.3764C82.7044 41.8613 82.9979 44.114 81.4999 45.0129L77.3612 47.496C76.5244 47.9981 76.3823 49.1529 77.0723 49.8429L92.3241 65.0947C95.5122 68.2828 97.3033 72.6068 97.3033 77.1155V117.145C97.3033 118.801 95.9601 120.145 94.3033 120.145H90.3033C88.6464 120.145 87.3033 118.801 87.3033 117.145L87.3033 77.1155C87.3033 75.259 86.5658 73.4785 85.253 72.1658L70.0013 56.9141C69.3113 56.2241 68.1565 56.3662 67.6544 57.203L65.1716 61.3412C64.2727 62.8393 62.02 62.5457 61.5351 60.8672L54.6231 36.9409C54.1861 35.4284 55.5871 34.0274 57.0996 34.4644Z" fill="white"/>
<g opacity="0.4">
<path d="M178.122 56.9844L166.092 35.1787C165.331 33.7998 163.35 33.7998 162.589 35.1787L150.558 56.9844C149.714 58.5137 151.1 60.3145 152.795 59.8906L157.44 58.7295C158.387 58.4929 159.304 59.2089 159.304 60.1847V117.005C159.304 118.662 160.647 120.005 162.304 120.005H166.304C167.961 120.005 169.304 118.662 169.304 117.005V60.1663C169.304 59.1904 170.221 58.4744 171.167 58.711L175.886 59.8906C177.581 60.3145 178.966 58.5137 178.122 56.9844Z" fill="white"/>
</g>
<g opacity="0.4">
<path d="M266.122 56.9844L254.092 35.1787C253.331 33.7998 251.35 33.7998 250.589 35.1787L238.558 56.9844C237.714 58.5137 239.1 60.3145 240.795 59.8906L245.44 58.7295C246.387 58.4929 247.304 59.2089 247.304 60.1847V117.005C247.304 118.662 248.647 120.005 250.304 120.005H254.304C255.961 120.005 257.304 118.662 257.304 117.005V60.1663C257.304 59.1904 258.221 58.4744 259.167 58.711L263.886 59.8906C265.581 60.3145 266.966 58.5137 266.122 56.9844Z" fill="white"/>
</g>
<path d="M359.508 34.4644L335.581 41.3764C333.903 41.8613 333.609 44.114 335.108 45.0129L339.246 47.496C340.083 47.9981 340.225 49.1529 339.535 49.8429L324.283 65.0947C321.095 68.2828 319.304 72.6068 319.304 77.1155V117.145C319.304 118.801 320.647 120.145 322.304 120.145H326.304C327.961 120.145 329.304 118.801 329.304 117.145L329.304 77.1155C329.304 75.259 330.042 73.4785 331.354 72.1658L346.606 56.9141C347.296 56.2241 348.451 56.3662 348.953 57.203L351.436 61.3412C352.335 62.8393 354.587 62.5457 355.072 60.8672L361.984 36.9409C362.421 35.4284 361.02 34.0274 359.508 34.4644Z" fill="#707478"/>
<path d="M34.2637 168.985C34.2637 167.331 34.3704 165.705 34.5837 164.105C34.8237 162.505 35.2237 160.998 35.7837 159.585C36.3704 158.145 37.1704 156.878 38.1837 155.785C39.197 154.665 40.477 153.798 42.0237 153.185C43.597 152.545 45.4904 152.225 47.7037 152.225C48.2637 152.225 48.8904 152.251 49.5837 152.305C50.3037 152.331 50.8904 152.411 51.3437 152.545V156.105C50.837 155.945 50.277 155.825 49.6637 155.745C49.077 155.665 48.4904 155.625 47.9037 155.625C46.0637 155.625 44.5437 155.905 43.3437 156.465C42.1437 157.025 41.197 157.798 40.5037 158.785C39.8104 159.771 39.3037 160.918 38.9837 162.225C38.6637 163.505 38.4637 164.905 38.3837 166.425H38.6237C39.0237 165.785 39.517 165.211 40.1037 164.705C40.6904 164.198 41.4104 163.798 42.2637 163.505C43.117 163.211 44.1037 163.065 45.2237 163.065C46.877 163.065 48.317 163.411 49.5437 164.105C50.797 164.798 51.757 165.798 52.4237 167.105C53.117 168.411 53.4637 169.998 53.4637 171.865C53.4637 173.865 53.077 175.598 52.3037 177.065C51.557 178.505 50.4904 179.611 49.1037 180.385C47.7437 181.158 46.1037 181.545 44.1837 181.545C42.797 181.545 41.5037 181.291 40.3037 180.785C39.1037 180.278 38.0504 179.505 37.1437 178.465C36.237 177.425 35.5304 176.118 35.0237 174.545C34.517 172.945 34.2637 171.091 34.2637 168.985ZM44.1437 178.025C45.6637 178.025 46.9037 177.531 47.8637 176.545C48.8237 175.531 49.3037 173.971 49.3037 171.865C49.3037 170.185 48.877 168.851 48.0237 167.865C47.197 166.878 45.9437 166.385 44.2637 166.385C43.117 166.385 42.117 166.625 41.2637 167.105C40.4104 167.585 39.7437 168.198 39.2637 168.945C38.7837 169.691 38.5437 170.451 38.5437 171.225C38.5437 172.051 38.6637 172.865 38.9037 173.665C39.1437 174.465 39.4904 175.198 39.9437 175.865C40.4237 176.531 41.0104 177.065 41.7037 177.465C42.397 177.838 43.2104 178.025 44.1437 178.025ZM76.7743 166.825C76.7743 169.145 76.5877 171.211 76.2143 173.025C75.8677 174.838 75.3077 176.385 74.5343 177.665C73.7877 178.918 72.7877 179.878 71.5343 180.545C70.3077 181.211 68.8277 181.545 67.0943 181.545C64.9077 181.545 63.1077 180.958 61.6943 179.785C60.281 178.611 59.2277 176.931 58.5343 174.745C57.841 172.531 57.4943 169.891 57.4943 166.825C57.4943 163.731 57.801 161.091 58.4143 158.905C59.0543 156.718 60.081 155.051 61.4943 153.905C62.9077 152.731 64.7743 152.145 67.0943 152.145C69.281 152.145 71.081 152.731 72.4943 153.905C73.9343 155.051 75.001 156.718 75.6943 158.905C76.4143 161.091 76.7743 163.731 76.7743 166.825ZM61.7343 166.825C61.7343 169.305 61.9077 171.371 62.2543 173.025C62.601 174.678 63.161 175.918 63.9343 176.745C64.7343 177.571 65.7877 177.985 67.0943 177.985C68.401 177.985 69.441 177.585 70.2143 176.785C71.0143 175.958 71.5877 174.718 71.9343 173.065C72.3077 171.385 72.4943 169.305 72.4943 166.825C72.4943 164.345 72.3077 162.291 71.9343 160.665C71.5877 159.011 71.0143 157.771 70.2143 156.945C69.441 156.118 68.401 155.705 67.0943 155.705C65.7877 155.705 64.7343 156.118 63.9343 156.945C63.161 157.771 62.601 159.011 62.2543 160.665C61.9077 162.291 61.7343 164.345 61.7343 166.825ZM100.165 166.825C100.165 169.145 99.9783 171.211 99.605 173.025C99.2583 174.838 98.6983 176.385 97.925 177.665C97.1783 178.918 96.1783 179.878 94.925 180.545C93.6983 181.211 92.2183 181.545 90.485 181.545C88.2983 181.545 86.4983 180.958 85.085 179.785C83.6716 178.611 82.6183 176.931 81.925 174.745C81.2316 172.531 80.885 169.891 80.885 166.825C80.885 163.731 81.1916 161.091 81.805 158.905C82.445 156.718 83.4716 155.051 84.885 153.905C86.2983 152.731 88.165 152.145 90.485 152.145C92.6716 152.145 94.4716 152.731 95.885 153.905C97.325 155.051 98.3916 156.718 99.085 158.905C99.805 161.091 100.165 163.731 100.165 166.825ZM85.125 166.825C85.125 169.305 85.2983 171.371 85.645 173.025C85.9916 174.678 86.5516 175.918 87.325 176.745C88.125 177.571 89.1783 177.985 90.485 177.985C91.7916 177.985 92.8316 177.585 93.605 176.785C94.405 175.958 94.9783 174.718 95.325 173.065C95.6983 171.385 95.885 169.305 95.885 166.825C95.885 164.345 95.6983 162.291 95.325 160.665C94.9783 159.011 94.405 157.771 93.605 156.945C92.8316 156.118 91.7916 155.705 90.485 155.705C89.1783 155.705 88.125 156.118 87.325 156.945C86.5516 157.771 85.9916 159.011 85.645 160.665C85.2983 162.291 85.125 164.345 85.125 166.825ZM140.846 159.185C143.273 159.185 145.1 159.811 146.326 161.065C147.553 162.318 148.166 164.331 148.166 167.105V181.145H143.926V167.665C143.926 166.011 143.593 164.771 142.926 163.945C142.286 163.091 141.273 162.665 139.886 162.665C137.966 162.665 136.593 163.265 135.766 164.465C134.94 165.638 134.526 167.345 134.526 169.585V181.145H130.326V167.665C130.326 166.571 130.166 165.651 129.846 164.905C129.553 164.158 129.113 163.598 128.526 163.225C127.94 162.851 127.18 162.665 126.246 162.665C124.913 162.665 123.86 162.958 123.086 163.545C122.313 164.131 121.753 164.998 121.406 166.145C121.086 167.265 120.926 168.638 120.926 170.265V181.145H116.686V159.585H120.046L120.646 162.465H120.886C121.34 161.718 121.886 161.105 122.526 160.625C123.193 160.145 123.926 159.785 124.726 159.545C125.526 159.305 126.353 159.185 127.206 159.185C128.833 159.185 130.206 159.478 131.326 160.065C132.446 160.625 133.26 161.491 133.766 162.665H134.086C134.78 161.465 135.74 160.585 136.966 160.025C138.193 159.465 139.486 159.185 140.846 159.185Z" fill="white"/>
<mask id="mask0_6197_507" style="mask-type:alpha" maskUnits="userSpaceOnUse" x="427" y="148" width="62" height="43">
<path d="M446.115 148.293L443.505 190.995H428.308C427.526 190.995 427.039 190.373 427.225 189.612L437.1 149.677C437.291 148.916 438.085 148.293 438.866 148.293H446.115ZM458.231 148.293C459.014 148.293 459.808 148.916 459.993 149.677L463.936 165.626C466.187 160.602 469.239 156.363 473.926 153.349L466.836 148.295L488.187 148.293L478.083 167.273L477.022 158.62C472.417 161.642 469.694 166.17 468.257 171.532C467.319 175.028 467.254 178.615 467.998 182.054L468.239 183.028L469.72 189.017L469.866 189.612C470.057 190.373 469.572 190.995 468.783 190.995H453.59L450.976 148.293H458.231Z" fill="white"/>
</mask>
<g mask="url(#mask0_6197_507)">
<path d="M446.115 148.293L443.505 190.995H428.308C427.526 190.995 427.039 190.373 427.225 189.612L437.1 149.677C437.291 148.916 438.085 148.293 438.866 148.293H446.115ZM458.231 148.293C459.014 148.293 459.808 148.916 459.993 149.677L463.936 165.626C466.187 160.602 469.239 156.363 473.926 153.349L466.836 148.295L488.187 148.293L478.083 167.273L477.022 158.62C472.417 161.642 469.694 166.17 468.257 171.532C467.319 175.028 467.254 178.615 467.998 182.054L468.239 183.028L469.72 189.017L469.866 189.612C470.057 190.373 469.572 190.995 468.783 190.995H453.59L450.976 148.293H458.231Z" fill="white"/>
<path d="M488.188 148.293H427.186V190.995H488.188V148.293Z" fill="#F6F9FF"/>
</g>
<circle cx="534.804" cy="169.645" r="31.5" fill="#020202" stroke="white" stroke-width="4"/>
<path d="M527.219 184.145V180.797L534.923 172.589C537.695 169.601 538.811 168.053 538.811 166.037C538.811 163.733 537.263 162.437 535.139 162.437C533.123 162.437 531.791 163.481 530.099 165.641L527.363 163.121C529.415 160.205 531.863 158.585 535.499 158.585C539.927 158.585 543.059 161.357 543.059 165.677V165.749C543.059 169.169 541.475 171.257 537.839 174.893L532.763 180.365H543.167V184.145H527.219Z" fill="white"/>
<g filter="url(#filter0_d_6197_507)">
<rect x="32.3037" y="215.145" width="72" height="36" rx="3" fill="#F7B817"/>
<rect x="33.8037" y="216.645" width="69" height="33" rx="1.5" stroke="#F7B817" stroke-width="3"/>
<path d="M52.5465 237.465C52.5465 238.473 52.2985 239.345 51.8025 240.081C51.3065 240.817 50.5865 241.385 49.6425 241.785C48.7145 242.185 47.6025 242.385 46.3065 242.385C45.6825 242.385 45.0825 242.345 44.5065 242.265C43.9465 242.201 43.4105 242.097 42.8985 241.953C42.4025 241.809 41.9385 241.633 41.5065 241.425V238.545C42.2265 238.865 43.0185 239.161 43.8825 239.433C44.7465 239.689 45.6265 239.817 46.5225 239.817C47.2105 239.817 47.7705 239.729 48.2025 239.553C48.6505 239.361 48.9785 239.105 49.1865 238.785C49.3945 238.449 49.4985 238.065 49.4985 237.633C49.4985 237.153 49.3625 236.745 49.0905 236.409C48.8185 236.073 48.4185 235.761 47.8905 235.473C47.3625 235.185 46.7065 234.881 45.9225 234.561C45.3945 234.337 44.8745 234.089 44.3625 233.817C43.8665 233.529 43.4185 233.185 43.0185 232.785C42.6185 232.385 42.2985 231.913 42.0585 231.369C41.8185 230.825 41.6985 230.185 41.6985 229.449C41.6985 228.473 41.9305 227.633 42.3945 226.929C42.8745 226.225 43.5385 225.689 44.3865 225.321C45.2505 224.953 46.2505 224.769 47.3865 224.769C48.2985 224.769 49.1545 224.865 49.9545 225.057C50.7545 225.249 51.5465 225.521 52.3305 225.873L51.3465 228.345C50.6425 228.041 49.9625 227.801 49.3065 227.625C48.6505 227.449 47.9785 227.361 47.2905 227.361C46.7465 227.361 46.2825 227.449 45.8985 227.625C45.5145 227.785 45.2265 228.017 45.0345 228.321C44.8425 228.625 44.7465 228.977 44.7465 229.377C44.7465 229.841 44.8665 230.233 45.1065 230.553C45.3465 230.873 45.7145 231.177 46.2105 231.465C46.7225 231.737 47.3785 232.049 48.1785 232.401C49.1065 232.801 49.8905 233.217 50.5305 233.649C51.1705 234.081 51.6665 234.601 52.0185 235.209C52.3705 235.817 52.5465 236.569 52.5465 237.465ZM63.4338 242.145H60.4098V231.465C60.4098 231.113 60.4098 230.753 60.4098 230.385C60.4258 230.017 60.4418 229.649 60.4578 229.281C60.4738 228.897 60.4898 228.545 60.5058 228.225C60.3458 228.385 60.1458 228.577 59.9058 228.801C59.6658 229.009 59.4178 229.225 59.1618 229.449L57.2418 230.985L55.7298 229.113L60.9138 225.009H63.4338V242.145ZM77.6682 242.145H74.6442V231.465C74.6442 231.113 74.6442 230.753 74.6442 230.385C74.6602 230.017 74.6762 229.649 74.6922 229.281C74.7082 228.897 74.7242 228.545 74.7402 228.225C74.5802 228.385 74.3802 228.577 74.1402 228.801C73.9002 229.009 73.6522 229.225 73.3962 229.449L71.4762 230.985L69.9642 229.113L75.1482 225.009H77.6682V242.145ZM95.2866 242.145H83.5506V239.913L87.9186 235.497C88.7826 234.617 89.4866 233.865 90.0306 233.241C90.5906 232.601 90.9986 232.009 91.2546 231.465C91.5266 230.921 91.6626 230.329 91.6626 229.689C91.6626 228.905 91.4386 228.321 90.9906 227.937C90.5426 227.537 89.9506 227.337 89.2146 227.337C88.4946 227.337 87.8226 227.489 87.1986 227.793C86.5746 228.081 85.9266 228.497 85.2546 229.041L83.5986 227.049C84.0786 226.633 84.5906 226.257 85.1346 225.921C85.6786 225.569 86.2946 225.289 86.9826 225.081C87.6706 224.873 88.4706 224.769 89.3826 224.769C90.4866 224.769 91.4306 224.969 92.2146 225.369C93.0146 225.753 93.6306 226.289 94.0626 226.977C94.4946 227.665 94.7106 228.465 94.7106 229.377C94.7106 230.081 94.6066 230.737 94.3986 231.345C94.1906 231.937 93.8866 232.521 93.4866 233.097C93.0866 233.673 92.5986 234.257 92.0226 234.849C91.4466 235.441 90.7986 236.081 90.0786 236.769L87.3666 239.385V239.529H95.2866V242.145Z" fill="black"/>
</g>
<path d="M131.7 233.589H138.616V243.389C137.533 243.743 136.441 244.005 135.34 244.173C134.238 244.341 132.988 244.425 131.588 244.425C129.516 244.425 127.77 244.014 126.352 243.193C124.933 242.353 123.85 241.167 123.104 239.637C122.376 238.087 122.012 236.258 122.012 234.149C122.012 232.058 122.422 230.247 123.244 228.717C124.065 227.186 125.241 226.001 126.772 225.161C128.321 224.302 130.188 223.873 132.372 223.873C133.492 223.873 134.546 223.975 135.536 224.181C136.544 224.386 137.477 224.675 138.336 225.049L137.384 227.233C136.674 226.915 135.872 226.645 134.976 226.421C134.098 226.197 133.184 226.085 132.232 226.085C130.645 226.085 129.282 226.411 128.144 227.065C127.005 227.718 126.137 228.651 125.54 229.865C124.942 231.059 124.644 232.487 124.644 234.149C124.644 235.735 124.896 237.145 125.4 238.377C125.922 239.59 126.734 240.542 127.836 241.233C128.937 241.905 130.384 242.241 132.176 242.241C132.773 242.241 133.296 242.222 133.744 242.185C134.21 242.129 134.63 242.063 135.004 241.989C135.396 241.914 135.76 241.839 136.096 241.765V235.829H131.7V233.589ZM149.239 228.885C151.068 228.885 152.421 229.286 153.299 230.089C154.176 230.891 154.615 232.17 154.615 233.925V244.145H152.823L152.347 242.017H152.235C151.805 242.558 151.357 243.015 150.891 243.389C150.443 243.743 149.92 244.005 149.323 244.173C148.744 244.341 148.035 244.425 147.195 244.425C146.299 244.425 145.487 244.266 144.759 243.949C144.049 243.631 143.489 243.146 143.079 242.493C142.668 241.821 142.463 240.981 142.463 239.973C142.463 238.479 143.051 237.331 144.227 236.529C145.403 235.707 147.213 235.259 149.659 235.185L152.207 235.101V234.205C152.207 232.954 151.936 232.086 151.395 231.601C150.853 231.115 150.088 230.873 149.099 230.873C148.315 230.873 147.568 230.994 146.859 231.237C146.149 231.461 145.487 231.722 144.871 232.021L144.115 230.173C144.768 229.818 145.543 229.519 146.439 229.277C147.335 229.015 148.268 228.885 149.239 228.885ZM149.967 236.893C148.1 236.967 146.803 237.266 146.075 237.789C145.365 238.311 145.011 239.049 145.011 240.001C145.011 240.841 145.263 241.457 145.767 241.849C146.289 242.241 146.952 242.437 147.755 242.437C149.024 242.437 150.079 242.091 150.919 241.401C151.759 240.691 152.179 239.609 152.179 238.153V236.809L149.967 236.893ZM165.434 228.885C167.263 228.885 168.617 229.286 169.494 230.089C170.371 230.891 170.81 232.17 170.81 233.925V244.145H169.018L168.542 242.017H168.43C168.001 242.558 167.553 243.015 167.086 243.389C166.638 243.743 166.115 244.005 165.518 244.173C164.939 244.341 164.23 244.425 163.39 244.425C162.494 244.425 161.682 244.266 160.954 243.949C160.245 243.631 159.685 243.146 159.274 242.493C158.863 241.821 158.658 240.981 158.658 239.973C158.658 238.479 159.246 237.331 160.422 236.529C161.598 235.707 163.409 235.259 165.854 235.185L168.402 235.101V234.205C168.402 232.954 168.131 232.086 167.59 231.601C167.049 231.115 166.283 230.873 165.294 230.873C164.51 230.873 163.763 230.994 163.054 231.237C162.345 231.461 161.682 231.722 161.066 232.021L160.31 230.173C160.963 229.818 161.738 229.519 162.634 229.277C163.53 229.015 164.463 228.885 165.434 228.885ZM166.162 236.893C164.295 236.967 162.998 237.266 162.27 237.789C161.561 238.311 161.206 239.049 161.206 240.001C161.206 240.841 161.458 241.457 161.962 241.849C162.485 242.241 163.147 242.437 163.95 242.437C165.219 242.437 166.274 242.091 167.114 241.401C167.954 240.691 168.374 239.609 168.374 238.153V236.809L166.162 236.893ZM185.717 240.001C185.717 240.971 185.475 241.783 184.989 242.437C184.504 243.09 183.813 243.585 182.917 243.921C182.021 244.257 180.957 244.425 179.725 244.425C178.68 244.425 177.775 244.341 177.009 244.173C176.263 244.005 175.6 243.771 175.021 243.473V241.233C175.619 241.531 176.337 241.811 177.177 242.073C178.036 242.315 178.904 242.437 179.781 242.437C181.032 242.437 181.937 242.241 182.497 241.849C183.057 241.438 183.337 240.897 183.337 240.225C183.337 239.851 183.235 239.515 183.029 239.217C182.824 238.918 182.451 238.619 181.909 238.321C181.387 238.022 180.631 237.686 179.641 237.313C178.671 236.939 177.84 236.566 177.149 236.193C176.459 235.819 175.927 235.371 175.553 234.849C175.18 234.326 174.993 233.654 174.993 232.833C174.993 231.563 175.507 230.583 176.533 229.893C177.579 229.202 178.941 228.857 180.621 228.857C181.536 228.857 182.385 228.95 183.169 229.137C183.972 229.305 184.719 229.547 185.409 229.865L184.569 231.825C184.159 231.638 183.72 231.479 183.253 231.349C182.805 231.199 182.348 231.087 181.881 231.013C181.415 230.919 180.939 230.873 180.453 230.873C179.445 230.873 178.671 231.041 178.129 231.377C177.607 231.694 177.345 232.133 177.345 232.693C177.345 233.103 177.467 233.458 177.709 233.757C177.952 234.037 178.353 234.317 178.913 234.597C179.492 234.858 180.257 235.175 181.209 235.549C182.161 235.903 182.973 236.267 183.645 236.641C184.317 237.014 184.831 237.471 185.185 238.013C185.54 238.535 185.717 239.198 185.717 240.001ZM196.984 228.857C198.832 228.857 200.316 229.501 201.436 230.789C202.575 232.077 203.144 234.018 203.144 236.613C203.144 238.311 202.883 239.749 202.36 240.925C201.856 242.082 201.137 242.959 200.204 243.557C199.289 244.135 198.207 244.425 196.956 244.425C196.191 244.425 195.509 244.322 194.912 244.117C194.315 243.911 193.801 243.65 193.372 243.333C192.961 242.997 192.607 242.633 192.308 242.241H192.14C192.177 242.558 192.215 242.959 192.252 243.445C192.289 243.93 192.308 244.35 192.308 244.705V250.865H189.844V229.137H191.86L192.196 231.181H192.308C192.607 230.751 192.961 230.359 193.372 230.005C193.801 229.65 194.305 229.37 194.884 229.165C195.481 228.959 196.181 228.857 196.984 228.857ZM196.536 230.929C195.528 230.929 194.716 231.125 194.1 231.517C193.484 231.89 193.036 232.459 192.756 233.225C192.476 233.99 192.327 234.961 192.308 236.137V236.613C192.308 237.845 192.439 238.89 192.7 239.749C192.961 240.607 193.4 241.261 194.016 241.709C194.651 242.157 195.509 242.381 196.592 242.381C197.507 242.381 198.253 242.129 198.832 241.625C199.429 241.121 199.868 240.439 200.148 239.581C200.447 238.703 200.596 237.705 200.596 236.585C200.596 234.867 200.26 233.495 199.588 232.469C198.935 231.442 197.917 230.929 196.536 230.929ZM213.366 228.857C214.654 228.857 215.756 229.137 216.67 229.697C217.604 230.257 218.313 231.05 218.798 232.077C219.302 233.085 219.554 234.27 219.554 235.633V237.117H209.278C209.316 238.815 209.745 240.113 210.566 241.009C211.406 241.886 212.573 242.325 214.066 242.325C215.018 242.325 215.858 242.241 216.586 242.073C217.333 241.886 218.098 241.625 218.882 241.289V243.445C218.117 243.781 217.361 244.023 216.614 244.173C215.868 244.341 214.981 244.425 213.954 244.425C212.536 244.425 211.276 244.135 210.174 243.557C209.092 242.978 208.242 242.119 207.626 240.981C207.029 239.823 206.73 238.414 206.73 236.753C206.73 235.11 207.001 233.701 207.542 232.525C208.102 231.349 208.877 230.443 209.866 229.809C210.874 229.174 212.041 228.857 213.366 228.857ZM213.338 230.873C212.162 230.873 211.229 231.255 210.538 232.021C209.866 232.767 209.465 233.813 209.334 235.157H216.978C216.978 234.298 216.848 233.551 216.586 232.917C216.325 232.282 215.924 231.787 215.382 231.433C214.86 231.059 214.178 230.873 213.338 230.873ZM230.875 228.857C231.155 228.857 231.454 228.875 231.771 228.913C232.107 228.931 232.396 228.969 232.639 229.025L232.331 231.293C232.088 231.237 231.818 231.19 231.519 231.153C231.239 231.115 230.968 231.097 230.707 231.097C230.128 231.097 229.578 231.218 229.055 231.461C228.532 231.703 228.066 232.049 227.655 232.497C227.244 232.926 226.918 233.449 226.675 234.065C226.451 234.681 226.339 235.371 226.339 236.137V244.145H223.875V229.137H225.891L226.171 231.881H226.283C226.6 231.321 226.983 230.817 227.431 230.369C227.879 229.902 228.392 229.538 228.971 229.277C229.55 228.997 230.184 228.857 230.875 228.857ZM240.715 244.425C238.848 244.425 237.355 243.781 236.235 242.493C235.115 241.186 234.555 239.245 234.555 236.669C234.555 234.093 235.115 232.151 236.235 230.845C237.373 229.519 238.876 228.857 240.743 228.857C241.527 228.857 242.208 228.959 242.787 229.165C243.365 229.351 243.869 229.613 244.299 229.949C244.728 230.285 245.092 230.658 245.391 231.069H245.559C245.54 230.826 245.503 230.471 245.447 230.005C245.409 229.519 245.391 229.137 245.391 228.857V222.865H247.855V244.145H245.867L245.503 242.129H245.391C245.092 242.558 244.728 242.95 244.299 243.305C243.869 243.641 243.356 243.911 242.759 244.117C242.18 244.322 241.499 244.425 240.715 244.425ZM241.107 242.381C242.693 242.381 243.804 241.951 244.439 241.093C245.092 240.215 245.419 238.899 245.419 237.145V236.697C245.419 234.83 245.111 233.402 244.495 232.413C243.879 231.405 242.74 230.901 241.079 230.901C239.753 230.901 238.755 231.433 238.083 232.497C237.429 233.542 237.103 234.951 237.103 236.725C237.103 238.517 237.429 239.907 238.083 240.897C238.755 241.886 239.763 242.381 241.107 242.381ZM258.805 228.885C260.635 228.885 261.988 229.286 262.865 230.089C263.743 230.891 264.181 232.17 264.181 233.925V244.145H262.389L261.913 242.017H261.801C261.372 242.558 260.924 243.015 260.457 243.389C260.009 243.743 259.487 244.005 258.889 244.173C258.311 244.341 257.601 244.425 256.761 244.425C255.865 244.425 255.053 244.266 254.325 243.949C253.616 243.631 253.056 243.146 252.645 242.493C252.235 241.821 252.029 240.981 252.029 239.973C252.029 238.479 252.617 237.331 253.793 236.529C254.969 235.707 256.78 235.259 259.225 235.185L261.773 235.101V234.205C261.773 232.954 261.503 232.086 260.961 231.601C260.42 231.115 259.655 230.873 258.665 230.873C257.881 230.873 257.135 230.994 256.425 231.237C255.716 231.461 255.053 231.722 254.437 232.021L253.681 230.173C254.335 229.818 255.109 229.519 256.005 229.277C256.901 229.015 257.835 228.885 258.805 228.885ZM259.533 236.893C257.667 236.967 256.369 237.266 255.641 237.789C254.932 238.311 254.577 239.049 254.577 240.001C254.577 240.841 254.829 241.457 255.333 241.849C255.856 242.241 256.519 242.437 257.321 242.437C258.591 242.437 259.645 242.091 260.485 241.401C261.325 240.691 261.745 239.609 261.745 238.153V236.809L259.533 236.893ZM285.781 228.857C287.479 228.857 288.749 229.295 289.589 230.173C290.429 231.031 290.849 232.431 290.849 234.373V244.145H288.413V234.485C288.413 233.309 288.161 232.422 287.657 231.825C287.171 231.227 286.406 230.929 285.361 230.929C283.905 230.929 282.859 231.349 282.225 232.189C281.609 233.029 281.301 234.251 281.301 235.857V244.145H278.865V234.485C278.865 233.701 278.753 233.047 278.529 232.525C278.305 231.983 277.969 231.582 277.521 231.321C277.073 231.059 276.494 230.929 275.785 230.929C274.777 230.929 273.983 231.143 273.405 231.573C272.826 231.983 272.406 232.59 272.145 233.393C271.902 234.195 271.781 235.185 271.781 236.361V244.145H269.317V229.137H271.305L271.669 231.181H271.809C272.126 230.658 272.509 230.229 272.957 229.893C273.423 229.538 273.937 229.277 274.497 229.109C275.057 228.941 275.635 228.857 276.233 228.857C277.39 228.857 278.351 229.062 279.117 229.473C279.901 229.883 280.47 230.518 280.825 231.377H280.965C281.469 230.518 282.15 229.883 283.009 229.473C283.886 229.062 284.81 228.857 285.781 228.857Z" fill="white"/>
<defs>
<filter id="filter0_d_6197_507" x="32.3037" y="215.145" width="72" height="38" filterUnits="userSpaceOnUse" color-interpolation-filters="sRGB">
<feFlood flood-opacity="0" result="BackgroundImageFix"/>
<feColorMatrix in="SourceAlpha" type="matrix" values="0 0 0 0 0 0 0 0 0 0 0 0 0 0 0 0 0 0 127 0" result="hardAlpha"/>
<feOffset dy="2"/>
<feColorMatrix type="matrix" values="0 0 0 0 0.113725 0 0 0 0 0.168627 0 0 0 0 0.184314 0 0 0 0.25 0"/>
<feBlend mode="normal" in2="BackgroundImageFix" result="effect1_dropShadow_6197_507"/>
<feBlend mode="normal" in="SourceGraphic" in2="effect1_dropShadow_6197_507" result="shape"/>
</filter>
</defs>
</svg>
