<svg width="601" height="270" viewBox="0 0 601 270" fill="none" xmlns="http://www.w3.org/2000/svg">
<rect x="0.660645" y="0.44043" width="600" height="269" rx="16" fill="#11181E"/>
<path d="M57.457 34.7603L81.3834 41.6723C83.0618 42.1572 83.3554 44.4099 81.8573 45.3088L77.7187 47.7919C76.8819 48.294 76.7397 49.4488 77.4297 50.1388L92.6815 65.3906C95.8696 68.5787 97.6607 72.9027 97.6607 77.4114V117.44C97.6607 119.097 96.3176 120.44 94.6607 120.44H90.6607C89.0039 120.44 87.6607 119.097 87.6607 117.44L87.6607 77.4114C87.6607 75.5549 86.9232 73.7744 85.6105 72.4617L70.3588 57.21C69.6687 56.52 68.5139 56.6621 68.0119 57.4989L65.529 61.6371C64.6301 63.1352 62.3774 62.8416 61.8926 61.1631L54.9805 37.2368C54.5436 35.7243 55.9445 34.3233 57.457 34.7603Z" fill="white"/>
<g opacity="0.4">
<path d="M178.479 57.2803L166.448 35.4746C165.688 34.0957 163.707 34.0957 162.946 35.4746L150.915 57.2803C150.071 58.8096 151.457 60.6104 153.151 60.1865L157.797 59.0254C158.744 58.7888 159.661 59.5048 159.661 60.4806V117.301C159.661 118.958 161.004 120.301 162.661 120.301H166.661C168.317 120.301 169.661 118.958 169.661 117.301V60.4621C169.661 59.4863 170.578 58.7703 171.524 59.0069L176.243 60.1865C177.938 60.6104 179.323 58.8096 178.479 57.2803Z" fill="white"/>
</g>
<path d="M271.864 34.7603L247.938 41.6723C246.26 42.1572 245.966 44.4099 247.464 45.3088L251.603 47.7919C252.439 48.294 252.582 49.4488 251.892 50.1388L236.64 65.3906C233.452 68.5787 231.661 72.9027 231.661 77.4114V117.44C231.661 119.097 233.004 120.44 234.661 120.44H238.661C240.317 120.44 241.661 119.097 241.661 117.44L241.661 77.4114C241.661 75.5549 242.398 73.7744 243.711 72.4617L258.963 57.21C259.653 56.52 260.807 56.6621 261.309 57.4989L263.792 61.6371C264.691 63.1352 266.944 62.8416 267.429 61.1631L274.341 37.2368C274.778 35.7243 273.377 34.3233 271.864 34.7603Z" fill="#707478"/>
<path d="M34.6206 169.28C34.6206 167.627 34.7273 166 34.9406 164.4C35.1806 162.8 35.5806 161.294 36.1406 159.88C36.7273 158.44 37.5273 157.174 38.5406 156.08C39.554 154.96 40.834 154.094 42.3806 153.48C43.954 152.84 45.8473 152.52 48.0606 152.52C48.6206 152.52 49.2473 152.547 49.9406 152.6C50.6606 152.627 51.2473 152.707 51.7006 152.84V156.4C51.194 156.24 50.634 156.12 50.0206 156.04C49.434 155.96 48.8473 155.92 48.2606 155.92C46.4206 155.92 44.9006 156.2 43.7006 156.76C42.5006 157.32 41.554 158.094 40.8606 159.08C40.1673 160.067 39.6606 161.214 39.3406 162.52C39.0206 163.8 38.8206 165.2 38.7406 166.72H38.9806C39.3806 166.08 39.874 165.507 40.4606 165C41.0473 164.494 41.7673 164.094 42.6206 163.8C43.474 163.507 44.4606 163.36 45.5806 163.36C47.234 163.36 48.674 163.707 49.9006 164.4C51.154 165.094 52.114 166.094 52.7806 167.4C53.474 168.707 53.8206 170.294 53.8206 172.16C53.8206 174.16 53.434 175.894 52.6606 177.36C51.914 178.8 50.8473 179.907 49.4606 180.68C48.1006 181.454 46.4606 181.84 44.5406 181.84C43.154 181.84 41.8606 181.587 40.6606 181.08C39.4606 180.574 38.4073 179.8 37.5006 178.76C36.594 177.72 35.8873 176.414 35.3806 174.84C34.874 173.24 34.6206 171.387 34.6206 169.28ZM44.5006 178.32C46.0206 178.32 47.2606 177.827 48.2206 176.84C49.1806 175.827 49.6606 174.267 49.6606 172.16C49.6606 170.48 49.234 169.147 48.3806 168.16C47.554 167.174 46.3006 166.68 44.6206 166.68C43.474 166.68 42.474 166.92 41.6206 167.4C40.7673 167.88 40.1006 168.494 39.6206 169.24C39.1406 169.987 38.9006 170.747 38.9006 171.52C38.9006 172.347 39.0206 173.16 39.2606 173.96C39.5006 174.76 39.8473 175.494 40.3006 176.16C40.7806 176.827 41.3673 177.36 42.0606 177.76C42.754 178.134 43.5673 178.32 44.5006 178.32ZM77.1313 167.12C77.1313 169.44 76.9446 171.507 76.5713 173.32C76.2246 175.134 75.6646 176.68 74.8913 177.96C74.1446 179.214 73.1446 180.174 71.8913 180.84C70.6646 181.507 69.1846 181.84 67.4513 181.84C65.2646 181.84 63.4646 181.254 62.0513 180.08C60.6379 178.907 59.5846 177.227 58.8913 175.04C58.1979 172.827 57.8513 170.187 57.8513 167.12C57.8513 164.027 58.1579 161.387 58.7713 159.2C59.4113 157.014 60.4379 155.347 61.8513 154.2C63.2646 153.027 65.1313 152.44 67.4513 152.44C69.6379 152.44 71.4379 153.027 72.8513 154.2C74.2913 155.347 75.3579 157.014 76.0513 159.2C76.7713 161.387 77.1313 164.027 77.1313 167.12ZM62.0913 167.12C62.0913 169.6 62.2646 171.667 62.6113 173.32C62.9579 174.974 63.5179 176.214 64.2913 177.04C65.0913 177.867 66.1446 178.28 67.4513 178.28C68.7579 178.28 69.7979 177.88 70.5713 177.08C71.3713 176.254 71.9446 175.014 72.2913 173.36C72.6646 171.68 72.8513 169.6 72.8513 167.12C72.8513 164.64 72.6646 162.587 72.2913 160.96C71.9446 159.307 71.3713 158.067 70.5713 157.24C69.7979 156.414 68.7579 156 67.4513 156C66.1446 156 65.0913 156.414 64.2913 157.24C63.5179 158.067 62.9579 159.307 62.6113 160.96C62.2646 162.587 62.0913 164.64 62.0913 167.12ZM100.522 167.12C100.522 169.44 100.335 171.507 99.9619 173.32C99.6152 175.134 99.0552 176.68 98.2819 177.96C97.5352 179.214 96.5352 180.174 95.2819 180.84C94.0552 181.507 92.5752 181.84 90.8419 181.84C88.6552 181.84 86.8552 181.254 85.4419 180.08C84.0286 178.907 82.9752 177.227 82.2819 175.04C81.5886 172.827 81.2419 170.187 81.2419 167.12C81.2419 164.027 81.5486 161.387 82.1619 159.2C82.8019 157.014 83.8286 155.347 85.2419 154.2C86.6552 153.027 88.5219 152.44 90.8419 152.44C93.0286 152.44 94.8286 153.027 96.2419 154.2C97.6819 155.347 98.7486 157.014 99.4419 159.2C100.162 161.387 100.522 164.027 100.522 167.12ZM85.4819 167.12C85.4819 169.6 85.6552 171.667 86.0019 173.32C86.3486 174.974 86.9086 176.214 87.6819 177.04C88.4819 177.867 89.5352 178.28 90.8419 178.28C92.1486 178.28 93.1886 177.88 93.9619 177.08C94.7619 176.254 95.3352 175.014 95.6819 173.36C96.0552 171.68 96.2419 169.6 96.2419 167.12C96.2419 164.64 96.0552 162.587 95.6819 160.96C95.3352 159.307 94.7619 158.067 93.9619 157.24C93.1886 156.414 92.1486 156 90.8419 156C89.5352 156 88.4819 156.414 87.6819 157.24C86.9086 158.067 86.3486 159.307 86.0019 160.96C85.6552 162.587 85.4819 164.64 85.4819 167.12ZM141.203 159.48C143.63 159.48 145.456 160.107 146.683 161.36C147.91 162.614 148.523 164.627 148.523 167.4V181.44H144.283V167.96C144.283 166.307 143.95 165.067 143.283 164.24C142.643 163.387 141.63 162.96 140.243 162.96C138.323 162.96 136.95 163.56 136.123 164.76C135.296 165.934 134.883 167.64 134.883 169.88V181.44H130.683V167.96C130.683 166.867 130.523 165.947 130.203 165.2C129.91 164.454 129.47 163.894 128.883 163.52C128.296 163.147 127.536 162.96 126.603 162.96C125.27 162.96 124.216 163.254 123.443 163.84C122.67 164.427 122.11 165.294 121.763 166.44C121.443 167.56 121.283 168.934 121.283 170.56V181.44H117.043V159.88H120.403L121.003 162.76H121.243C121.696 162.014 122.243 161.4 122.883 160.92C123.55 160.44 124.283 160.08 125.083 159.84C125.883 159.6 126.71 159.48 127.563 159.48C129.19 159.48 130.563 159.774 131.683 160.36C132.803 160.92 133.616 161.787 134.123 162.96H134.443C135.136 161.76 136.096 160.88 137.323 160.32C138.55 159.76 139.843 159.48 141.203 159.48Z" fill="white"/>
<path d="M41.0886 219.448C42.75 219.448 44.1406 219.607 45.2606 219.924C46.3993 220.242 47.2486 220.764 47.8086 221.492C48.3873 222.22 48.6766 223.191 48.6766 224.404C48.6766 225.188 48.5273 225.888 48.2286 226.504C47.9486 227.102 47.5193 227.606 46.9406 228.016C46.3806 228.408 45.69 228.679 44.8686 228.828V228.968C45.7086 229.099 46.4646 229.342 47.1366 229.696C47.8273 230.051 48.3686 230.555 48.7606 231.208C49.1526 231.862 49.3486 232.711 49.3486 233.756C49.3486 234.97 49.0686 236.006 48.5086 236.864C47.9486 237.704 47.146 238.348 46.1006 238.796C45.074 239.226 43.842 239.44 42.4046 239.44H35.3766V219.448H41.0886ZM41.5926 227.96C43.31 227.96 44.486 227.69 45.1206 227.148C45.7553 226.588 46.0726 225.767 46.0726 224.684C46.0726 223.583 45.6806 222.799 44.8966 222.332C44.1313 221.847 42.8993 221.604 41.2006 221.604H37.8966V227.96H41.5926ZM37.8966 230.06V237.312H41.9286C43.702 237.312 44.934 236.967 45.6246 236.276C46.3153 235.586 46.6606 234.68 46.6606 233.56C46.6606 232.851 46.502 232.235 46.1846 231.712C45.886 231.19 45.3726 230.788 44.6446 230.508C43.9353 230.21 42.9646 230.06 41.7326 230.06H37.8966ZM66.2956 224.432V239.44H64.2796L63.9156 237.452H63.8036C63.4862 237.975 63.0756 238.404 62.5716 238.74C62.0676 239.076 61.5169 239.319 60.9196 239.468C60.3222 239.636 59.6969 239.72 59.0436 239.72C57.8489 239.72 56.8409 239.534 56.0196 239.16C55.2169 238.768 54.6102 238.171 54.1996 237.368C53.7889 236.566 53.5836 235.53 53.5836 234.26V224.432H56.0756V234.092C56.0756 235.287 56.3462 236.183 56.8876 236.78C57.4289 237.378 58.2689 237.676 59.4076 237.676C60.5276 237.676 61.4049 237.471 62.0396 237.06C62.6929 236.631 63.1502 236.015 63.4116 235.212C63.6916 234.391 63.8316 233.402 63.8316 232.244V224.432H66.2956ZM56.1036 220.372C56.1036 219.887 56.2342 219.542 56.4956 219.336C56.7569 219.112 57.0649 219 57.4196 219C57.7742 219 58.0822 219.112 58.3436 219.336C58.6049 219.542 58.7356 219.887 58.7356 220.372C58.7356 220.839 58.6049 221.194 58.3436 221.436C58.0822 221.66 57.7742 221.772 57.4196 221.772C57.0649 221.772 56.7569 221.66 56.4956 221.436C56.2342 221.194 56.1036 220.839 56.1036 220.372ZM61.3676 220.372C61.3676 219.887 61.4889 219.542 61.7316 219.336C61.9929 219.112 62.3009 219 62.6556 219C63.0102 219 63.3182 219.112 63.5796 219.336C63.8409 219.542 63.9716 219.887 63.9716 220.372C63.9716 220.839 63.8409 221.194 63.5796 221.436C63.3182 221.66 63.0102 221.772 62.6556 221.772C62.3009 221.772 61.9929 221.66 61.7316 221.436C61.4889 221.194 61.3676 220.839 61.3676 220.372ZM74.0242 239.44H71.5602V218.16H74.0242V239.44ZM84.9629 224.18C86.7923 224.18 88.1456 224.582 89.0229 225.384C89.9003 226.187 90.3389 227.466 90.3389 229.22V239.44H88.5469L88.0709 237.312H87.9589C87.5296 237.854 87.0816 238.311 86.6149 238.684C86.1669 239.039 85.6443 239.3 85.0469 239.468C84.4683 239.636 83.7589 239.72 82.9189 239.72C82.0229 239.72 81.2109 239.562 80.4829 239.244C79.7736 238.927 79.2136 238.442 78.8029 237.788C78.3923 237.116 78.1869 236.276 78.1869 235.268C78.1869 233.775 78.7749 232.627 79.9509 231.824C81.1269 231.003 82.9376 230.555 85.3829 230.48L87.9309 230.396V229.5C87.9309 228.25 87.6603 227.382 87.1189 226.896C86.5776 226.411 85.8123 226.168 84.8229 226.168C84.0389 226.168 83.2923 226.29 82.5829 226.532C81.8736 226.756 81.2109 227.018 80.5949 227.316L79.8389 225.468C80.4923 225.114 81.2669 224.815 82.1629 224.572C83.0589 224.311 83.9923 224.18 84.9629 224.18ZM85.6909 232.188C83.8243 232.263 82.5269 232.562 81.7989 233.084C81.0896 233.607 80.7349 234.344 80.7349 235.296C80.7349 236.136 80.9869 236.752 81.4909 237.144C82.0136 237.536 82.6763 237.732 83.4789 237.732C84.7483 237.732 85.8029 237.387 86.6429 236.696C87.4829 235.987 87.9029 234.904 87.9029 233.448V232.104L85.6909 232.188ZM97.9382 224.404C97.9382 224.759 97.9196 225.123 97.8822 225.496C97.8636 225.87 97.8356 226.206 97.7982 226.504H97.9662C98.2836 225.982 98.6849 225.552 99.1702 225.216C99.6556 224.88 100.197 224.628 100.794 224.46C101.392 224.274 102.008 224.18 102.642 224.18C103.856 224.18 104.864 224.376 105.666 224.768C106.488 225.142 107.104 225.73 107.514 226.532C107.925 227.335 108.13 228.38 108.13 229.668V239.44H105.694V229.836C105.694 228.623 105.424 227.718 104.882 227.12C104.341 226.523 103.492 226.224 102.334 226.224C101.214 226.224 100.337 226.439 99.7022 226.868C99.0676 227.279 98.6102 227.895 98.3302 228.716C98.0689 229.519 97.9382 230.508 97.9382 231.684V239.44H95.4742V218.16H97.9382V224.404Z" fill="white"/>
</svg>
